<?xml version="1.0" standalone="no"?>
<!DOCTYPE svg PUBLIC "-//W3C//DTD SVG 20010904//EN"
 "http://www.w3.org/TR/2001/REC-SVG-20010904/DTD/svg10.dtd">
<svg version="1.0" xmlns="http://www.w3.org/2000/svg"
 width="793.000000pt" height="539.000000pt" viewBox="0 0 793.000000 539.000000"
 preserveAspectRatio="xMidYMid meet">

<g transform="translate(0.000000,539.000000) scale(0.100000,-0.100000)"
fill="#000000" stroke="none">
<path d="M6910 5021 c0 -28 5 -51 10 -51 6 0 10 20 10 44 0 25 -4 48 -10 51
-6 4 -10 -13 -10 -44z"/>
<path d="M2693 4995 c0 -38 2 -53 4 -32 2 20 2 52 0 70 -2 17 -4 1 -4 -38z"/>
<path d="M5462 5043 c-17 -31 -25 -83 -13 -83 6 0 11 9 11 20 0 11 5 20 10 20
6 0 10 -6 10 -14 0 -8 5 -18 12 -22 8 -5 9 0 6 14 -4 12 -2 25 3 28 12 7 12
44 0 44 -5 0 -8 -8 -7 -17 0 -10 -7 -19 -17 -21 -16 -3 -17 -1 -7 18 6 12 9
24 7 27 -3 2 -10 -4 -15 -14z"/>
<path d="M5543 4995 c0 -38 2 -53 4 -32 2 20 2 52 0 70 -2 17 -4 1 -4 -38z"/>
<path d="M5591 5016 c-13 -55 -13 -56 -1 -56 6 0 10 9 10 19 0 13 8 21 22 23
40 5 32 57 -8 58 -7 0 -17 -20 -23 -44z m45 5 c-4 -6 -14 -11 -22 -11 -12 0
-13 4 -3 21 7 14 14 18 21 11 6 -6 7 -15 4 -21z"/>
<path d="M6760 5015 c0 -25 3 -45 8 -45 4 0 7 20 7 45 0 25 -3 45 -7 45 -5 0
-8 -20 -8 -45z"/>
<path d="M6795 5027 c2 -37 11 -57 27 -57 7 0 7 4 0 13 -6 7 -10 26 -9 42 1
15 -3 29 -8 32 -6 2 -10 -11 -10 -30z"/>
<path d="M6960 5034 c-14 -36 -13 -49 8 -71 9 -10 13 -13 8 -6 -5 7 -6 33 -4
58 6 51 2 57 -12 19z"/>
<path d="M7020 5041 c-16 -30 -12 -59 10 -81 23 -23 31 -25 24 -6 -3 8 0 17 6
21 16 10 30 52 24 70 -9 21 -51 19 -64 -4z m50 -14 c0 -25 -17 -47 -37 -47
-16 0 -17 24 -3 51 15 27 40 24 40 -4z"/>
<path d="M7186 5021 c-29 -45 -31 -51 -16 -51 6 0 9 5 8 12 -2 6 5 14 15 16
10 2 17 -2 17 -12 0 -9 5 -16 10 -16 9 0 4 77 -6 88 -1 2 -14 -14 -28 -37z
m24 4 c0 -8 -4 -15 -10 -15 -5 0 -7 7 -4 15 4 8 8 15 10 15 2 0 4 -7 4 -15z"/>
<path d="M7273 5031 c9 -24 9 -39 -1 -63 -10 -30 -10 -31 3 -14 19 25 19 80 1
96 -13 10 -13 7 -3 -19z"/>
<path d="M2440 5005 c0 -25 5 -45 10 -45 6 0 10 20 10 45 0 25 -4 45 -10 45
-5 0 -10 -20 -10 -45z"/>
<path d="M2487 5034 c3 -9 0 -20 -8 -26 -12 -8 -11 -9 1 -5 17 4 27 47 11 47
-6 0 -8 -7 -4 -16z"/>
<path d="M2572 5038 c-17 -17 -15 -71 4 -94 15 -18 15 -18 5 3 -15 29 -14 76
1 91 7 7 10 12 7 12 -3 0 -10 -5 -17 -12z"/>
<path d="M2748 5025 c3 -16 -2 -33 -13 -45 -10 -11 -15 -20 -10 -20 4 0 14 8
21 18 12 16 13 16 19 0 4 -10 11 -18 16 -18 5 0 3 11 -3 25 -9 21 -8 28 7 45
10 11 15 20 10 20 -4 0 -14 -8 -21 -17 -13 -17 -13 -17 -14 0 0 9 -4 17 -9 17
-4 0 -6 -11 -3 -25z"/>
<path d="M2843 5021 c8 -22 8 -36 -2 -57 -11 -24 -10 -26 3 -14 20 16 21 74 2
90 -13 10 -13 7 -3 -19z"/>
<path d="M3771 5033 c-1 -13 8 -27 19 -33 28 -15 25 -28 -7 -33 l-28 -4 28 -2
c36 -1 48 26 20 48 -11 9 -23 23 -26 31 -4 10 -6 7 -6 -7z"/>
<path d="M4012 5038 c-19 -19 -13 -98 8 -98 5 0 3 13 -3 29 -8 22 -8 36 1 55
13 29 12 32 -6 14z"/>
<path d="M4074 5020 c1 -16 7 -32 14 -35 7 -3 10 -9 7 -15 -3 -5 -1 -10 5 -10
8 0 10 9 6 26 -5 18 -2 32 10 45 9 11 14 19 9 19 -4 0 -14 -8 -21 -17 -13 -17
-13 -17 -14 0 0 9 -4 17 -9 17 -4 0 -8 -13 -7 -30z"/>
<path d="M4276 5025 c4 -18 1 -32 -11 -45 -10 -11 -13 -20 -8 -20 6 0 14 7 17
16 3 8 10 12 16 9 6 -4 8 -11 5 -16 -4 -5 1 -9 9 -9 13 0 14 4 4 25 -9 21 -8
28 7 45 10 11 15 20 10 20 -4 0 -14 -8 -21 -17 -13 -17 -13 -17 -14 0 0 9 -5
17 -10 17 -6 0 -8 -11 -4 -25z"/>
<path d="M4427 5006 c3 -25 2 -52 -3 -59 -5 -7 -1 -4 9 7 13 14 17 29 13 50
-10 50 -24 51 -19 2z"/>
<path d="M5268 5006 c-2 -29 1 -46 8 -46 6 0 9 17 7 42 -4 57 -10 58 -15 4z"/>
<path d="M5305 5025 c0 -14 5 -23 10 -22 6 2 10 12 10 22 0 10 -4 20 -10 22
-5 2 -10 -8 -10 -22z"/>
<path d="M5390 5031 c-14 -27 -13 -54 5 -77 13 -18 14 -17 6 11 -4 17 -4 42 0
58 9 32 4 35 -11 8z"/>
<path d="M5733 5005 c-6 -25 -6 -45 -2 -45 5 0 9 9 9 20 0 14 7 20 21 20 16 0
20 -5 16 -20 -3 -11 -2 -20 2 -20 4 0 12 20 18 45 10 43 1 66 -10 25 -3 -11
-13 -20 -22 -20 -12 0 -16 6 -12 20 3 11 2 20 -2 20 -4 0 -12 -20 -18 -45z"/>
<path d="M5851 5024 c7 -21 6 -39 -1 -59 -9 -25 -9 -26 5 -15 19 16 19 60 0
86 -14 17 -14 17 -4 -12z"/>
<path d="M6850 5025 c-18 -22 -8 -50 20 -52 24 -3 24 -2 3 6 -15 7 -20 16 -16
30 5 21 23 29 23 11 0 -5 5 -10 11 -10 8 0 8 5 -1 15 -16 19 -24 19 -40 0z"/>
<path d="M3840 4995 c0 -19 4 -35 8 -35 4 0 6 16 4 35 -2 19 -6 35 -8 35 -2 0
-4 -16 -4 -35z"/>
<path d="M3880 4997 c0 -20 3 -37 8 -37 9 0 8 57 -1 67 -4 3 -7 -10 -7 -30z"/>
<path d="M3918 4994 c2 -19 7 -34 11 -34 11 0 8 59 -3 63 -8 3 -10 -7 -8 -29z"/>
<path d="M3958 4995 c2 -19 7 -35 11 -35 4 0 5 16 3 35 -2 19 -7 35 -11 35 -4
0 -5 -16 -3 -35z"/>
<path d="M2614 5005 c-9 -23 3 -45 23 -44 17 1 17 2 0 6 -14 4 -17 11 -13 29
7 26 -1 33 -10 9z"/>
<path d="M4366 4987 c3 -10 9 -15 12 -12 3 3 0 11 -7 18 -10 9 -11 8 -5 -6z"/>
<path d="M4150 4962 c0 -18 5 -32 10 -32 6 0 8 11 4 28 -10 39 -14 40 -14 4z"/>
<path d="M2501 4953 c1 -22 2 -23 6 -8 3 11 10 23 17 27 7 5 5 8 -6 8 -13 0
-18 -7 -17 -27z"/>
<path d="M4055 4970 c-3 -5 -1 -10 4 -10 6 0 11 5 11 10 0 6 -2 10 -4 10 -3 0
-8 -4 -11 -10z"/>
<path d="M5324 4955 c1 -33 16 -33 16 0 0 14 -4 25 -9 25 -5 0 -8 -11 -7 -25z"/>
<path d="M7106 4963 c-6 -14 -5 -15 5 -6 7 7 10 15 7 18 -3 3 -9 -2 -12 -12z"/>
<path d="M4200 4959 c0 -5 5 -7 10 -4 6 3 10 8 10 11 0 2 -4 4 -10 4 -5 0 -10
-5 -10 -11z"/>
<path d="M4340 4940 c0 -5 10 -10 23 -10 18 0 19 2 7 10 -19 13 -30 13 -30 0z"/>
<path d="M3102 4873 c-5 -10 -6 -29 -1 -43 6 -21 7 -22 9 -5 1 11 3 30 4 43 3
27 0 28 -12 5z"/>
<path d="M5551 4852 c-1 -39 1 -43 22 -40 14 2 23 11 25 26 3 20 -2 24 -25 21
-4 0 -10 8 -14 18 -5 12 -8 3 -8 -25z m39 -18 c0 -8 -7 -14 -15 -14 -15 0 -21
21 -9 33 10 9 24 -2 24 -19z"/>
<path d="M5670 4851 c0 -38 2 -42 22 -39 25 3 36 34 18 52 -9 8 -10 4 -4 -18
5 -22 4 -28 -7 -24 -8 3 -15 17 -16 32 -3 46 -13 43 -13 -3z"/>
<path d="M5773 4850 c0 -25 2 -35 4 -22 2 12 2 32 0 45 -2 12 -4 2 -4 -23z"/>
<path d="M6018 4878 c-2 -7 -1 -26 3 -43 6 -28 7 -26 8 13 1 42 -3 53 -11 30z"/>
<path d="M6498 4868 c-2 -13 -1 -34 3 -48 5 -19 7 -14 8 23 1 50 -4 62 -11 25z"/>
<path d="M6883 4855 c0 -22 2 -30 4 -17 2 12 2 30 0 40 -3 9 -5 -1 -4 -23z"/>
<path d="M2184 4866 c-3 -8 -4 -27 -2 -43 3 -23 5 -20 9 15 5 43 2 53 -7 28z"/>
<path d="M2631 4848 c-1 -21 3 -38 8 -38 5 0 8 7 7 16 0 9 5 19 13 22 10 3 12
-1 8 -17 -3 -11 -1 -21 4 -21 5 0 9 11 9 25 0 18 -5 25 -19 25 -11 0 -22 6
-24 13 -3 6 -6 -5 -6 -25z"/>
<path d="M2761 4849 c-1 -40 19 -58 38 -35 14 16 4 46 -14 46 -7 0 -16 6 -18
13 -3 6 -6 -4 -6 -24z m32 -5 c9 -9 -4 -35 -14 -28 -5 3 -9 12 -9 20 0 14 12
19 23 8z"/>
<path d="M2853 4845 c0 -22 2 -30 4 -17 2 12 2 30 0 40 -3 9 -5 -1 -4 -23z"/>
<path d="M3753 4835 c0 -27 2 -38 4 -22 2 15 2 37 0 50 -2 12 -4 0 -4 -28z"/>
<path d="M5097 4860 c-3 -11 -1 -33 3 -48 7 -23 8 -21 9 21 1 50 -3 60 -12 27z"/>
<path d="M5827 4873 c-7 -10 3 -63 12 -63 7 0 6 58 -1 66 -3 3 -8 2 -11 -3z"/>
<path d="M2907 4863 c-2 -5 -1 -19 3 -33 l6 -25 6 28 c5 26 -5 47 -15 30z"/>
<path d="M4360 4846 c0 -14 5 -28 12 -32 8 -5 9 -2 5 9 -3 9 -2 19 4 22 11 7
3 25 -12 25 -5 0 -9 -11 -9 -24z"/>
<path d="M5141 4861 c-17 -11 -10 -45 9 -47 9 0 10 1 3 3 -15 5 -17 29 -4 37
5 4 11 0 14 -6 2 -7 7 -10 11 -7 11 10 -19 28 -33 20z"/>
<path d="M5230 4851 c-19 -36 -13 -61 15 -61 16 0 25 6 25 15 0 8 -7 15 -16
15 -14 0 -14 1 0 16 9 8 16 20 16 25 0 17 -29 9 -40 -10z m27 -47 c-3 -3 -12
-4 -19 -1 -8 3 -5 6 6 6 11 1 17 -2 13 -5z"/>
<path d="M5393 4863 c-8 -3 -13 -21 -12 -41 0 -20 3 -31 6 -24 2 6 11 12 18
12 7 0 15 6 18 14 7 18 -14 45 -30 39z m13 -40 c-11 -11 -19 6 -11 24 8 17 8
17 12 0 3 -10 2 -21 -1 -24z"/>
<path d="M5453 4863 c-7 -2 -12 -17 -12 -31 1 -21 2 -23 6 -7 3 11 10 26 15
33 11 13 10 13 -9 5z"/>
<path d="M5490 4855 c-16 -19 -5 -47 17 -43 11 2 18 12 18 27 0 29 -17 37 -35
16z m30 -21 c0 -8 -7 -14 -15 -14 -15 0 -21 21 -9 33 10 9 24 -2 24 -19z"/>
<path d="M5638 4845 c2 -15 0 -25 -7 -25 -7 0 -9 5 -6 10 3 6 1 10 -5 10 -18
0 -6 -25 13 -28 12 -3 17 4 17 22 0 14 -4 27 -9 30 -4 3 -6 -6 -3 -19z"/>
<path d="M5979 4858 c7 -9 10 -22 6 -28 -11 -18 -25 -11 -25 13 0 17 -2 19 -9
8 -13 -20 -2 -41 20 -41 28 0 35 28 13 48 -17 16 -17 16 -5 0z"/>
<path d="M6537 4864 c-13 -13 -7 -42 9 -48 26 -10 29 -7 8 9 -18 14 -18 14 4
15 14 0 22 5 20 13 -5 14 -31 21 -41 11z m30 -10 c-3 -3 -12 -4 -19 -1 -8 3
-5 6 6 6 11 1 17 -2 13 -5z"/>
<path d="M6629 4868 c0 -2 -3 -18 -5 -36 -6 -35 17 -55 39 -33 8 8 5 16 -12
32 -12 12 -19 24 -15 28 4 3 9 0 11 -7 5 -13 23 -7 23 9 0 8 -38 14 -41 7z
m31 -58 c0 -5 -7 -10 -15 -10 -8 0 -15 5 -15 10 0 6 7 10 15 10 8 0 15 -4 15
-10z"/>
<path d="M6781 4843 c1 -22 2 -23 6 -8 3 11 10 23 17 27 7 5 5 8 -6 8 -13 0
-18 -7 -17 -27z"/>
<path d="M6824 4855 c-8 -20 2 -45 18 -44 10 0 10 2 1 6 -18 7 -16 23 2 23 8
0 15 7 15 15 0 8 -7 15 -15 15 -9 0 -18 -7 -21 -15z"/>
<path d="M6914 4855 c-8 -20 2 -45 18 -44 10 0 10 2 1 6 -18 7 -16 23 2 23 8
0 15 7 15 15 0 8 -7 15 -15 15 -9 0 -18 -7 -21 -15z"/>
<path d="M6970 4860 c0 -17 17 -47 23 -40 2 3 -2 16 -10 30 -7 14 -13 18 -13
10z"/>
<path d="M7001 4854 c0 -11 3 -14 6 -6 3 7 2 16 -1 19 -3 4 -6 -2 -5 -13z"/>
<path d="M7035 4863 c6 -4 11 -17 13 -28 2 -16 1 -17 -7 -5 -5 8 -13 11 -17 7
-12 -12 11 -28 30 -21 23 9 17 48 -9 52 -11 2 -16 0 -10 -5z"/>
<path d="M7091 4843 c2 -24 2 -25 6 -5 2 12 8 22 13 22 5 0 11 -10 13 -22 4
-20 4 -19 6 5 1 21 -4 27 -19 27 -15 0 -20 -6 -19 -27z"/>
<path d="M7157 4863 c-11 -10 -8 -41 4 -49 6 -3 16 -1 22 6 9 9 9 11 -2 8 -22
-5 -25 29 -4 35 14 4 14 5 2 6 -9 0 -19 -2 -22 -6z"/>
<path d="M7207 4864 c-13 -13 -7 -42 9 -48 26 -10 29 -7 8 9 -18 14 -18 14 4
15 14 0 22 5 20 13 -5 14 -31 21 -41 11z"/>
<path d="M7295 4861 c-3 -6 3 -14 12 -20 16 -9 16 -12 3 -21 -9 -6 -10 -10 -3
-10 18 0 26 19 14 34 -6 7 -8 16 -4 19 3 4 1 7 -5 7 -6 0 -13 -4 -17 -9z"/>
<path d="M7347 4863 c-13 -13 -7 -41 11 -48 14 -5 15 -4 5 6 -18 18 -16 37 5
42 14 4 14 5 1 6 -9 0 -19 -2 -22 -6z"/>
<path d="M7393 4854 c-3 -8 2 -23 11 -32 14 -15 18 -15 31 -1 9 9 13 23 9 32
-8 21 -43 22 -51 1z m37 -14 c0 -11 -4 -20 -9 -20 -14 0 -23 18 -16 30 10 17
25 11 25 -10z"/>
<path d="M7461 4843 c0 -16 3 -22 6 -13 3 8 10 21 16 28 7 8 5 12 -7 12 -11 0
-16 -8 -15 -27z"/>
<path d="M7504 4856 c-7 -18 12 -46 30 -45 7 0 6 2 -1 6 -18 7 -16 23 3 23 20
0 13 24 -9 28 -10 2 -20 -4 -23 -12z"/>
<path d="M2214 4845 c-4 -9 -1 -22 6 -28 10 -9 11 -9 6 1 -5 8 0 12 14 12 13
0 20 5 18 13 -7 19 -37 20 -44 2z"/>
<path d="M2308 4825 c-4 -37 15 -56 36 -35 8 8 6 15 -7 24 -15 12 -16 14 -2
20 21 8 19 26 -4 26 -14 0 -20 -9 -23 -35z m32 -25 c0 -5 -4 -10 -10 -10 -5 0
-10 5 -10 10 0 6 5 10 10 10 6 0 10 -4 10 -10z"/>
<path d="M2461 4823 c0 -21 3 -32 6 -25 2 6 8 10 13 7 12 -8 33 23 26 40 -3 8
-15 15 -26 15 -17 0 -20 -6 -19 -37z m37 10 c-4 -22 -22 -20 -26 1 -2 10 3 16
13 16 10 0 15 -7 13 -17z"/>
<path d="M2521 4833 c0 -16 3 -22 6 -13 3 8 10 21 16 28 7 8 5 12 -7 12 -11 0
-16 -8 -15 -27z"/>
<path d="M2566 4843 c-4 -10 0 -23 10 -32 15 -15 15 -14 5 6 -7 14 -8 24 -1
28 16 10 30 -4 23 -23 -5 -13 -3 -15 7 -5 7 6 10 19 7 27 -8 21 -43 20 -51 -1z"/>
<path d="M2708 4854 c10 -5 9 -9 -5 -19 -10 -8 -14 -17 -9 -22 5 -4 11 -2 13
5 3 6 9 12 14 12 6 0 7 -4 4 -10 -3 -5 -1 -10 5 -10 20 0 6 45 -15 47 -11 2
-14 0 -7 -3z"/>
<path d="M2822 4835 c0 -16 2 -22 5 -12 2 9 2 23 0 30 -3 6 -5 -1 -5 -18z"/>
<path d="M2882 4835 c0 -16 2 -22 5 -12 2 9 2 23 0 30 -3 6 -5 -1 -5 -18z"/>
<path d="M2952 4826 c9 -29 14 -33 20 -22 6 11 3 23 -11 37 l-20 22 11 -37z"/>
<path d="M3037 4853 c-12 -12 -7 -41 7 -46 19 -7 40 18 32 38 -6 15 -28 20
-39 8z m31 -20 c-4 -22 -22 -20 -26 1 -2 10 3 16 13 16 10 0 15 -7 13 -17z"/>
<path d="M3784 4845 c-4 -9 -1 -22 6 -28 10 -9 11 -9 6 1 -5 8 0 12 14 12 13
0 20 5 18 13 -7 19 -37 20 -44 2z"/>
<path d="M3877 4853 c-2 -5 -3 -21 -3 -38 1 -23 6 -30 20 -30 28 0 31 24 4 34
-15 7 -17 10 -7 10 25 1 33 31 9 31 -10 0 -21 -3 -23 -7z m33 -53 c0 -5 -7
-10 -15 -10 -8 0 -15 5 -15 10 0 6 7 10 15 10 8 0 15 -4 15 -10z"/>
<path d="M4030 4849 c0 -6 7 -17 15 -25 8 -9 15 -11 15 -5 0 5 -5 13 -10 16
-6 4 -8 11 -5 16 4 5 1 9 -4 9 -6 0 -11 -5 -11 -11z"/>
<path d="M4074 4845 c-4 -9 -1 -22 6 -28 10 -9 11 -9 6 1 -5 8 0 12 14 12 13
0 20 5 18 13 -7 19 -37 20 -44 2z"/>
<path d="M4141 4833 c2 -23 2 -24 6 -5 2 12 9 22 14 22 5 0 9 -10 10 -22 l0
-23 9 23 c12 27 27 29 33 2 4 -17 4 -16 3 2 -1 19 -8 24 -38 26 -36 3 -38 2
-37 -25z"/>
<path d="M4254 4852 c19 -8 19 -9 -2 -14 -22 -6 -31 -28 -12 -28 6 0 10 5 10
10 0 6 5 10 11 10 5 0 7 -4 4 -10 -3 -5 -1 -10 5 -10 20 0 6 45 -15 47 -19 3
-19 3 -1 -5z"/>
<path d="M4301 4833 c2 -24 2 -25 6 -5 2 12 8 22 13 22 5 0 11 -10 13 -22 4
-20 4 -19 6 5 1 21 -4 27 -19 27 -15 0 -20 -6 -19 -27z"/>
<path d="M4402 4835 c0 -16 2 -22 5 -12 2 9 2 23 0 30 -3 6 -5 -1 -5 -18z"/>
<path d="M4437 4853 c-10 -10 -8 -43 2 -43 5 0 7 9 4 19 -3 13 1 21 14 24 13
3 14 5 2 6 -9 0 -19 -2 -22 -6z"/>
<path d="M5742 4835 c0 -16 2 -22 5 -12 2 9 2 23 0 30 -3 6 -5 -1 -5 -18z"/>
<path d="M5792 4835 c0 -16 2 -22 5 -12 2 9 2 23 0 30 -3 6 -5 -1 -5 -18z"/>
<path d="M5870 4837 c6 -16 7 -33 4 -39 -4 -6 -2 -8 3 -5 6 4 16 22 22 39 9
28 9 30 -2 16 -12 -15 -14 -15 -25 0 -9 14 -10 11 -2 -11z"/>
<path d="M2401 4804 c0 -11 3 -14 6 -6 3 7 2 16 -1 19 -3 4 -6 -2 -5 -13z"/>
<path d="M6536 4734 c-8 -22 -7 -34 3 -34 5 0 11 11 13 25 6 28 -6 34 -16 9z"/>
<path d="M6810 4736 c0 -7 -9 -16 -20 -19 -20 -5 -29 -47 -11 -47 5 0 7 9 4
20 -4 14 0 20 12 20 12 0 16 -6 12 -20 -3 -11 -1 -20 4 -20 5 0 9 18 9 40 0
22 -2 40 -5 40 -3 0 -5 -6 -5 -14z"/>
<path d="M6900 4735 c0 -8 -6 -15 -14 -15 -16 0 -29 -27 -20 -41 3 -5 14 -9
25 -9 16 0 19 7 19 40 0 22 -2 40 -5 40 -3 0 -5 -7 -5 -15z m0 -40 c0 -8 -4
-15 -10 -15 -5 0 -10 7 -10 15 0 8 5 15 10 15 6 0 10 -7 10 -15z"/>
<path d="M7558 4743 c-2 -5 -1 -24 3 -43 l6 -35 2 43 c1 39 -3 52 -11 35z"/>
<path d="M2153 4700 c0 -25 2 -35 4 -22 2 12 2 32 0 45 -2 12 -4 2 -4 -23z"/>
<path d="M2241 4702 c-1 -39 1 -43 21 -40 30 4 37 38 9 45 -11 3 -22 12 -24
22 -3 9 -5 -3 -6 -27z m39 -17 c0 -8 -7 -15 -15 -15 -8 0 -15 7 -15 15 0 8 7
15 15 15 8 0 15 -7 15 -15z"/>
<path d="M2373 4700 c0 -25 2 -35 4 -22 2 12 2 32 0 45 -2 12 -4 2 -4 -23z"/>
<path d="M2825 4703 c16 -38 33 -62 22 -30 -4 11 -10 30 -13 43 -3 13 -10 24
-15 24 -5 0 -2 -17 6 -37z"/>
<path d="M2850 4729 c0 -5 5 -7 10 -4 6 3 10 8 10 11 0 2 -4 4 -10 4 -5 0 -10
-5 -10 -11z"/>
<path d="M2911 4703 c-1 -39 1 -43 24 -43 20 0 25 5 25 25 0 18 -5 25 -19 25
-11 0 -22 8 -24 18 -3 9 -5 -2 -6 -25z m39 -18 c0 -8 -4 -15 -9 -15 -13 0 -22
16 -14 24 11 11 23 6 23 -9z"/>
<path d="M4061 4702 c-1 -39 1 -43 21 -40 30 4 37 38 9 45 -11 3 -22 12 -24
22 -3 9 -5 -3 -6 -27z m39 -17 c0 -8 -7 -15 -15 -15 -8 0 -15 7 -15 15 0 8 7
15 15 15 8 0 15 -7 15 -15z"/>
<path d="M4548 4715 c2 -14 -2 -33 -9 -43 -13 -16 -12 -16 4 -3 16 13 20 13
29 0 8 -11 9 -10 4 4 -3 11 -9 30 -12 43 -8 32 -23 31 -16 -1z"/>
<path d="M4580 4729 c0 -5 5 -7 10 -4 6 3 10 8 10 11 0 2 -4 4 -10 4 -5 0 -10
-5 -10 -11z"/>
<path d="M5093 4700 c0 -25 2 -35 4 -22 2 12 2 32 0 45 -2 12 -4 2 -4 -23z"/>
<path d="M5453 4700 c0 -25 2 -35 4 -22 2 12 2 32 0 45 -2 12 -4 2 -4 -23z"/>
<path d="M5791 4700 c1 -32 3 -38 7 -22 4 13 12 23 17 23 6 0 13 -10 17 -23 6
-21 6 -21 7 5 1 18 -5 30 -16 34 -10 4 -21 11 -25 17 -4 6 -7 -9 -7 -34z"/>
<path d="M5984 4702 c-6 -23 -7 -42 -3 -42 5 0 9 9 9 20 0 11 5 20 10 20 6 0
10 -6 10 -14 0 -8 5 -18 10 -21 7 -4 9 2 4 19 -4 16 -2 26 5 26 6 0 11 7 11
15 0 8 -4 15 -10 15 -5 0 -9 -5 -7 -11 1 -6 -3 -13 -10 -16 -6 -2 -13 4 -15
13 -1 10 -8 -1 -14 -24z"/>
<path d="M3130 4685 c0 -27 3 -46 6 -42 3 3 6 22 6 42 0 20 -3 39 -6 42 -3 4
-6 -15 -6 -42z"/>
<path d="M3773 4695 c0 -22 2 -30 4 -17 2 12 2 30 0 40 -3 9 -5 -1 -4 -23z"/>
<path d="M5542 4699 c2 -18 8 -34 14 -36 7 -2 9 8 6 27 -6 42 -24 50 -20 9z"/>
<path d="M6990 4713 c0 -10 5 -25 10 -33 7 -11 10 -7 10 18 0 17 -4 32 -10 32
-5 0 -10 -8 -10 -17z"/>
<path d="M2580 4690 c0 -39 15 -39 16 0 1 17 -3 30 -7 30 -5 0 -9 -13 -9 -30z"/>
<path d="M2734 4704 c3 -9 6 -22 6 -30 0 -8 4 -14 8 -14 5 0 7 14 4 30 -2 17
-9 30 -14 30 -6 0 -7 -7 -4 -16z"/>
<path d="M3934 4704 c3 -9 6 -22 6 -30 0 -8 4 -14 8 -14 5 0 7 14 4 30 -2 17
-9 30 -14 30 -6 0 -7 -7 -4 -16z"/>
<path d="M4184 4704 c3 -9 6 -22 6 -30 0 -8 4 -14 8 -14 5 0 7 14 4 30 -2 17
-9 30 -14 30 -6 0 -7 -7 -4 -16z"/>
<path d="M5120 4705 c-16 -19 -5 -47 17 -43 11 2 18 12 18 27 0 29 -17 37 -35
16z m30 -15 c0 -21 -15 -27 -25 -10 -7 12 2 30 16 30 5 0 9 -9 9 -20z"/>
<path d="M5187 4713 c-4 -3 -7 -22 -6 -42 0 -31 2 -33 9 -15 5 12 13 25 19 29
16 9 14 35 -2 35 -8 0 -17 -3 -20 -7z m23 -13 c0 -5 -4 -10 -10 -10 -5 0 -10
5 -10 10 0 6 5 10 10 10 6 0 10 -4 10 -10z"/>
<path d="M5271 4706 c-15 -17 -4 -46 18 -45 10 0 11 2 4 6 -7 2 -13 13 -13 23
0 10 6 21 13 23 7 4 8 6 1 6 -6 1 -17 -5 -23 -13z"/>
<path d="M5351 4686 c1 -21 3 -25 6 -11 3 11 9 25 14 31 5 7 3 11 -6 11 -10 0
-15 -10 -14 -31z"/>
<path d="M5394 4705 c-9 -22 3 -45 23 -44 15 0 15 2 3 7 -8 4 -16 15 -16 25
-2 20 12 23 19 5 2 -7 8 -10 12 -6 10 10 -3 28 -21 28 -8 0 -17 -7 -20 -15z"/>
<path d="M5500 4713 c13 -6 13 -43 -1 -43 -5 0 -7 5 -4 10 3 6 1 10 -4 10 -6
0 -11 -7 -11 -15 0 -8 9 -15 21 -15 16 0 20 5 17 27 -2 14 -9 28 -16 29 -7 1
-8 0 -2 -3z"/>
<path d="M5614 4706 c-9 -24 4 -48 23 -44 12 2 18 12 18 28 0 29 -32 41 -41
16z m34 -19 c2 -10 -3 -17 -12 -17 -10 0 -16 9 -16 21 0 24 23 21 28 -4z"/>
<path d="M5681 4688 c0 -18 3 -26 6 -18 14 43 16 44 23 15 l8 -30 1 33 c1 26
-3 32 -19 32 -16 0 -20 -6 -19 -32z"/>
<path d="M5744 4709 c-3 -6 0 -15 7 -20 12 -8 12 -11 -1 -19 -13 -8 -13 -10 2
-10 24 0 30 16 12 30 -12 11 -12 15 -2 21 9 6 9 9 1 9 -6 0 -15 -5 -19 -11z"/>
<path d="M5893 4713 c-7 -2 -13 -17 -13 -32 0 -25 3 -28 26 -23 20 4 24 10 22
30 -3 26 -14 34 -35 25z m27 -23 c0 -19 -11 -26 -23 -14 -8 8 3 34 14 34 5 0
9 -9 9 -20z"/>
<path d="M6463 4704 c-3 -8 -1 -20 5 -26 7 -7 10 -5 9 7 -1 10 4 20 12 23 10
3 12 -1 8 -17 -3 -11 -1 -21 4 -21 5 0 9 11 9 25 0 18 -5 25 -20 25 -11 0 -23
-7 -27 -16z"/>
<path d="M6593 4704 c-3 -8 0 -21 7 -27 10 -9 11 -9 5 2 -5 9 -1 19 10 28 17
12 17 13 2 13 -10 0 -20 -7 -24 -16z"/>
<path d="M6674 4711 c3 -5 -1 -11 -9 -15 -8 -3 -15 -11 -15 -18 0 -9 3 -9 10
2 9 13 11 13 20 0 8 -12 10 -9 10 13 0 15 -5 27 -11 27 -5 0 -8 -4 -5 -9z"/>
<path d="M6711 4693 c2 -23 2 -24 6 -5 5 27 30 29 36 2 4 -17 4 -16 3 2 -1 16
-8 24 -23 26 -20 3 -23 -1 -22 -25z"/>
<path d="M6842 4695 c0 -16 2 -22 5 -12 2 9 2 23 0 30 -3 6 -5 -1 -5 -18z"/>
<path d="M6948 4711 c11 -7 11 -9 -2 -14 -9 -4 -16 -12 -16 -19 0 -9 3 -9 10
2 9 13 11 13 20 0 8 -12 10 -9 10 13 0 19 -5 27 -17 27 -14 0 -15 -2 -5 -9z"/>
<path d="M7037 4713 c-11 -10 -8 -43 4 -43 5 0 7 5 4 10 -3 6 3 10 14 10 23 0
28 15 9 26 -7 4 -8 3 -4 -4 4 -7 1 -12 -9 -12 -9 0 -13 5 -10 10 7 11 2 13 -8
3z"/>
<path d="M7138 4711 c11 -7 11 -9 -2 -14 -18 -7 -22 -27 -5 -27 5 0 7 5 4 10
-3 6 -2 10 4 10 5 0 12 -6 14 -12 3 -7 6 -1 6 15 1 19 -4 27 -16 27 -14 0 -15
-2 -5 -9z"/>
<path d="M7181 4693 c0 -27 1 -27 9 -5 12 27 27 29 33 2 4 -17 4 -16 3 2 -1
16 -8 24 -23 26 -19 3 -23 -1 -22 -25z"/>
<path d="M7250 4711 c0 -7 7 -19 15 -27 19 -20 19 -5 0 20 -9 11 -15 14 -15 7z"/>
<path d="M7295 4700 c9 -30 13 -35 21 -27 3 3 -2 16 -11 29 l-17 23 7 -25z"/>
<path d="M7320 4705 c0 -8 5 -15 10 -15 6 0 10 7 10 15 0 8 -4 15 -10 15 -5 0
-10 -7 -10 -15z"/>
<path d="M7352 4700 c-14 -23 -15 -30 -3 -30 8 0 24 41 18 47 -2 1 -8 -7 -15
-17z"/>
<path d="M7383 4704 c-3 -8 0 -21 7 -27 10 -9 11 -9 6 1 -5 8 0 12 13 12 23 0
28 15 9 26 -7 4 -8 3 -4 -4 4 -7 1 -12 -9 -12 -9 0 -13 5 -10 10 3 6 4 10 0
10 -3 0 -8 -7 -12 -16z"/>
<path d="M7451 4693 c1 -22 2 -23 6 -8 3 11 10 23 17 27 7 5 5 8 -6 8 -13 0
-18 -7 -17 -27z"/>
<path d="M2204 4701 c3 -5 -1 -11 -9 -15 -22 -8 -18 -26 5 -26 15 0 20 7 20
25 0 14 -5 25 -11 25 -5 0 -8 -4 -5 -9z"/>
<path d="M2304 4695 c-4 -9 -1 -22 6 -28 10 -9 11 -9 6 1 -5 8 0 12 14 12 13
0 20 5 18 13 -7 19 -37 20 -44 2z m33 -1 c-3 -3 -12 -4 -19 -1 -8 3 -5 6 6 6
11 1 17 -2 13 -5z"/>
<path d="M2392 4685 c0 -16 2 -22 5 -12 2 9 2 23 0 30 -3 6 -5 -1 -5 -18z"/>
<path d="M2421 4683 c0 -27 1 -27 9 -5 5 12 14 22 19 22 5 0 12 -10 14 -22 4
-20 4 -19 6 5 1 23 -3 27 -24 27 -21 0 -25 -5 -24 -27z"/>
<path d="M2490 4691 c0 -11 -3 -26 -6 -35 -3 -9 -1 -16 6 -16 6 0 8 5 5 10 -3
6 0 10 9 10 8 0 17 -6 19 -12 3 -8 6 -6 6 5 1 9 -6 17 -14 17 -8 0 -15 7 -15
15 0 8 5 15 11 15 5 0 7 -5 3 -12 -4 -7 -3 -8 4 -4 19 11 14 26 -8 26 -13 0
-20 -7 -20 -19z"/>
<path d="M2616 4694 c-7 -18 0 -34 15 -34 6 0 7 5 4 10 -3 6 1 10 9 10 9 0 16
7 16 15 0 20 -36 19 -44 -1z"/>
<path d="M2683 4685 c0 -12 6 -21 16 -21 10 0 16 9 16 21 0 12 -6 21 -16 21
-10 0 -16 -9 -16 -21z"/>
<path d="M2983 4678 l12 -37 13 25 c7 14 11 31 8 37 -2 7 -5 4 -5 -5 -1 -10
-4 -18 -7 -18 -4 0 -13 8 -20 18 -10 14 -10 11 -1 -20z"/>
<path d="M3570 4703 c1 -14 30 -48 30 -34 0 7 -7 19 -15 27 -8 9 -15 12 -15 7z"/>
<path d="M3622 4685 c0 -16 2 -22 5 -12 2 9 2 23 0 30 -3 6 -5 -1 -5 -18z"/>
<path d="M3651 4683 c2 -23 2 -24 6 -5 2 12 8 22 13 22 5 0 11 -10 13 -22 l4
-23 2 23 c1 27 28 29 34 2 4 -17 4 -16 3 2 -1 19 -8 24 -38 26 -36 3 -38 2
-37 -25z"/>
<path d="M3814 4701 c18 -7 18 -8 3 -14 -23 -9 -21 -27 3 -27 15 0 20 7 20 25
0 19 -5 25 -22 24 -21 0 -21 -1 -4 -8z"/>
<path d="M3861 4683 c1 -22 2 -23 6 -8 3 11 10 23 17 27 7 5 5 8 -6 8 -13 0
-18 -7 -17 -27z"/>
<path d="M3902 4685 c0 -16 2 -22 5 -12 2 9 2 23 0 30 -3 6 -5 -1 -5 -18z"/>
<path d="M4004 4695 c-4 -8 -10 -12 -15 -9 -5 3 -8 -6 -7 -20 3 -36 13 -32 25
9 11 34 8 50 -3 20z"/>
<path d="M4127 4703 c-11 -10 -8 -43 4 -43 5 0 7 5 4 10 -3 6 3 10 14 10 23 0
28 15 9 26 -7 4 -8 3 -4 -4 4 -7 1 -12 -9 -12 -9 0 -13 5 -10 10 7 11 2 13 -8
3z"/>
<path d="M4250 4695 c0 -8 5 -15 10 -15 6 0 10 7 10 15 0 8 -4 15 -10 15 -5 0
-10 -7 -10 -15z"/>
<path d="M4282 4690 c-14 -23 -15 -30 -3 -30 8 0 24 41 18 47 -2 1 -8 -7 -15
-17z"/>
<path d="M4313 4694 c-3 -8 0 -21 7 -27 10 -9 11 -9 6 1 -5 8 0 12 13 12 12 0
21 7 21 15 0 20 -39 19 -47 -1z m34 0 c-3 -3 -12 -4 -19 -1 -8 3 -5 6 6 6 11
1 17 -2 13 -5z"/>
<path d="M4373 4694 c-3 -8 -1 -20 6 -27 8 -8 11 -8 11 1 0 7 7 12 15 12 8 0
15 7 15 15 0 20 -39 19 -47 -1z"/>
<path d="M4441 4683 c2 -23 2 -24 6 -5 5 27 30 29 36 2 4 -17 4 -16 3 2 -1 16
-8 24 -23 26 -20 3 -23 -1 -22 -25z"/>
<path d="M5242 4685 c0 -16 2 -22 5 -12 2 9 2 23 0 30 -3 6 -5 -1 -5 -18z"/>
<path d="M5582 4685 c0 -16 2 -22 5 -12 2 9 2 23 0 30 -3 6 -5 -1 -5 -18z"/>
<path d="M5862 4685 c0 -16 2 -22 5 -12 2 9 2 23 0 30 -3 6 -5 -1 -5 -18z"/>
<path d="M3067 4693 c-13 -13 -7 -33 11 -33 13 0 14 2 3 9 -7 5 -10 14 -7 20
8 12 3 15 -7 4z"/>
<path d="M3742 4680 c0 -14 2 -19 5 -12 2 6 2 18 0 25 -3 6 -5 1 -5 -13z"/>
<path d="M7525 4689 c-4 -6 -5 -12 -2 -15 2 -3 7 2 10 11 7 17 1 20 -8 4z"/>
<path d="M4230 4676 c0 -9 5 -16 10 -16 6 0 10 4 10 9 0 6 -4 13 -10 16 -5 3
-10 -1 -10 -9z"/>
<path d="M4618 4665 c2 -14 6 -25 8 -25 2 0 4 11 4 25 0 14 -4 25 -9 25 -4 0
-6 -11 -3 -25z"/>
<path d="M5206 4655 c-3 -8 -1 -15 4 -15 6 0 10 7 10 15 0 8 -2 15 -4 15 -2 0
-6 -7 -10 -15z"/>
<path d="M4070 4576 c0 -7 -9 -16 -21 -19 -28 -7 -21 -41 9 -45 20 -3 22 1 22
37 0 23 -2 41 -5 41 -3 0 -5 -6 -5 -14z m0 -41 c0 -8 -7 -15 -15 -15 -8 0 -15
7 -15 15 0 8 7 15 15 15 8 0 15 -7 15 -15z"/>
<path d="M4141 4580 c0 -8 6 -28 15 -45 12 -26 14 -27 9 -5 -2 14 2 32 12 42
9 10 11 18 5 18 -6 0 -13 -6 -15 -12 -4 -10 -8 -9 -16 2 -10 13 -11 13 -10 0z"/>
<path d="M5111 4550 c0 -25 3 -38 6 -30 2 8 7 21 9 29 3 11 8 11 16 3 8 -8 8
-16 -3 -28 -12 -15 -12 -17 1 -12 23 7 25 47 3 55 -10 4 -21 11 -25 17 -4 6
-7 -9 -7 -34z"/>
<path d="M5591 4553 c-9 -33 -8 -53 3 -42 6 6 17 79 11 79 -2 0 -9 -17 -14
-37z"/>
<path d="M5627 4570 c-3 -11 -1 -20 4 -20 5 0 9 9 9 20 0 11 -2 20 -4 20 -2 0
-6 -9 -9 -20z"/>
<path d="M5850 4580 c0 -5 -6 -10 -14 -10 -8 0 -16 -7 -20 -15 -8 -23 4 -45
25 -45 15 0 19 7 19 40 0 22 -2 40 -5 40 -3 0 -5 -4 -5 -10z m0 -40 c0 -11 -4
-20 -9 -20 -14 0 -23 18 -16 30 10 17 25 11 25 -10z"/>
<path d="M5915 4554 c-9 -50 -1 -52 12 -4 5 22 7 40 3 40 -4 0 -11 -16 -15
-36z"/>
<path d="M5960 4573 c0 -10 -3 -29 -6 -43 -4 -18 -3 -21 4 -10 15 25 23 70 12
70 -5 0 -10 -8 -10 -17z"/>
<path d="M6005 4540 c0 -27 3 -43 7 -37 10 16 10 75 1 80 -5 3 -8 -17 -8 -43z"/>
<path d="M7287 4583 c-4 -3 -7 -20 -6 -37 l1 -31 8 35 c9 36 8 45 -3 33z"/>
<path d="M7331 4571 c0 -14 -8 -32 -17 -42 -17 -18 -12 -39 9 -39 7 0 6 4 -3
10 -12 7 -12 12 4 29 10 11 16 29 13 43 l-4 23 -2 -24z"/>
<path d="M7371 4580 c0 -8 4 -22 9 -30 12 -18 12 -2 0 25 -6 13 -9 15 -9 5z"/>
<path d="M4290 4535 c0 -27 3 -46 6 -42 3 3 6 22 6 42 0 20 -3 39 -6 42 -3 4
-6 -15 -6 -42z"/>
<path d="M5238 4575 c-6 -7 2 -54 11 -59 7 -5 7 52 -1 59 -2 3 -7 3 -10 0z"/>
<path d="M5174 4556 c-9 -23 3 -46 23 -46 15 0 15 2 -3 15 -18 14 -18 14 4 15
14 0 22 5 20 13 -7 18 -37 21 -44 3z"/>
<path d="M5270 4568 c0 -4 5 -19 10 -34 10 -26 11 -26 25 -8 8 10 14 26 14 34
0 12 -3 11 -13 -3 -14 -18 -15 -18 -25 0 -6 10 -11 15 -11 11z"/>
<path d="M5370 4555 c-10 -12 -10 -18 0 -30 7 -8 18 -15 24 -14 7 0 6 2 -1 6
-18 7 -16 23 3 23 9 0 14 5 12 12 -7 19 -24 20 -38 3z"/>
<path d="M5430 4555 c-10 -12 -10 -18 0 -30 7 -8 18 -15 24 -14 7 0 6 2 -1 6
-18 7 -16 23 3 23 9 0 14 5 12 12 -7 19 -24 20 -38 3z"/>
<path d="M5491 4543 c0 -27 1 -27 9 -5 5 12 12 22 15 22 3 0 10 -10 15 -22 10
-23 10 -23 7 2 -1 17 -9 26 -24 28 -19 3 -23 -1 -22 -25z"/>
<path d="M5710 4563 c7 -3 5 -10 -6 -17 -19 -14 -11 -36 12 -36 19 0 15 52 -4
56 -7 1 -8 0 -2 -3z m10 -33 c0 -5 -4 -10 -10 -10 -5 0 -10 5 -10 10 0 6 5 10
10 10 6 0 10 -4 10 -10z"/>
<path d="M5751 4536 c1 -27 2 -28 7 -8 8 28 23 30 34 5 6 -14 7 -13 5 7 -1 18
-8 25 -24 26 -19 1 -23 -4 -22 -30z"/>
<path d="M6660 4533 c0 -29 3 -34 10 -23 9 13 11 13 20 0 8 -13 10 -12 10 3 0
9 -8 17 -17 17 -17 1 -17 1 0 11 23 13 22 29 -3 29 -16 0 -20 -7 -20 -37z"/>
<path d="M6722 4545 c0 -16 2 -22 5 -12 2 9 2 23 0 30 -3 6 -5 -1 -5 -18z"/>
<path d="M6747 4550 c5 -19 21 -36 27 -29 2 2 7 15 10 29 l7 25 -15 -25 c-11
-18 -15 -21 -16 -8 0 9 -4 19 -9 22 -5 4 -7 -3 -4 -14z"/>
<path d="M6804 4555 c-4 -9 -1 -22 6 -28 10 -9 11 -9 6 1 -5 8 0 12 14 12 13
0 20 5 18 13 -7 19 -37 20 -44 2z"/>
<path d="M6871 4543 c2 -24 2 -25 6 -5 2 12 8 22 13 22 5 0 11 -10 13 -22 4
-20 4 -19 6 5 1 21 -4 27 -19 27 -15 0 -20 -6 -19 -27z"/>
<path d="M6960 4545 c0 -16 6 -25 15 -25 8 0 15 -4 15 -10 0 -5 5 -10 10 -10
6 0 10 16 10 35 0 31 -3 35 -25 35 -20 0 -25 -5 -25 -25z m30 0 c0 -8 -4 -15
-10 -15 -5 0 -10 7 -10 15 0 8 5 15 10 15 6 0 10 -7 10 -15z"/>
<path d="M7031 4548 c-1 -22 4 -28 19 -28 15 0 20 6 19 28 -2 23 -2 24 -6 5
-2 -13 -8 -23 -13 -23 -5 0 -11 10 -13 23 -4 19 -4 18 -6 -5z"/>
<path d="M7087 4557 c-3 -8 -1 -20 4 -28 6 -10 9 -10 9 -1 0 6 7 12 15 12 8 0
15 7 15 15 0 19 -36 20 -43 2z"/>
<path d="M7151 4543 c0 -16 3 -22 6 -13 3 8 10 21 16 28 7 8 5 12 -7 12 -11 0
-16 -8 -15 -27z"/>
<path d="M7202 4540 c6 -19 12 -36 13 -37 1 -2 7 14 13 35 9 30 9 34 -1 20
-12 -15 -14 -15 -25 0 -8 13 -9 9 0 -18z"/>
<path d="M3935 4550 c3 -5 -1 -10 -9 -10 -9 0 -16 -8 -15 -17 0 -11 3 -13 6
-5 2 6 9 12 14 12 6 0 7 -4 4 -10 -3 -5 -1 -10 4 -10 6 0 11 11 11 25 0 14 -5
25 -11 25 -5 0 -7 -4 -4 -10z"/>
<path d="M3971 4533 c2 -23 2 -24 6 -5 2 12 9 22 14 22 5 0 14 -10 19 -22 10
-23 10 -23 7 2 -1 17 -9 26 -24 28 -20 3 -23 -1 -22 -25z"/>
<path d="M5320 4524 c0 -8 5 -12 10 -9 6 3 10 10 10 16 0 5 -4 9 -10 9 -5 0
-10 -7 -10 -16z"/>
<path d="M7371 4514 c0 -11 3 -14 6 -6 3 7 2 16 -1 19 -3 4 -6 -2 -5 -13z"/>
<path d="M4208 4493 c7 -3 16 -2 19 1 4 3 -2 6 -13 5 -11 0 -14 -3 -6 -6z"/>
<path d="M570 4410 c0 -5 7 -10 14 -10 11 0 16 -14 19 -47 l3 -48 2 48 c2 34
6 47 17 47 8 0 15 5 15 10 0 6 -16 10 -35 10 -19 0 -35 -4 -35 -10z"/>
<path d="M790 4363 c1 -50 2 -56 14 -41 12 16 14 16 31 0 18 -16 18 -16 2 10
-10 16 -13 29 -7 33 6 3 10 11 10 17 0 7 -6 6 -15 -2 -13 -11 -15 -8 -15 14 0
14 -4 26 -10 26 -6 0 -10 -26 -10 -57z"/>
<path d="M1248 4403 c-2 -10 -1 -36 3 -58 5 -35 6 -36 8 -9 0 16 6 35 13 42 9
9 9 12 -1 12 -11 0 -11 3 -1 15 10 12 10 15 -3 15 -8 0 -16 -8 -19 -17z"/>
<path d="M2632 4395 c-11 -23 -10 -25 14 -25 20 0 25 4 20 16 -3 9 -6 20 -6
25 0 18 -17 8 -28 -16z"/>
<path d="M4092 4395 c-11 -23 -10 -25 13 -25 26 0 29 7 19 34 -9 23 -19 20
-32 -9z"/>
<path d="M7010 4401 c-14 -27 -9 -34 18 -29 19 3 19 5 8 27 l-13 24 -13 -22z"/>
<path d="M5557 4396 c-11 -28 -8 -36 13 -36 23 0 25 9 7 34 -13 18 -14 18 -20
2z"/>
<path d="M670 4379 l24 -10 -24 -12 c-34 -17 -32 -42 3 -43 26 -1 28 1 25 35
-3 30 -7 36 -28 38 l-25 3 25 -11z m11 -52 c-13 -13 -26 -3 -16 12 3 6 11 8
17 5 6 -4 6 -10 -1 -17z"/>
<path d="M726 4375 c-3 -9 3 -19 14 -25 26 -14 26 -34 0 -27 -11 3 -18 1 -14
-4 9 -15 34 -10 41 7 4 10 0 20 -10 26 -21 11 -22 32 -2 24 8 -3 15 -1 15 4 0
16 -37 11 -44 -5z"/>
<path d="M904 4378 c-4 -6 2 -19 15 -29 20 -17 13 -38 -9 -24 -5 3 -10 1 -10
-4 0 -17 40 -13 47 4 3 9 -2 22 -13 30 -17 13 -17 16 -4 25 13 8 13 10 -2 10
-9 0 -20 -5 -24 -12z"/>
<path d="M971 4335 c1 -27 3 -43 6 -34 2 11 11 15 23 12 12 -3 22 3 29 16 16
30 -2 61 -34 59 -23 -2 -25 -6 -24 -53z m44 15 c0 -27 -22 -39 -31 -16 -8 22
3 49 19 43 6 -2 12 -14 12 -27z"/>
<path d="M1062 4378 c-26 -26 -6 -69 33 -67 19 0 19 1 -2 9 -31 12 -29 30 2
30 14 0 25 4 25 8 0 12 -22 32 -35 32 -6 0 -16 -5 -23 -12z m38 -8 c0 -5 -7
-10 -16 -10 -8 0 -12 5 -9 10 3 6 10 10 16 10 5 0 9 -4 9 -10z"/>
<path d="M1140 4370 c-14 -26 3 -60 30 -60 11 0 20 4 20 9 0 5 -8 8 -17 7 -13
-1 -18 6 -18 24 0 18 5 25 17 24 10 -1 15 2 12 7 -9 16 -33 10 -44 -11z"/>
<path d="M1213 4350 c0 -25 2 -35 4 -22 2 12 2 32 0 45 -2 12 -4 2 -4 -23z"/>
<path d="M1303 4350 c0 -25 2 -35 4 -22 2 12 2 32 0 45 -2 12 -4 2 -4 -23z"/>
<path d="M1340 4375 c-24 -29 14 -85 41 -58 8 8 6 11 -7 10 -27 -3 -33 49 -7
56 15 4 15 5 2 6 -9 0 -22 -6 -29 -14z"/>
<path d="M803 4165 c0 -33 2 -45 4 -27 2 18 2 45 0 60 -2 15 -4 0 -4 -33z"/>
<path d="M840 4181 c0 -6 7 -8 15 -5 8 4 15 1 15 -6 0 -6 -9 -14 -20 -17 -30
-8 -21 -37 13 -41 27 -3 28 -2 25 35 -2 31 -7 39 -25 41 -13 2 -23 -1 -23 -7z
m30 -51 c0 -5 -4 -10 -9 -10 -6 0 -13 5 -16 10 -3 6 1 10 9 10 9 0 16 -4 16
-10z"/>
<path d="M949 4160 l-12 -33 -14 29 -13 29 6 -30 c4 -16 7 -38 8 -47 0 -10 3
-18 7 -18 9 0 41 92 34 98 -3 3 -10 -10 -16 -28z"/>
<path d="M990 4176 c-6 -8 -10 -25 -8 -38 2 -18 10 -23 33 -25 20 -1 23 0 8 4
-28 5 -30 23 -4 23 26 0 36 17 21 35 -16 19 -34 19 -50 1z m35 -6 c3 -5 -1
-10 -10 -10 -9 0 -13 5 -10 10 3 6 8 10 10 10 2 0 7 -4 10 -10z"/>
<path d="M1071 4145 c2 -33 3 -35 6 -10 3 16 12 35 21 41 15 12 15 13 -5 11
-20 -1 -23 -6 -22 -42z"/>
<path d="M1123 4174 c-4 -10 0 -20 10 -26 22 -12 22 -25 0 -31 -14 -4 -13 -5
4 -6 32 -2 40 20 13 41 -20 16 -19 23 3 19 4 0 7 4 7 9 0 16 -30 11 -37 -6z"/>
<path d="M2193 4065 c-3 -9 2 -24 11 -34 20 -22 21 -35 1 -27 -8 3 -15 1 -15
-4 0 -16 47 -11 54 5 3 8 -4 24 -16 35 -18 17 -19 20 -5 20 9 0 17 5 17 10 0
16 -40 11 -47 -5z"/>
<path d="M2440 4035 c0 -25 5 -45 10 -45 6 0 10 20 10 45 0 25 -4 45 -10 45
-5 0 -10 -20 -10 -45z"/>
<path d="M2597 4073 c-12 -12 -7 -41 8 -47 20 -7 19 -24 -2 -29 -15 -4 -14 -5
3 -6 11 0 25 4 31 10 8 8 13 8 17 0 4 -6 19 -10 34 -10 24 2 24 2 5 6 -29 6
-30 23 -2 23 12 0 19 5 17 13 -7 19 -40 21 -53 3 -11 -14 -14 -14 -30 4 -17
19 -17 20 -1 20 9 0 14 5 11 10 -7 11 -28 13 -38 3z"/>
<path d="M3730 4036 c0 -25 5 -46 10 -46 6 0 10 6 10 14 0 7 9 16 21 19 32 9
22 51 -13 55 -27 3 -28 2 -28 -42z m40 9 c0 -8 -4 -15 -10 -15 -5 0 -10 7 -10
15 0 8 5 15 10 15 6 0 10 -7 10 -15z"/>
<path d="M3870 4070 c0 -5 5 -10 10 -10 6 0 10 5 10 10 0 6 -4 10 -10 10 -5 0
-10 -4 -10 -10z"/>
<path d="M4065 4070 c-3 -5 -1 -10 4 -10 6 0 11 5 11 10 0 6 -2 10 -4 10 -3 0
-8 -4 -11 -10z"/>
<path d="M4263 4069 c11 -6 17 -22 17 -44 0 -19 5 -35 10 -35 6 0 10 18 10 39
0 22 5 42 13 44 6 3 -6 6 -28 6 -32 0 -36 -2 -22 -10z"/>
<path d="M5190 4034 l0 -48 20 22 c12 12 25 22 31 22 6 0 9 10 7 23 -2 16 -11
23 -30 25 -27 3 -28 2 -28 -44z m40 21 c0 -8 -4 -15 -10 -15 -5 0 -10 7 -10
15 0 8 5 15 10 15 6 0 10 -7 10 -15z"/>
<path d="M5718 4073 c6 -2 12 -20 12 -38 0 -19 5 -37 10 -40 6 -4 10 10 10 34
0 29 5 41 18 44 9 3 -1 5 -23 5 -22 0 -34 -2 -27 -5z"/>
<path d="M6780 4035 c0 -25 5 -45 10 -45 6 0 10 7 10 15 0 8 7 15 15 15 17 0
34 29 28 48 -3 6 -18 12 -34 12 -28 0 -29 -2 -29 -45z m42 20 c0 -5 -5 -11
-11 -13 -6 -2 -11 4 -11 13 0 9 5 15 11 13 6 -2 11 -8 11 -13z"/>
<path d="M6922 4041 c-1 -22 2 -42 8 -46 6 -4 10 11 10 39 0 56 -14 61 -18 7z"/>
<path d="M2798 4058 c-6 -18 5 -61 17 -65 8 -2 10 24 6 70 -1 12 -18 8 -23 -5z"/>
<path d="M4453 4059 c-7 -7 -23 -11 -38 -11 -19 0 -25 -5 -20 -16 3 -8 1 -20
-5 -27 -7 -9 -2 -12 20 -12 26 0 29 3 23 25 -4 18 -2 23 8 20 8 -3 15 -14 17
-26 2 -12 10 -22 19 -22 13 0 13 3 3 15 -9 11 -10 18 -1 29 15 18 -10 41 -26
25z"/>
<path d="M5912 4034 c4 -50 25 -57 24 -8 -1 21 -8 40 -15 42 -9 3 -11 -6 -9
-34z"/>
<path d="M5265 4050 c-3 -6 4 -10 17 -11 l23 0 -23 -10 c-29 -11 -24 -34 9
-34 15 0 25 7 27 18 7 33 -37 63 -53 37z"/>
<path d="M5330 4026 c0 -20 5 -36 10 -36 6 0 10 13 10 29 0 17 -4 33 -10 36
-6 4 -10 -8 -10 -29z"/>
<path d="M5370 4022 c0 -19 4 -31 10 -27 6 3 10 15 10 26 0 28 27 23 34 -6 7
-29 21 -32 35 -7 10 16 10 16 11 0 0 -10 4 -18 10 -18 14 0 32 39 27 58 -4 14
-6 12 -12 -7 l-8 -23 -13 23 -13 24 -10 -25 -10 -25 -7 23 c-5 17 -13 22 -35
20 -26 -2 -29 -6 -29 -36z"/>
<path d="M5527 4053 c-11 -10 -8 -63 3 -63 6 0 10 16 10 35 0 36 -2 40 -13 28z"/>
<path d="M5563 4044 c-3 -9 0 -20 8 -25 10 -6 10 -9 2 -9 -7 0 -13 -4 -13 -10
0 -5 7 -10 15 -10 21 0 31 30 14 41 -11 7 -11 9 -1 9 7 0 10 5 7 10 -9 15 -25
12 -32 -6z"/>
<path d="M5622 4048 c-6 -6 -12 -17 -12 -24 0 -19 28 -37 47 -29 16 7 15 9 -7
15 -25 8 -25 8 -2 9 17 1 22 6 20 18 -4 22 -29 28 -46 11z"/>
<path d="M5780 4040 c-14 -25 2 -50 31 -50 27 0 24 18 -3 23 l-23 4 23 2 c17
1 22 6 20 18 -5 26 -35 28 -48 3z"/>
<path d="M5852 4044 c3 -12 1 -29 -4 -38 -10 -19 2 -22 20 -4 9 9 12 9 12 0 0
-7 4 -12 8 -12 4 0 8 16 8 35 0 24 -3 31 -11 25 -7 -6 -16 -5 -25 3 -10 10
-12 8 -8 -9z"/>
<path d="M6860 4051 c0 -6 8 -11 18 -12 12 0 11 -3 -6 -10 -30 -12 -23 -33 12
-37 26 -3 27 -1 24 30 -2 25 -8 34 -25 36 -13 2 -23 -1 -23 -7z"/>
<path d="M6978 4053 c-12 -3 -18 -14 -18 -34 0 -34 17 -40 22 -7 4 31 26 34
34 4 7 -29 34 -36 34 -8 1 16 1 16 11 0 15 -26 26 -22 38 13 13 39 13 39 1 39
-5 0 -10 -7 -10 -15 0 -21 -16 -19 -25 3 -6 15 -8 14 -19 -7 -13 -23 -13 -23
-19 -2 -5 21 -14 23 -49 14z"/>
<path d="M7120 4026 c0 -20 5 -36 10 -36 6 0 10 13 10 29 0 17 -4 33 -10 36
-6 4 -10 -8 -10 -29z"/>
<path d="M7155 4050 c-4 -6 -1 -17 5 -25 9 -11 9 -15 1 -15 -6 0 -11 -4 -11
-10 0 -14 37 -13 46 2 4 6 -1 17 -11 25 -11 7 -13 13 -7 13 7 0 12 5 12 10 0
13 -27 13 -35 0z"/>
<path d="M7222 4051 c-22 -13 -11 -56 16 -59 26 -4 30 14 5 21 -14 4 -12 5 5
6 25 1 28 11 10 29 -14 14 -19 15 -36 3z"/>
<path d="M2260 4020 c0 -16 5 -30 10 -30 6 0 10 14 10 30 0 17 -4 30 -10 30
-5 0 -10 -13 -10 -30z"/>
<path d="M2290 4020 c0 -35 17 -41 22 -7 4 28 21 25 30 -5 5 -20 6 -18 7 10 1
29 -2 32 -29 32 -27 0 -30 -3 -30 -30z"/>
<path d="M2370 4015 c0 -19 0 -37 0 -40 0 -14 38 -14 50 -1 10 13 9 17 -11 25
-13 5 -19 10 -12 10 7 1 17 10 23 21 10 18 8 20 -20 20 -28 0 -30 -3 -30 -35z"/>
<path d="M2474 4036 c-10 -27 4 -46 33 -45 24 2 25 2 6 6 -29 6 -30 23 -2 23
27 0 19 24 -9 28 -13 2 -25 -3 -28 -12z"/>
<path d="M2724 4036 c-3 -9 -3 -24 1 -33 7 -16 9 -15 14 5 7 29 25 30 29 2 5
-31 24 -24 20 8 -2 21 -9 28 -31 30 -18 2 -29 -2 -33 -12z"/>
<path d="M2846 4035 c-9 -26 5 -45 33 -44 17 1 20 3 9 6 -22 5 -24 23 -3 23 8
0 15 7 15 15 0 9 -9 15 -24 15 -13 0 -26 -7 -30 -15z"/>
<path d="M2920 4021 c0 -17 5 -31 10 -31 6 0 10 11 10 25 0 14 5 25 10 25 6 0
10 -11 10 -25 0 -14 5 -25 11 -25 6 0 9 12 7 28 -2 21 -9 28 -30 30 -25 3 -28
0 -28 -27z"/>
<path d="M2994 4035 c-10 -24 4 -45 28 -45 21 0 21 0 2 15 -19 15 -19 15 0 30
19 15 19 15 -2 15 -13 0 -25 -7 -28 -15z"/>
<path d="M3054 4035 c-10 -26 4 -45 33 -44 l28 0 -25 11 c-25 11 -25 11 -2 15
12 3 22 11 22 19 0 19 -49 18 -56 -1z"/>
<path d="M3820 4041 l25 -7 -22 -8 c-35 -11 -29 -36 8 -36 27 0 30 3 27 28 -2
22 -8 27 -33 29 -28 2 -28 1 -5 -6z"/>
<path d="M3870 4020 c0 -16 5 -30 10 -30 6 0 10 14 10 30 0 17 -4 30 -10 30
-5 0 -10 -13 -10 -30z"/>
<path d="M3910 4020 c0 -34 17 -41 22 -8 4 31 25 33 32 3 7 -29 32 -34 39 -7
4 16 5 16 6 0 2 -28 28 -21 39 10 l10 27 1 -27 c1 -38 21 -36 21 2 0 23 -4 30
-20 30 -10 0 -24 -8 -29 -17 -10 -17 -10 -17 -11 0 0 9 -7 17 -15 17 -8 0 -15
-8 -15 -17 -1 -17 -1 -17 -11 0 -6 10 -22 17 -39 17 -27 0 -30 -3 -30 -30z"/>
<path d="M4100 4036 c0 -8 5 -18 11 -22 8 -5 8 -9 -1 -14 -6 -4 14 -7 47 -8
50 0 54 2 33 11 -25 10 -25 10 -2 14 12 3 22 11 22 19 0 19 -40 18 -55 -3 -7
-9 -17 -13 -25 -8 -10 6 -9 9 1 16 10 6 8 9 -8 9 -13 0 -23 -6 -23 -14z"/>
<path d="M4327 4044 c-4 -4 -7 -18 -7 -31 0 -19 5 -23 28 -22 16 1 20 3 10 6
-25 6 -22 23 3 23 12 0 19 5 17 13 -5 14 -40 21 -51 11z"/>
<path d="M2540 4020 c0 -5 7 -10 15 -10 8 0 15 5 15 10 0 6 -7 10 -15 10 -8 0
-15 -4 -15 -10z"/>
<path d="M5267 3913 c-11 -10 -8 -81 3 -88 6 -4 10 13 10 44 0 52 -1 56 -13
44z"/>
<path d="M5522 3903 c-11 -21 -4 -83 9 -83 5 0 10 10 10 23 1 12 3 34 5 50 3
30 -11 36 -24 10z"/>
<path d="M7020 3870 c0 -27 5 -50 10 -50 6 0 10 5 10 12 0 9 3 9 12 0 19 -19
30 -14 18 7 -5 11 -7 28 -3 38 6 16 5 16 -10 4 -15 -12 -17 -11 -17 13 0 14
-4 26 -10 26 -5 0 -10 -22 -10 -50z"/>
<path d="M2281 3896 c-7 -8 -11 -27 -9 -43 2 -23 8 -28 33 -30 27 -2 28 -2 8
7 -30 12 -32 60 -3 60 11 0 20 5 20 10 0 15 -36 12 -49 -4z"/>
<path d="M2350 3865 c0 -25 5 -45 10 -45 6 0 10 20 10 45 0 25 -4 45 -10 45
-5 0 -10 -20 -10 -45z"/>
<path d="M2560 3900 c0 -5 5 -10 10 -10 6 0 10 5 10 10 0 6 -4 10 -10 10 -5 0
-10 -4 -10 -10z"/>
<path d="M2602 3894 c-10 -18 -3 -74 9 -74 8 0 14 38 10 68 -2 10 4 12 18 7
12 -4 21 -2 21 4 0 17 -48 13 -58 -5z"/>
<path d="M3847 3903 c-12 -12 -7 -41 8 -47 20 -7 19 -24 -2 -29 -13 -4 -12 -5
5 -6 29 -1 41 28 19 44 -21 15 -22 25 -1 25 8 0 12 5 9 10 -7 11 -28 13 -38 3z"/>
<path d="M3900 3900 c0 -5 5 -10 10 -10 6 0 10 5 10 10 0 6 -4 10 -10 10 -5 0
-10 -4 -10 -10z"/>
<path d="M4050 3900 c0 -5 5 -10 10 -10 6 0 10 5 10 10 0 6 -4 10 -10 10 -5 0
-10 -4 -10 -10z"/>
<path d="M4090 3865 c0 -25 5 -45 10 -45 6 0 10 20 10 45 0 25 -4 45 -10 45
-5 0 -10 -20 -10 -45z"/>
<path d="M4245 3900 c-3 -5 -1 -10 4 -10 6 0 11 5 11 10 0 6 -2 10 -4 10 -3 0
-8 -4 -11 -10z"/>
<path d="M5189 3889 c-8 -16 -8 -28 0 -45 11 -24 45 -33 56 -14 3 6 -3 10 -13
10 -11 0 -23 7 -26 16 -8 20 13 47 31 40 7 -3 13 -1 13 4 0 20 -49 10 -61 -11z"/>
<path d="M5480 3865 c0 -25 5 -45 10 -45 6 0 10 19 8 45 -4 58 -18 58 -18 0z"/>
<path d="M5560 3865 c0 -25 5 -45 10 -45 6 0 10 19 8 45 -4 58 -18 58 -18 0z"/>
<path d="M5770 3865 c0 -25 5 -45 10 -45 6 0 10 19 8 45 -4 58 -18 58 -18 0z"/>
<path d="M6801 3863 c0 -40 2 -44 10 -25 9 24 29 22 29 -4 0 -8 4 -14 9 -14 5
0 9 19 8 43 -2 38 -5 42 -29 45 -27 3 -28 2 -27 -45z m39 29 c0 -13 -12 -22
-22 -16 -10 6 -1 24 13 24 5 0 9 -4 9 -8z"/>
<path d="M7090 3865 c0 -25 5 -45 10 -45 6 0 10 19 8 45 -4 58 -18 58 -18 0z"/>
<path d="M2808 3888 c-7 -20 4 -68 16 -68 9 0 12 25 7 73 -1 11 -19 8 -23 -5z"/>
<path d="M4278 3888 c-9 -25 8 -63 27 -65 11 -2 14 0 8 3 -18 8 -16 44 2 44
10 0 17 -14 21 -40 4 -22 10 -40 14 -40 5 0 15 20 23 45 15 43 8 62 -11 29 -8
-15 -10 -15 -15 0 -4 9 -16 16 -27 16 -11 0 -20 5 -20 10 0 14 -17 12 -22 -2z"/>
<path d="M5720 3883 c0 -34 12 -63 26 -63 12 0 12 4 2 20 -11 17 -10 22 2 30
13 9 13 11 0 20 -22 14 -30 12 -30 -7z"/>
<path d="M5306 3881 c-4 -5 2 -12 11 -14 17 -4 17 -5 1 -6 -11 -1 -18 -9 -18
-21 0 -15 7 -20 26 -20 23 0 25 3 22 32 -3 32 -29 50 -42 29z"/>
<path d="M5370 3875 c-10 -12 -9 -16 4 -21 9 -3 16 -10 16 -16 0 -5 -4 -6 -10
-3 -5 3 -10 1 -10 -4 0 -14 27 -14 35 -1 4 6 1 17 -5 25 -10 11 -10 15 -1 15
7 0 9 5 6 10 -9 14 -21 12 -35 -5z"/>
<path d="M5425 3880 c-4 -6 -1 -17 5 -25 9 -11 9 -15 1 -15 -6 0 -11 -4 -11
-10 0 -14 37 -13 46 2 4 6 -1 17 -11 25 -11 7 -13 13 -7 13 7 0 12 5 12 10 0
13 -27 13 -35 0z"/>
<path d="M5600 3875 c-16 -19 -3 -55 21 -55 10 0 19 5 19 10 0 6 -7 10 -15 10
-8 0 -15 7 -15 15 0 8 7 15 15 15 8 0 15 5 15 10 0 15 -26 12 -40 -5z"/>
<path d="M5665 3880 c-3 -5 2 -10 12 -11 14 0 13 -2 -5 -10 -30 -12 -23 -33
11 -37 24 -3 27 0 27 26 0 18 -6 32 -16 36 -21 8 -22 8 -29 -4z"/>
<path d="M5815 3874 c-9 -9 -14 -21 -12 -27 6 -18 33 -31 51 -24 21 8 21 53 0
61 -21 8 -20 8 -39 -10z m35 -19 c0 -8 -7 -15 -15 -15 -16 0 -20 12 -8 23 11
12 23 8 23 -8z"/>
<path d="M5885 3882 c-9 -9 -6 -50 4 -57 5 -3 11 5 13 17 5 32 26 33 30 1 4
-24 5 -26 13 -9 11 24 -6 51 -33 52 -12 1 -24 -1 -27 -4z"/>
<path d="M6885 3880 c-3 -5 2 -10 12 -11 14 0 13 -2 -5 -10 -30 -12 -23 -33
11 -37 24 -3 27 0 27 26 0 18 -6 32 -16 36 -21 8 -22 8 -29 -4z"/>
<path d="M6945 3882 c-9 -9 -6 -50 4 -57 5 -3 11 5 13 17 5 32 26 33 30 1 4
-24 5 -26 13 -9 11 24 -6 51 -33 52 -12 1 -24 -1 -27 -4z"/>
<path d="M7131 3851 c1 -31 2 -32 8 -12 9 34 31 39 31 7 0 -14 5 -26 10 -26
14 0 12 46 -2 57 -7 6 -21 10 -30 10 -14 0 -18 -8 -17 -36z"/>
<path d="M7213 3883 c-19 -7 -17 -82 2 -89 16 -6 45 12 45 27 0 5 -7 9 -15 9
-14 0 -14 2 0 23 20 31 5 46 -32 30z"/>
<path d="M2400 3871 c12 -9 12 -11 -3 -17 -29 -11 -20 -34 14 -34 27 0 30 3
27 28 -2 20 -9 28 -28 30 -19 2 -22 1 -10 -7z"/>
<path d="M2450 3866 c0 -8 5 -18 11 -22 8 -4 7 -9 -2 -15 -10 -6 -8 -9 8 -9
28 0 37 14 17 30 -12 11 -12 15 -2 21 9 6 6 9 -9 9 -13 0 -23 -6 -23 -14z"/>
<path d="M2510 3866 c0 -8 5 -18 11 -22 8 -4 7 -9 -2 -15 -10 -6 -8 -9 9 -9
23 0 31 24 11 36 -8 4 -7 9 2 15 10 6 8 9 -8 9 -13 0 -23 -6 -23 -14z"/>
<path d="M2560 3850 c0 -16 5 -30 10 -30 6 0 10 14 10 30 0 17 -4 30 -10 30
-5 0 -10 -13 -10 -30z"/>
<path d="M2640 3850 c0 -16 5 -30 10 -30 6 0 10 14 10 30 0 17 -4 30 -10 30
-5 0 -10 -13 -10 -30z"/>
<path d="M2680 3850 c0 -24 4 -30 22 -30 21 0 21 0 2 15 -19 15 -19 15 0 30
19 15 19 15 -2 15 -18 0 -22 -6 -22 -30z"/>
<path d="M2755 3871 c19 -8 19 -8 -3 -20 -27 -15 -20 -31 14 -31 20 0 24 5 24
30 0 26 -3 30 -27 29 -24 0 -25 -2 -8 -8z"/>
<path d="M2857 3873 c-11 -10 -8 -53 3 -53 6 0 10 14 10 30 0 31 -2 35 -13 23z"/>
<path d="M2897 3873 c-4 -3 -7 -17 -7 -30 0 -19 5 -23 30 -23 27 0 30 3 30 30
0 25 -4 30 -23 30 -13 0 -27 -3 -30 -7z m38 -23 c0 -7 -6 -15 -12 -17 -8 -3
-13 4 -13 17 0 13 5 20 13 18 6 -3 12 -11 12 -18z"/>
<path d="M2970 3851 c0 -17 5 -31 10 -31 6 0 10 11 10 25 0 14 5 25 10 25 6 0
10 -11 10 -25 0 -14 5 -25 11 -25 6 0 9 12 7 28 -2 21 -9 28 -30 30 -25 3 -28
0 -28 -27z"/>
<path d="M3900 3850 c0 -16 5 -30 10 -30 6 0 10 14 10 30 0 17 -4 30 -10 30
-5 0 -10 -13 -10 -30z"/>
<path d="M3940 3851 c0 -17 5 -31 10 -31 6 0 10 12 10 26 0 14 4 23 10 19 6
-3 10 -15 10 -26 0 -10 5 -19 10 -19 6 0 10 9 10 19 0 11 5 23 10 26 6 4 10
-5 10 -19 0 -14 5 -26 11 -26 6 0 9 12 7 28 -3 25 -7 27 -50 30 -47 3 -48 3
-48 -27z"/>
<path d="M4050 3850 c0 -16 5 -30 10 -30 6 0 10 14 10 30 0 17 -4 30 -10 30
-5 0 -10 -13 -10 -30z"/>
<path d="M4143 3873 c18 -4 18 -6 -2 -20 -26 -18 -19 -33 15 -33 22 0 25 4 22
28 -2 21 -9 27 -28 29 -16 1 -19 0 -7 -4z"/>
<path d="M4201 3848 c0 -29 1 -30 9 -12 13 34 30 39 30 10 0 -14 5 -26 10 -26
6 0 10 14 10 30 0 27 -3 30 -30 30 -27 0 -30 -3 -29 -32z"/>
<path d="M5146 3734 c-8 -22 -7 -67 2 -81 4 -7 8 12 8 42 0 30 -1 55 -2 55 -1
0 -5 -7 -8 -16z"/>
<path d="M7295 3695 c0 -29 3 -48 7 -42 4 7 8 26 8 42 0 17 -4 35 -8 42 -4 6
-7 -13 -7 -42z"/>
<path d="M2185 3712 c-3 -16 -2 -39 3 -53 8 -20 10 -14 10 29 0 59 -4 65 -13
24z"/>
<path d="M2486 3724 c-9 -8 -16 -22 -16 -29 0 -22 29 -45 48 -37 14 6 13 7 -6
10 -19 3 -23 9 -20 30 2 18 9 27 20 26 10 -1 15 2 12 7 -8 13 -21 11 -38 -7z"/>
<path d="M2622 3698 c-2 -37 2 -48 13 -48 8 0 15 5 15 10 0 6 -4 10 -9 10 -6
0 -12 17 -14 38 -3 34 -4 33 -5 -10z"/>
<path d="M2677 3700 c-15 -40 -11 -50 11 -28 8 8 15 8 27 -2 8 -7 15 -10 15
-6 0 10 -29 76 -33 76 -2 0 -11 -18 -20 -40z m28 0 c3 -5 1 -10 -4 -10 -6 0
-11 5 -11 10 0 6 2 10 4 10 3 0 8 -4 11 -10z"/>
<path d="M2810 3726 c-9 -12 -7 -17 9 -28 25 -15 27 -28 5 -28 -8 0 -13 -4 -9
-10 7 -11 35 -2 35 13 0 6 -8 19 -17 29 -15 17 -15 20 -3 28 8 6 10 10 4 10
-6 0 -17 -6 -24 -14z"/>
<path d="M2870 3730 c-13 -9 -12 -13 8 -29 12 -11 22 -22 22 -25 0 -3 -10 -6
-22 -6 -18 0 -20 -2 -9 -9 17 -11 41 -4 41 12 0 6 -8 19 -17 29 -15 17 -15 20
-3 28 8 6 11 10 5 10 -5 0 -17 -5 -25 -10z"/>
<path d="M2927 3732 c6 -4 13 -23 16 -42 l4 -35 1 37 c2 25 7 38 20 41 9 3 1
5 -18 6 -19 0 -30 -3 -23 -7z"/>
<path d="M3034 3728 c-4 -6 -3 -8 4 -4 19 11 24 -13 8 -36 -21 -30 -20 -38 4
-38 11 0 20 5 20 10 0 6 -5 10 -10 10 -6 0 -6 7 1 19 13 19 6 51 -10 51 -5 0
-13 -5 -17 -12z"/>
<path d="M3102 3690 c-1 -44 1 -50 9 -32 5 15 6 36 0 55 -8 29 -9 27 -9 -23z"/>
<path d="M3805 3712 c-3 -16 -2 -39 3 -53 8 -20 10 -14 10 29 0 59 -4 65 -13
24z"/>
<path d="M4103 3724 c-4 -10 1 -22 10 -29 21 -15 22 -25 1 -25 -8 0 -13 -4 -9
-10 9 -14 35 0 35 20 0 10 -7 20 -15 24 -20 7 -19 24 3 29 16 4 16 5 -1 6 -10
0 -20 -6 -24 -15z"/>
<path d="M4158 3733 c6 -2 13 -21 13 -41 2 -34 2 -34 6 -7 2 17 12 36 21 43
13 10 11 12 -19 11 -19 0 -28 -3 -21 -6z"/>
<path d="M4223 3724 c-4 -10 1 -22 10 -29 22 -16 22 -25 0 -25 -13 0 -14 -3
-5 -12 10 -9 16 -8 30 6 16 17 16 19 -5 33 -28 19 -29 30 -5 36 16 4 16 5 -1
6 -10 0 -20 -6 -24 -15z"/>
<path d="M4320 3701 c0 -45 11 -57 39 -42 27 15 15 75 -17 79 -20 3 -22 -1
-22 -37z m31 16 c-1 -12 -15 -9 -19 4 -3 6 1 10 8 8 6 -3 11 -8 11 -12z m7
-38 c-2 -6 -8 -10 -13 -10 -5 0 -11 4 -13 10 -2 6 4 11 13 11 9 0 15 -5 13
-11z"/>
<path d="M4395 3685 c0 -29 3 -48 7 -42 10 16 10 85 1 90 -5 3 -8 -19 -8 -48z"/>
<path d="M5437 3734 c-11 -11 -8 -62 3 -69 6 -3 10 4 10 17 l0 23 19 -24 18
-24 -2 39 c-2 30 -7 40 -22 42 -10 2 -22 0 -26 -4z m33 -14 c0 -5 -4 -10 -10
-10 -5 0 -10 5 -10 10 0 6 5 10 10 10 6 0 10 -4 10 -10z"/>
<path d="M5507 3732 c6 -4 13 -23 16 -42 l4 -35 1 37 c2 25 7 38 20 41 9 3 1
5 -18 6 -19 0 -30 -3 -23 -7z"/>
<path d="M5570 3700 c0 -35 3 -40 23 -39 16 1 18 2 5 6 -10 2 -18 11 -18 18 0
7 8 16 18 18 16 4 16 5 0 6 -10 0 -18 5 -18 10 0 5 8 12 18 14 13 4 11 5 -5 6
-20 1 -23 -4 -23 -39z"/>
<path d="M5701 3698 c1 -40 2 -41 9 -13 l7 30 7 -27 c11 -37 21 -35 37 5 l14
32 6 -35 6 -35 2 43 c1 47 -13 55 -31 17 -6 -14 -15 -25 -19 -25 -4 0 -10 11
-13 25 -10 40 -26 29 -25 -17z"/>
<path d="M5811 3698 c1 -38 2 -39 8 -14 l6 29 14 -26 c21 -39 31 -33 30 16 -1
39 -2 40 -8 12 l-8 -30 -13 28 c-19 39 -30 33 -29 -15z"/>
<path d="M5892 3703 c-2 -39 0 -43 21 -42 16 1 17 3 5 6 -11 3 -18 17 -21 41
l-4 37 -1 -42z"/>
<path d="M5953 3700 c0 -25 2 -35 4 -22 2 12 2 32 0 45 -2 12 -4 2 -4 -23z"/>
<path d="M7037 3734 c-12 -12 -8 -64 6 -68 6 -3 24 -7 38 -10 25 -5 25 -4 20
37 -5 36 -10 42 -31 45 -14 2 -29 0 -33 -4z m48 -34 c0 -16 -6 -26 -18 -28
-19 -4 -32 20 -23 44 9 25 41 13 41 -16z"/>
<path d="M7121 3698 c1 -40 2 -41 8 -13 l8 30 13 -27 c19 -40 30 -34 29 15 -1
37 -2 38 -8 13 l-6 -29 -14 26 c-21 39 -31 33 -30 -15z"/>
<path d="M7202 3703 c2 -29 8 -38 23 -40 11 -2 14 0 8 3 -7 3 -13 21 -13 40 0
19 -5 34 -11 34 -6 0 -9 -16 -7 -37z"/>
<path d="M7263 3700 c0 -25 2 -35 4 -22 2 12 2 32 0 45 -2 12 -4 2 -4 -23z"/>
<path d="M6740 3692 c0 -22 4 -43 9 -46 5 -4 7 12 4 36 -8 57 -13 61 -13 10z"/>
<path d="M2231 3707 c-14 -14 -14 -47 0 -47 5 0 8 4 5 9 -3 5 3 11 14 14 11 3
20 10 20 15 0 15 -26 22 -39 9z"/>
<path d="M2333 3713 c-8 -2 -13 -22 -13 -44 0 -32 4 -39 19 -39 25 0 36 17 22
33 -6 8 -6 18 -1 27 18 28 7 37 -27 23z m17 -63 c0 -5 -4 -10 -10 -10 -5 0
-10 5 -10 10 0 6 5 10 10 10 6 0 10 -4 10 -10z"/>
<path d="M2557 3709 c-22 -13 -22 -36 1 -48 32 -17 57 24 29 47 -8 7 -18 7
-30 1z m29 -34 c-5 -14 -9 -15 -21 -5 -12 10 -13 16 -4 27 15 18 34 1 25 -22z"/>
<path d="M3851 3707 c-14 -14 -14 -34 1 -43 6 -4 8 -3 5 3 -4 6 2 13 13 16 11
3 20 10 20 15 0 15 -26 22 -39 9z m24 -7 c3 -5 1 -10 -4 -10 -6 0 -11 5 -11
10 0 6 2 10 4 10 3 0 8 -4 11 -10z"/>
<path d="M3947 3713 c-3 -5 -7 -24 -9 -43 -2 -27 1 -35 16 -38 23 -5 41 12 30
30 -5 7 -7 23 -5 36 2 21 -21 32 -32 15z m23 -63 c0 -5 -4 -10 -10 -10 -5 0
-10 5 -10 10 0 6 5 10 10 10 6 0 10 -4 10 -10z"/>
<path d="M5184 3706 c-9 -23 3 -46 23 -45 17 1 17 2 1 6 -25 6 -22 23 3 23 12
0 19 5 17 13 -7 18 -37 21 -44 3z m33 -2 c-3 -3 -12 -4 -19 -1 -8 3 -5 6 6 6
11 1 17 -2 13 -5z"/>
<path d="M5276 3689 c-9 -47 -8 -49 19 -49 16 0 25 6 25 15 0 8 -8 15 -17 15
-17 1 -17 1 0 11 23 13 22 39 -2 39 -13 0 -20 -10 -25 -31z m34 11 c0 -5 -4
-10 -10 -10 -5 0 -10 5 -10 10 0 6 5 10 10 10 6 0 10 -4 10 -10z m-3 -46 c-3
-3 -12 -4 -19 -1 -8 3 -5 6 6 6 11 1 17 -2 13 -5z"/>
<path d="M6776 3705 c-9 -24 4 -45 28 -44 16 1 17 2 4 6 -24 6 -23 23 2 23 13
0 18 5 14 15 -4 8 -14 15 -24 15 -10 0 -20 -7 -24 -15z"/>
<path d="M6877 3713 c-4 -3 -7 -21 -7 -40 0 -29 3 -33 25 -33 16 0 25 6 25 15
0 8 -8 15 -17 15 -17 1 -17 1 0 11 23 13 22 39 -1 39 -10 0 -22 -3 -25 -7z
m30 -59 c-3 -3 -12 -4 -19 -1 -8 3 -5 6 6 6 11 1 17 -2 13 -5z"/>
<path d="M2988 3683 c7 -3 16 -2 19 1 4 3 -2 6 -13 5 -11 0 -14 -3 -6 -6z"/>
<path d="M4288 3683 c7 -3 16 -2 19 1 4 3 -2 6 -13 5 -11 0 -14 -3 -6 -6z"/>
<path d="M2416 3655 c-9 -26 -7 -32 5 -12 6 10 9 21 6 23 -2 3 -7 -2 -11 -11z"/>
<path d="M2747 3663 c-4 -3 -7 -13 -7 -22 1 -13 3 -13 11 2 11 19 8 33 -4 20z"/>
<path d="M4036 3653 c-6 -14 -5 -15 5 -6 7 7 10 15 7 18 -3 3 -9 -2 -12 -12z"/>
<path d="M5370 3655 c0 -8 2 -15 4 -15 2 0 6 7 10 15 3 8 1 15 -4 15 -6 0 -10
-7 -10 -15z"/>
<path d="M5630 3655 c0 -8 2 -15 4 -15 2 0 6 7 10 15 3 8 1 15 -4 15 -6 0 -10
-7 -10 -15z"/>
<path d="M5976 3653 c-6 -14 -5 -15 5 -6 7 7 10 15 7 18 -3 3 -9 -2 -12 -12z"/>
<path d="M5437 3579 c-20 -12 -23 -68 -4 -73 46 -15 68 -16 61 -4 -5 7 -7 25
-5 40 3 32 -25 52 -52 37z m38 -39 c0 -38 -39 -35 -43 3 -3 25 0 28 20 25 17
-2 23 -9 23 -28z"/>
<path d="M5519 3571 c-21 -16 -22 -22 -11 -45 7 -15 20 -26 31 -26 11 0 27 -3
37 -7 13 -5 15 -3 9 8 -5 8 -8 26 -6 41 4 38 -29 54 -60 29z m48 -21 c4 -23
-13 -44 -31 -37 -9 4 -16 18 -16 32 0 22 4 26 22 23 13 -2 24 -10 25 -18z"/>
<path d="M5601 3543 c0 -27 3 -41 6 -33 4 8 16 22 27 32 21 18 21 18 2 33 -31
23 -36 18 -35 -32z m29 11 c0 -8 -4 -14 -10 -14 -5 0 -10 9 -10 21 0 11 5 17
10 14 6 -3 10 -13 10 -21z"/>
<path d="M5843 3583 c-15 -5 -18 -73 -3 -73 6 0 10 8 10 18 0 14 4 12 21 -8
15 -18 19 -20 15 -7 -3 10 -6 29 -6 42 0 24 -16 35 -37 28z m27 -24 c0 -5 -4
-9 -10 -9 -5 0 -10 7 -10 16 0 8 5 12 10 9 6 -3 10 -10 10 -16z"/>
<path d="M5916 3583 c-3 -3 -6 -21 -6 -40 l0 -33 25 22 c14 12 25 25 25 29 0
12 -36 30 -44 22z m24 -28 c0 -8 -4 -15 -10 -15 -5 0 -10 7 -10 15 0 8 5 15
10 15 6 0 10 -7 10 -15z"/>
<path d="M6045 3535 c0 -29 3 -48 7 -42 4 7 8 26 8 42 0 17 -4 35 -8 42 -4 6
-7 -13 -7 -42z"/>
<path d="M5071 3568 c-1 -9 4 -29 9 -44 11 -29 25 -24 32 11 4 17 7 16 18 -10
l12 -30 15 34 c8 18 12 38 10 45 -3 6 -9 -5 -14 -24 l-10 -35 -7 33 c-4 17
-11 32 -16 32 -5 0 -12 -15 -16 -32 l-7 -33 -13 35 c-7 19 -13 27 -13 18z"/>
<path d="M5191 3538 c2 -33 3 -36 6 -14 l5 29 23 -29 24 -29 -1 45 c0 38 -1
40 -7 16 l-6 -29 -14 26 c-21 39 -31 33 -30 -15z"/>
<path d="M5271 3543 c-1 -38 2 -43 21 -43 19 0 20 1 6 13 -9 6 -19 26 -21 42
-3 24 -4 21 -6 -12z"/>
<path d="M5329 3550 c-7 -35 -4 -48 7 -38 3 4 4 21 2 40 l-3 33 -6 -35z"/>
<path d="M5720 3538 c0 -47 14 -42 25 10 5 25 3 32 -9 32 -12 0 -16 -10 -16
-42z"/>
<path d="M5784 3555 c-7 -27 -19 -33 -27 -12 -4 8 -6 7 -6 -3 0 -8 4 -22 9
-30 7 -12 12 -7 24 20 l14 35 5 -35 c4 -33 4 -33 5 8 2 46 -14 57 -24 17z"/>
<path d="M5977 3573 c-4 -3 -7 -19 -7 -34 0 -29 33 -50 51 -32 6 6 1 9 -13 9
-34 -1 -32 45 2 55 l25 7 -26 1 c-14 1 -29 -2 -32 -6z"/>
<path d="M5356 3493 c-6 -14 -5 -15 5 -6 7 7 10 15 7 18 -3 3 -9 -2 -12 -12z"/>
<path d="M4092 3355 c-11 -23 -10 -25 14 -25 20 0 25 4 20 16 -3 9 -6 20 -6
25 0 18 -17 8 -28 -16z"/>
<path d="M5553 3350 c-11 -28 -10 -30 13 -30 27 0 29 5 11 37 l-13 23 -11 -30z"/>
<path d="M2632 3335 c-11 -23 -10 -25 14 -25 20 0 25 4 20 16 -3 9 -6 20 -6
25 0 18 -17 8 -28 -16z"/>
<path d="M7010 3341 c-14 -27 -9 -34 18 -29 19 3 19 5 8 27 l-13 24 -13 -22z"/>
<path d="M3383 2965 c-6 -25 -7 -48 -3 -50 8 -5 25 84 17 91 -2 2 -8 -16 -14
-41z"/>
<path d="M4211 2963 c-1 -46 2 -53 18 -53 29 0 45 25 31 50 -6 12 -18 19 -25
16 -9 -3 -15 4 -18 17 -2 12 -5 -2 -6 -30z m35 -29 c-5 -13 -10 -14 -18 -6 -6
6 -8 18 -4 28 5 13 10 14 18 6 6 -6 8 -18 4 -28z"/>
<path d="M4470 2990 c0 -12 -5 -17 -13 -14 -8 3 -20 -2 -27 -11 -18 -21 -2
-50 29 -51 19 -1 21 4 21 47 0 27 -2 49 -5 49 -3 0 -5 -9 -5 -20z m-3 -54 c-4
-9 -11 -16 -17 -16 -11 0 -14 33 -3 44 11 10 26 -11 20 -28z"/>
<path d="M5451 2992 c-5 -10 -6 -32 -1 -52 7 -30 8 -31 10 -10 1 14 4 37 6 53
3 31 -1 34 -15 9z"/>
<path d="M5843 2960 c0 -30 2 -43 4 -27 5 31 33 37 33 7 0 -11 5 -20 10 -20
14 0 13 33 -1 47 -6 6 -17 9 -24 6 -8 -3 -15 5 -18 19 -2 13 -4 -2 -4 -32z"/>
<path d="M6072 2960 c-1 -36 1 -50 7 -41 8 13 12 13 28 0 16 -13 17 -13 4 3
-7 10 -10 25 -7 34 4 11 2 15 -8 11 -10 -4 -16 2 -19 21 -2 15 -5 2 -5 -28z"/>
<path d="M4396 2985 c-3 -8 -9 -15 -13 -14 -26 4 -34 -3 -31 -28 2 -22 9 -29
31 -31 26 -3 27 -2 27 42 0 48 -4 56 -14 31z m-4 -57 c-16 -16 -37 4 -28 28 6
16 8 16 23 1 13 -13 15 -19 5 -29z"/>
<path d="M3767 2982 c-3 -4 -2 -22 0 -39 4 -22 11 -33 22 -32 10 0 11 2 4 6
-16 6 -17 35 -2 50 7 7 6 12 -5 16 -8 3 -17 3 -19 -1z"/>
<path d="M3940 2967 c0 -29 9 -57 19 -57 3 0 6 17 5 37 -1 41 -24 60 -24 20z"/>
<path d="M4897 2984 c-9 -9 9 -68 22 -72 10 -3 10 0 0 16 -10 16 -10 24 -1 35
10 12 10 16 -2 20 -8 3 -16 4 -19 1z"/>
<path d="M5947 2984 c-9 -9 9 -68 22 -72 10 -3 10 0 0 16 -10 16 -10 24 -1 35
10 12 10 16 -2 20 -8 3 -16 4 -19 1z"/>
<path d="M3559 2964 c-15 -18 -2 -48 22 -50 10 -1 11 0 1 3 -17 6 -11 49 6 45
8 -1 11 2 7 8 -9 14 -20 12 -36 -6z"/>
<path d="M3620 2965 c-14 -17 -7 -43 15 -51 15 -6 45 11 45 27 0 4 -7 15 -16
23 -19 20 -28 20 -44 1z m40 -20 c0 -8 -5 -17 -11 -21 -16 -9 -30 18 -17 33
12 15 28 8 28 -12z"/>
<path d="M3708 2972 c-12 -2 -18 -13 -18 -33 0 -18 4 -28 10 -24 6 3 10 15 10
26 0 28 23 19 31 -12 6 -22 7 -21 8 7 1 33 -11 43 -41 36z"/>
<path d="M3822 2971 c-23 -14 -10 -56 18 -58 l25 -3 -25 12 -25 11 23 5 c15 2
22 9 20 19 -4 20 -19 26 -36 14z m23 -11 c3 -5 -1 -10 -10 -10 -9 0 -13 5 -10
10 3 6 8 10 10 10 2 0 7 -4 10 -10z"/>
<path d="M4030 2965 c-18 -22 -8 -50 20 -52 l25 -3 -25 11 c-18 8 -21 13 -10
16 44 13 43 13 30 28 -16 19 -24 19 -40 0z m30 -5 c0 -5 -4 -10 -10 -10 -5 0
-10 5 -10 10 0 6 5 10 10 10 6 0 10 -4 10 -10z"/>
<path d="M4108 2972 c-19 -4 -26 -52 -8 -52 6 0 10 9 10 20 0 11 5 20 10 20 6
0 10 -9 10 -20 0 -11 5 -20 10 -20 6 0 10 9 10 19 0 34 19 33 29 -1 9 -31 9
-32 10 -6 1 37 -27 51 -81 40z"/>
<path d="M4292 2971 c-23 -14 -10 -56 18 -58 l25 -3 -25 12 -25 11 23 5 c15 2
22 9 20 19 -4 20 -19 26 -36 14z m23 -11 c3 -5 -1 -10 -10 -10 -9 0 -13 5 -10
10 3 6 8 10 10 10 2 0 7 -4 10 -10z"/>
<path d="M4503 2945 c0 -22 2 -30 4 -17 2 12 2 30 0 40 -3 9 -5 -1 -4 -23z"/>
<path d="M4548 2972 c-13 -2 -18 -13 -17 -35 1 -29 2 -30 8 -8 8 31 31 40 31
12 0 -11 5 -23 10 -26 15 -9 12 41 -2 52 -7 5 -21 8 -30 5z"/>
<path d="M4612 2968 c-7 -7 -12 -26 -12 -44 0 -37 25 -53 49 -30 13 14 12 16
-9 24 -19 7 -20 10 -7 15 20 7 23 47 4 47 -7 0 -18 -5 -25 -12z m25 -24 c-9
-9 -28 6 -21 18 4 6 10 6 17 -1 6 -6 8 -13 4 -17z m3 -44 c0 -5 -4 -10 -9 -10
-6 0 -13 5 -16 10 -3 6 1 10 9 10 9 0 16 -4 16 -10z"/>
<path d="M4701 2973 c-1 -6 4 -24 10 -40 10 -27 11 -27 25 -9 8 11 14 27 13
35 0 9 -5 5 -10 -9 l-11 -25 -13 30 c-7 17 -14 25 -14 18z"/>
<path d="M4775 2964 c-8 -9 -15 -19 -15 -23 0 -15 29 -33 42 -28 8 4 7 6 -4 6
-25 1 -23 21 2 21 11 0 20 6 20 14 0 21 -27 27 -45 10z m30 -4 c3 -5 -1 -10
-10 -10 -9 0 -13 5 -10 10 3 6 8 10 10 10 2 0 7 -4 10 -10z"/>
<path d="M4844 2966 c-15 -12 -17 -18 -8 -33 12 -20 44 -30 44 -14 0 6 -7 8
-16 4 -12 -4 -15 0 -12 18 2 13 9 23 16 21 8 -1 11 2 7 8 -8 13 -7 13 -31 -4z"/>
<path d="M4950 2965 c-19 -23 -8 -50 20 -50 19 0 26 6 28 24 5 35 -26 53 -48
26z m40 -20 c0 -19 -20 -29 -32 -17 -8 8 -7 16 2 26 14 17 30 12 30 -9z"/>
<path d="M5033 2973 c-7 -3 -12 -19 -12 -36 1 -22 3 -25 6 -12 3 11 10 26 16
33 12 15 7 21 -10 15z"/>
<path d="M5070 2970 c-13 -9 -12 -12 5 -26 17 -13 18 -16 5 -24 -13 -8 -13
-10 2 -10 25 0 33 21 14 36 -10 7 -15 17 -11 23 8 14 4 14 -15 1z"/>
<path d="M5202 2971 c-8 -4 -12 -19 -10 -32 2 -18 9 -24 28 -24 19 0 26 6 28
24 3 20 -11 41 -28 41 -3 0 -11 -4 -18 -9z m38 -26 c0 -19 -20 -29 -32 -17
-15 15 -2 43 17 36 8 -3 15 -12 15 -19z"/>
<path d="M5283 2973 c-7 -2 -12 -19 -12 -36 l1 -32 7 29 c3 17 11 30 16 30 6
0 13 -13 17 -30 6 -28 6 -28 5 5 -2 35 -11 44 -34 34z"/>
<path d="M5352 2971 c-23 -14 -10 -56 18 -58 l25 -3 -25 12 -25 11 23 5 c15 2
22 9 20 19 -4 20 -19 26 -36 14z m23 -11 c3 -5 -1 -10 -10 -10 -9 0 -13 5 -10
10 3 6 8 10 10 10 2 0 7 -4 10 -10z"/>
<path d="M5490 2965 c-19 -23 -8 -50 20 -50 19 0 26 6 28 24 5 35 -26 53 -48
26z m40 -20 c0 -19 -20 -29 -32 -17 -8 8 -7 16 2 26 14 17 30 12 30 -9z"/>
<path d="M5573 2973 c-7 -3 -12 -19 -12 -36 1 -22 3 -25 6 -12 3 11 10 26 16
33 12 15 7 21 -10 15z"/>
<path d="M5652 2971 c-23 -14 -10 -56 18 -58 l25 -3 -25 11 c-18 8 -21 13 -10
16 44 13 43 13 30 28 -14 17 -20 18 -38 6z m28 -11 c0 -5 -4 -10 -10 -10 -5 0
-10 5 -10 10 0 6 5 10 10 10 6 0 10 -4 10 -10z"/>
<path d="M5734 2967 c18 -13 18 -14 -4 -20 -27 -7 -22 -31 9 -35 20 -3 22 0
19 30 -2 24 -9 34 -23 36 -19 4 -20 3 -1 -11z m11 -37 c-3 -5 -10 -10 -16 -10
-5 0 -9 5 -9 10 0 6 7 10 16 10 8 0 12 -4 9 -10z"/>
<path d="M5792 2971 c-21 -13 -11 -55 13 -58 17 -2 17 -1 2 3 -21 7 -20 51 1
46 8 -1 11 2 7 8 -7 12 -7 12 -23 1z"/>
<path d="M6000 2965 c-19 -23 -8 -50 20 -50 19 0 26 6 28 24 5 35 -26 53 -48
26z m37 -29 c-4 -9 -11 -16 -17 -16 -17 0 -24 31 -9 41 18 11 34 -5 26 -25z"/>
<path d="M6135 2964 c-20 -21 -3 -55 28 -53 l22 2 -22 4 c-28 5 -30 23 -3 23
11 0 20 6 20 14 0 21 -27 27 -45 10z m30 -4 c3 -5 -1 -10 -10 -10 -9 0 -13 5
-10 10 3 6 8 10 10 10 2 0 7 -4 10 -10z"/>
<path d="M6218 2972 c-13 -2 -18 -13 -17 -35 1 -29 2 -30 8 -8 8 31 31 40 31
12 0 -12 5 -21 10 -21 14 0 12 36 -2 47 -7 5 -21 8 -30 5z"/>
<path d="M3884 2955 c2 -5 -1 -19 -7 -30 -9 -18 -9 -19 7 -6 14 12 19 12 25 2
5 -8 8 -2 7 16 -1 20 -6 29 -19 29 -9 0 -16 -5 -13 -11z"/>
<path d="M3446 2923 c-6 -14 -5 -15 5 -6 7 7 10 15 7 18 -3 3 -9 -2 -12 -12z"/>
<path d="M5127 2923 c-4 -3 -7 -11 -7 -17 0 -6 5 -5 12 2 6 6 9 14 7 17 -3 3
-9 2 -12 -2z"/>
<path d="M3428 2883 c6 -2 18 -2 25 0 6 3 1 5 -13 5 -14 0 -19 -2 -12 -5z"/>
<path d="M4821 2711 c-15 -28 -14 -31 13 -31 19 0 23 4 19 20 -8 29 -20 33
-32 11z"/>
<path d="M1972 2308 c2 -216 6 -191 10 70 2 78 0 142 -4 142 -5 0 -7 -96 -6
-212z"/>
<path d="M7685 2310 c0 -115 3 -210 8 -210 4 0 7 95 7 210 0 116 -3 210 -7
210 -5 0 -8 -94 -8 -210z"/>
<path d="M4583 2343 c-8 -22 -9 -43 -2 -68 14 -50 25 -44 21 13 -5 87 -6 90
-19 55z"/>
<path d="M6325 2305 c0 -66 8 -83 19 -42 8 29 8 71 0 91 -12 32 -19 15 -19
-49z"/>
<path d="M3318 2353 c7 -2 12 -22 12 -44 0 -21 5 -39 10 -39 6 0 10 16 10 35
0 22 6 38 18 44 13 8 9 10 -23 10 -22 0 -34 -3 -27 -6z"/>
<path d="M3628 2343 c-5 -27 3 -73 13 -73 5 0 9 10 10 23 0 12 2 32 3 45 3 26
-21 30 -26 5z"/>
<path d="M4070 2315 c0 -43 1 -45 28 -44 16 1 20 3 10 6 -10 2 -18 11 -18 18
0 7 8 16 18 18 16 4 16 5 0 6 -10 0 -18 7 -18 15 0 8 8 17 18 19 10 3 6 5 -10
6 -27 1 -28 -1 -28 -44z"/>
<path d="M4390 2345 c0 -8 -9 -15 -19 -15 -10 0 -21 -7 -25 -15 -10 -26 5 -45
35 -45 28 0 29 2 29 45 0 25 -4 45 -10 45 -5 0 -10 -7 -10 -15z m-5 -55 c-5
-8 -11 -8 -17 -2 -6 6 -7 16 -3 22 5 8 11 8 17 2 6 -6 7 -16 3 -22z"/>
<path d="M5210 2315 c0 -25 5 -45 10 -45 6 0 10 20 10 45 0 25 -4 45 -10 45
-5 0 -10 -20 -10 -45z"/>
<path d="M5462 2318 c3 -40 5 -43 33 -43 24 0 31 5 33 23 3 17 -2 25 -17 29
-11 3 -22 11 -25 19 -12 31 -27 13 -24 -28z m48 -12 c0 -8 -4 -18 -10 -21 -5
-3 -10 3 -10 14 0 12 5 21 10 21 6 0 10 -6 10 -14z"/>
<path d="M5650 2346 c0 -7 -9 -16 -20 -19 -14 -3 -20 -14 -20 -31 0 -22 4 -26
30 -26 29 0 30 2 30 45 0 25 -4 45 -10 45 -5 0 -10 -6 -10 -14z m0 -46 c0 -11
-4 -20 -10 -20 -5 0 -10 9 -10 20 0 11 5 20 10 20 6 0 10 -9 10 -20z"/>
<path d="M5730 2345 c0 -8 -9 -15 -20 -15 -16 0 -20 -7 -20 -30 0 -27 3 -30
30 -30 29 0 30 2 30 45 0 25 -4 45 -10 45 -5 0 -10 -7 -10 -15z m0 -39 c0 -8
-4 -18 -10 -21 -5 -3 -10 3 -10 14 0 12 5 21 10 21 6 0 10 -6 10 -14z"/>
<path d="M5771 2316 c-1 -37 2 -47 10 -39 8 8 8 22 1 50 l-10 38 -1 -49z"/>
<path d="M5980 2315 c0 -25 5 -45 10 -45 6 0 10 20 10 45 0 25 -4 45 -10 45
-5 0 -10 -20 -10 -45z"/>
<path d="M4837 2343 c-9 -16 5 -73 19 -73 12 0 12 4 2 20 -11 17 -11 22 0 29
10 6 10 10 -2 20 -8 7 -16 8 -19 4z"/>
<path d="M5017 2343 c-8 -14 5 -73 17 -73 14 0 13 57 -1 71 -6 6 -13 7 -16 2z"/>
<path d="M3380 2300 c0 -16 5 -30 10 -30 6 0 10 8 10 18 0 10 5 23 12 30 9 9
7 12 -10 12 -18 0 -22 -6 -22 -30z"/>
<path d="M3443 2323 c18 -5 17 -6 -2 -20 -26 -17 -19 -33 15 -33 20 0 24 5 24
30 0 26 -3 30 -27 29 -19 -1 -22 -3 -10 -6z"/>
<path d="M3490 2301 c0 -36 17 -42 22 -8 2 12 8 22 13 22 6 0 11 -10 13 -22 5
-33 24 -28 20 5 -2 22 -8 28 -35 30 -31 3 -33 1 -33 -27z"/>
<path d="M3570 2315 c0 -9 8 -19 17 -22 15 -6 15 -7 -3 -14 -18 -7 -17 -8 3
-8 29 -1 40 19 18 31 -14 8 -15 12 -4 19 10 6 8 9 -8 9 -14 0 -23 -6 -23 -15z"/>
<path d="M3667 2316 c-11 -28 4 -47 32 -44 20 2 26 8 26 28 0 20 -6 26 -26 28
-17 2 -29 -3 -32 -12z m43 -16 c0 -11 -4 -20 -9 -20 -14 0 -23 18 -16 30 10
17 25 11 25 -10z"/>
<path d="M3750 2300 c0 -16 2 -30 4 -30 3 0 11 14 20 30 14 28 13 30 -5 30
-14 0 -19 -7 -19 -30z"/>
<path d="M3800 2300 c0 -18 4 -29 10 -25 6 3 10 15 10 26 0 11 5 17 10 14 6
-3 10 -15 10 -26 0 -10 5 -19 10 -19 6 0 10 11 10 25 0 14 5 25 10 25 6 0 10
-11 10 -25 0 -14 5 -25 11 -25 6 0 9 12 7 28 -3 25 -7 27 -50 30 -48 3 -48 3
-48 -28z"/>
<path d="M3914 2316 c-10 -25 3 -46 28 -45 17 1 18 2 6 6 -25 6 -22 23 3 23
27 0 19 24 -9 28 -13 2 -25 -3 -28 -12z"/>
<path d="M3980 2300 c0 -16 5 -30 10 -30 6 0 10 9 10 20 0 11 5 20 10 20 6 0
10 5 10 10 0 6 -9 10 -20 10 -16 0 -20 -7 -20 -30z"/>
<path d="M4130 2301 c0 -36 17 -42 22 -8 2 12 8 22 13 22 6 0 11 -10 13 -22 5
-33 24 -28 20 5 -2 22 -8 28 -35 30 -31 3 -33 1 -33 -27z"/>
<path d="M4214 2315 c-9 -23 3 -45 26 -45 11 0 20 4 20 10 0 5 -7 7 -15 4 -10
-4 -15 0 -15 14 0 11 8 23 18 25 12 4 11 5 -6 6 -12 0 -25 -6 -28 -14z"/>
<path d="M4277 2323 c-4 -3 -7 -17 -7 -30 0 -21 4 -24 28 -21 21 2 28 9 30 31
3 23 0 27 -21 27 -13 0 -27 -3 -30 -7z m33 -23 c0 -11 -4 -20 -9 -20 -14 0
-23 18 -16 30 10 17 25 11 25 -10z"/>
<path d="M4424 2315 c-10 -26 4 -45 33 -44 l28 0 -25 11 c-25 11 -25 11 -2 15
12 3 22 11 22 19 0 19 -49 18 -56 -1z"/>
<path d="M4490 2300 c0 -16 5 -30 10 -30 6 0 10 5 10 12 0 6 7 20 17 30 15 17
15 18 -10 18 -23 0 -27 -4 -27 -30z"/>
<path d="M4624 2315 c-9 -23 3 -45 26 -45 11 0 20 4 20 10 0 5 -7 7 -15 4 -10
-4 -15 0 -15 14 0 11 8 23 18 25 12 4 11 5 -6 6 -12 0 -25 -6 -28 -14z"/>
<path d="M4687 2323 c-4 -3 -7 -17 -7 -30 0 -21 4 -24 28 -21 21 2 28 9 30 31
3 23 0 27 -21 27 -13 0 -27 -3 -30 -7z m33 -23 c0 -11 -4 -20 -10 -20 -5 0
-10 9 -10 20 0 11 5 20 10 20 6 0 10 -9 10 -20z"/>
<path d="M4760 2301 c0 -17 5 -31 10 -31 6 0 10 11 10 25 0 14 5 25 10 25 6 0
10 -11 10 -25 0 -14 5 -25 11 -25 6 0 9 12 7 28 -2 21 -9 28 -30 30 -25 3 -28
0 -28 -27z"/>
<path d="M4884 2316 c-10 -25 3 -46 28 -45 17 1 18 2 6 6 -25 6 -22 23 3 23
27 0 19 24 -9 28 -13 2 -25 -3 -28 -12z"/>
<path d="M4953 2300 c0 -22 5 -27 22 -27 17 0 22 5 22 27 0 22 -5 28 -22 28
-17 0 -22 -6 -22 -28z"/>
<path d="M5062 2303 c2 -22 9 -29 31 -31 24 -3 27 0 27 27 0 17 -4 31 -10 31
-5 0 -10 -11 -10 -25 0 -14 -4 -25 -10 -25 -5 0 -10 11 -10 25 0 14 -5 25 -11
25 -6 0 -9 -12 -7 -27z"/>
<path d="M5154 2321 c18 -7 18 -8 3 -14 -27 -10 -21 -37 8 -37 21 0 25 5 25
30 0 26 -3 30 -27 29 -24 0 -25 -2 -9 -8z"/>
<path d="M5275 2310 c-9 -28 2 -40 33 -39 17 1 21 3 10 6 -22 5 -24 23 -3 23
8 0 15 7 15 15 0 23 -47 19 -55 -5z"/>
<path d="M5350 2300 c0 -16 5 -30 10 -30 6 0 10 11 10 25 0 14 5 25 10 25 6 0
10 -11 10 -25 0 -14 5 -25 10 -25 6 0 10 11 10 25 0 14 5 25 10 25 6 0 10 -11
10 -25 0 -14 5 -25 10 -25 6 0 10 14 10 30 0 29 -1 30 -50 30 -49 0 -50 -1
-50 -30z"/>
<path d="M5544 2316 c-10 -25 3 -46 28 -45 17 1 18 2 6 6 -25 6 -22 23 3 23
27 0 19 24 -9 28 -13 2 -25 -3 -28 -12z"/>
<path d="M5800 2300 c0 -16 5 -30 10 -30 6 0 10 9 10 19 0 11 5 23 10 26 6 4
10 -5 10 -19 0 -14 5 -26 10 -26 6 0 10 14 10 30 0 27 -3 30 -30 30 -27 0 -30
-3 -30 -30z"/>
<path d="M5879 2313 c-5 -68 -5 -68 21 -68 33 0 42 35 8 36 l-23 0 23 9 c30
13 29 40 -3 40 -17 0 -25 -6 -26 -17z"/>
<path d="M6035 2321 c19 -8 19 -8 -3 -15 -30 -10 -23 -30 11 -34 24 -3 27 0
27 27 0 27 -3 31 -27 30 -24 0 -25 -1 -8 -8z"/>
<path d="M6085 2303 c4 -16 7 -36 7 -45 -1 -30 16 -20 29 17 12 32 14 33 21
15 5 -14 16 -20 35 -19 17 1 21 3 11 6 -22 5 -24 23 -3 23 8 0 15 7 15 15 0
21 -70 17 -87 -5 -11 -13 -12 -13 -13 3 0 9 -5 17 -11 17 -7 0 -9 -10 -4 -27z"/>
<path d="M6220 2299 c0 -16 5 -29 10 -29 6 0 10 9 10 19 0 29 15 33 34 12 17
-18 17 -20 -1 -24 -12 -3 -9 -5 10 -6 31 -1 38 25 10 36 -15 6 -14 7 3 14 12
4 2 7 -28 7 -46 0 -48 -1 -48 -29z"/>
<path d="M830 2095 c0 -30 5 -55 10 -55 6 0 10 14 10 30 0 20 5 30 15 30 10 0
15 -10 15 -30 0 -16 5 -30 11 -30 6 0 9 14 7 33 -2 24 -8 33 -25 35 -15 2 -23
10 -23 23 0 10 -4 19 -10 19 -5 0 -10 -25 -10 -55z"/>
<path d="M1190 2130 c0 -15 -7 -20 -24 -20 -15 0 -27 -7 -31 -19 -9 -31 5 -51
36 -51 28 0 29 1 29 55 0 30 -2 55 -5 55 -3 0 -5 -9 -5 -20z m-5 -55 c0 -11
-8 -21 -17 -23 -14 -3 -18 3 -18 23 0 20 4 26 18 23 9 -2 17 -12 17 -23z"/>
<path d="M759 2124 c-11 -14 -9 -19 14 -36 34 -25 34 -36 0 -41 -26 -4 -26 -4
5 -6 28 -1 32 2 32 23 0 16 -7 27 -20 31 -27 9 -25 33 3 38 21 4 21 4 1 6 -12
0 -28 -6 -35 -15z"/>
<path d="M938 2103 c27 -6 29 -19 2 -26 -33 -9 -25 -37 11 -37 28 0 30 2 27
33 -3 28 -7 32 -33 34 -20 1 -23 0 -7 -4z m22 -43 c0 -5 -7 -10 -15 -10 -8 0
-15 5 -15 10 0 6 7 10 15 10 8 0 15 -4 15 -10z"/>
<path d="M1001 2073 c1 -27 3 -31 6 -13 2 14 12 31 21 38 14 11 13 12 -6 12
-19 0 -22 -5 -21 -37z"/>
<path d="M1054 2086 c-8 -33 2 -46 34 -45 24 2 24 2 5 6 -31 6 -29 23 3 23 36
0 29 34 -8 38 -22 3 -29 -2 -34 -22z m46 4 c0 -5 -7 -10 -15 -10 -8 0 -15 5
-15 10 0 6 7 10 15 10 8 0 15 -4 15 -10z"/>
<path d="M4824 2083 c-1 -10 -3 -25 -5 -33 -3 -10 3 -15 16 -15 13 0 19 5 16
15 -2 8 -4 23 -5 33 0 9 -5 17 -11 17 -6 0 -11 -8 -11 -17z"/>
<path d="M803 1890 c0 -36 2 -50 4 -32 2 17 2 47 0 65 -2 17 -4 3 -4 -33z"/>
<path d="M853 1904 c23 -7 22 -20 -3 -27 -20 -5 -27 -31 -12 -41 5 -3 19 -2
31 1 18 4 21 12 19 37 -2 25 -8 31 -28 33 -14 1 -18 0 -7 -3z m17 -42 c0 -13
-12 -22 -22 -16 -10 6 -1 24 13 24 5 0 9 -4 9 -8z"/>
<path d="M915 1873 c9 -20 13 -43 11 -50 -3 -7 -2 -13 2 -13 9 0 44 91 37 98
-2 3 -10 -8 -16 -24 l-12 -29 -10 28 c-6 15 -15 27 -19 27 -5 0 -1 -17 7 -37z"/>
<path d="M984 1896 c-14 -37 23 -83 47 -59 8 8 7 11 -6 10 -10 -1 -20 4 -22
11 -3 7 5 12 22 12 21 0 26 4 21 16 -3 9 -6 18 -6 20 0 11 -51 2 -56 -10z m46
-6 c0 -5 -7 -10 -15 -10 -8 0 -15 5 -15 10 0 6 7 10 15 10 8 0 15 -4 15 -10z"/>
<path d="M1071 1868 c2 -34 3 -37 6 -13 2 17 12 36 21 43 14 11 13 12 -6 12
-19 0 -22 -5 -21 -42z"/>
<path d="M1124 1898 c-4 -6 0 -16 9 -23 22 -16 22 -36 0 -28 -14 4 -15 3 -7
-6 13 -14 44 -4 44 15 0 7 -10 19 -22 25 -22 12 -22 12 -3 20 16 6 17 8 3 8
-9 1 -20 -4 -24 -11z"/>
<path d="M3550 1696 c0 -7 -3 -28 -6 -45 -4 -21 -3 -31 5 -31 7 0 10 4 7 8 -3
4 -1 25 4 45 4 21 4 37 -1 37 -5 0 -9 -6 -9 -14z"/>
<path d="M4241 1667 c-1 -47 0 -48 27 -45 21 2 27 8 27 28 0 18 -6 26 -22 28
-12 2 -24 11 -26 20 -3 9 -5 -5 -6 -31z m39 -17 c0 -11 -7 -20 -15 -20 -15 0
-21 21 -8 33 12 13 23 7 23 -13z"/>
<path d="M4430 1696 c0 -8 -10 -16 -22 -18 -26 -3 -35 -32 -18 -52 6 -8 20
-12 30 -9 16 4 20 14 20 49 0 24 -2 44 -5 44 -3 0 -5 -6 -5 -14z m-4 -37 c10
-17 -13 -36 -27 -22 -12 12 -4 33 11 33 5 0 12 -5 16 -11z"/>
<path d="M4500 1697 c0 -7 -10 -17 -22 -22 -33 -15 -30 -49 5 -53 26 -3 27 -2
27 42 0 25 -2 46 -5 46 -3 0 -5 -6 -5 -13z m-2 -50 c2 -10 -3 -17 -12 -17 -10
0 -16 9 -16 21 0 24 23 21 28 -4z"/>
<path d="M5682 1665 c0 -34 2 -42 7 -26 9 35 29 37 34 4 l4 -28 2 28 c1 21 -4
30 -18 34 -11 3 -22 12 -24 22 -3 9 -5 -6 -5 -34z"/>
<path d="M5908 1704 c-12 -11 -10 -84 2 -84 6 0 10 5 10 11 0 8 6 7 18 -2 15
-13 16 -12 3 4 -11 14 -11 20 0 35 13 15 12 16 -3 4 -14 -12 -17 -10 -20 13
-2 15 -6 23 -10 19z"/>
<path d="M3978 1688 c-6 -17 3 -68 12 -68 5 0 6 9 3 21 -3 12 -1 24 4 28 7 4
6 10 -2 18 -10 9 -15 9 -17 1z"/>
<path d="M4928 1685 c-8 -9 6 -58 18 -62 5 -2 9 11 8 29 -1 30 -13 46 -26 33z"/>
<path d="M5778 1685 c-8 -9 3 -53 17 -65 9 -7 11 -1 10 27 -2 35 -14 51 -27
38z"/>
<path d="M3722 1650 c0 -19 2 -27 5 -17 2 9 2 25 0 35 -3 9 -5 1 -5 -18z"/>
<path d="M3750 1650 c0 -18 4 -29 10 -25 6 3 10 15 10 26 0 10 5 19 10 19 6 0
10 -9 10 -19 0 -11 5 -23 11 -26 7 -5 9 3 7 21 -2 23 -9 30 -30 32 -25 3 -28
0 -28 -28z"/>
<path d="M3830 1634 c0 -52 11 -55 13 -3 1 18 8 34 16 37 10 3 13 -2 9 -22 -3
-14 -1 -26 4 -26 5 0 8 12 6 28 -2 19 -9 28 -25 30 -21 3 -23 -1 -23 -44z"/>
<path d="M3901 1653 c-1 -32 11 -43 42 -35 11 3 17 14 17 33 0 37 -18 38 -22
2 -4 -37 -21 -36 -29 2 l-7 30 -1 -32z"/>
<path d="M4057 1673 c-15 -14 -6 -43 16 -53 18 -9 20 -9 7 2 -9 7 -14 21 -12
31 4 20 18 23 25 5 2 -7 8 -10 12 -6 4 4 4 11 0 17 -7 12 -38 15 -48 4z"/>
<path d="M4131 1647 c2 -31 2 -31 6 -4 5 33 25 31 34 -4 7 -23 7 -23 8 4 1 34
22 32 33 -4 6 -22 7 -21 5 6 -2 28 -5 30 -44 32 -43 3 -43 2 -42 -30z"/>
<path d="M4317 1673 c-15 -14 -6 -43 16 -53 18 -9 20 -9 7 2 -9 7 -14 21 -12
31 4 18 22 24 22 7 0 -5 4 -10 10 -10 5 0 7 7 4 15 -6 15 -35 20 -47 8z"/>
<path d="M4532 1650 c0 -19 2 -27 5 -17 2 9 2 25 0 35 -3 9 -5 1 -5 -18z"/>
<path d="M4571 1648 c2 -31 2 -31 6 -5 5 33 24 31 35 -4 6 -22 7 -21 5 6 -2
23 -7 31 -24 33 -20 3 -23 -1 -22 -30z"/>
<path d="M4639 1663 c-5 -67 -4 -68 20 -68 32 0 39 23 9 34 -15 7 -17 10 -7
10 9 1 19 10 22 21 4 16 0 20 -19 20 -16 0 -24 -6 -25 -17z m31 -3 c0 -5 -4
-10 -10 -10 -5 0 -10 5 -10 10 0 6 5 10 10 10 6 0 10 -4 10 -10z m5 -50 c3 -5
-3 -10 -15 -10 -12 0 -18 5 -15 10 3 6 10 10 15 10 5 0 12 -4 15 -10z"/>
<path d="M4730 1676 c0 -15 21 -56 28 -56 11 0 35 51 27 58 -3 4 -8 -4 -12
-16 -6 -25 -23 -30 -23 -8 0 8 -4 18 -10 21 -5 3 -10 4 -10 1z"/>
<path d="M4807 1673 c-13 -12 -7 -51 9 -57 10 -4 13 -2 7 6 -12 21 -10 48 4
48 7 0 13 -4 13 -10 0 -5 5 -10 11 -10 8 0 8 5 -1 15 -13 16 -32 19 -43 8z"/>
<path d="M4877 1673 c-4 -3 -7 -16 -7 -29 0 -24 25 -40 36 -22 4 7 3 8 -5 4
-20 -13 -26 26 -6 40 15 11 16 14 4 14 -9 0 -19 -3 -22 -7z"/>
<path d="M4982 1668 c-18 -18 -15 -36 7 -48 23 -12 56 14 47 37 -3 8 -6 17 -6
19 0 9 -37 3 -48 -8z m36 -20 c-2 -13 -7 -23 -13 -23 -5 0 -11 10 -13 23 -2
15 2 22 13 22 11 0 15 -7 13 -22z"/>
<path d="M5050 1649 c0 -17 4 -28 10 -24 6 3 10 15 10 25 0 10 6 21 13 23 6 3
2 6 -10 6 -19 1 -23 -4 -23 -30z"/>
<path d="M5100 1665 c0 -9 7 -18 15 -21 8 -4 12 -10 9 -15 -3 -5 -10 -6 -16
-3 -7 4 -8 2 -4 -4 7 -12 36 -5 36 8 0 4 -7 13 -15 20 -13 11 -13 15 -3 21 10
7 9 9 -4 9 -10 0 -18 -7 -18 -15z"/>
<path d="M5227 1674 c-13 -13 -7 -52 8 -58 8 -3 15 -1 15 4 0 6 -5 10 -11 10
-6 0 -9 8 -7 18 5 26 33 21 32 -6 0 -14 3 -19 9 -13 15 15 3 46 -19 49 -11 2
-23 0 -27 -4z"/>
<path d="M5301 1648 c1 -30 2 -30 8 -9 9 35 29 37 34 4 4 -27 4 -27 6 5 1 28
-2 32 -24 32 -22 0 -25 -4 -24 -32z"/>
<path d="M5377 1673 c-12 -11 -8 -40 8 -53 10 -9 15 -9 15 -1 0 6 -4 11 -9 11
-5 0 -7 9 -4 20 5 20 23 28 23 10 0 -5 4 -10 10 -10 5 0 7 7 4 15 -6 15 -35
20 -47 8z"/>
<path d="M5482 1668 c-18 -18 -15 -36 11 -49 18 -9 20 -9 10 2 -18 18 -16 49
3 49 8 0 12 -4 9 -10 -3 -5 -1 -10 5 -10 16 0 6 24 -11 28 -8 1 -20 -3 -27
-10z"/>
<path d="M5563 1674 c10 -3 17 -15 17 -30 0 -13 5 -24 11 -24 6 0 9 12 7 28
-2 21 -9 27 -28 29 -14 1 -18 0 -7 -3z"/>
<path d="M5615 1660 c-7 -22 1 -40 17 -40 7 0 7 4 0 13 -12 14 -4 31 18 40 10
4 8 6 -7 6 -13 1 -24 -7 -28 -19z"/>
<path d="M5832 1668 c-18 -18 -15 -36 7 -48 15 -7 23 -6 35 6 9 8 16 19 16 23
0 11 -23 31 -35 31 -6 0 -16 -5 -23 -12z m36 -20 c-2 -13 -7 -23 -13 -23 -5 0
-11 10 -13 23 -2 15 2 22 13 22 11 0 15 -7 13 -22z"/>
<path d="M5966 1664 c-10 -26 -7 -33 17 -45 18 -9 20 -9 10 2 -15 15 -17 49
-4 49 5 0 11 -6 14 -12 2 -7 8 -10 12 -6 11 10 -4 28 -25 28 -10 0 -21 -7 -24
-16z"/>
<path d="M6041 1648 c2 -31 2 -31 6 -5 5 33 24 31 35 -4 6 -22 7 -21 5 6 -2
23 -7 31 -24 33 -20 3 -23 -1 -22 -30z"/>
<path d="M3602 1620 c0 -19 2 -27 5 -17 2 9 2 25 0 35 -3 9 -5 1 -5 -18z"/>
<path d="M5546 1641 c-3 -5 0 -13 7 -19 10 -8 13 -6 13 9 0 20 -11 25 -20 10z"/>
<path d="M5157 1623 c-4 -3 -7 -11 -7 -17 0 -6 5 -5 12 2 6 6 9 14 7 17 -3 3
-9 2 -12 -2z"/>
<path d="M4820 1421 c-14 -27 -9 -34 18 -29 19 3 19 5 8 27 l-13 24 -13 -22z"/>
<path d="M3413 1213 c791 -2 2083 -2 2870 0 788 1 141 2 -1438 2 -1578 0
-2223 -1 -1432 -2z"/>
<path d="M4280 1046 c0 -7 -9 -16 -21 -19 -16 -4 -20 -12 -17 -34 2 -22 9 -29
31 -31 26 -3 27 -2 27 47 0 28 -4 51 -10 51 -5 0 -10 -6 -10 -14z m0 -51 c0
-8 -4 -15 -10 -15 -5 0 -10 7 -10 15 0 8 5 15 10 15 6 0 10 -7 10 -15z"/>
<path d="M4476 1044 c-12 -32 -4 -104 13 -104 3 0 6 27 6 60 0 59 -7 75 -19
44z"/>
<path d="M4790 1047 c0 -17 -10 -20 -62 -20 -25 0 -28 -3 -28 -33 0 -19 5 -34
10 -34 6 0 10 11 10 25 0 31 17 33 22 3 2 -18 10 -23 33 -23 28 0 30 3 33 39
2 21 -1 43 -7 49 -8 8 -11 6 -11 -6z m-8 -52 c0 -5 -5 -11 -11 -13 -6 -2 -11
4 -11 13 0 9 5 15 11 13 6 -2 11 -8 11 -13z"/>
<path d="M5600 1046 c0 -9 -6 -16 -14 -16 -21 0 -38 -27 -31 -49 4 -14 14 -19
35 -19 28 1 30 3 30 44 0 24 -4 46 -10 49 -5 3 -10 -1 -10 -9z m0 -51 c0 -8
-7 -15 -15 -15 -8 0 -15 7 -15 15 0 8 7 15 15 15 8 0 15 -7 15 -15z"/>
<path d="M6175 1000 c0 -59 7 -75 19 -44 12 32 4 104 -13 104 -3 0 -6 -27 -6
-60z"/>
<path d="M3480 1005 c0 -41 2 -45 25 -45 14 0 25 5 25 10 0 6 -7 10 -15 10
-10 0 -15 11 -15 35 0 19 -4 35 -10 35 -5 0 -10 -20 -10 -45z"/>
<path d="M3680 1004 c0 -28 4 -43 10 -39 12 7 9 85 -2 85 -5 0 -8 -21 -8 -46z"/>
<path d="M3960 1005 c0 -41 2 -45 25 -45 14 0 25 5 25 10 0 6 -7 10 -15 10
-21 0 -19 20 3 20 16 1 16 1 0 14 -10 7 -18 16 -18 19 0 3 8 8 18 10 10 3 6 5
-10 6 -27 1 -28 -1 -28 -44z"/>
<path d="M5190 1004 c0 -28 4 -43 10 -39 12 7 9 85 -2 85 -5 0 -8 -21 -8 -46z"/>
<path d="M6126 1043 c-17 -18 -1 -83 20 -83 11 0 12 4 2 19 -9 14 -9 23 -1 33
8 9 8 16 -2 25 -7 6 -16 9 -19 6z"/>
<path d="M5138 1035 c-8 -9 6 -68 18 -72 7 -2 10 11 10 33 -2 35 -14 52 -28
39z"/>
<path d="M3552 1018 c-29 -29 -3 -69 36 -53 15 7 14 9 -8 15 -25 8 -25 8 -2 9
17 1 22 6 20 18 -4 22 -29 28 -46 11z"/>
<path d="M3614 995 c0 -19 4 -35 8 -35 4 0 8 5 8 12 0 9 3 9 12 0 18 -18 30
-15 20 4 -5 9 -7 26 -4 38 5 19 4 19 -11 7 -11 -9 -17 -10 -17 -2 0 6 -4 11
-8 11 -4 0 -8 -16 -8 -35z"/>
<path d="M3722 1018 c-17 -17 -15 -48 4 -55 8 -3 20 -1 27 6 8 8 7 11 -6 11
-9 0 -17 7 -17 15 0 8 7 15 15 15 8 0 15 5 15 10 0 14 -23 13 -38 -2z"/>
<path d="M3782 1021 c-8 -4 -12 -19 -10 -32 2 -18 9 -24 28 -24 21 0 25 5 25
30 0 31 -19 42 -43 26z m30 -26 c0 -5 -5 -11 -11 -13 -6 -2 -11 4 -11 13 0 9
5 15 11 13 6 -2 11 -8 11 -13z"/>
<path d="M3850 994 c0 -19 5 -34 10 -34 6 0 10 11 10 25 0 14 5 25 10 25 6 0
10 -11 10 -25 0 -14 5 -25 11 -25 6 0 9 14 7 33 -3 27 -7 32 -30 33 -25 1 -28
-2 -28 -32z"/>
<path d="M4030 994 c0 -19 5 -34 10 -34 6 0 10 11 10 25 0 14 5 25 10 25 6 0
10 -11 10 -25 0 -14 5 -25 11 -25 6 0 9 14 7 33 -3 27 -7 32 -30 33 -25 1 -28
-2 -28 -32z"/>
<path d="M4109 1014 c-9 -11 -10 -20 -2 -32 12 -20 43 -29 43 -13 0 6 -7 11
-15 11 -8 0 -15 7 -15 15 0 8 7 15 15 15 8 0 15 5 15 10 0 16 -26 12 -41 -6z"/>
<path d="M4170 1015 c-18 -22 -8 -50 19 -50 32 0 49 28 32 49 -17 20 -35 20
-51 1z m40 -20 c0 -8 -7 -15 -15 -15 -8 0 -15 7 -15 15 0 8 7 15 15 15 8 0 15
-7 15 -15z"/>
<path d="M4319 1014 c-9 -11 -10 -20 -2 -32 11 -19 53 -29 53 -13 0 6 -10 11
-22 12 -22 1 -20 2 21 15 11 3 11 7 1 19 -16 19 -34 19 -51 -1z"/>
<path d="M4390 993 c0 -18 5 -33 10 -33 6 0 10 11 10 25 0 14 5 25 10 25 6 0
10 4 10 9 0 6 -9 9 -20 8 -16 -1 -20 -8 -20 -34z"/>
<path d="M4516 1003 c10 -42 23 -51 40 -29 12 17 14 18 14 3 0 -29 28 -18 35
14 8 37 -1 51 -13 18 l-9 -24 -7 23 c-9 26 -26 29 -26 5 -1 -17 -1 -17 -14 0
-19 25 -27 21 -20 -10z"/>
<path d="M4632 1021 c-20 -12 -11 -55 12 -59 27 -6 48 25 35 49 -10 20 -26 24
-47 10z m30 -26 c0 -5 -5 -11 -11 -13 -6 -2 -11 4 -11 13 0 9 5 15 11 13 6 -2
11 -8 11 -13z"/>
<path d="M4895 1021 c-10 -9 -5 -81 5 -81 6 0 10 3 10 8 0 4 12 12 26 19 19 9
31 9 44 1 25 -16 50 -3 50 26 0 31 -38 46 -55 22 -11 -14 -14 -14 -24 -2 -11
14 -46 18 -56 7z m37 -26 c0 -5 -5 -11 -11 -13 -6 -2 -11 4 -11 13 0 9 5 15
11 13 6 -2 11 -8 11 -13z m78 0 c0 -8 -4 -15 -9 -15 -13 0 -22 16 -14 24 11
11 23 6 23 -9z"/>
<path d="M5044 1018 c-4 -6 1 -17 11 -25 17 -12 18 -13 1 -13 -9 0 -14 -4 -11
-10 10 -15 35 -12 42 6 3 9 0 20 -8 25 -11 7 -11 9 -1 9 7 0 10 5 7 10 -8 14
-32 13 -41 -2z"/>
<path d="M5100 995 c0 -19 5 -35 10 -35 6 0 10 16 10 35 0 19 -4 35 -10 35 -5
0 -10 -16 -10 -35z"/>
<path d="M5232 1021 c-21 -13 -11 -55 15 -59 28 -4 50 32 32 54 -13 16 -28 18
-47 5z m30 -26 c0 -5 -5 -11 -11 -13 -6 -2 -11 4 -11 13 0 9 5 15 11 13 6 -2
11 -8 11 -13z"/>
<path d="M5300 994 c0 -19 5 -34 10 -34 6 0 10 11 10 25 0 14 5 25 10 25 6 0
10 -11 10 -25 0 -14 5 -25 11 -25 6 0 9 14 7 33 -3 27 -7 32 -30 33 -25 1 -28
-2 -28 -32z"/>
<path d="M5416 1021 c-4 -5 2 -12 11 -14 17 -4 17 -5 1 -6 -11 -1 -18 -9 -18
-21 0 -15 7 -20 26 -20 23 0 25 3 22 32 -3 32 -29 50 -42 29z"/>
<path d="M5480 994 c0 -19 5 -34 10 -34 6 0 10 11 10 25 0 14 5 25 10 25 6 0
10 -11 10 -25 0 -14 5 -25 11 -25 6 0 9 14 7 33 -3 27 -7 32 -30 33 -25 1 -28
-2 -28 -32z"/>
<path d="M5664 1018 c-4 -6 1 -17 11 -25 18 -13 18 -13 0 -13 -15 0 -16 -3 -7
-12 10 -10 17 -10 32 0 12 7 21 8 25 2 8 -13 45 -13 45 -1 0 5 -8 12 -17 14
-14 4 -12 5 5 6 25 1 28 13 7 31 -18 15 -45 6 -45 -15 0 -17 -9 -19 -30 -5
-10 6 -11 10 -2 10 6 0 12 5 12 10 0 14 -27 13 -36 -2z"/>
<path d="M5797 1023 c-4 -3 -7 -23 -7 -44 0 -38 11 -49 43 -41 19 5 24 32 6
32 -6 0 -8 7 -5 15 3 8 9 22 12 30 4 11 -1 15 -18 15 -14 0 -28 -3 -31 -7z"/>
<path d="M5860 995 c0 -19 5 -35 10 -35 6 0 10 11 10 25 0 14 5 25 10 25 6 0
10 -11 10 -25 0 -14 5 -25 10 -25 6 0 10 11 10 25 0 14 5 25 10 25 6 0 10 -11
10 -25 0 -14 5 -25 11 -25 6 0 9 14 7 32 -3 31 -5 32 -50 35 l-48 3 0 -35z"/>
<path d="M5982 1018 c-6 -6 -12 -17 -12 -24 0 -19 28 -37 47 -29 16 7 15 9 -7
15 -25 8 -25 8 -2 9 17 1 22 6 20 18 -4 22 -29 28 -46 11z"/>
<path d="M6050 992 c0 -19 4 -31 10 -27 6 3 10 15 10 26 0 10 5 19 10 19 6 0
10 -11 10 -25 0 -14 5 -25 10 -25 12 0 13 40 2 57 -4 7 -18 11 -30 10 -18 -1
-22 -7 -22 -35z"/>
<path d="M4820 964 c0 -8 5 -12 10 -9 6 3 10 10 10 16 0 5 -4 9 -10 9 -5 0
-10 -7 -10 -16z"/>
<path d="M1972 810 c4 -13 334 -15 2871 -18 1577 -1 2867 1 2867 5 0 5 -1285
7 -2856 5 -2278 -2 -2860 0 -2872 10 -13 11 -14 10 -10 -2z"/>
<path d="M4837 766 c-11 -28 -8 -36 13 -36 23 0 25 9 7 34 -13 18 -14 18 -20
2z"/>
<path d="M3872 392 c-9 -12 -14 -14 -18 -4 -3 6 -10 12 -15 12 -6 0 -5 -9 2
-21 9 -17 7 -25 -12 -45 -12 -13 -18 -24 -12 -24 6 0 13 7 17 15 3 8 10 15 16
15 5 0 10 -7 10 -15 0 -8 4 -15 10 -15 6 0 6 9 0 24 -6 17 -4 30 7 45 18 26
13 38 -5 13z"/>
<path d="M5237 393 c-11 -10 -8 -71 3 -78 6 -3 11 4 11 17 1 13 3 33 4 46 2
22 -5 28 -18 15z"/>
<path d="M4288 378 c-9 -25 5 -68 21 -68 13 0 13 2 2 9 -9 6 -11 18 -7 34 6
25 -9 48 -16 25z"/>
<path d="M5507 383 c-11 -18 6 -73 22 -73 13 0 13 2 2 9 -9 6 -11 18 -7 34 6
24 -7 47 -17 30z"/>
<path d="M4005 361 c19 -8 19 -8 -3 -15 -28 -9 -24 -30 6 -34 19 -3 22 1 22
27 0 26 -4 31 -22 30 -22 0 -22 -1 -3 -8z m15 -31 c0 -5 -4 -10 -10 -10 -5 0
-10 5 -10 10 0 6 5 10 10 10 6 0 10 -4 10 -10z"/>
<path d="M4080 360 c0 -6 7 -13 15 -16 20 -8 19 -21 -2 -27 -14 -4 -12 -5 5
-6 25 -1 31 26 7 35 -8 4 -12 10 -9 15 3 5 0 9 -5 9 -6 0 -11 -5 -11 -10z"/>
<path d="M4144 356 c-10 -25 3 -46 28 -45 17 1 18 2 6 6 -25 6 -22 23 3 23 27
0 19 24 -9 28 -13 2 -25 -3 -28 -12z"/>
<path d="M4210 341 c0 -17 5 -31 10 -31 6 0 10 12 10 26 0 32 22 27 32 -7 6
-22 7 -21 5 6 -2 25 -7 31 -29 33 -25 3 -28 0 -28 -27z"/>
<path d="M4334 356 c-10 -25 3 -46 28 -45 23 0 23 0 -2 12 l-25 11 28 4 c32 4
31 25 -1 30 -13 2 -25 -3 -28 -12z"/>
<path d="M4400 340 c0 -18 4 -29 10 -25 6 3 10 15 10 26 0 28 23 19 32 -12 6
-22 7 -21 5 6 -2 25 -7 31 -29 33 -25 3 -28 0 -28 -28z"/>
<path d="M4476 355 c-9 -24 4 -45 28 -44 16 1 17 2 4 6 -10 2 -18 13 -18 23 0
10 8 21 18 23 13 4 12 5 -4 6 -12 0 -24 -6 -28 -14z"/>
<path d="M4536 355 c-10 -26 5 -45 33 -44 23 2 24 2 4 6 -28 5 -30 23 -3 23
11 0 20 7 20 15 0 9 -9 15 -24 15 -13 0 -26 -7 -30 -15z m41 -1 c-3 -3 -12 -4
-19 -1 -8 3 -5 6 6 6 11 1 17 -2 13 -5z"/>
<path d="M4644 356 c-10 -26 4 -48 28 -44 17 2 23 10 23 28 0 18 -6 26 -23 28
-13 2 -25 -3 -28 -12z m41 -16 c0 -8 -8 -16 -17 -18 -13 -2 -18 3 -18 18 0 15
5 20 18 18 9 -2 17 -10 17 -18z"/>
<path d="M4721 338 c2 -28 2 -29 6 -8 3 14 10 28 17 32 7 5 5 8 -6 8 -14 0
-18 -8 -17 -32z"/>
<path d="M4813 363 c18 -4 18 -6 -2 -20 -26 -18 -19 -33 15 -33 22 0 25 4 22
28 -2 21 -9 27 -28 29 -16 1 -19 0 -7 -4z m17 -33 c0 -5 -4 -10 -10 -10 -5 0
-10 5 -10 10 0 6 5 10 10 10 6 0 10 -4 10 -10z"/>
<path d="M4901 323 c1 -27 3 -40 6 -30 2 9 13 17 23 17 20 0 36 33 25 50 -3 5
-17 10 -31 10 -22 0 -24 -3 -23 -47z m39 16 c0 -24 -23 -21 -28 4 -2 10 3 17
12 17 10 0 16 -9 16 -21z"/>
<path d="M4990 361 c25 -7 25 -7 3 -13 -32 -8 -30 -38 2 -38 21 0 25 5 25 30
0 26 -3 30 -27 29 l-28 -1 25 -7z m20 -31 c0 -5 -7 -10 -16 -10 -8 0 -12 5 -9
10 3 6 10 10 16 10 5 0 9 -4 9 -10z"/>
<path d="M5042 340 c0 -19 2 -27 5 -17 2 9 2 25 0 35 -3 9 -5 1 -5 -18z"/>
<path d="M5070 340 c0 -16 5 -30 10 -30 6 0 10 11 10 24 0 13 6 27 13 29 6 3
2 6 -10 6 -19 1 -23 -4 -23 -29z"/>
<path d="M5154 355 c-10 -25 4 -47 28 -43 17 2 24 11 26 31 3 23 0 27 -23 27
-14 0 -28 -7 -31 -15z m46 -15 c0 -21 -24 -28 -35 -10 -8 14 3 30 21 30 8 0
14 -9 14 -20z"/>
<path d="M5300 360 c0 -6 7 -13 15 -16 20 -8 19 -21 -2 -27 -14 -4 -12 -5 5
-6 25 -1 31 26 7 35 -8 4 -12 10 -9 15 3 5 0 9 -5 9 -6 0 -11 -5 -11 -10z"/>
<path d="M5364 356 c-10 -25 3 -46 28 -45 23 0 23 0 -2 12 l-25 11 28 4 c32 4
31 25 -1 30 -13 2 -25 -3 -28 -12z m33 -2 c-3 -3 -12 -4 -19 -1 -8 3 -5 6 6 6
11 1 17 -2 13 -5z"/>
<path d="M5430 340 c0 -18 4 -29 10 -25 6 3 10 15 10 26 0 28 23 19 32 -12 6
-22 7 -21 5 6 -2 25 -7 31 -29 33 -25 3 -28 0 -28 -28z"/>
<path d="M5554 356 c-10 -25 3 -46 28 -45 l23 2 -22 4 c-31 6 -29 23 3 23 16
0 24 5 22 13 -7 18 -47 21 -54 3z m33 -2 c-3 -3 -12 -4 -19 -1 -8 3 -5 6 6 6
11 1 17 -2 13 -5z"/>
<path d="M5621 338 c1 -29 2 -30 8 -9 8 31 31 40 31 12 0 -11 5 -23 11 -26 7
-5 9 3 7 21 -2 23 -9 30 -30 32 -26 3 -28 1 -27 -30z"/>
<path d="M5694 355 c-10 -24 4 -45 28 -44 17 1 18 2 6 6 -10 2 -18 13 -18 23
0 10 8 21 18 23 12 4 11 5 -6 6 -12 0 -25 -6 -28 -14z"/>
<path d="M5756 355 c-10 -26 5 -45 33 -44 23 2 24 2 4 6 -28 5 -30 23 -3 23
11 0 20 7 20 15 0 9 -9 15 -24 15 -13 0 -26 -7 -30 -15z m41 -1 c-3 -3 -12 -4
-19 -1 -8 3 -5 6 6 6 11 1 17 -2 13 -5z"/>
<path d="M5826 361 c-4 -5 2 -14 11 -20 16 -9 16 -12 3 -21 -13 -8 -13 -10 2
-10 25 0 28 13 8 38 -10 12 -21 18 -24 13z"/>
</g>
</svg>
