<?xml version="1.0" standalone="no"?>
<!DOCTYPE svg PUBLIC "-//W3C//DTD SVG 20010904//EN"
 "http://www.w3.org/TR/2001/REC-SVG-20010904/DTD/svg10.dtd">
<svg version="1.0" xmlns="http://www.w3.org/2000/svg"
 width="1562.000000pt" height="894.000000pt" viewBox="0 0 1562.000000 894.000000"
 preserveAspectRatio="xMidYMid meet">

<g transform="translate(0.000000,894.000000) scale(0.100000,-0.100000)"
fill="#000000" stroke="none">
<path d="M555 8676 c-108 -27 -213 -105 -232 -173 -5 -16 -8 -582 -8 -1260 l0
-1231 30 -44 c36 -51 108 -101 178 -125 45 -15 108 -18 470 -21 289 -2 417 0
417 7 0 8 78 11 240 11 153 0 240 -4 240 -10 0 -15 5426 -14 5505 1 116 21
209 78 246 150 l19 39 200 0 c193 0 199 -1 205 -21 12 -36 76 -99 128 -126 94
-47 151 -53 570 -53 251 0 387 4 387 10 0 6 87 10 240 10 155 0 240 -4 240
-10 0 -7 905 -9 2758 -8 l2757 3 62 25 c89 36 146 80 171 132 l22 44 0 1230
c0 1171 -1 1231 -19 1269 -32 70 -111 123 -223 150 -55 13 -492 15 -3430 15
-2438 0 -3382 -3 -3420 -11 -119 -25 -223 -100 -246 -177 -8 -27 -12 -148 -12
-381 l0 -341 -192 2 -193 3 -5 365 c-5 365 -5 365 -29 398 -31 44 -90 86 -160
114 l-56 23 -3405 2 c-2687 1 -3416 -1 -3455 -11z m6899 -53 c69 -26 121 -64
147 -107 18 -29 19 -54 19 -383 l0 -352 -362 -3 -363 -3 -66 -31 c-154 -73
-266 -252 -294 -470 l-7 -52 -51 15 c-29 8 -66 19 -83 24 -33 10 -192 -10
-299 -37 -81 -21 -219 -94 -282 -149 -61 -53 -126 -149 -143 -210 -8 -28 -20
-46 -35 -53 -87 -40 -59 -165 36 -165 73 0 107 96 53 150 -26 26 -26 26 -9 69
70 183 298 324 563 347 l52 4 0 -88 c0 -88 0 -89 25 -89 25 0 25 1 25 85 0 82
1 85 23 85 13 0 46 -7 74 -15 l51 -15 5 -353 c4 -395 6 -410 80 -551 53 -103
126 -177 214 -219 l68 -32 358 -3 c196 -2 357 -6 357 -9 0 -3 -11 -21 -25 -39
-32 -42 -132 -90 -215 -104 -45 -7 -1078 -10 -3420 -8 -3139 3 -3358 4 -3405
20 -70 24 -142 72 -165 110 -20 32 -20 52 -20 1263 0 1193 1 1231 19 1261 36
59 114 104 211 123 26 5 1499 8 3425 7 l3380 -1 59 -22z m7716 10 c70 -25 144
-77 167 -118 l23 -40 0 -1219 0 -1218 -21 -38 c-26 -46 -111 -104 -181 -121
-44 -12 -624 -14 -3438 -14 l-3385 0 -67 23 c-67 23 -158 91 -158 117 0 12 61
15 343 17 l342 3 60 29 c116 57 214 182 266 341 21 65 23 91 28 400 l6 329 34
23 c19 13 66 33 104 45 116 35 302 17 452 -42 l30 -12 -3 -125 -3 -125 23 4
c22 3 23 7 28 112 l5 108 60 -44 c69 -51 113 -102 150 -175 31 -63 31 -76 0
-107 -35 -35 -33 -79 4 -117 33 -32 58 -36 100 -14 32 16 41 33 41 78 0 32
-33 77 -57 77 -7 0 -16 12 -19 28 -28 115 -146 250 -279 318 -135 70 -240 95
-393 96 -100 0 -204 -24 -247 -56 -11 -9 -23 -16 -26 -16 -3 0 -9 35 -12 78
-14 185 -108 366 -233 453 -91 62 -97 63 -474 69 l-345 5 -3 315 c-2 173 0
335 3 359 12 80 108 157 228 181 23 4 1565 7 3427 6 2644 -1 3393 -4 3420 -13z
m-6337 -925 c154 -73 277 -298 277 -511 0 -45 -4 -57 -26 -78 -37 -34 -78 -97
-98 -149 -11 -29 -27 -51 -47 -62 -55 -32 -60 -100 -12 -138 39 -31 86 -26
117 11 34 40 33 71 -4 112 l-30 34 30 60 c17 33 39 68 50 78 20 18 20 17 20
-248 0 -314 -9 -381 -71 -507 -51 -102 -124 -179 -206 -218 l-58 -27 -935 0
-935 0 -56 28 c-78 38 -160 123 -203 211 -65 133 -68 156 -73 519 -3 180 -2
327 2 327 15 0 79 -57 111 -98 18 -24 40 -63 49 -86 17 -43 17 -44 -9 -69 -51
-52 -25 -132 46 -144 32 -5 41 -1 68 25 47 47 38 107 -19 137 -19 9 -32 26
-36 44 -15 68 -107 181 -184 227 -30 18 -31 20 -25 69 29 244 164 433 338 476
17 4 443 6 946 6 l915 -2 58 -27z"/>
<path d="M3040 8160 l0 -200 40 0 c39 0 40 0 40 38 1 32 18 72 31 72 3 0 18
-25 34 -55 30 -55 30 -55 78 -55 27 0 47 3 45 8 -1 4 -25 40 -52 79 l-49 73
47 55 48 55 -49 0 c-47 0 -49 -1 -83 -55 -19 -30 -38 -55 -42 -55 -5 0 -8 54
-8 120 l0 120 -40 0 -40 0 0 -200z"/>
<path d="M4700 8160 l0 -200 35 0 c24 0 35 5 35 15 0 8 5 15 10 15 6 0 10 -4
10 -8 0 -13 48 -32 81 -32 43 0 98 54 110 108 10 48 0 102 -26 139 -28 40
-118 50 -146 17 -23 -27 -29 -13 -29 66 l0 80 -40 0 -40 0 0 -200z m174 -1
c21 -17 26 -29 26 -65 0 -76 -58 -110 -99 -58 -29 37 -27 89 4 119 29 30 35
31 69 4z"/>
<path d="M5050 8160 l0 -200 40 0 40 0 0 200 0 200 -40 0 -40 0 0 -200z"/>
<path d="M2100 8150 l0 -190 115 0 115 0 0 30 0 30 -75 0 -75 0 0 160 0 160
-40 0 -40 0 0 -190z"/>
<path d="M4100 8305 l0 -35 50 0 50 0 0 -155 0 -155 40 0 40 0 0 155 0 155 55
0 55 0 0 35 0 35 -145 0 -145 0 0 -35z"/>
<path d="M2475 8231 c-76 -19 -105 -58 -105 -144 0 -84 54 -137 137 -137 89 0
147 66 140 159 -3 47 -9 59 -40 88 -20 18 -45 33 -56 33 -11 0 -25 2 -33 4 -7
2 -26 1 -43 -3z m69 -66 c24 -24 30 -77 12 -118 -12 -31 -20 -37 -45 -37 -38
0 -61 31 -61 85 0 71 53 111 94 70z"/>
<path d="M2801 8230 c-18 -4 -47 -22 -64 -39 -26 -25 -31 -39 -34 -88 -5 -70
19 -117 72 -139 70 -29 150 -8 185 48 24 40 27 116 5 158 -25 49 -99 76 -164
60z m73 -66 c21 -21 30 -58 22 -96 -8 -42 -23 -58 -56 -58 -33 0 -48 16 -56
58 -12 57 16 112 56 112 10 0 26 -7 34 -16z"/>
<path d="M3826 8230 c-15 -5 -37 -17 -47 -26 -18 -16 -19 -16 -19 4 0 18 -6
22 -35 22 l-35 0 0 -195 0 -195 40 0 40 0 0 71 0 70 22 -15 c51 -36 137 -4
164 59 47 113 -29 234 -130 205z m42 -73 c16 -19 25 -64 18 -91 -13 -53 -62
-72 -98 -39 -23 21 -25 104 -2 127 19 19 67 21 82 3z"/>
<path d="M4453 8228 c-36 -8 -43 -13 -43 -34 0 -23 2 -24 55 -18 38 5 59 3 70
-6 25 -21 18 -27 -43 -39 -66 -13 -98 -39 -108 -89 -5 -26 -1 -36 24 -62 35
-35 83 -40 122 -13 17 12 25 13 28 5 2 -7 19 -12 38 -12 l34 0 0 90 c0 97 -15
152 -47 168 -31 16 -86 20 -130 10z m97 -168 c0 -53 -70 -77 -85 -29 -8 23 1
38 29 49 42 17 56 12 56 -20z"/>
<path d="M5286 8230 c-118 -36 -131 -220 -18 -267 26 -11 55 -14 95 -10 68 6
71 8 64 39 -6 21 -11 23 -57 20 -54 -4 -100 16 -100 43 0 12 17 15 91 15 l92
0 -7 47 c-7 51 -26 87 -53 101 -30 16 -77 21 -107 12z m72 -62 c7 -7 12 -20
12 -30 0 -15 -9 -18 -50 -18 -41 0 -50 3 -50 18 0 25 20 42 50 42 14 0 31 -5
38 -12z"/>
<path d="M5570 8229 c-69 -15 -93 -89 -44 -134 15 -14 33 -25 39 -25 7 0 23
-9 36 -20 24 -20 24 -20 4 -35 -11 -9 -29 -13 -40 -10 -64 17 -62 17 -67 -10
-5 -21 -1 -28 19 -36 66 -25 149 -2 169 48 18 43 3 80 -41 102 -65 33 -74 41
-68 57 5 13 16 15 49 11 37 -4 44 -1 50 15 3 11 2 23 -3 28 -14 13 -66 18
-103 9z"/>
<path d="M3352 8123 c6 -125 10 -139 49 -158 38 -20 68 -19 107 5 26 16 32 17
32 5 0 -10 11 -15 35 -15 l35 0 0 135 0 135 -40 0 -40 0 0 -95 c0 -89 -1 -95
-24 -110 -19 -12 -30 -14 -44 -6 -23 12 -32 51 -32 142 l0 69 -41 0 -42 0 5
-107z"/>
<path d="M740 6915 l0 -665 885 0 885 0 0 665 0 665 -885 0 -885 0 0 -665z
m1720 5 l0 -620 -835 0 -835 0 0 620 0 620 835 0 835 0 0 -620z"/>
<path d="M1271 7088 c-29 -145 -61 -319 -61 -328 0 -6 43 -10 109 -10 104 0
109 1 115 23 3 12 6 25 6 30 0 4 -34 7 -75 7 -41 0 -75 2 -75 3 0 2 13 73 30
158 16 85 30 157 30 162 0 4 -15 7 -34 7 -34 0 -35 -1 -45 -52z"/>
<path d="M1457 7133 c-4 -3 -7 -17 -7 -30 0 -21 4 -23 50 -23 28 0 50 -4 50
-8 0 -5 -13 -78 -30 -163 -16 -85 -30 -155 -30 -156 0 -2 16 -3 35 -3 28 0 36
4 40 23 8 34 55 289 55 298 0 5 24 9 54 9 40 0 55 4 60 16 16 43 12 44 -132
44 -76 0 -142 -3 -145 -7z"/>
<path d="M2112 7025 c-32 -14 -41 -45 -11 -36 52 16 78 12 94 -12 14 -22 14
-29 2 -59 -8 -18 -38 -55 -67 -83 -29 -27 -47 -40 -41 -28 16 31 15 33 -23 33
-33 0 -34 -1 -74 -97 l-40 -97 -6 65 c-3 35 -7 78 -8 94 -3 26 -8 30 -34 33
-30 3 -32 0 -77 -95 l-46 -98 -1 60 c0 33 -3 77 -6 98 -6 34 -9 37 -41 37 -32
0 -34 -2 -29 -27 3 -16 8 -62 11 -103 12 -147 13 -150 49 -150 32 0 35 4 79
98 l46 97 1 -45 c0 -25 3 -69 6 -97 7 -52 7 -53 41 -53 33 0 35 2 81 98 l47
97 93 -3 c77 -2 92 0 92 13 0 12 -12 15 -55 15 -30 0 -55 4 -55 8 0 4 18 25
40 47 21 21 47 54 55 72 40 85 -36 157 -123 118z"/>
<path d="M2680 6915 l0 -665 885 0 885 0 0 665 0 665 -885 0 -885 0 0 -665z
m1720 5 l0 -620 -835 0 -835 0 0 620 0 620 835 0 835 0 0 -620z"/>
<path d="M3215 7118 c-12 -57 -65 -343 -65 -355 0 -10 25 -13 110 -13 88 0
110 3 110 14 0 8 3 21 6 30 5 14 -5 16 -70 16 -42 0 -76 3 -76 8 0 4 14 77 30
162 16 85 30 156 30 158 0 1 -16 2 -35 2 -28 0 -36 -4 -40 -22z"/>
<path d="M3397 7133 c-4 -3 -7 -17 -7 -30 0 -21 4 -23 50 -23 28 0 50 -2 50
-4 0 -2 -13 -75 -30 -161 -16 -86 -30 -159 -30 -161 0 -2 15 -4 34 -4 39 0 34
-15 76 213 l22 117 53 0 c46 0 53 3 59 23 3 12 6 25 6 30 0 9 -274 10 -283 0z"/>
<path d="M4047 7028 c-42 -15 -27 -33 29 -33 44 0 49 -3 52 -23 5 -32 -15 -52
-50 -52 -41 0 -35 -34 7 -38 41 -5 55 -19 55 -53 0 -37 -33 -54 -84 -45 -32 6
-35 9 -26 26 15 28 13 30 -24 30 -33 0 -35 -2 -70 -84 -20 -47 -36 -90 -37
-98 -2 -30 -17 41 -18 87 -2 78 -9 95 -40 95 -25 0 -32 -10 -74 -97 -42 -87
-47 -94 -47 -62 0 20 -3 64 -6 98 l-7 61 -35 0 c-33 0 -34 -1 -29 -32 3 -18 9
-73 12 -123 9 -122 10 -125 49 -125 32 0 35 3 79 98 l46 97 0 -51 c1 -28 4
-72 7 -98 6 -44 8 -46 40 -46 32 0 34 3 80 100 l47 101 31 -8 c59 -14 99 -6
129 27 35 39 34 64 -2 101 -16 16 -25 29 -20 29 4 0 16 11 24 24 21 32 10 73
-26 91 -32 17 -52 18 -92 3z"/>
<path d="M4630 7560 c0 -19 7 -20 120 -20 113 0 120 1 120 20 0 19 -7 20 -120
20 -113 0 -120 -1 -120 -20z"/>
<path d="M4970 7560 c0 -19 7 -20 120 -20 113 0 120 1 120 20 0 19 -7 20 -120
20 -113 0 -120 -1 -120 -20z"/>
<path d="M5300 7560 c0 -19 7 -20 120 -20 113 0 120 1 120 20 0 19 -7 20 -120
20 -113 0 -120 -1 -120 -20z"/>
<path d="M5640 7560 c0 -19 7 -20 120 -20 113 0 120 1 120 20 0 19 -7 20 -120
20 -113 0 -120 -1 -120 -20z"/>
<path d="M5970 7560 c0 -19 7 -20 120 -20 113 0 120 1 120 20 0 19 -7 20 -120
20 -113 0 -120 -1 -120 -20z"/>
<path d="M6310 7560 c0 -11 5 -20 10 -20 6 0 10 -35 10 -85 0 -84 0 -85 25
-85 l25 0 0 105 0 105 -35 0 c-28 0 -35 -4 -35 -20z"/>
<path d="M4610 7351 l0 -121 25 0 26 0 -3 118 c-3 113 -4 117 -25 120 -23 3
-23 2 -23 -117z"/>
<path d="M4610 7010 l0 -120 25 0 25 0 0 120 0 120 -25 0 -25 0 0 -120z"/>
<path d="M6330 6820 l0 -120 25 0 25 0 0 120 0 120 -25 0 -25 0 0 -120z"/>
<path d="M4610 6680 l0 -120 25 0 25 0 0 120 0 120 -25 0 -25 0 0 -120z"/>
<path d="M6330 6491 l0 -121 25 0 26 0 -3 118 c-3 113 -4 117 -25 120 -23 3
-23 2 -23 -117z"/>
<path d="M4610 6355 l0 -105 35 0 c31 0 35 3 35 25 0 14 -4 25 -10 25 -6 0
-10 33 -10 80 0 79 0 80 -25 80 l-25 0 0 -105z"/>
<path d="M4780 6275 l0 -25 121 0 c119 0 120 0 117 23 -3 21 -7 22 -120 25
l-118 3 0 -26z"/>
<path d="M5117 6293 c-4 -3 -7 -15 -7 -25 0 -16 10 -18 120 -18 l120 0 0 25 0
25 -113 0 c-63 0 -117 -3 -120 -7z"/>
<path d="M5450 6275 l0 -25 115 0 115 0 0 25 0 25 -115 0 -115 0 0 -25z"/>
<path d="M5780 6275 l0 -25 121 0 c119 0 120 0 117 23 -3 21 -7 22 -120 25
l-118 3 0 -26z"/>
<path d="M6120 6275 l0 -25 115 0 115 0 0 25 0 25 -115 0 -115 0 0 -25z"/>
<path d="M10780 8160 l0 -200 40 0 40 0 0 44 c0 25 6 48 14 55 12 10 20 2 47
-43 33 -56 34 -56 82 -56 54 0 55 -5 -10 86 -24 34 -43 66 -43 72 0 5 21 33
46 61 l46 51 -49 0 c-48 0 -48 0 -88 -61 l-40 -61 -3 126 -3 126 -39 0 -40 0
0 -200z"/>
<path d="M12440 8160 l0 -200 35 0 c25 0 35 4 35 16 0 13 5 12 26 -5 50 -39
121 -22 161 38 42 63 24 181 -33 212 -33 17 -86 15 -118 -6 l-26 -17 0 81 0
81 -40 0 -40 0 0 -200z m175 -5 c47 -46 22 -145 -35 -145 -60 0 -84 109 -34
149 34 27 40 26 69 -4z"/>
<path d="M12780 8160 l0 -200 40 0 40 0 0 200 0 200 -40 0 -40 0 0 -200z"/>
<path d="M9830 8150 l0 -190 120 0 120 0 0 30 0 29 -77 3 -78 3 -3 158 -3 157
-39 0 -40 0 0 -190z"/>
<path d="M11840 8305 l0 -35 50 0 50 0 0 -155 0 -155 40 0 40 0 0 155 0 155
56 0 55 0 -3 33 -3 32 -142 3 -143 3 0 -36z"/>
<path d="M10195 8225 c-100 -35 -124 -164 -45 -240 42 -40 120 -47 170 -13
145 98 39 311 -125 253z m87 -62 c22 -26 29 -65 18 -103 -15 -52 -55 -66 -92
-33 -23 21 -25 99 -2 131 18 26 55 29 76 5z"/>
<path d="M10545 8231 c-76 -19 -105 -58 -105 -144 0 -84 54 -137 137 -137 89
0 147 66 140 159 -3 47 -9 59 -40 88 -20 18 -45 33 -56 33 -11 0 -25 2 -33 4
-7 2 -26 1 -43 -3z m69 -66 c24 -24 30 -77 12 -118 -12 -31 -20 -37 -45 -37
-38 0 -61 31 -61 85 0 71 53 111 94 70z"/>
<path d="M11565 8233 c-11 -3 -30 -14 -42 -25 -21 -20 -21 -20 -28 1 -5 16
-15 21 -42 21 -28 0 -34 -3 -29 -16 3 -9 6 -96 6 -195 l0 -179 40 0 40 0 0 71
0 70 22 -15 c46 -33 125 -10 153 43 27 52 29 104 7 154 -25 56 -72 82 -127 70z
m32 -71 c19 -12 35 -64 28 -92 -23 -89 -115 -76 -115 17 0 59 14 83 48 83 15
0 32 -4 39 -8z"/>
<path d="M12200 8231 c-48 -10 -59 -18 -53 -40 4 -17 12 -18 63 -14 51 5 59 3
69 -14 10 -19 6 -21 -49 -32 -45 -9 -65 -19 -84 -42 -66 -78 15 -171 110 -126
20 10 36 12 39 7 3 -6 22 -10 42 -10 l36 0 -5 103 c-5 106 -15 138 -53 156
-30 15 -76 20 -115 12z m90 -160 c0 -49 -35 -80 -70 -61 -26 14 -25 45 2 64
32 23 68 21 68 -3z"/>
<path d="M13025 8229 c-64 -18 -95 -67 -95 -149 0 -91 71 -140 185 -125 52 6
56 9 51 28 -3 12 -6 24 -6 27 0 3 -27 3 -59 2 -50 -3 -63 0 -80 17 -12 12 -21
26 -21 31 0 6 37 10 90 10 l90 0 0 40 c0 71 -31 111 -95 123 -17 3 -44 1 -60
-4z m73 -61 c7 -7 12 -20 12 -30 0 -15 -9 -18 -55 -18 -59 0 -63 4 -39 38 17
24 62 30 82 10z"/>
<path d="M13312 8230 c-49 -11 -72 -37 -72 -80 0 -41 11 -54 73 -85 48 -24 56
-39 27 -55 -14 -8 -31 -8 -57 -1 -20 6 -38 9 -39 8 -1 -1 -5 -12 -8 -24 -6
-19 -2 -25 21 -34 15 -6 50 -9 76 -6 59 5 97 37 97 81 0 42 -10 54 -66 85 -64
34 -65 56 -2 55 39 0 48 3 52 20 3 11 2 24 -2 27 -13 12 -67 16 -100 9z"/>
<path d="M11090 8135 c0 -139 25 -185 98 -185 16 0 41 9 55 20 30 24 37 25 37
5 0 -10 11 -15 35 -15 l35 0 0 135 0 135 -40 0 -40 0 0 -94 c0 -87 -2 -96 -22
-110 -29 -20 -34 -20 -58 4 -17 17 -20 33 -20 110 l0 90 -40 0 -40 0 0 -95z"/>
<path d="M9790 7560 c0 -19 7 -20 120 -20 113 0 120 1 120 20 0 19 -7 20 -120
20 -113 0 -120 -1 -120 -20z"/>
<path d="M10130 7560 c0 -19 7 -20 115 -20 108 0 115 1 115 20 0 19 -7 20
-115 20 -108 0 -115 -1 -115 -20z"/>
<path d="M10460 7560 c0 -19 7 -20 120 -20 113 0 120 1 120 20 0 19 -7 20
-120 20 -113 0 -120 -1 -120 -20z"/>
<path d="M10800 7560 c0 -19 7 -20 115 -20 108 0 115 1 115 20 0 19 -7 20
-115 20 -108 0 -115 -1 -115 -20z"/>
<path d="M11130 7560 c0 -19 7 -20 120 -20 113 0 120 1 120 20 0 19 -7 20
-120 20 -113 0 -120 -1 -120 -20z"/>
<path d="M11460 7560 c0 -11 7 -20 15 -20 12 0 15 -16 15 -86 0 -83 1 -85 23
-82 21 3 22 8 25 106 l3 102 -41 0 c-33 0 -40 -3 -40 -20z"/>
<path d="M11920 6915 l0 -665 880 0 880 0 0 665 0 665 -880 0 -880 0 0 -665z
m1718 3 l2 -618 -835 0 -835 0 0 620 0 620 833 -2 832 -3 3 -617z"/>
<path d="M13073 7323 c-17 -3 -29 -22 -53 -83 -41 -108 -41 -111 18 -103 26 3
49 8 52 10 2 2 12 34 20 71 9 37 20 77 24 90 8 23 -4 26 -61 15z"/>
<path d="M12455 7128 c-2 -7 -18 -89 -35 -183 -17 -93 -33 -176 -35 -182 -3
-10 23 -13 109 -13 l114 0 4 30 5 30 -74 0 c-53 0 -73 4 -73 13 0 15 49 274
56 300 4 14 -1 17 -31 17 -20 0 -37 -6 -40 -12z"/>
<path d="M12630 7126 c0 -8 -3 -21 -6 -30 -5 -13 3 -16 50 -16 53 0 56 -1 51
-22 -11 -51 -55 -284 -55 -295 0 -8 13 -13 34 -13 l34 0 27 148 c36 201 27
182 91 182 40 0 54 4 54 14 0 8 3 21 6 30 5 14 -11 16 -140 16 -119 0 -146 -3
-146 -14z"/>
<path d="M13301 7031 c-25 -7 -50 -36 -39 -46 3 -4 15 -2 26 4 47 25 92 7 92
-36 0 -36 -23 -73 -75 -123 -28 -26 -43 -36 -36 -23 16 32 14 35 -25 31 -36
-3 -37 -4 -78 -101 -39 -94 -41 -97 -43 -60 -2 21 -6 66 -9 101 -5 61 -6 62
-35 62 -28 0 -33 -6 -71 -90 -48 -105 -58 -102 -58 13 l0 77 -36 0 -37 0 6
-52 c3 -29 9 -92 13 -140 l7 -88 34 0 c33 0 35 3 78 90 l44 91 5 -46 c3 -25 9
-65 12 -90 5 -43 7 -45 38 -45 30 0 34 4 80 98 l48 97 94 -3 c80 -3 94 -1 94
12 0 13 -12 16 -62 16 l-62 0 40 43 c58 60 74 87 74 123 0 46 -9 63 -41 79
-30 16 -40 17 -78 6z"/>
<path d="M9770 7351 l0 -121 25 0 26 0 -3 118 c-3 113 -4 117 -25 120 -23 3
-23 2 -23 -117z"/>
<path d="M11490 7155 l0 -115 25 0 25 0 0 115 0 115 -25 0 -25 0 0 -115z"/>
<path d="M11490 6819 c0 -119 0 -120 23 -117 21 3 22 7 25 121 l3 117 -26 0
-25 0 0 -121z"/>
<path d="M9770 6681 l0 -121 25 0 26 0 -3 118 c-3 113 -4 117 -25 120 -23 3
-23 2 -23 -117z"/>
<path d="M11490 6491 l0 -121 25 0 26 0 -3 118 c-3 113 -4 117 -25 120 -23 3
-23 2 -23 -117z"/>
<path d="M9770 6355 l0 -105 35 0 c31 0 35 3 35 25 0 14 -4 25 -10 25 -6 0
-10 33 -10 80 0 79 0 80 -25 80 l-25 0 0 -105z"/>
<path d="M9940 6275 l0 -25 115 0 115 0 0 25 0 25 -115 0 -115 0 0 -25z"/>
<path d="M10270 6275 l0 -25 121 0 c119 0 120 0 117 23 -3 21 -7 22 -120 25
l-118 3 0 -26z"/>
<path d="M10607 6293 c-4 -3 -7 -15 -7 -25 0 -16 10 -18 120 -18 l120 0 0 25
0 25 -113 0 c-63 0 -117 -3 -120 -7z"/>
<path d="M10940 6275 l0 -25 121 0 c119 0 120 0 117 23 -3 21 -7 22 -120 25
l-118 3 0 -26z"/>
<path d="M11277 6293 c-4 -3 -7 -15 -7 -25 0 -16 10 -18 120 -18 l120 0 0 25
0 25 -113 0 c-63 0 -117 -3 -120 -7z"/>
<path d="M6980 6915 l0 -665 885 0 885 0 0 665 0 665 -885 0 -885 0 0 -665z
m604 208 c-12 -58 -54 -286 -54 -298 0 -12 15 -15 73 -15 l74 0 -5 -30 -4 -30
-109 0 c-84 0 -109 3 -109 13 0 12 53 298 65 355 4 17 12 22 39 22 27 0 33 -4
30 -17z m392 1 c-3 -9 -6 -22 -6 -30 0 -10 -14 -14 -54 -14 -44 0 -56 -4 -59
-17 -3 -10 -18 -84 -33 -165 l-27 -148 -34 0 c-18 0 -33 2 -33 4 0 2 14 75 30
161 17 86 30 159 30 161 0 2 -22 4 -50 4 -46 0 -50 2 -50 23 0 13 3 27 7 30 3
4 69 7 146 7 123 0 138 -2 133 -16z m454 -234 c0 -133 -1 -140 -20 -140 -19 0
-20 7 -20 120 0 116 -1 120 -19 110 -26 -13 -31 -13 -31 5 0 16 45 44 73 45
15 0 17 -13 17 -140z m-419 -137 c1 -49 1 -97 0 -108 -1 -11 22 28 50 88 48
98 55 107 80 107 29 0 31 -5 42 -165 2 -32 4 -36 11 -20 5 11 24 57 44 103 33
80 35 82 68 82 19 0 34 -2 34 -5 0 -3 -30 -66 -67 -140 -66 -131 -69 -135
-100 -135 -31 0 -31 0 -37 63 -3 34 -7 78 -9 97 -2 33 -5 29 -49 -62 -44 -91
-49 -98 -77 -98 -36 0 -37 5 -46 125 -3 50 -9 105 -12 123 -5 31 -4 32 31 32
l36 0 1 -87z"/>
<path d="M535 5329 c-100 -13 -173 -36 -201 -64 l-24 -24 0 -345 c0 -190 4
-356 9 -369 12 -30 61 -54 154 -74 59 -13 149 -16 492 -17 l420 -1 3 22 3 22
-448 4 c-374 3 -457 6 -501 19 -29 9 -60 22 -68 28 -12 10 -14 69 -14 360 l0
348 28 11 c80 33 105 35 507 40 l410 6 -38 23 c-38 22 -43 22 -350 21 -172 -1
-343 -6 -382 -10z"/>
<path d="M1340 5336 c0 -2 16 -6 35 -8 19 -2 35 0 35 4 0 4 -16 8 -35 8 -19 0
-35 -2 -35 -4z"/>
<path d="M1890 5332 c0 -4 16 -6 35 -4 19 2 35 6 35 8 0 2 -16 4 -35 4 -19 0
-35 -4 -35 -8z"/>
<path d="M2030 5317 l-35 -22 2750 -5 c2154 -4 2758 -8 2785 -17 19 -7 47 -18
63 -24 l27 -11 0 -348 c0 -266 -3 -350 -12 -358 -7 -5 -38 -18 -68 -28 -53
-18 -160 -19 -2868 -22 l-2813 -2 3 -23 3 -22 2775 0 c2255 0 2788 2 2845 13
94 18 164 49 170 76 3 11 4 183 3 380 l-3 360 -31 18 c-18 10 -63 26 -100 36
-64 15 -271 17 -2764 18 l-2695 3 -35 -22z"/>
<path d="M8278 5330 c-88 -11 -169 -35 -201 -61 l-27 -20 0 -358 c0 -304 2
-360 15 -378 24 -34 132 -63 275 -73 69 -5 272 -10 453 -10 l327 0 0 25 0 25
-407 0 c-423 1 -522 8 -591 44 l-32 17 2 347 3 347 29 14 c64 30 115 34 506
40 l405 6 -35 22 c-34 23 -40 23 -345 22 -170 -1 -340 -5 -377 -9z"/>
<path d="M9081 5336 c11 -9 69 -14 69 -6 0 6 -16 10 -37 10 -20 0 -34 -2 -32
-4z"/>
<path d="M9630 5332 c0 -4 16 -6 35 -4 19 2 35 6 35 8 0 2 -16 4 -35 4 -19 0
-35 -4 -35 -8z"/>
<path d="M9770 5317 l-35 -22 2750 -5 c2533 -5 2754 -6 2798 -22 83 -28 77 0
77 -385 l0 -344 -43 -19 c-23 -10 -71 -24 -107 -29 -44 -8 -943 -11 -2838 -11
l-2773 0 3 -22 3 -23 2675 -3 c1693 -2 2728 1 2820 7 154 11 231 28 274 62
l26 20 0 363 0 363 -23 21 c-13 12 -59 32 -103 44 l-79 23 -2695 2 -2695 3
-35 -23z"/>
<path d="M4020 4870 l0 -200 40 0 40 0 0 200 0 200 -40 0 -40 0 0 -200z"/>
<path d="M4732 5058 c-7 -7 -12 -22 -12 -35 0 -27 42 -42 65 -23 28 23 11 70
-25 70 -9 0 -21 -5 -28 -12z"/>
<path d="M11750 4870 l0 -200 40 0 40 0 0 200 0 200 -40 0 -40 0 0 -200z"/>
<path d="M12466 5055 c-19 -20 -20 -26 -3 -49 27 -38 95 2 71 42 -15 23 -48
27 -68 7z"/>
<path d="M2515 5046 c-103 -38 -154 -168 -106 -271 31 -69 93 -105 178 -105
76 0 95 8 91 39 -3 25 -6 26 -63 27 -92 0 -139 44 -139 129 0 84 50 128 141
124 55 -3 57 -2 65 26 4 16 5 31 3 33 -12 13 -134 11 -170 -2z"/>
<path d="M10256 5045 c-80 -28 -126 -96 -126 -185 0 -131 92 -204 236 -187 55
6 58 9 50 43 -6 24 -10 26 -44 20 -111 -17 -182 63 -152 173 16 59 56 83 132
79 59 -3 68 2 68 42 0 31 -95 40 -164 15z"/>
<path d="M4550 5011 c-18 -5 -26 -15 -28 -34 -2 -19 -9 -27 -23 -27 -14 0 -19
-7 -19 -30 0 -23 5 -30 19 -30 17 0 19 -9 23 -91 3 -81 6 -93 27 -110 15 -12
39 -19 67 -19 42 0 44 1 44 30 0 22 -5 30 -18 30 -32 0 -42 22 -42 92 l0 68
30 0 c27 0 30 3 30 30 0 27 -3 30 -30 30 -28 0 -30 3 -30 35 0 36 -4 39 -50
26z"/>
<path d="M12290 5011 c-18 -5 -26 -15 -28 -34 -2 -19 -9 -27 -23 -27 -14 0
-19 -7 -19 -30 0 -23 4 -30 20 -30 18 0 20 -7 20 -85 0 -78 2 -88 25 -110 18
-19 35 -25 70 -25 43 0 45 1 45 30 0 22 -5 30 -18 30 -32 0 -42 22 -42 92 l0
68 30 0 c27 0 30 3 30 30 0 27 -3 30 -30 30 -28 0 -30 3 -30 35 0 36 -4 39
-50 26z"/>
<path d="M2782 4930 c-85 -52 -81 -199 7 -245 67 -34 167 -7 198 55 16 32 16
118 -1 148 -33 61 -137 82 -204 42z m118 -50 c29 -29 27 -100 -4 -137 -21 -25
-26 -26 -50 -15 -32 14 -49 56 -42 101 10 65 57 90 96 51z"/>
<path d="M3064 4928 c3 -13 6 -76 6 -140 l0 -118 40 0 40 0 0 100 c0 98 1 101
26 112 47 22 58 3 64 -108 l5 -99 38 -3 37 -3 0 116 c0 110 -1 117 -25 140
-31 32 -91 34 -129 4 l-27 -21 -6 21 c-4 16 -13 21 -40 21 -32 0 -35 -2 -29
-22z"/>
<path d="M3384 4888 c13 -35 36 -98 51 -141 l28 -78 41 3 41 3 47 125 c26 69
47 131 48 138 0 7 -14 12 -39 12 -42 0 -36 12 -82 -160 l-12 -45 -13 45 c-7
25 -20 71 -29 103 l-16 57 -44 0 -44 0 23 -62z"/>
<path d="M3732 4930 c-18 -11 -40 -36 -48 -55 -43 -104 18 -205 126 -205 84 0
142 55 143 138 1 58 -23 107 -63 127 -42 22 -118 19 -158 -5z m118 -50 c14
-14 20 -33 20 -68 0 -99 -81 -125 -110 -37 -28 85 36 159 90 105z"/>
<path d="M4170 4863 c0 -104 13 -157 43 -178 30 -21 89 -19 120 5 25 20 25 20
30 0 4 -15 14 -20 36 -20 l31 0 0 140 0 140 -40 0 -40 0 0 -93 c0 -80 -3 -96
-19 -111 -49 -44 -81 4 -81 122 l0 82 -40 0 -40 0 0 -87z"/>
<path d="M4720 4810 l0 -140 40 0 40 0 0 140 0 140 -40 0 -40 0 0 -140z"/>
<path d="M4922 4930 c-18 -11 -40 -36 -48 -55 -43 -104 18 -205 126 -205 84 0
142 55 143 138 1 58 -23 107 -63 127 -42 22 -118 19 -158 -5z m118 -50 c30
-30 28 -109 -4 -139 -32 -30 -63 -20 -83 27 -35 84 30 169 87 112z"/>
<path d="M5208 4810 l3 -140 39 0 39 0 3 102 c3 102 3 103 31 112 47 17 61 -9
65 -120 l4 -95 36 3 37 3 3 60 c5 97 -7 164 -33 191 -31 31 -92 32 -128 4
l-26 -20 -6 20 c-5 14 -15 20 -38 20 l-32 0 3 -140z"/>
<path d="M10535 4941 c-45 -20 -69 -59 -72 -119 -4 -67 9 -97 56 -129 68 -46
170 -22 207 48 26 52 15 132 -24 172 -26 26 -40 31 -89 34 -32 1 -67 -1 -78
-6z m105 -68 c29 -36 23 -108 -10 -135 -29 -23 -36 -23 -65 7 -17 17 -25 35
-25 60 0 85 56 123 100 68z"/>
<path d="M10800 4810 l0 -140 40 0 40 0 0 88 c0 98 14 132 55 132 35 0 45 -28
45 -129 l0 -91 40 0 40 0 0 109 c0 103 -1 111 -26 140 -21 25 -33 31 -66 31
-24 0 -51 -8 -69 -21 l-29 -20 0 20 c0 17 -6 21 -35 21 l-35 0 0 -140z"/>
<path d="M11105 4933 c4 -10 24 -65 45 -123 21 -58 41 -113 45 -123 6 -14 17
-17 48 -15 l40 3 48 130 c26 72 48 133 49 138 0 4 -18 7 -40 7 -44 0 -37 13
-82 -155 l-13 -49 -29 102 -29 102 -45 0 c-38 0 -43 -2 -37 -17z"/>
<path d="M11473 4930 c-41 -25 -63 -68 -63 -122 0 -55 17 -87 59 -115 43 -29
113 -31 158 -3 47 28 66 72 61 138 -4 48 -10 60 -41 89 -32 29 -44 33 -89 33
-35 0 -64 -7 -85 -20z m103 -38 c40 -27 46 -111 9 -147 -29 -30 -36 -30 -65
-7 -33 27 -39 99 -10 135 21 27 45 34 66 19z"/>
<path d="M11912 4834 c3 -113 4 -116 31 -140 35 -30 80 -31 125 -4 32 20 32
20 32 0 0 -16 7 -20 35 -20 l35 0 0 140 0 140 -40 0 -40 0 0 -93 c0 -78 -3
-97 -18 -110 -51 -47 -82 -3 -82 115 l0 88 -41 0 -41 0 4 -116z"/>
<path d="M12460 4810 l0 -140 40 0 40 0 0 140 0 140 -40 0 -40 0 0 -140z"/>
<path d="M12670 4937 c-60 -30 -90 -132 -57 -197 33 -65 138 -91 204 -50 47
28 66 72 61 138 -4 48 -10 60 -41 89 -32 29 -44 33 -89 33 -29 0 -64 -6 -78
-13z m96 -45 c40 -27 46 -111 9 -147 -13 -14 -29 -25 -35 -25 -6 0 -22 11 -35
25 -57 57 -2 190 61 147z"/>
<path d="M12940 4810 l0 -140 40 0 40 0 0 88 c0 97 14 132 54 132 39 0 46 -18
46 -122 l0 -98 40 0 40 0 0 106 c0 140 -18 173 -96 174 -27 0 -47 -7 -62 -20
-12 -11 -24 -20 -27 -20 -3 0 -5 9 -5 20 0 16 -7 20 -35 20 l-35 0 0 -140z"/>
<path d="M470 4125 c-84 -17 -135 -42 -149 -72 -7 -16 -11 -140 -11 -369 l0
-345 24 -24 c28 -28 102 -51 206 -65 41 -5 249 -10 463 -10 373 0 387 1 387
19 0 18 -16 19 -427 24 -426 5 -490 10 -565 43 l-38 17 0 347 c0 274 3 350 13
358 7 6 40 19 73 28 50 15 118 18 469 22 405 3 409 4 385 22 -24 18 -46 20
-395 19 -261 -1 -389 -5 -435 -14z"/>
<path d="M1950 4120 c-25 -19 -6 -19 2750 -22 2631 -3 2778 -4 2834 -21 33
-10 66 -23 73 -29 10 -8 13 -84 13 -358 l0 -347 -38 -17 c-92 -41 -32 -40
-2929 -43 -2783 -3 -2793 -3 -2793 -23 0 -20 8 -20 2803 -17 2634 2 2806 4
2867 20 36 10 80 26 98 37 l32 20 -2 371 -3 372 -25 19 c-14 10 -50 26 -80 36
-51 15 -249 17 -2815 19 -2725 3 -2760 2 -2785 -17z"/>
<path d="M8250 4134 c-71 -11 -152 -39 -175 -60 l-25 -23 0 -359 c0 -397 -4
-370 65 -405 68 -34 138 -39 573 -44 425 -5 432 -4 432 15 0 19 -10 20 -422
25 -439 5 -524 13 -584 52 l-24 15 0 334 c0 184 3 341 6 350 3 9 36 26 73 38
63 21 86 22 480 26 412 4 414 4 385 23 -27 18 -50 19 -394 18 -201 -1 -376 -3
-390 -5z"/>
<path d="M9690 4120 c-25 -19 -10 -20 2702 -20 1891 0 2751 -3 2805 -11 43 -6
97 -19 121 -29 l42 -19 0 -345 0 -346 -23 -14 c-12 -8 -51 -23 -87 -33 -61
-16 -225 -18 -2857 -20 -2776 -3 -2793 -4 -2793 -23 0 -20 16 -20 2753 -20
1722 1 2780 4 2827 10 100 13 170 35 198 60 22 21 22 21 22 384 0 417 9 382
-102 419 l-63 22 -2760 2 c-2729 3 -2760 2 -2785 -17z"/>
<path d="M3397 3773 c-4 -48 -10 -134 -13 -190 l-7 -103 35 0 35 0 6 68 c4 37
7 104 7 150 0 46 4 81 9 78 4 -3 14 -31 20 -63 6 -32 22 -94 35 -138 23 -79
23 -80 57 -80 l33 0 43 139 c23 76 45 141 48 144 3 3 5 -35 5 -85 0 -49 3
-118 6 -152 l7 -61 39 0 c33 0 38 3 34 18 -2 9 -8 95 -12 190 l-7 173 -55 -3
-55 -3 -19 -55 c-10 -30 -26 -84 -35 -120 -9 -36 -19 -68 -23 -73 -3 -4 -22
50 -41 120 l-34 128 -56 3 -56 3 -6 -88z"/>
<path d="M11137 3813 c-4 -27 -9 -112 -13 -190 l-7 -143 36 0 35 0 7 153 c5
87 11 143 15 132 5 -11 23 -77 41 -147 l33 -128 33 0 32 0 35 113 c19 61 38
124 42 140 15 65 24 30 24 -97 0 -74 3 -141 6 -150 4 -10 18 -16 41 -16 l36 0
-7 153 c-4 83 -9 169 -12 190 l-6 37 -52 0 -53 0 -31 -102 c-17 -57 -34 -116
-38 -131 -9 -37 -18 -25 -33 43 -6 30 -21 85 -32 123 l-20 67 -53 0 -53 0 -6
-47z"/>
<path d="M3899 3749 c-21 -8 -25 -15 -21 -35 3 -18 9 -23 21 -19 42 16 72 17
96 1 34 -22 26 -32 -34 -40 -61 -8 -98 -36 -107 -80 -11 -60 28 -100 95 -98
18 1 42 9 52 18 17 15 19 15 25 0 4 -10 18 -16 40 -16 l34 0 0 93 c0 141 -32
187 -130 186 -25 0 -57 -5 -71 -10z m121 -163 c0 -45 -50 -72 -78 -44 -28 28
1 68 49 68 24 0 29 -4 29 -24z"/>
<path d="M11637 3748 c-22 -8 -26 -14 -21 -31 4 -12 7 -23 8 -24 1 -1 19 3 39
9 27 8 43 8 62 0 42 -19 31 -39 -26 -46 -95 -13 -139 -90 -86 -151 27 -32 83
-37 122 -11 22 14 25 15 25 1 0 -11 11 -15 38 -15 l37 0 -3 97 c-1 54 -5 108
-8 121 -11 50 -112 78 -187 50z m123 -156 c0 -33 -30 -63 -58 -60 -34 4 -43
45 -16 65 27 20 74 17 74 -5z"/>
<path d="M4166 3723 c9 -16 29 -45 42 -66 l25 -37 -47 -70 -46 -70 45 0 c44 0
46 2 67 45 12 25 25 45 28 45 3 0 16 -20 28 -45 21 -44 23 -45 68 -45 l46 0
-23 38 c-13 20 -33 52 -45 71 l-23 34 40 58 c21 32 39 60 39 63 0 4 -18 6 -40
6 -36 0 -41 -3 -60 -40 -11 -22 -22 -40 -25 -40 -2 0 -14 18 -26 40 -21 37
-26 40 -67 40 l-44 0 18 -27z"/>
<path d="M11890 3745 c0 -4 19 -33 42 -65 l41 -59 -46 -71 -47 -70 43 0 c42 0
45 2 62 40 10 23 22 43 26 46 4 2 20 -16 34 -41 25 -43 29 -45 71 -45 l44 0
-26 43 c-15 23 -36 55 -46 70 l-20 28 38 57 c22 31 41 60 42 65 2 4 -15 7 -37
7 -37 0 -42 -3 -61 -41 -24 -45 -38 -42 -60 11 -11 27 -17 30 -56 30 -24 0
-44 -2 -44 -5z"/>
<path d="M532 3049 c-93 -12 -171 -37 -198 -64 l-24 -24 0 -345 c0 -229 4
-353 11 -369 6 -13 27 -32 47 -42 82 -39 166 -45 603 -45 412 0 419 0 419 20
0 20 -7 20 -407 20 -414 1 -520 8 -590 42 l-28 13 -3 351 -2 351 37 17 c76 33
140 38 566 43 411 5 427 6 427 24 0 18 -14 19 -397 18 -219 -1 -426 -5 -461
-10z"/>
<path d="M1860 3040 c0 -20 10 -20 2793 -23 2897 -3 2837 -2 2930 -43 l37 -17
0 -347 c0 -274 -3 -350 -13 -358 -7 -6 -40 -19 -73 -29 -56 -17 -204 -18
-2866 -21 -2800 -2 -2808 -2 -2808 -22 0 -20 7 -20 2818 -17 2619 2 2821 4
2872 19 30 10 66 26 80 36 l25 19 3 372 2 371 -32 20 c-18 11 -62 27 -98 37
-61 16 -233 18 -2867 20 -2795 3 -2803 3 -2803 -17z"/>
<path d="M8265 3049 c-94 -13 -136 -25 -176 -52 l-34 -23 -3 -362 -2 -363 25
-23 c14 -13 51 -31 82 -41 52 -17 106 -19 511 -23 446 -3 452 -3 452 17 0 19
-9 20 -442 23 -425 4 -446 5 -509 26 -37 12 -70 29 -73 38 -3 9 -6 166 -6 350
l0 334 24 15 c60 39 145 47 584 52 406 5 422 6 422 24 0 18 -14 19 -392 18
-216 -1 -424 -6 -463 -10z"/>
<path d="M9600 3040 c0 -19 17 -20 2793 -23 2632 -2 2796 -4 2857 -20 36 -10
75 -25 87 -33 l23 -14 0 -346 0 -345 -42 -19 c-24 -10 -78 -23 -121 -29 -55
-8 -922 -11 -2838 -11 -2758 0 -2759 0 -2759 -20 0 -20 0 -20 2818 -18 l2817
3 63 22 c111 37 102 2 102 419 0 363 0 363 -22 384 -28 25 -98 47 -198 60 -47
6 -1105 9 -2827 10 -2737 0 -2753 0 -2753 -20z"/>
<path d="M2430 2600 l0 -200 40 0 40 0 0 200 0 200 -40 0 -40 0 0 -200z"/>
<path d="M4110 2600 l0 -200 40 0 40 0 0 200 0 200 -40 0 -40 0 0 -200z"/>
<path d="M10170 2600 l0 -200 40 0 40 0 0 200 0 200 -40 0 -40 0 0 -200z"/>
<path d="M11850 2600 l0 -200 40 0 40 0 0 200 0 200 -40 0 -40 0 0 -200z"/>
<path d="M3400 2775 c-26 -32 13 -81 48 -59 21 14 28 54 10 65 -20 13 -44 11
-58 -6z"/>
<path d="M11137 2783 c-4 -3 -7 -19 -7 -34 0 -22 6 -30 25 -35 43 -11 73 34
43 64 -13 13 -50 16 -61 5z"/>
<path d="M2195 2761 c-56 -25 -90 -64 -105 -116 -42 -150 53 -265 207 -252 35
2 67 7 70 10 3 4 3 17 -1 31 -6 23 -11 25 -59 24 -94 -2 -143 43 -141 132 1
87 57 131 158 127 35 -2 40 1 46 24 7 24 5 28 -22 33 -54 11 -112 6 -153 -13z"/>
<path d="M6730 2737 c-48 -108 -48 -244 1 -356 18 -44 25 -51 50 -51 l28 0
-19 43 c-44 98 -47 234 -9 346 11 30 19 56 19 58 0 1 -12 3 -26 3 -20 0 -29
-9 -44 -43z"/>
<path d="M7120 2775 c0 -3 9 -33 21 -67 34 -102 26 -266 -17 -350 -14 -27 -14
-28 15 -28 25 0 31 6 49 48 49 113 49 240 1 351 -17 41 -26 51 -45 51 -13 0
-24 -2 -24 -5z"/>
<path d="M9960 2774 c-99 -40 -140 -94 -140 -186 0 -135 83 -208 222 -195 33
3 62 7 64 10 8 8 -8 67 -17 61 -16 -10 -107 -6 -128 6 -33 17 -61 70 -61 116
0 86 79 147 162 126 36 -9 37 -9 43 20 4 16 4 32 1 36 -9 8 -127 13 -146 6z"/>
<path d="M14470 2737 c-48 -107 -51 -236 -8 -343 20 -51 27 -59 52 -62 24 -3
28 -1 21 15 -30 73 -38 117 -38 213 -1 85 4 116 21 160 12 30 22 56 22 58 0 1
-12 2 -26 2 -20 0 -29 -9 -44 -43z"/>
<path d="M14878 2708 c21 -64 24 -86 19 -173 -3 -70 -11 -116 -26 -152 l-21
-53 25 0 c77 0 114 262 55 398 -19 44 -26 52 -49 52 l-27 0 24 -72z"/>
<path d="M4390 2585 l0 -185 35 0 35 0 1 143 c0 112 3 137 11 117 6 -14 40
-78 75 -142 l65 -118 44 0 44 0 0 185 0 185 -35 0 -35 0 0 -137 0 -138 -26 55
c-14 30 -46 92 -71 138 l-47 82 -48 0 -48 0 0 -185z"/>
<path d="M4780 2585 l0 -185 42 0 41 0 -6 140 c-4 77 -5 140 -3 140 3 0 37
-63 77 -140 l73 -140 48 0 48 0 0 185 0 185 -41 0 -42 0 5 -136 6 -136 -65
123 c-35 68 -69 129 -75 136 -6 7 -32 13 -59 13 l-49 0 0 -185z"/>
<path d="M5290 2585 l0 -185 120 0 120 0 0 30 0 29 -77 3 -78 3 -3 153 -3 152
-39 0 -40 0 0 -185z"/>
<path d="M12120 2585 l0 -185 41 0 41 0 -4 140 c-1 77 -2 140 -1 140 1 0 31
-57 68 -127 37 -71 72 -134 77 -140 6 -7 30 -13 54 -13 l44 0 0 185 0 185 -41
0 -42 0 7 -137 7 -138 -49 95 c-99 191 -90 180 -149 180 l-53 0 0 -185z"/>
<path d="M12520 2585 l0 -185 35 0 35 0 0 143 c1 135 2 141 16 112 9 -16 43
-81 76 -142 l61 -113 43 0 44 0 0 185 0 185 -36 0 -36 0 4 -135 c1 -74 2 -135
1 -135 -1 0 -11 21 -23 46 -11 26 -43 87 -71 135 l-51 89 -49 0 -49 0 0 -185z"/>
<path d="M13030 2585 l0 -185 120 0 120 0 0 30 0 30 -80 0 -80 0 0 155 0 155
-40 0 -40 0 0 -185z"/>
<path d="M2613 2660 c-15 -6 -20 -15 -16 -29 5 -19 11 -20 63 -14 52 5 59 3
69 -15 12 -23 12 -23 -70 -37 -43 -6 -76 -39 -85 -83 -5 -26 -1 -36 24 -62 35
-35 83 -40 122 -13 17 12 25 13 28 5 2 -7 19 -12 38 -12 l34 0 0 89 c0 147
-24 181 -127 180 -32 0 -68 -4 -80 -9z m127 -160 c0 -39 -38 -67 -70 -50 -28
15 -23 51 10 67 43 22 60 17 60 -17z"/>
<path d="M2917 2650 c-56 -44 -39 -107 39 -141 74 -33 45 -88 -31 -59 -31 12
-45 2 -45 -32 0 -12 12 -19 45 -24 90 -13 155 21 155 80 -1 42 -18 61 -74 86
-35 14 -47 25 -44 37 3 14 13 18 50 17 38 0 48 3 52 20 8 31 -1 36 -63 36 -43
0 -65 -5 -84 -20z"/>
<path d="M3159 2641 c-16 -16 -29 -38 -29 -49 0 -30 35 -68 80 -86 28 -11 40
-22 40 -36 0 -25 -36 -35 -75 -20 -31 12 -45 2 -45 -32 0 -12 12 -19 45 -24
63 -9 111 2 135 33 39 50 17 102 -57 134 -32 14 -43 24 -41 36 3 14 13 18 50
16 41 -1 47 1 51 23 2 13 2 26 -1 29 -3 3 -32 5 -64 5 -52 0 -63 -4 -89 -29z"/>
<path d="M3390 2535 l0 -135 40 0 40 0 0 135 0 135 -40 0 -40 0 0 -135z"/>
<path d="M3601 2653 c-65 -32 -89 -141 -45 -208 21 -32 73 -55 126 -55 56 0
71 10 63 41 -5 21 -11 24 -40 21 -28 -3 -40 2 -66 27 -26 27 -30 37 -25 64 10
47 37 69 85 69 23 0 41 2 41 6 0 4 3 17 6 30 6 21 4 22 -52 22 -35 0 -73 -7
-93 -17z"/>
<path d="M3834 2660 c-16 -6 -20 -15 -17 -33 5 -23 8 -24 33 -15 16 5 43 8 62
6 25 -2 33 -8 33 -23 0 -16 -9 -21 -46 -26 -57 -8 -85 -26 -100 -61 -34 -82
47 -146 131 -103 18 9 31 11 35 5 3 -6 22 -10 42 -10 36 0 36 0 29 38 -3 20
-6 68 -6 105 0 62 -3 71 -29 98 -26 26 -36 29 -88 28 -32 0 -68 -4 -79 -9z
m126 -155 c0 -24 -31 -65 -48 -65 -19 0 -44 28 -40 45 3 21 42 45 71 45 12 0
17 -8 17 -25z"/>
<path d="M5608 2663 c-19 -5 -21 -16 -10 -45 5 -13 11 -15 22 -8 24 15 86 12
101 -6 10 -13 10 -17 -2 -25 -8 -5 -24 -9 -37 -9 -35 0 -89 -26 -101 -48 -46
-85 41 -163 129 -117 17 9 30 11 30 5 0 -5 17 -10 38 -10 l37 0 -5 111 c-5
106 -6 112 -33 135 -24 20 -38 24 -90 23 -34 -1 -70 -3 -79 -6z m128 -146 c8
-22 -13 -65 -36 -72 -25 -8 -50 10 -50 36 0 35 74 66 86 36z"/>
<path d="M5906 2534 l55 -137 -22 -23 c-12 -13 -31 -26 -41 -30 -16 -5 -18
-12 -12 -37 8 -40 8 -40 33 -32 37 11 81 56 108 109 26 51 103 258 103 276 0
6 -18 10 -40 10 -44 0 -40 6 -73 -135 -16 -66 -16 -66 -51 50 l-23 80 -46 3
-46 3 55 -137z"/>
<path d="M6216 2649 c-37 -29 -56 -71 -56 -121 0 -55 17 -86 60 -116 31 -21
43 -23 103 -19 37 2 70 7 73 10 3 2 2 15 -1 28 -5 22 -10 24 -61 21 -47 -3
-59 0 -80 19 -13 12 -24 26 -24 31 0 4 41 8 90 8 103 0 108 4 90 70 -18 66
-48 90 -113 90 -40 0 -61 -6 -81 -21z m112 -41 c7 -7 12 -20 12 -30 0 -15 -9
-18 -55 -18 -59 0 -63 4 -39 38 17 24 62 30 82 10z"/>
<path d="M6474 2648 c3 -13 6 -74 6 -135 l0 -113 40 0 40 0 0 84 c0 93 11 116
56 116 21 0 24 5 24 35 0 30 -3 35 -24 35 -14 0 -33 -11 -44 -25 -11 -14 -23
-25 -26 -25 -3 0 -6 11 -6 25 0 22 -4 25 -36 25 -33 0 -36 -2 -30 -22z"/>
<path d="M6894 2647 c-19 -17 -27 -33 -27 -55 0 -39 17 -61 71 -84 72 -32 42
-86 -33 -58 -31 12 -45 2 -45 -32 0 -12 12 -19 45 -24 90 -13 155 20 155 81 0
38 -23 64 -79 89 -58 27 -52 51 11 50 38 0 48 3 52 20 8 31 -1 36 -64 36 -47
0 -64 -5 -86 -23z"/>
<path d="M10347 2658 c-11 -9 -15 -21 -11 -35 5 -19 10 -21 25 -12 11 5 39 9
62 7 34 -2 42 -7 42 -23 0 -11 -7 -21 -15 -22 -100 -13 -140 -42 -140 -100 0
-69 71 -103 140 -68 17 9 30 11 30 5 0 -5 18 -10 41 -10 33 0 40 3 35 16 -3 9
-6 56 -6 106 0 86 -1 91 -29 119 -26 26 -36 29 -93 29 -36 0 -72 -6 -81 -12z
m133 -153 c0 -27 -31 -65 -54 -65 -19 0 -38 26 -34 47 3 19 42 43 71 43 12 0
17 -8 17 -25z"/>
<path d="M10649 2641 c-16 -16 -29 -38 -29 -49 0 -29 34 -66 79 -87 70 -31 39
-83 -33 -55 -34 12 -46 6 -46 -24 0 -27 22 -36 85 -36 51 0 102 31 111 66 10
40 -14 75 -66 101 -62 29 -62 58 -1 58 35 0 45 4 51 20 11 31 4 35 -61 35 -54
0 -64 -3 -90 -29z"/>
<path d="M10915 2658 c-73 -42 -55 -118 36 -154 26 -11 39 -22 39 -35 0 -24
-37 -34 -74 -19 -34 12 -46 6 -46 -24 0 -27 22 -36 85 -36 54 0 101 30 110 70
9 42 -15 76 -71 101 -33 14 -45 24 -42 36 3 14 14 18 48 18 41 0 45 2 45 25 0
23 -4 25 -55 27 -30 2 -64 -2 -75 -9z"/>
<path d="M11130 2535 l0 -135 40 0 40 0 0 135 0 135 -40 0 -40 0 0 -135z"/>
<path d="M11332 2650 c-60 -37 -81 -134 -42 -198 26 -43 80 -66 142 -60 58 6
59 7 50 39 -6 20 -13 24 -50 25 -51 1 -71 18 -78 65 -9 53 27 92 84 91 29 -1
42 3 42 13 0 7 3 20 6 29 10 26 -111 22 -154 -4z"/>
<path d="M11568 2663 c-19 -5 -21 -16 -10 -45 5 -13 11 -15 22 -8 24 15 86 12
101 -6 10 -13 10 -17 -2 -25 -8 -5 -24 -9 -37 -9 -35 0 -89 -26 -101 -48 -46
-85 41 -163 129 -117 17 9 30 11 30 5 0 -5 16 -10 35 -10 l35 0 0 106 c0 103
-1 106 -29 135 -27 26 -35 29 -93 28 -35 -1 -71 -3 -80 -6z m122 -168 c0 -28
-5 -38 -25 -47 -48 -22 -77 36 -33 66 39 27 58 21 58 -19z"/>
<path d="M13347 2663 c-12 -3 -17 -12 -15 -26 3 -20 8 -22 59 -19 42 3 58 0
69 -13 12 -14 12 -18 -1 -26 -8 -5 -27 -9 -42 -9 -36 0 -83 -25 -97 -49 -5
-11 -10 -35 -10 -55 0 -64 83 -99 140 -59 17 12 25 13 28 5 2 -7 19 -12 38
-12 l34 0 0 95 c0 102 -13 145 -49 165 -19 10 -119 12 -154 3z m123 -163 c0
-50 -67 -77 -84 -34 -12 31 20 62 67 63 12 1 17 -7 17 -29z"/>
<path d="M13590 2667 c0 -2 23 -59 50 -128 28 -68 49 -133 48 -144 -2 -11 -18
-29 -36 -40 -27 -17 -32 -24 -27 -49 7 -37 9 -39 34 -31 36 11 81 56 105 104
22 43 106 270 106 285 0 4 -19 6 -42 4 l-43 -3 -20 -87 c-11 -48 -23 -90 -27
-93 -3 -3 -9 7 -12 22 -4 15 -16 58 -28 96 l-20 67 -44 0 c-24 0 -44 -1 -44
-3z"/>
<path d="M13962 2658 c-54 -26 -82 -127 -54 -193 23 -53 57 -70 144 -70 42 0
79 2 81 5 3 3 3 16 0 30 -4 24 -7 25 -63 22 -49 -3 -62 0 -79 17 -12 12 -21
26 -21 31 0 6 37 10 91 10 l92 0 -5 52 c-7 71 -47 108 -116 107 -26 0 -57 -5
-70 -11z m108 -57 c18 -35 12 -41 -45 -41 -59 0 -63 4 -39 38 20 28 69 30 84
3z"/>
<path d="M14210 2535 l0 -135 39 0 39 0 3 86 c4 92 17 114 66 114 20 0 23 5
23 35 0 31 -3 35 -25 35 -14 0 -35 -12 -50 -27 l-25 -28 0 28 c0 24 -4 27 -35
27 l-35 0 0 -135z"/>
<path d="M14629 2641 c-16 -16 -29 -38 -29 -49 0 -30 35 -68 80 -86 28 -11 40
-22 40 -36 0 -25 -36 -35 -74 -20 -34 13 -46 6 -46 -25 0 -21 6 -25 45 -31 63
-9 111 2 135 33 39 50 17 102 -57 134 -32 14 -43 24 -41 36 3 14 13 18 50 16
41 -1 47 1 51 23 2 13 2 26 -1 29 -3 3 -32 5 -64 5 -52 0 -63 -4 -89 -29z"/>
<path d="M510 1984 c-62 -10 -147 -37 -170 -54 l-25 -19 -3 -361 -3 -360 24
-24 c32 -32 108 -54 227 -67 63 -6 1247 -9 3500 -7 3209 3 3409 5 3470 21 36
10 80 26 98 37 l32 20 0 369 0 370 -26 20 c-15 12 -50 29 -78 39 -48 16 -217
17 -2873 20 -2816 2 -2823 2 -2823 -18 0 -20 8 -20 2813 -22 2707 -3 2814 -4
2867 -22 30 -10 61 -23 68 -28 9 -8 12 -92 12 -358 l0 -347 -26 -12 c-15 -6
-54 -19 -88 -29 -56 -15 -317 -17 -3401 -20 -2121 -2 -3393 1 -3486 7 -104 7
-161 16 -202 31 l-57 21 0 348 c0 267 3 351 13 359 6 5 37 18 67 28 49 16 106
18 503 22 433 3 447 4 447 23 0 18 -12 19 -427 18 -236 -1 -439 -3 -453 -5z"/>
<path d="M8205 1975 c-82 -18 -131 -39 -144 -64 -8 -14 -10 -133 -9 -378 l3
-357 33 -22 c18 -13 63 -31 100 -41 64 -17 234 -18 3472 -21 2353 -2 3434 0
3500 8 111 12 190 34 219 62 21 19 21 26 19 385 l-3 366 -25 19 c-14 10 -50
26 -80 36 -51 16 -252 17 -2872 19 -2817 3 -2818 3 -2818 -17 0 -20 2 -20
2773 -20 2925 -1 2870 0 2955 -44 l32 -17 0 -344 0 -345 -24 -15 c-13 -9 -57
-23 -97 -33 -69 -16 -292 -17 -3514 -17 -3222 0 -3445 1 -3514 17 -40 10 -84
24 -97 33 l-24 15 0 340 c0 378 -3 360 72 380 93 26 172 30 556 30 395 0 402
0 402 20 0 20 -6 20 -427 19 -313 0 -444 -4 -488 -14z"/>
<path d="M3674 1730 c-32 -13 -64 -59 -64 -92 0 -21 -6 -31 -20 -35 -13 -3
-20 -14 -20 -29 0 -17 6 -24 20 -24 19 0 20 -7 20 -110 l0 -110 40 0 40 0 0
110 0 110 25 0 c20 0 25 5 25 25 0 20 -5 25 -25 25 -21 0 -25 5 -25 30 0 32
30 56 56 46 12 -5 15 1 12 27 -3 28 -7 32 -33 34 -16 1 -40 -2 -51 -7z"/>
<path d="M11404 1726 c-30 -13 -46 -40 -60 -98 -3 -16 -12 -28 -20 -28 -8 0
-14 -10 -14 -25 0 -16 6 -25 15 -25 12 0 15 -19 15 -110 l0 -110 40 0 39 0 3
108 3 107 28 3 c21 3 27 9 27 27 0 18 -6 24 -27 27 -23 2 -28 7 -25 28 3 27
30 53 48 46 12 -5 26 42 17 56 -7 12 -55 9 -89 -6z"/>
<path d="M3025 1706 c-50 -19 -74 -51 -75 -98 0 -48 29 -82 100 -116 71 -35
83 -56 50 -84 -25 -20 -31 -20 -124 -6 -14 2 -21 -5 -27 -25 -6 -24 -4 -29 17
-38 38 -14 130 -11 169 5 44 19 70 69 61 119 -8 42 -19 53 -100 93 -63 31 -78
53 -55 81 10 12 26 14 70 10 55 -5 58 -4 64 20 3 14 2 29 -2 34 -17 16 -108
19 -148 5z"/>
<path d="M10767 1706 c-50 -18 -64 -31 -77 -70 -19 -59 11 -101 103 -146 42
-20 53 -31 55 -52 5 -40 -32 -55 -101 -41 -29 6 -53 10 -53 9 -1 0 -5 -15 -8
-33 -7 -31 -7 -32 39 -39 79 -11 142 0 175 31 38 36 46 75 25 120 -14 27 -32
42 -81 66 -74 35 -93 59 -67 85 13 13 29 15 74 11 55 -5 57 -4 62 22 3 14 2
29 -1 33 -15 15 -108 18 -145 4z"/>
<path d="M3843 1668 c-27 -9 -33 -16 -33 -39 0 -19 -5 -29 -15 -29 -9 0 -15
-9 -15 -25 0 -16 6 -25 15 -25 12 0 15 -14 15 -69 0 -118 22 -151 99 -151 39
0 41 2 41 30 0 22 -5 30 -18 30 -32 0 -42 22 -42 92 l0 68 30 0 c25 0 30 4 30
24 0 19 -6 25 -27 28 -24 3 -28 8 -31 41 -2 20 -6 37 -10 36 -4 -1 -22 -6 -39
-11z"/>
<path d="M11583 1669 c-26 -8 -33 -15 -33 -35 0 -17 -7 -28 -20 -31 -27 -7
-28 -53 -1 -53 17 0 19 -9 23 -91 3 -81 6 -93 27 -110 15 -12 39 -19 67 -19
42 0 44 1 44 30 0 22 -5 30 -18 30 -32 0 -42 22 -42 92 l0 68 30 0 c25 0 30 4
30 24 0 19 -6 25 -27 28 -24 3 -28 8 -31 41 -2 20 -6 37 -10 36 -4 0 -22 -5
-39 -10z"/>
<path d="M3323 1594 c-41 -21 -62 -53 -69 -107 -13 -91 46 -157 140 -157 79 0
117 31 141 117 10 35 -12 96 -45 128 -37 36 -117 45 -167 19z m107 -54 c44
-44 17 -160 -38 -160 -42 0 -70 69 -52 126 18 54 56 68 90 34z"/>
<path d="M4130 1603 c-8 -3 -23 -12 -32 -21 -16 -14 -18 -13 -18 1 0 13 -9 17
-35 17 l-35 0 0 -135 0 -135 40 0 40 0 0 93 c0 78 3 97 18 110 23 21 36 21 56
1 12 -12 16 -37 16 -110 l0 -94 40 0 40 0 0 93 c0 78 3 97 18 110 23 21 36 21
56 1 12 -12 16 -37 16 -110 l0 -94 40 0 40 0 0 95 c0 139 -25 185 -98 185 -16
0 -41 -9 -56 -21 l-26 -20 -26 20 c-26 20 -62 26 -94 14z"/>
<path d="M4545 1603 c-29 -7 -38 -18 -31 -41 6 -18 11 -19 47 -10 28 8 47 7
65 0 34 -16 31 -42 -5 -42 -105 0 -172 -98 -108 -158 28 -26 92 -30 125 -6 20
14 22 14 22 0 0 -12 10 -16 35 -16 l35 0 0 100 c0 110 -11 145 -51 166 -27 13
-92 17 -134 7z m105 -172 c0 -34 -20 -54 -52 -49 -15 2 -24 11 -26 26 -5 32
15 52 49 52 25 0 29 -4 29 -29z"/>
<path d="M11063 1595 c-51 -22 -75 -69 -70 -139 3 -53 7 -62 41 -94 37 -33 41
-34 102 -30 56 3 69 8 96 36 27 26 32 40 35 89 4 68 -8 98 -56 130 -39 27 -99
30 -148 8z m102 -60 c43 -42 28 -139 -23 -152 -39 -9 -67 27 -67 88 0 41 4 54
24 70 30 25 37 24 66 -6z"/>
<path d="M11847 1590 c-21 -17 -26 -18 -31 -5 -3 9 -18 15 -36 15 l-30 0 0
-135 0 -135 40 0 40 0 0 94 c0 73 4 98 16 110 45 45 74 -1 74 -116 l0 -88 40
0 40 0 0 100 c0 99 0 101 26 112 23 11 29 10 45 -11 15 -19 19 -40 19 -112 l0
-89 40 0 40 0 0 83 c-1 102 -13 157 -41 180 -29 23 -80 22 -113 -4 l-26 -20
-26 20 c-34 26 -84 27 -117 1z"/>
<path d="M12272 1599 c-17 -6 -22 -15 -20 -31 2 -14 9 -22 18 -19 56 13 88 12
103 -4 25 -25 21 -35 -15 -35 -18 0 -52 -9 -74 -19 -53 -24 -74 -73 -50 -119
8 -16 23 -32 31 -36 30 -11 85 -6 110 10 23 15 25 15 25 0 0 -12 10 -16 36
-16 l36 0 -4 111 -3 111 -33 29 c-27 24 -40 29 -85 28 -28 0 -62 -4 -75 -10z
m118 -163 c0 -45 -50 -72 -78 -44 -28 28 1 68 49 68 24 0 29 -4 29 -24z"/>
<path d="M4790 1595 c0 -3 18 -33 40 -66 l41 -59 -39 -57 c-21 -32 -42 -64
-46 -70 -5 -10 4 -13 36 -13 42 0 45 2 67 47 25 52 25 52 63 -16 15 -28 22
-31 62 -31 l46 0 -45 69 c-25 38 -45 73 -45 77 0 3 15 27 33 53 53 74 53 71 4
71 -42 0 -45 -2 -62 -40 -10 -22 -21 -40 -24 -40 -3 0 -15 17 -26 38 -18 33
-25 37 -62 40 -24 2 -43 0 -43 -3z"/>
<path d="M12560 1541 c22 -33 40 -65 40 -71 0 -6 -18 -38 -40 -70 -22 -32 -40
-61 -40 -64 0 -4 18 -6 40 -6 38 0 42 3 62 45 12 25 25 45 28 45 3 0 16 -20
30 -45 23 -42 27 -45 67 -45 24 0 43 2 43 5 0 2 -16 29 -35 60 -20 30 -38 62
-42 70 -3 9 12 40 36 75 l42 60 -44 0 c-42 0 -45 -2 -62 -40 -10 -22 -21 -40
-25 -40 -3 0 -16 18 -29 40 -21 37 -25 40 -67 40 l-45 0 41 -59z"/>
<path d="M4270 489 l0 -240 28 3 c26 3 27 6 32 70 8 101 18 102 85 9 49 -69
63 -81 87 -81 15 0 28 4 28 8 0 5 -29 48 -65 97 l-65 89 28 31 c14 16 42 47
61 68 l35 37 -35 0 c-31 0 -41 -8 -94 -71 l-60 -72 -3 147 -3 146 -29 0 -30 0
0 -241z"/>
<path d="M12010 490 l0 -240 25 0 c24 0 25 3 25 59 0 41 5 65 18 81 l17 22 58
-81 c50 -70 62 -81 88 -81 16 0 29 3 29 6 0 3 -29 46 -65 95 -36 48 -65 91
-65 95 0 3 28 35 62 70 l61 64 -36 0 c-32 0 -42 -7 -93 -70 -32 -38 -62 -70
-66 -70 -4 0 -8 65 -8 145 l0 145 -25 0 -25 0 0 -240z"/>
<path d="M3340 680 c0 -18 7 -20 70 -20 l70 0 2 -202 3 -203 28 -3 27 -3 0
205 0 206 70 0 c63 0 70 2 70 20 0 19 -7 20 -170 20 -163 0 -170 -1 -170 -20z"/>
<path d="M11080 680 c0 -18 7 -20 70 -20 l70 0 0 -206 0 -205 28 3 27 3 3 203
2 202 65 0 c58 0 65 2 65 20 0 19 -7 20 -165 20 -158 0 -165 -1 -165 -20z"/>
<path d="M4798 664 c-33 -17 -48 -31 -48 -44 0 -24 11 -25 50 -5 l30 15 2
-187 3 -188 28 -3 27 -3 0 220 0 221 -22 0 c-13 -1 -44 -12 -70 -26z"/>
<path d="M12493 675 c-33 -14 -38 -22 -28 -48 5 -12 12 -11 46 6 73 36 139 3
139 -71 0 -51 -25 -89 -123 -189 -61 -62 -88 -97 -84 -107 5 -13 28 -16 142
-16 l135 0 0 25 c0 25 0 25 -96 25 l-97 0 73 76 c76 81 109 138 110 192 0 45
-24 89 -60 107 -36 19 -114 19 -157 0z"/>
<path d="M3705 567 c-26 -15 -22 -52 3 -41 10 4 36 9 60 12 49 5 82 -16 82
-53 0 -19 -7 -23 -52 -29 -60 -8 -101 -27 -122 -58 -28 -39 -16 -105 23 -135
24 -19 92 -15 128 6 31 19 31 19 36 0 3 -11 14 -19 27 -19 22 0 22 2 18 136
l-3 136 -33 29 c-28 25 -40 29 -90 29 -31 -1 -66 -6 -77 -13z m145 -191 c0
-36 -5 -48 -26 -65 -52 -41 -108 -19 -102 39 2 28 10 38 38 52 19 10 47 18 63
18 25 0 27 -3 27 -44z"/>
<path d="M4026 558 c-56 -50 -36 -123 43 -155 73 -30 91 -69 46 -99 -24 -16
-65 -16 -106 1 -11 4 -18 0 -22 -15 -7 -29 32 -43 101 -38 66 6 102 36 102 85
0 51 -15 70 -80 103 -48 24 -60 35 -60 54 0 36 24 50 76 42 35 -4 46 -2 51 10
9 23 -15 34 -74 34 -40 0 -58 -5 -77 -22z"/>
<path d="M11445 568 c-11 -6 -21 -12 -23 -13 -1 -1 0 -9 4 -18 4 -12 11 -14
31 -6 64 24 133 -2 133 -51 0 -15 -7 -20 -27 -20 -49 0 -106 -21 -135 -50 -38
-38 -39 -100 -3 -135 31 -32 100 -35 138 -5 32 25 37 25 37 0 0 -15 7 -20 25
-20 l25 0 0 108 c0 180 -25 222 -129 222 -31 0 -65 -6 -76 -12z m145 -188 c0
-79 -88 -123 -127 -64 -15 24 -15 29 -2 53 18 32 54 51 97 51 31 0 32 -1 32
-40z"/>
<path d="M11760 552 c-54 -55 -34 -114 52 -151 54 -23 74 -51 58 -81 -17 -32
-64 -37 -123 -14 -9 3 -16 -3 -20 -16 -7 -29 32 -43 102 -37 44 3 59 9 78 31
24 29 30 74 13 107 -6 10 -37 32 -69 49 -66 33 -76 48 -54 80 14 20 22 22 64
17 37 -5 49 -3 53 10 9 23 2 26 -64 31 -55 4 -61 2 -90 -26z"/>
</g>
</svg>
