<?xml version="1.0" standalone="no"?>
<!DOCTYPE svg PUBLIC "-//W3C//DTD SVG 20010904//EN"
 "http://www.w3.org/TR/2001/REC-SVG-20010904/DTD/svg10.dtd">
<svg version="1.0" xmlns="http://www.w3.org/2000/svg"
 width="1999.000000pt" height="1197.000000pt" viewBox="0 0 1999.000000 1197.000000"
 preserveAspectRatio="xMidYMid meet">

<g transform="translate(0.000000,1197.000000) scale(0.100000,-0.100000)"
fill="#000000" stroke="none">
<path d="M4204 11666 c-92 -40 -108 -182 -26 -246 38 -31 121 -28 161 6 77 65
57 202 -35 240 -41 17 -60 17 -100 0z m117 -45 c23 -24 29 -38 29 -75 0 -58
-17 -94 -51 -112 -74 -38 -139 14 -139 111 0 61 40 105 95 105 27 0 44 -8 66
-29z"/>
<path d="M4953 11666 c-58 -26 -84 -99 -63 -176 18 -66 48 -90 115 -90 49 0
60 4 86 29 30 31 38 61 16 61 -7 0 -23 -13 -35 -30 -57 -76 -154 -30 -154 74
0 74 32 115 90 116 24 0 40 -8 60 -30 18 -19 32 -26 41 -21 10 7 7 15 -15 40
-34 38 -92 49 -141 27z"/>
<path d="M5585 11666 c-49 -22 -68 -51 -73 -111 -8 -102 34 -155 124 -155 42
0 59 5 83 26 77 65 57 202 -35 240 -41 17 -60 17 -99 0z m110 -39 c33 -27 45
-100 25 -147 -13 -31 -54 -60 -85 -60 -31 0 -72 29 -85 60 -33 79 12 170 85
170 21 0 44 -9 60 -23z"/>
<path d="M7144 11666 c-91 -41 -109 -176 -33 -240 24 -21 41 -26 83 -26 58 0
88 16 111 60 18 35 19 116 2 149 -28 56 -106 83 -163 57z m111 -39 c33 -27 45
-100 25 -147 -13 -31 -54 -60 -85 -60 -31 0 -72 29 -85 60 -33 79 12 170 85
170 21 0 44 -9 60 -23z"/>
<path d="M1470 11535 c0 -113 2 -135 15 -135 13 0 15 22 15 135 0 113 -2 135
-15 135 -13 0 -15 -22 -15 -135z"/>
<path d="M1572 11539 c2 -95 7 -134 16 -137 9 -3 12 22 12 102 0 58 3 106 8
106 4 0 38 -48 76 -105 97 -148 106 -145 106 30 0 113 -2 135 -15 135 -12 0
-15 -18 -15 -101 0 -58 -4 -99 -9 -97 -5 2 -39 46 -74 98 -43 64 -71 96 -86
98 -21 3 -22 2 -19 -129z"/>
<path d="M1850 11534 c0 -124 2 -135 18 -132 13 2 18 15 20 56 l3 52 49 0 c60
0 94 15 109 47 17 37 13 67 -12 91 -20 19 -35 22 -105 22 l-82 0 0 -136z m166
91 c32 -44 5 -77 -70 -83 l-56 -4 0 57 0 57 56 -4 c40 -3 61 -10 70 -23z"/>
<path d="M2110 11576 c0 -101 12 -151 40 -166 29 -15 113 -12 137 5 30 21 43
74 43 173 0 75 -2 82 -20 82 -19 0 -20 -7 -20 -102 0 -57 -4 -108 -8 -115 -20
-32 -99 -36 -124 -6 -8 10 -14 56 -16 119 -3 80 -7 104 -18 104 -11 0 -14 -20
-14 -94z"/>
<path d="M2370 11661 c0 -6 19 -11 43 -13 l42 -3 3 -122 c2 -100 5 -123 17
-123 12 0 15 20 15 109 0 60 3 116 6 125 4 11 19 16 50 16 24 0 44 5 44 10 0
6 -43 10 -110 10 -62 0 -110 -4 -110 -9z"/>
<path d="M3600 11535 c0 -113 2 -135 15 -135 11 0 15 13 15 54 l0 54 66 4 c77
5 104 27 104 84 0 58 -27 74 -120 74 l-80 0 0 -135z m155 95 c22 -18 18 -56
-7 -74 -13 -9 -43 -16 -70 -16 l-48 0 0 48 c0 27 3 52 8 56 11 12 99 1 117
-14z"/>
<path d="M3852 11538 c3 -117 5 -133 21 -136 15 -3 17 5 17 58 l0 61 42 -3
c40 -3 46 -7 82 -60 24 -35 47 -58 58 -58 17 0 18 2 3 30 -8 16 -29 46 -46 65
-23 26 -27 35 -15 35 28 0 56 38 56 74 0 53 -26 66 -133 66 l-88 0 3 -132z
m166 96 c52 -36 10 -84 -75 -84 l-53 0 0 50 0 50 53 0 c31 0 61 -6 75 -16z"/>
<path d="M4530 11555 c0 -103 -2 -115 -19 -125 -26 -13 -50 -3 -62 26 -4 13
-13 24 -19 24 -17 0 -11 -46 8 -63 19 -17 78 -23 99 -9 23 14 33 64 33 163 0
92 -1 99 -20 99 -19 0 -20 -7 -20 -115z"/>
<path d="M4630 11535 l0 -135 105 0 c87 0 105 3 105 15 0 12 -16 15 -85 15
l-85 0 0 50 0 50 75 0 c60 0 75 3 75 15 0 12 -15 15 -75 15 l-75 0 0 45 0 45
80 0 c47 0 80 4 80 10 0 6 -40 10 -100 10 l-100 0 0 -135z"/>
<path d="M5150 11661 c0 -6 19 -11 43 -13 l42 -3 3 -122 c2 -99 5 -123 17
-123 12 0 15 24 17 123 l3 122 48 3 c26 2 47 7 47 13 0 5 -48 9 -110 9 -62 0
-110 -4 -110 -9z"/>
<path d="M5410 11535 c0 -113 2 -135 15 -135 13 0 15 22 15 135 0 113 -2 135
-15 135 -13 0 -15 -22 -15 -135z"/>
<path d="M5820 11535 c0 -112 3 -135 15 -135 11 0 15 21 17 108 l3 107 70
-107 c97 -149 105 -147 105 27 0 113 -2 135 -15 135 -12 0 -15 -19 -15 -107
l0 -108 -71 108 c-100 150 -109 148 -109 -28z"/>
<path d="M7380 11560 c0 -104 1 -112 25 -135 19 -20 34 -25 74 -25 64 0 79 6
96 41 21 39 21 229 1 229 -11 0 -15 -23 -18 -105 -3 -119 -14 -139 -72 -139
-64 0 -76 22 -76 141 0 85 -3 103 -15 103 -12 0 -15 -19 -15 -110z"/>
<path d="M7640 11661 c0 -6 19 -11 43 -13 l42 -3 3 -122 c2 -99 5 -123 17
-123 12 0 15 24 17 123 l3 122 43 3 c23 2 42 7 42 13 0 5 -46 9 -105 9 -59 0
-105 -4 -105 -9z"/>
<path d="M7890 11534 c0 -124 2 -135 18 -132 13 2 18 15 20 56 l3 52 50 0 c54
0 103 20 113 45 13 34 6 72 -17 93 -20 19 -35 22 -105 22 l-82 0 0 -136z m159
100 c17 -18 21 -50 8 -69 -10 -13 -31 -20 -71 -23 l-56 -4 0 57 0 57 55 -4
c31 -3 60 -9 64 -14z"/>
<path d="M8152 11561 c3 -100 5 -112 27 -135 21 -22 33 -26 81 -26 48 0 60 4
81 26 21 23 24 36 27 135 4 105 4 109 -17 109 -20 0 -21 -5 -21 -99 0 -55 -3
-106 -6 -115 -10 -25 -69 -40 -101 -24 -28 13 -28 14 -31 126 -2 105 -4 112
-23 112 -20 0 -21 -5 -17 -109z"/>
<path d="M8410 11661 c0 -6 19 -11 43 -13 l42 -3 3 -122 c2 -99 5 -123 17
-123 12 0 15 24 17 123 l3 122 48 3 c26 2 47 7 47 13 0 5 -48 9 -110 9 -62 0
-110 -4 -110 -9z"/>
<path d="M12110 11535 c0 -113 2 -135 15 -135 13 0 15 22 15 135 0 113 -2 135
-15 135 -13 0 -15 -22 -15 -135z"/>
<path d="M12210 11535 c0 -113 2 -135 15 -135 12 0 15 18 15 100 0 55 3 100 8
100 4 0 36 -45 72 -100 92 -140 100 -137 100 36 0 104 -3 135 -12 132 -9 -3
-15 -37 -18 -105 l-5 -101 -70 104 c-97 145 -105 143 -105 -31z"/>
<path d="M12490 11535 c0 -113 2 -135 15 -135 12 0 15 13 15 55 l0 55 54 0
c76 0 102 12 115 53 15 44 1 84 -34 97 -15 6 -58 10 -96 10 l-69 0 0 -135z
m158 93 c19 -19 15 -66 -7 -78 -11 -5 -42 -10 -70 -10 l-51 0 0 50 0 50 58 0
c32 0 63 -5 70 -12z"/>
<path d="M12750 11575 c0 -120 14 -158 65 -175 47 -15 96 -6 124 24 21 22 23
35 24 132 2 96 0 109 -15 112 -16 3 -18 -7 -18 -102 0 -93 -3 -109 -20 -126
-25 -25 -71 -26 -101 -1 -22 18 -24 28 -27 125 -3 83 -7 106 -18 106 -11 0
-14 -20 -14 -95z"/>
<path d="M13010 11655 c0 -11 12 -15 45 -15 l45 0 0 -120 c0 -100 3 -120 15
-120 13 0 15 20 15 120 l0 120 45 0 c33 0 45 4 45 15 0 12 -18 15 -105 15 -87
0 -105 -3 -105 -15z"/>
<path d="M14230 11535 c0 -128 1 -135 20 -135 18 0 20 7 20 55 l0 55 60 0 c75
0 110 27 110 84 0 56 -35 76 -131 76 l-79 0 0 -135z m156 97 c20 -14 25 -45 9
-68 -13 -20 -24 -24 -70 -24 l-55 0 0 50 0 50 53 0 c28 0 57 -4 63 -8z"/>
<path d="M14498 11664 c-5 -4 -8 -65 -8 -136 0 -121 1 -128 20 -128 18 0 20 7
20 60 l0 60 31 0 c44 0 63 -14 98 -70 21 -35 37 -50 52 -50 21 0 21 1 4 28
-10 15 -28 41 -41 59 -28 37 -29 43 -11 43 40 0 61 76 33 116 -12 16 -29 20
-103 22 -48 2 -91 0 -95 -4z m172 -43 c25 -47 -2 -71 -81 -71 l-59 0 0 45 0
45 65 0 c53 0 66 -3 75 -19z"/>
<path d="M14805 11637 c-106 -106 2 -291 136 -234 54 23 72 50 77 116 7 100
-38 151 -134 151 -39 0 -51 -5 -79 -33z m145 -14 c75 -68 36 -203 -57 -203
-54 0 -93 45 -93 107 0 57 17 93 50 110 39 20 67 15 100 -14z"/>
<path d="M15177 11663 c-4 -3 -7 -55 -7 -113 0 -82 -3 -110 -15 -120 -20 -17
-48 -9 -60 18 -12 26 -35 29 -35 4 0 -35 26 -57 69 -57 67 0 75 16 80 155 2
99 1 120 -11 120 -8 0 -18 -3 -21 -7z"/>
<path d="M15270 11535 l0 -135 100 0 c82 0 100 3 100 15 0 12 -16 15 -85 15
l-85 0 0 45 0 45 80 0 c63 0 80 3 80 15 0 11 -18 15 -77 17 l-78 3 -3 43 -3
42 85 0 c70 0 86 3 86 15 0 12 -18 15 -100 15 l-100 0 0 -135z"/>
<path d="M15574 11651 c-68 -41 -72 -176 -7 -233 26 -24 101 -32 132 -16 14 7
33 27 43 44 16 28 17 32 3 38 -10 4 -19 -3 -26 -18 -20 -43 -86 -59 -126 -31
-42 30 -54 131 -20 176 35 46 88 50 129 9 16 -16 34 -30 39 -30 17 0 9 31 -16
55 -31 32 -105 34 -151 6z"/>
<path d="M15790 11655 c0 -11 12 -15 45 -15 l45 0 0 -120 c0 -100 3 -120 15
-120 13 0 15 20 15 120 l0 120 45 0 c33 0 45 4 45 15 0 12 -18 15 -105 15 -87
0 -105 -3 -105 -15z"/>
<path d="M16050 11535 c0 -128 1 -135 20 -135 19 0 20 7 20 135 0 128 -1 135
-20 135 -19 0 -20 -7 -20 -135z"/>
<path d="M16191 11644 c-60 -50 -64 -147 -10 -208 50 -58 141 -56 193 3 27 30
34 127 12 169 -34 65 -138 84 -195 36z m123 -5 c62 -29 76 -150 21 -196 -38
-33 -89 -31 -126 6 -25 25 -29 37 -29 83 0 93 60 140 134 107z"/>
<path d="M16460 11535 c0 -112 3 -135 15 -135 11 0 15 21 17 104 l3 105 70
-104 c97 -146 105 -143 105 30 0 112 -3 135 -15 135 -11 0 -15 -21 -17 -107
l-3 -107 -70 107 c-97 148 -105 146 -105 -28z"/>
<path d="M17438 11654 c-39 -20 -58 -64 -58 -128 0 -44 5 -60 26 -85 53 -63
165 -63 204 1 42 69 33 157 -21 202 -36 30 -106 35 -151 10z m140 -39 c17 -20
22 -38 22 -81 0 -48 -4 -60 -29 -85 -48 -47 -116 -38 -146 21 -29 56 -12 140
34 165 36 21 91 12 119 -20z"/>
<path d="M17692 11555 c3 -103 5 -117 25 -137 18 -17 34 -22 79 -22 49 -1 59
2 80 27 22 26 24 36 24 138 0 90 -3 109 -15 109 -12 0 -15 -18 -15 -103 0
-118 -7 -135 -62 -143 -30 -5 -41 -2 -62 19 -24 25 -26 32 -26 127 0 85 -2
100 -16 100 -14 0 -15 -15 -12 -115z"/>
<path d="M17950 11655 c0 -11 12 -15 45 -15 l45 0 0 -120 c0 -100 3 -120 15
-120 13 0 15 20 15 120 l0 120 45 0 c33 0 45 4 45 15 0 12 -18 15 -105 15 -87
0 -105 -3 -105 -15z"/>
<path d="M18207 11663 c-4 -3 -7 -64 -7 -135 0 -121 1 -128 20 -128 18 0 20 7
20 55 l0 55 59 0 c77 0 111 24 111 80 0 59 -33 80 -125 80 -39 0 -75 -3 -78
-7z m157 -39 c9 -8 16 -24 16 -34 0 -34 -28 -50 -86 -50 l-54 0 0 50 0 50 54
0 c36 0 60 -5 70 -16z"/>
<path d="M18462 11563 c4 -124 15 -148 71 -165 50 -15 116 5 134 42 18 36 18
230 -1 230 -10 0 -15 -25 -18 -107 -4 -95 -7 -108 -28 -125 -29 -24 -75 -23
-100 2 -17 17 -20 33 -20 125 0 100 -1 105 -21 105 -21 0 -21 -4 -17 -107z"/>
<path d="M18720 11655 c0 -11 12 -15 45 -15 l45 0 0 -120 c0 -113 1 -120 20
-120 19 0 20 7 20 120 l0 120 45 0 c33 0 45 4 45 15 0 12 -19 15 -110 15 -91
0 -110 -3 -110 -15z"/>
<path d="M730 10123 c-34 -58 -46 -131 -32 -195 11 -49 58 -136 68 -126 2 2
-6 29 -18 59 -29 75 -29 177 0 243 25 55 25 56 13 56 -5 0 -19 -17 -31 -37z"/>
<path d="M1093 10150 c-21 -9 -43 -38 -43 -59 0 -21 27 -11 38 13 15 33 47 42
77 22 44 -29 33 -62 -39 -131 -64 -60 -91 -97 -79 -109 3 -3 44 -6 90 -6 76 0
83 2 83 20 0 18 -7 20 -67 20 l-67 0 67 63 c59 55 67 67 67 99 0 61 -62 94
-127 68z"/>
<path d="M1280 10153 c0 -5 4 -13 10 -19 5 -5 17 -38 26 -73 18 -71 14 -126
-17 -205 -10 -28 -17 -52 -15 -54 7 -7 53 71 66 112 17 54 8 135 -22 192 -23
44 -48 68 -48 47z"/>
<path d="M838 10144 c-5 -4 -8 -18 -8 -30 0 -13 -8 -28 -17 -34 -17 -10 -17
-10 0 -20 14 -9 17 -25 17 -83 0 -44 5 -78 12 -85 17 -17 48 -15 48 3 0 8 -6
15 -14 15 -19 0 -26 22 -26 87 0 46 3 56 20 60 25 7 26 19 1 26 -13 3 -21 15
-23 37 -2 17 -6 28 -10 24z"/>
<path d="M393 10068 c2 -7 15 -49 27 -93 13 -44 27 -84 31 -89 15 -17 36 13
49 71 7 32 15 62 18 67 3 5 15 -23 26 -64 32 -112 45 -107 89 38 22 72 24 83
10 80 -11 -2 -25 -28 -38 -73 -24 -75 -26 -74 -48 15 -10 42 -18 55 -32 55
-14 0 -23 -16 -39 -75 l-20 -75 -24 78 c-16 51 -29 77 -39 77 -8 0 -13 -6 -10
-12z"/>
<path d="M19013 10003 c-23 -40 -28 -61 -31 -128 -2 -72 0 -85 25 -129 39 -70
56 -69 27 1 -32 78 -32 167 0 246 29 69 17 75 -21 10z"/>
<path d="M19587 9989 c22 -53 25 -74 21 -138 -3 -52 -12 -90 -27 -120 -15 -29
-18 -42 -9 -39 7 2 26 29 42 60 22 44 28 71 28 119 0 48 -6 73 -28 117 -40 77
-58 77 -27 1z"/>
<path d="M19361 10021 c-25 -25 -27 -51 -6 -51 8 0 15 4 15 9 0 18 31 41 55
41 29 0 58 -39 49 -66 -3 -10 -37 -49 -75 -85 -94 -90 -93 -99 21 -99 73 0 90
3 90 15 0 12 -14 15 -65 15 -36 0 -65 3 -65 7 0 3 27 31 59 62 70 65 83 100
54 139 -27 37 -102 43 -132 13z"/>
<path d="M19117 10023 c-4 -3 -7 -15 -7 -26 0 -11 -8 -26 -17 -33 -17 -12 -17
-13 0 -19 14 -6 17 -20 17 -75 0 -87 5 -100 41 -100 33 0 39 15 9 23 -18 5
-20 14 -20 76 0 56 3 71 15 71 8 0 15 7 15 15 0 8 -7 15 -15 15 -10 0 -15 10
-15 30 0 29 -9 38 -23 23z"/>
<path d="M920 9985 c0 -11 12 -15 50 -15 38 0 50 4 50 15 0 11 -12 15 -50 15
-38 0 -50 -4 -50 -15z"/>
<path d="M2441 9965 c12 -22 26 -44 32 -50 15 -16 -20 48 -38 70 -9 11 -7 2 6
-20z"/>
<path d="M17595 9862 c-82 -75 -151 -141 -153 -147 -2 -7 10 -17 25 -24 15 -6
39 -20 52 -30 l25 -19 -51 -88 c-62 -109 -75 -134 -69 -134 2 0 32 50 66 110
34 61 63 110 65 110 2 0 27 -14 56 -30 28 -17 54 -29 57 -26 6 7 83 398 79
407 -1 4 -69 -54 -152 -129z"/>
<path d="M18680 9958 c0 -7 7 -35 15 -63 9 -27 20 -67 26 -87 7 -27 15 -38 28
-38 15 0 22 15 36 70 9 38 20 68 24 65 4 -2 13 -28 20 -57 14 -64 25 -83 43
-75 16 6 74 184 63 195 -11 12 -31 -24 -45 -83 -7 -30 -17 -55 -21 -55 -5 0
-13 19 -19 43 -31 119 -46 123 -75 20 -11 -40 -22 -73 -25 -73 -3 0 -15 32
-26 72 -11 39 -26 74 -32 76 -7 2 -12 -2 -12 -10z"/>
<path d="M2495 9876 c10 -16 26 -44 37 -63 11 -18 22 -33 25 -33 7 0 -35 71
-59 100 l-20 25 17 -29z"/>
<path d="M19200 9865 c0 -11 12 -15 50 -15 38 0 50 4 50 15 0 11 -12 15 -50
15 -38 0 -50 -4 -50 -15z"/>
<path d="M2579 9735 c5 -11 17 -29 26 -40 l16 -20 -10 20 c-5 11 -17 29 -26
40 l-16 20 10 -20z"/>
<path d="M2635 9640 c9 -16 18 -30 21 -30 2 0 -2 14 -11 30 -9 17 -18 30 -21
30 -2 0 2 -13 11 -30z"/>
<path d="M2672 9580 c8 -14 27 -46 42 -72 15 -27 30 -48 33 -48 6 0 -49 96
-71 123 l-18 22 14 -25z"/>
<path d="M2762 9430 c8 -14 27 -46 42 -72 15 -27 30 -48 33 -48 6 0 -49 96
-71 123 l-18 22 14 -25z"/>
<path d="M17398 9388 c-23 -35 -52 -94 -40 -83 13 14 65 105 59 105 -3 0 -11
-10 -19 -22z"/>
<path d="M2852 9280 c8 -14 27 -46 42 -72 15 -27 30 -48 33 -48 6 0 -49 96
-71 123 l-18 22 14 -25z"/>
<path d="M17327 9263 c-2 -5 -17 -30 -32 -58 -16 -27 -24 -45 -18 -40 14 14
66 105 60 105 -3 0 -8 -3 -10 -7z"/>
<path d="M2942 9128 c8 -13 47 -78 87 -145 41 -68 75 -123 78 -123 5 0 12 -12
-86 153 -46 75 -85 137 -88 137 -3 0 1 -10 9 -22z"/>
<path d="M17247 9123 c-180 -312 -180 -313 -173 -313 2 0 35 55 74 123 38 67
80 139 92 160 12 20 20 37 17 37 -3 0 -8 -3 -10 -7z"/>
<path d="M3122 8830 c8 -14 27 -46 42 -72 15 -27 30 -48 33 -48 6 0 -49 96
-71 123 l-18 22 14 -25z"/>
<path d="M17057 8793 c-44 -79 -56 -104 -42 -88 19 23 58 95 51 95 -3 0 -7 -3
-9 -7z"/>
<path d="M3212 8678 c8 -13 81 -134 162 -270 81 -137 149 -248 152 -248 3 0 3
3 1 8 -59 102 -320 532 -324 532 -3 0 1 -10 9 -22z"/>
<path d="M16958 8618 c-23 -35 -52 -94 -40 -83 13 14 65 105 59 105 -3 0 -11
-10 -19 -22z"/>
<path d="M16810 8358 c-51 -90 -95 -166 -97 -170 -2 -5 -2 -8 0 -8 3 0 147
246 194 333 2 4 2 7 0 7 -3 0 -46 -73 -97 -162z"/>
<path d="M730 8143 c-34 -58 -46 -131 -32 -195 12 -50 58 -135 68 -125 3 2 -5
29 -17 58 -30 74 -31 176 -1 243 25 55 25 56 13 56 -5 0 -19 -17 -31 -37z"/>
<path d="M1111 8139 c-48 -43 -48 -64 0 -37 l29 17 0 -104 c0 -87 3 -105 15
-105 13 0 15 22 15 135 0 74 -3 135 -7 135 -5 -1 -28 -19 -52 -41z"/>
<path d="M1280 8173 c0 -5 4 -13 10 -19 5 -5 17 -38 26 -73 18 -71 14 -126
-17 -205 -10 -28 -17 -52 -15 -54 9 -9 56 76 67 121 15 62 7 125 -23 184 -23
43 -48 67 -48 46z"/>
<path d="M19080 8148 c-30 -49 -43 -107 -37 -169 5 -57 49 -159 68 -159 7 0 8
7 4 18 -43 101 -47 119 -43 187 3 45 13 85 27 113 25 49 10 57 -19 10z"/>
<path d="M19460 8140 c-48 -42 -47 -65 1 -38 l29 17 0 -104 c0 -87 3 -105 15
-105 13 0 15 22 15 135 0 74 -3 135 -7 135 -5 -1 -28 -18 -53 -40z"/>
<path d="M19648 8129 c36 -73 36 -172 -1 -252 -35 -76 -11 -70 27 7 41 80 41
160 2 240 -15 31 -33 56 -40 56 -9 0 -5 -16 12 -51z"/>
<path d="M838 8164 c-5 -4 -8 -18 -8 -30 0 -13 -8 -28 -17 -34 -17 -10 -17
-10 0 -20 14 -9 17 -25 17 -83 0 -44 5 -78 12 -85 17 -17 48 -15 48 3 0 8 -6
15 -14 15 -19 0 -26 22 -26 87 0 46 3 56 20 60 25 7 26 19 1 26 -13 3 -21 15
-23 37 -2 17 -6 28 -10 24z"/>
<path d="M16697 8163 c-2 -5 -17 -30 -32 -58 -16 -27 -24 -45 -18 -40 14 14
66 105 60 105 -3 0 -8 -3 -10 -7z"/>
<path d="M19182 8158 c-7 -7 -12 -22 -12 -34 0 -12 -6 -25 -12 -27 -10 -4 -10
-8 -2 -14 7 -4 13 -43 16 -86 2 -55 8 -81 18 -87 23 -15 50 -12 50 5 0 8 -7
15 -15 15 -12 0 -15 15 -15 75 0 60 3 75 15 75 8 0 15 5 15 10 0 6 -7 10 -15
10 -10 0 -15 11 -15 35 0 37 -8 43 -28 23z"/>
<path d="M3557 8100 c25 -45 71 -109 60 -85 -8 21 -80 135 -84 135 -2 0 8 -23
24 -50z"/>
<path d="M2426 8131 c120 -109 374 -330 374 -327 0 7 -368 336 -376 336 -5 0
-4 -4 2 -9z"/>
<path d="M17533 8042 l-182 -86 39 -43 c44 -47 49 -66 22 -85 -33 -23 -1522
-1427 -1522 -1435 0 -3 71 62 158 143 86 82 301 284 477 450 176 165 455 427
619 583 l300 282 47 -47 c25 -25 49 -42 52 -37 23 41 187 353 187 357 0 11
-13 5 -197 -82z"/>
<path d="M393 8087 c2 -7 15 -49 28 -95 20 -70 27 -82 44 -80 14 2 23 18 35
65 8 34 18 64 21 67 3 3 13 -26 23 -64 14 -54 23 -70 36 -70 18 0 21 7 70 163
8 24 7 28 -7 25 -11 -2 -24 -27 -38 -73 -24 -75 -26 -74 -48 15 -10 42 -18 55
-32 55 -14 0 -23 -16 -39 -75 l-20 -75 -24 78 c-16 51 -29 77 -39 77 -8 0 -13
-6 -10 -13z"/>
<path d="M18743 8088 c3 -7 15 -50 28 -96 20 -70 27 -82 43 -80 15 2 24 18 36
65 8 34 17 64 20 67 3 3 14 -26 24 -64 14 -55 22 -70 36 -70 14 0 22 11 29 38
6 21 20 64 31 96 17 51 18 57 3 54 -10 -2 -23 -26 -34 -67 -26 -92 -25 -93
-54 12 -10 36 -22 57 -31 57 -16 0 -15 2 -42 -90 l-18 -65 -12 35 c-6 19 -16
54 -22 78 -7 26 -16 42 -26 42 -9 0 -14 -6 -11 -12z"/>
<path d="M16617 8023 c-2 -5 -17 -30 -32 -58 -16 -27 -24 -45 -18 -40 14 14
66 105 60 105 -3 0 -8 -3 -10 -7z"/>
<path d="M920 8005 c0 -11 12 -15 50 -15 38 0 50 4 50 15 0 11 -12 15 -50 15
-38 0 -50 -4 -50 -15z"/>
<path d="M19260 8005 c0 -11 12 -15 50 -15 38 0 50 4 50 15 0 11 -12 15 -50
15 -38 0 -50 -4 -50 -15z"/>
<path d="M3623 7993 c34 -61 170 -283 173 -283 6 0 13 -12 -86 153 -45 75 -84
137 -87 137 -2 0 -2 -3 0 -7z"/>
<path d="M16521 7855 c-17 -30 -45 -80 -62 -110 -17 -30 -28 -55 -26 -55 3 0
19 25 36 55 17 30 45 80 62 110 17 30 28 55 26 55 -3 0 -19 -25 -36 -55z"/>
<path d="M2814 7792 c4 -7 206 -188 448 -403 242 -216 438 -387 434 -381 -6
10 -310 282 -770 690 -66 59 -116 101 -112 94z"/>
<path d="M3827 7650 c25 -45 71 -109 60 -85 -8 21 -80 135 -84 135 -2 0 8 -23
24 -50z"/>
<path d="M16417 7673 c-2 -5 -17 -30 -32 -58 -16 -27 -24 -45 -18 -40 14 14
66 105 60 105 -3 0 -8 -3 -10 -7z"/>
<path d="M4578 7586 c-10 -7 -22 -24 -27 -38 -15 -39 7 -71 59 -87 111 -34
133 -56 94 -95 -32 -32 -134 -10 -134 30 0 8 -7 14 -15 14 -16 0 -20 -27 -7
-46 40 -57 174 -56 196 1 22 58 -3 90 -97 120 -64 21 -81 41 -57 70 26 31 120
10 120 -26 0 -5 7 -9 15 -9 23 0 18 28 -10 55 -19 20 -34 25 -72 25 -26 0 -56
-6 -65 -14z"/>
<path d="M4810 7488 c1 -73 5 -119 13 -129 20 -26 53 -39 97 -39 33 0 48 6 71
29 29 29 29 31 29 140 0 89 -3 111 -14 111 -11 0 -15 -24 -18 -111 -3 -125
-11 -139 -79 -139 -58 0 -69 23 -69 147 0 85 -3 103 -15 103 -12 0 -15 -19
-15 -112z"/>
<path d="M5082 7463 c3 -115 6 -138 18 -138 12 0 16 20 18 110 l4 110 37 -110
c24 -69 43 -111 53 -113 11 -2 25 26 54 109 l39 112 5 -108 c3 -74 9 -110 18
-113 9 -3 12 29 12 138 0 139 0 141 -22 138 -18 -2 -28 -22 -57 -110 -20 -59
-39 -109 -42 -113 -4 -3 -24 45 -45 107 -36 105 -41 113 -67 116 l-28 3 3
-138z"/>
<path d="M3893 7543 c34 -61 170 -283 173 -283 6 0 13 -12 -86 153 -45 75 -84
137 -87 137 -2 0 -2 -3 0 -7z"/>
<path d="M16337 7533 c-2 -5 -17 -30 -32 -58 -16 -27 -24 -45 -18 -40 14 14
66 105 60 105 -3 0 -8 -3 -10 -7z"/>
<path d="M16257 7393 c-2 -5 -17 -30 -32 -58 -16 -27 -24 -45 -18 -40 14 14
66 105 60 105 -3 0 -8 -3 -10 -7z"/>
<path d="M16100 7118 c-51 -90 -95 -166 -97 -170 -2 -5 -2 -8 1 -8 3 0 120
201 193 333 2 4 2 7 0 7 -3 0 -46 -73 -97 -162z"/>
<path d="M4097 7200 c25 -45 71 -109 60 -85 -8 21 -80 135 -84 135 -2 0 8 -23
24 -50z"/>
<path d="M4192 7044 c13 -22 31 -52 41 -65 10 -13 8 -6 -5 17 -13 22 -31 52
-41 65 -10 13 -8 6 5 -17z"/>
<path d="M3710 6996 c0 -3 107 -100 238 -216 130 -116 241 -218 247 -225 7
-11 -1 -26 -34 -59 -30 -31 -39 -46 -31 -51 26 -16 375 -163 379 -159 2 2 -30
61 -71 131 -41 70 -88 152 -104 180 l-29 53 -47 -47 -47 -46 -93 83 c-321 285
-408 361 -408 356z"/>
<path d="M4275 6904 c15 -25 25 -47 23 -48 -1 -2 -27 -17 -56 -34 l-54 -30
159 -136 c87 -75 161 -136 164 -136 5 0 -80 399 -86 408 -2 2 -26 -11 -54 -28
-29 -16 -55 -30 -60 -30 -4 0 -17 18 -30 40 -12 22 -25 40 -28 40 -3 0 7 -21
22 -46z"/>
<path d="M15968 6888 c-23 -35 -52 -94 -40 -83 13 14 65 105 59 105 -3 0 -11
-10 -19 -22z"/>
<path d="M15900 6769 c-7 -11 -10 -23 -7 -25 2 -2 9 7 15 21 14 30 7 33 -8 4z"/>
<path d="M8886 6363 c-53 -80 -56 -180 -8 -268 33 -60 63 -76 34 -18 -44 84
-45 201 -4 284 25 50 10 51 -22 2z"/>
<path d="M9104 6358 c31 -64 30 -215 -2 -277 -15 -28 -19 -42 -10 -39 21 7 66
99 73 149 8 56 -8 121 -41 172 -33 50 -47 47 -20 -5z"/>
<path d="M8980 6350 c0 -20 -5 -30 -15 -30 -8 0 -15 -4 -15 -9 0 -5 7 -11 15
-15 11 -4 15 -23 15 -79 0 -43 5 -78 12 -85 17 -17 48 -15 48 3 0 8 -7 15 -15
15 -12 0 -15 15 -15 75 0 60 3 75 15 75 8 0 15 5 15 10 0 6 -7 10 -15 10 -10
0 -15 10 -15 30 0 20 -5 30 -15 30 -10 0 -15 -10 -15 -30z"/>
<path d="M8570 6224 c16 -53 31 -98 34 -101 15 -15 34 11 45 63 20 91 26 92
47 12 14 -49 26 -74 37 -76 15 -3 25 22 73 181 3 11 0 17 -10 17 -10 0 -21
-19 -31 -57 -29 -105 -28 -105 -53 -12 -22 80 -46 91 -62 27 -6 -24 -16 -59
-22 -78 l-12 -35 -18 65 c-27 92 -26 90 -42 90 -11 0 -8 -19 14 -96z"/>
<path d="M11856 6283 c-31 -48 -49 -124 -41 -178 8 -47 53 -136 73 -143 9 -3
5 11 -10 39 -32 62 -33 213 -2 277 27 52 13 55 -20 5z"/>
<path d="M12071 6283 c43 -88 43 -194 0 -283 -24 -51 -9 -52 24 -2 36 54 51
138 36 199 -12 49 -54 123 -70 123 -5 0 0 -17 10 -37z"/>
<path d="M14638 6248 l-3 -63 -780 -5 -780 -5 780 -5 780 -5 3 -62 3 -61 195
65 c108 36 192 69 187 73 -6 6 -367 130 -379 130 -2 0 -4 -28 -6 -62z"/>
<path d="M11957 6293 c-4 -3 -7 -16 -7 -29 0 -12 -6 -25 -12 -28 -10 -5 -10
-7 0 -12 8 -4 12 -31 12 -83 0 -82 9 -101 47 -101 28 0 31 26 3 33 -17 4 -20
14 -20 72 0 58 3 68 20 72 11 3 20 9 20 14 0 5 -9 9 -20 9 -16 0 -20 7 -20 30
0 29 -9 38 -23 23z"/>
<path d="M7130 6230 l0 -60 -897 -3 -898 -2 898 -3 897 -2 0 -63 c0 -35 2 -66
5 -69 6 -6 395 124 395 132 0 6 -371 130 -389 130 -7 0 -11 -24 -11 -60z"/>
<path d="M11520 6228 c0 -6 12 -51 27 -100 34 -115 51 -117 79 -10 l20 77 12
-35 c6 -19 16 -54 22 -78 17 -68 39 -53 71 48 32 100 34 110 15 110 -8 0 -20
-26 -31 -65 -9 -36 -21 -67 -25 -70 -4 -3 -16 27 -25 65 -13 55 -21 70 -35 70
-14 0 -22 -16 -36 -75 -10 -41 -21 -72 -24 -70 -4 3 -16 36 -26 75 -11 42 -23
70 -31 70 -7 0 -13 -5 -13 -12z"/>
<path d="M4322 5974 c-100 -35 -189 -67 -197 -71 -11 -7 -6 -19 25 -60 l40
-51 -150 -116 c-83 -64 -150 -119 -150 -123 0 -3 8 1 18 9 9 8 77 61 151 118
l134 104 22 -27 c13 -14 30 -36 38 -48 9 -11 20 -18 26 -15 13 8 234 337 229
341 -2 2 -85 -26 -186 -61z"/>
<path d="M15895 6033 c6 -5 84 -79 175 -164 91 -85 284 -266 430 -404 490
-461 865 -811 903 -844 20 -18 37 -38 37 -45 0 -7 -16 -27 -35 -46 -19 -19
-35 -39 -35 -45 0 -7 37 -29 83 -50 45 -21 129 -60 186 -87 57 -26 106 -47
107 -45 4 3 -184 349 -196 361 -6 6 -26 -9 -51 -37 l-41 -47 -52 47 c-56 51
-475 445 -1094 1027 -211 198 -393 366 -405 374 -12 9 -17 11 -12 5z"/>
<path d="M4342 5668 l-162 -132 55 -36 54 -36 -25 -42 c-32 -53 -25 -55 10 -2
l27 41 43 -30 c24 -17 49 -31 56 -33 8 -2 29 63 65 200 29 111 49 202 46 202
-3 0 -79 -59 -169 -132z"/>
<path d="M15929 5615 c23 -44 47 -84 53 -90 13 -12 -71 146 -85 160 -6 6 9
-26 32 -70z"/>
<path d="M3834 5517 c-21 -18 -51 -42 -66 -52 -84 -63 -328 -256 -328 -261 0
-3 28 16 63 43 34 27 133 104 220 172 139 108 166 131 154 131 -2 0 -21 -15
-43 -33z"/>
<path d="M16021 5448 c7 -13 44 -81 84 -153 39 -71 88 -160 109 -197 20 -38
39 -68 42 -68 3 0 3 3 1 8 -2 4 -57 103 -121 220 -65 116 -120 212 -122 212
-3 0 1 -10 7 -22z"/>
<path d="M4213 5343 c-9 -16 -22 -35 -27 -43 -9 -12 -8 -13 4 -3 17 13 54 73
46 73 -3 0 -13 -12 -23 -27z"/>
<path d="M4123 5203 c-60 -94 -65 -103 -60 -103 5 0 88 124 106 158 24 46 3
19 -46 -55z"/>
<path d="M3379 5163 c-26 -21 -121 -96 -213 -166 -91 -71 -169 -134 -173 -140
-6 -10 91 63 242 183 39 30 96 75 128 99 51 39 75 61 65 61 -2 0 -24 -17 -49
-37z"/>
<path d="M4032 5063 c-32 -47 -38 -60 -21 -46 15 13 53 73 45 73 -2 0 -13 -12
-24 -27z"/>
<path d="M3972 4968 c-11 -18 -30 -49 -43 -68 l-22 -35 26 30 c27 32 72 105
64 105 -3 0 -14 -15 -25 -32z"/>
<path d="M16291 4958 c7 -13 44 -81 84 -153 39 -71 88 -160 109 -197 20 -38
39 -68 42 -68 6 0 1 8 -91 175 -39 72 -88 160 -109 198 -20 37 -39 67 -42 67
-3 0 1 -10 7 -22z"/>
<path d="M3878 4823 c-14 -21 -33 -51 -42 -68 l-18 -30 23 27 c25 28 73 108
66 108 -3 0 -15 -17 -29 -37z"/>
<path d="M2925 4809 c-61 -50 -80 -70 -40 -41 40 29 101 81 95 82 -3 0 -28
-18 -55 -41z"/>
<path d="M2707 4641 c-75 -59 -145 -115 -155 -126 -9 -10 3 -3 28 16 25 20 93
72 152 118 91 70 130 103 116 100 -2 0 -65 -49 -141 -108z"/>
<path d="M3800 4700 c-6 -11 -8 -20 -6 -20 3 0 10 9 16 20 6 11 8 20 6 20 -3
0 -10 -9 -16 -20z"/>
<path d="M3762 4643 c-32 -47 -38 -60 -21 -46 15 13 53 73 45 73 -2 0 -13 -12
-24 -27z"/>
<path d="M3698 4543 c-14 -21 -33 -51 -42 -68 l-18 -30 23 29 c28 34 72 106
66 106 -2 0 -15 -17 -29 -37z"/>
<path d="M19013 4493 c-23 -39 -29 -63 -31 -123 -3 -66 0 -81 25 -130 38 -74
57 -76 27 -3 -32 78 -32 167 0 246 29 69 17 75 -21 10z"/>
<path d="M19503 4500 c-56 -49 -61 -79 -8 -44 l25 16 0 -106 c0 -99 1 -106 20
-106 19 0 20 7 20 134 0 74 -3 137 -7 139 -5 3 -27 -12 -50 -33z"/>
<path d="M19665 4523 c51 -116 55 -176 21 -276 -26 -78 -15 -84 23 -12 17 33
27 70 29 112 4 56 0 72 -27 128 -18 36 -37 65 -43 65 -6 0 -7 -7 -3 -17z"/>
<path d="M19117 4513 c-4 -3 -7 -15 -7 -26 0 -11 -8 -26 -17 -33 -17 -12 -17
-13 0 -19 14 -6 17 -20 17 -75 0 -87 5 -100 41 -100 33 0 39 19 9 27 -18 5
-20 14 -20 74 0 55 3 69 15 69 8 0 15 7 15 15 0 8 -7 15 -15 15 -10 0 -15 10
-15 30 0 29 -9 38 -23 23z"/>
<path d="M2480 4464 c-56 -44 -72 -60 -45 -45 22 12 103 81 95 81 -3 0 -25
-16 -50 -36z"/>
<path d="M16561 4468 c7 -13 44 -81 84 -153 39 -71 88 -160 109 -197 20 -38
39 -68 42 -68 3 0 3 3 1 8 -2 4 -57 103 -121 220 -65 116 -120 212 -122 212
-3 0 1 -10 7 -22z"/>
<path d="M19280 4445 c0 -33 -2 -35 -35 -35 -24 0 -35 -5 -35 -15 0 -10 11
-15 35 -15 33 0 35 -2 35 -35 0 -24 5 -35 15 -35 10 0 15 11 15 35 0 34 1 35
40 35 29 0 40 4 40 15 0 11 -11 15 -40 15 -39 0 -40 1 -40 35 0 24 -5 35 -15
35 -10 0 -15 -11 -15 -35z"/>
<path d="M731 4415 c-34 -53 -47 -115 -37 -176 7 -47 52 -139 66 -139 13 0 13
0 -12 56 -29 66 -29 168 0 243 12 30 20 57 17 59 -2 2 -18 -17 -34 -43z"/>
<path d="M1391 4419 c41 -79 38 -193 -6 -301 -4 -10 -3 -18 2 -18 5 0 23 26
39 58 41 80 40 164 -2 241 -35 67 -66 84 -33 20z"/>
<path d="M18680 4448 c0 -7 7 -35 15 -63 9 -27 20 -67 26 -87 6 -26 16 -38 27
-38 13 0 22 17 36 70 10 39 22 68 27 64 5 -3 9 -11 9 -18 0 -7 7 -36 16 -65
21 -71 41 -65 70 20 34 102 38 129 21 129 -10 0 -21 -24 -33 -70 -10 -38 -21
-70 -25 -70 -4 0 -15 32 -25 70 -25 96 -44 95 -69 -5 -11 -41 -22 -75 -25 -75
-3 0 -15 32 -26 72 -11 39 -26 74 -32 76 -7 2 -12 -2 -12 -10z"/>
<path d="M1232 4430 c-7 -12 -24 -26 -37 -32 -14 -6 -25 -17 -25 -25 0 -17 11
-17 36 2 10 8 22 15 27 15 4 0 7 -47 7 -105 0 -87 3 -105 15 -105 13 0 15 22
15 135 0 102 -3 135 -13 135 -7 0 -18 -9 -25 -20z"/>
<path d="M838 4434 c-5 -4 -8 -18 -8 -31 0 -14 -6 -23 -15 -23 -8 0 -15 -7
-15 -15 0 -8 7 -15 15 -15 11 0 15 -18 17 -82 3 -82 3 -83 31 -86 32 -4 35 8
7 26 -17 10 -20 23 -20 77 0 58 2 65 20 65 11 0 20 7 20 15 0 8 -9 15 -19 15
-15 0 -21 8 -23 31 -2 17 -6 27 -10 23z"/>
<path d="M3608 4403 c-14 -21 -33 -51 -42 -68 l-18 -30 23 27 c25 28 73 108
66 108 -3 0 -15 -17 -29 -37z"/>
<path d="M1000 4365 c0 -33 -2 -35 -35 -35 -24 0 -35 -5 -35 -15 0 -10 11 -15
35 -15 34 0 35 -1 35 -41 0 -52 24 -48 28 4 3 35 5 37 38 37 24 0 34 5 34 15
0 10 -11 15 -35 15 -33 0 -35 2 -35 35 0 24 -5 35 -15 35 -10 0 -15 -11 -15
-35z"/>
<path d="M396 4353 c29 -113 51 -168 68 -168 15 0 22 13 34 60 8 33 18 64 22
68 4 5 15 -24 26 -62 26 -101 42 -96 80 21 31 98 31 101 15 106 -6 2 -20 -30
-33 -72 -12 -41 -25 -73 -29 -71 -3 3 -9 19 -13 37 -25 125 -46 140 -71 51
-29 -106 -30 -106 -55 -20 -14 47 -28 77 -37 77 -10 0 -11 -8 -7 -27z"/>
<path d="M3518 4263 c-14 -21 -33 -51 -43 -68 l-18 -30 26 30 c26 31 72 105
64 105 -2 0 -15 -17 -29 -37z"/>
<path d="M3428 4123 c-14 -21 -33 -51 -42 -68 l-18 -30 23 29 c28 34 72 106
66 106 -2 0 -15 -17 -29 -37z"/>
<path d="M3338 3983 c-14 -21 -33 -51 -42 -68 l-18 -30 23 29 c28 34 72 106
66 106 -2 0 -15 -17 -29 -37z"/>
<path d="M16831 3978 c7 -13 44 -81 84 -153 39 -71 88 -160 109 -197 20 -38
39 -68 42 -68 6 0 1 8 -91 175 -39 72 -88 160 -109 198 -20 37 -39 67 -42 67
-3 0 1 -10 7 -22z"/>
<path d="M3248 3843 c-14 -21 -33 -51 -42 -68 l-18 -30 23 29 c28 34 72 106
66 106 -2 0 -15 -17 -29 -37z"/>
<path d="M3158 3703 c-54 -82 -60 -93 -55 -93 4 0 18 20 71 103 10 15 16 27
13 27 -2 0 -15 -17 -29 -37z"/>
<path d="M3068 3563 c-14 -21 -33 -51 -42 -68 l-18 -30 23 29 c28 34 72 106
66 106 -2 0 -15 -17 -29 -37z"/>
<path d="M17093 3503 c2 -5 57 -104 121 -220 65 -117 120 -213 122 -213 6 0 1
10 -91 175 -39 72 -88 160 -109 198 -20 37 -39 67 -42 67 -3 0 -3 -3 -1 -7z"/>
<path d="M2978 3423 c-54 -82 -60 -93 -55 -93 4 0 18 20 71 103 10 15 16 27
13 27 -2 0 -15 -17 -29 -37z"/>
<path d="M2888 3283 c-14 -21 -33 -51 -42 -68 l-18 -30 23 29 c28 34 72 106
66 106 -2 0 -15 -17 -29 -37z"/>
<path d="M2798 3143 c-54 -82 -60 -93 -55 -93 4 0 18 20 71 103 10 15 16 27
13 27 -2 0 -15 -17 -29 -37z"/>
<path d="M2708 3003 c-54 -82 -60 -93 -55 -93 4 0 18 20 71 103 10 15 16 27
13 27 -2 0 -15 -17 -29 -37z"/>
<path d="M17401 2943 c23 -43 66 -120 95 -172 l53 -95 -51 -30 c-28 -17 -49
-35 -47 -41 6 -16 299 -287 299 -277 0 5 -11 67 -24 138 -13 71 -29 162 -36
202 -6 39 -14 72 -17 72 -3 0 -30 -14 -60 -31 -30 -17 -55 -30 -57 -28 -2 4
-83 150 -150 272 -20 37 -39 67 -42 67 -3 0 14 -35 37 -77z"/>
<path d="M2618 2863 c-54 -82 -60 -93 -55 -93 4 0 18 20 71 103 10 15 16 27
13 27 -2 0 -15 -17 -29 -37z"/>
<path d="M2528 2723 c-54 -82 -60 -93 -55 -93 4 0 18 20 71 103 10 15 16 27
13 27 -2 0 -15 -17 -29 -37z"/>
<path d="M19665 2665 c39 -94 47 -133 41 -193 -3 -34 -14 -83 -25 -108 -26
-58 -5 -54 28 5 35 64 40 161 11 228 -12 28 -31 60 -43 70 -20 18 -20 17 -12
-2z"/>
<path d="M19007 2617 c-22 -42 -27 -66 -27 -122 0 -56 5 -80 27 -122 14 -29
33 -53 41 -53 10 0 12 4 5 13 -6 6 -18 36 -28 66 -22 68 -17 168 13 229 31 63
1 54 -31 -11z"/>
<path d="M19462 2653 c-24 -21 -32 -54 -15 -60 7 -3 17 6 22 20 20 51 101 38
101 -16 0 -25 -14 -44 -70 -98 -94 -90 -93 -99 15 -99 50 0 85 4 85 10 0 6
-27 10 -60 10 -36 0 -60 4 -60 11 0 6 27 36 60 67 52 50 60 62 60 95 0 50 -28
77 -79 77 -22 0 -47 -7 -59 -17z"/>
<path d="M19123 2653 c-7 -3 -13 -18 -13 -34 0 -19 -5 -29 -15 -29 -8 0 -15
-4 -15 -10 0 -5 7 -10 15 -10 12 0 15 -16 15 -80 0 -70 2 -81 21 -90 22 -12
49 -7 49 9 0 5 -9 11 -20 14 -18 5 -20 14 -20 76 0 56 3 71 15 71 19 0 20 16
1 23 -8 3 -16 19 -18 35 -2 18 -8 27 -15 25z"/>
<path d="M2454 2608 c-4 -7 -14 -24 -22 -38 -14 -24 -13 -24 3 -5 20 24 37 55
31 55 -3 0 -8 -6 -12 -12z"/>
<path d="M19280 2585 c0 -33 -2 -35 -35 -35 -24 0 -35 -5 -35 -15 0 -10 10
-15 34 -15 33 0 35 -2 38 -37 4 -50 26 -55 30 -6 3 36 5 38 41 41 49 4 44 26
-6 30 -35 3 -37 5 -37 38 0 24 -5 34 -15 34 -10 0 -15 -11 -15 -35z"/>
<path d="M730 2553 c-34 -58 -46 -131 -32 -195 12 -50 58 -135 68 -125 3 2 -5
29 -17 58 -30 74 -31 176 -1 243 25 55 25 56 13 56 -5 0 -19 -17 -31 -37z"/>
<path d="M1175 2565 c-14 -13 -25 -31 -25 -40 0 -24 26 -18 38 9 15 33 47 42
77 22 45 -29 31 -62 -61 -150 -35 -34 -64 -67 -64 -74 0 -9 25 -12 90 -12 53
0 90 4 90 10 0 6 -28 10 -65 10 -36 0 -65 4 -65 9 0 6 23 29 51 53 82 70 98
120 54 163 -16 17 -35 25 -60 25 -25 0 -44 -8 -60 -25z"/>
<path d="M1385 2573 c42 -98 47 -192 15 -275 -23 -62 -23 -58 -10 -58 5 0 22
24 37 53 38 75 38 161 0 240 -16 31 -33 57 -39 57 -6 0 -7 -7 -3 -17z"/>
<path d="M18684 2563 c28 -112 48 -163 65 -163 15 0 22 15 36 70 10 39 20 69
23 66 2 -3 12 -34 22 -68 25 -92 45 -87 82 22 32 97 33 100 14 100 -9 0 -20
-25 -31 -65 -10 -36 -21 -68 -26 -70 -4 -3 -15 27 -24 65 -13 54 -21 70 -35
70 -13 0 -22 -17 -36 -70 -10 -38 -21 -70 -25 -70 -3 0 -15 32 -25 70 -11 45
-23 70 -32 70 -10 0 -12 -7 -8 -27z"/>
<path d="M838 2574 c-5 -4 -8 -18 -8 -30 0 -13 -8 -28 -17 -34 -17 -10 -17
-10 0 -20 14 -9 17 -25 17 -85 0 -63 3 -76 19 -85 27 -14 41 -13 41 5 0 8 -6
15 -14 15 -19 0 -26 22 -26 87 0 46 3 56 20 60 25 7 26 19 1 26 -13 3 -21 15
-23 37 -2 17 -6 28 -10 24z"/>
<path d="M998 2503 c-3 -35 -6 -38 -35 -41 -44 -4 -42 -22 2 -22 34 0 35 -1
35 -40 0 -54 27 -56 32 -2 3 34 6 37 36 40 17 2 32 7 32 12 0 5 -15 10 -32 12
-30 3 -33 6 -36 41 -2 23 -8 37 -17 37 -9 0 -15 -14 -17 -37z"/>
<path d="M393 2497 c2 -7 15 -49 28 -95 20 -70 27 -82 44 -80 14 2 23 18 35
65 8 34 18 64 21 67 3 3 13 -26 23 -64 14 -54 23 -70 36 -70 18 0 21 7 70 163
8 24 7 28 -7 25 -11 -2 -24 -27 -38 -73 -24 -75 -26 -74 -48 15 -10 42 -18 55
-32 55 -14 0 -23 -16 -39 -75 l-20 -75 -24 78 c-16 51 -29 77 -39 77 -8 0 -13
-6 -10 -13z"/>
<path d="M4105 686 c-52 -20 -101 -73 -115 -128 -15 -56 -9 -143 15 -191 35
-74 138 -114 221 -87 49 16 71 35 95 83 l20 37 -26 10 c-41 16 -53 12 -70 -20
-46 -89 -164 -55 -180 53 -16 107 27 187 101 187 29 0 43 -7 69 -34 25 -27 37
-33 59 -29 51 10 43 51 -18 98 -42 32 -115 41 -171 21z"/>
<path d="M4949 690 c-136 -41 -184 -252 -81 -359 70 -74 211 -81 284 -14 57
52 81 184 46 263 -39 91 -150 140 -249 110z m127 -79 c20 -12 37 -34 44 -56
17 -51 8 -139 -17 -173 -43 -57 -139 -54 -180 7 -28 41 -32 135 -8 181 30 57
104 76 161 41z"/>
<path d="M14195 685 c-54 -19 -75 -47 -75 -100 0 -65 33 -98 117 -120 87 -23
113 -39 113 -70 0 -55 -100 -76 -145 -30 -14 13 -25 31 -25 40 0 13 -7 15 -37
9 -21 -4 -39 -7 -40 -8 -10 -8 24 -80 47 -100 62 -51 191 -47 247 9 28 28 33
40 33 82 0 79 -30 107 -150 138 -58 14 -90 35 -90 56 0 21 35 39 76 39 39 0
47 -4 62 -30 14 -25 23 -30 55 -30 45 0 49 19 14 71 -37 55 -120 73 -202 44z"/>
<path d="M4410 485 l0 -205 131 0 c79 0 139 5 152 11 77 42 87 145 17 187
l-30 19 24 22 c32 31 39 64 22 105 -23 55 -56 66 -196 66 l-120 0 0 -205z
m200 139 c39 -8 58 -41 41 -73 -10 -19 -20 -21 -86 -21 l-75 0 0 43 c0 24 3
47 7 50 8 9 71 9 113 1z m38 -180 c26 -18 30 -65 6 -85 -9 -8 -44 -13 -87 -13
l-72 -1 -3 58 -3 57 68 0 c46 0 76 -5 91 -16z"/>
<path d="M5253 668 c3 -13 25 -105 49 -206 l43 -183 45 3 45 3 32 120 c51 186
50 182 56 165 3 -8 22 -77 43 -152 l37 -138 42 0 43 0 47 193 c26 105 49 198
51 205 3 10 -7 12 -38 10 -41 -3 -43 -5 -50 -43 -25 -130 -52 -235 -59 -228
-3 4 -19 60 -33 123 -15 63 -29 123 -32 133 -4 13 -16 17 -54 17 l-49 0 -14
-52 c-8 -29 -25 -93 -38 -143 l-23 -90 -12 45 c-7 25 -22 89 -35 143 l-21 97
-40 0 c-37 0 -40 -2 -35 -22z"/>
<path d="M14500 485 l0 -205 40 0 40 0 0 48 c0 35 5 54 18 65 10 10 20 17 23
17 2 0 20 -29 39 -65 33 -62 37 -65 73 -65 20 0 37 3 37 8 0 4 -23 45 -50 92
l-49 84 45 52 c24 29 44 55 44 58 0 3 -18 6 -39 6 -34 0 -45 -6 -84 -50 -25
-27 -48 -50 -51 -50 -3 0 -6 47 -6 105 l0 105 -40 0 -40 0 0 -205z"/>
<path d="M14830 655 c0 -34 1 -35 40 -35 39 0 40 1 40 35 0 34 -1 35 -40 35
-39 0 -40 -1 -40 -35z"/>
<path d="M14837 574 c-4 -4 -7 -72 -7 -151 l0 -143 40 0 41 0 -3 148 -3 147
-30 3 c-17 2 -34 0 -38 -4z"/>
<path d="M14990 370 l0 -210 40 0 40 0 0 77 c0 74 0 76 19 59 31 -28 90 -31
129 -6 80 50 84 208 7 268 -36 28 -94 29 -128 2 -14 -11 -28 -20 -31 -20 -3 0
-6 9 -6 20 0 16 -7 20 -35 20 l-35 0 0 -210z m194 128 c24 -34 21 -123 -4
-148 -27 -27 -56 -25 -85 5 -33 32 -36 114 -5 145 27 27 75 26 94 -2z"/>
<path d="M15586 559 c-55 -44 -72 -128 -41 -207 28 -68 114 -94 169 -51 l26
20 0 -38 c0 -50 -10 -63 -52 -70 -29 -4 -40 -1 -54 16 -25 29 -94 30 -94 2 0
-11 14 -31 31 -45 27 -23 40 -26 105 -26 67 0 76 3 106 29 l33 29 0 179 0 178
-31 3 c-25 2 -33 -1 -37 -19 l-6 -21 -27 21 c-35 28 -93 28 -128 0z m129 -54
c20 -19 25 -34 25 -75 0 -57 -24 -90 -65 -90 -41 0 -65 33 -65 90 0 41 5 56
25 75 13 14 31 25 40 25 9 0 27 -11 40 -25z"/>
<path d="M15900 430 l0 -150 33 0 34 0 6 95 c8 119 17 138 62 133 30 -3 34 -1
43 28 8 26 7 34 -5 38 -29 12 -60 6 -79 -15 l-18 -20 -8 20 c-5 15 -16 21 -38
21 l-30 0 0 -150z"/>
<path d="M16180 573 c-23 -8 -60 -45 -60 -59 0 -6 7 -15 16 -18 24 -9 54 -7
54 4 0 18 48 30 76 20 18 -7 25 -16 22 -32 -2 -18 -15 -25 -70 -38 -81 -20
-108 -41 -108 -86 0 -46 8 -63 41 -79 37 -20 67 -19 111 4 30 15 38 16 42 5 3
-8 20 -14 38 -14 l33 0 -3 97 c-3 135 -9 159 -39 183 -19 15 -40 20 -82 19
-31 0 -63 -3 -71 -6z m108 -190 c-2 -30 -9 -41 -31 -51 -24 -12 -31 -11 -53 2
-50 33 -13 73 79 85 5 1 7 -16 5 -36z"/>
<path d="M16447 573 c-4 -3 -7 -71 -7 -150 l0 -143 40 0 40 0 0 104 c0 101 1
105 26 125 31 25 35 25 58 8 15 -11 19 -33 24 -125 l5 -112 33 0 32 0 4 106
c3 97 5 107 27 125 28 23 32 23 57 5 16 -12 19 -29 22 -125 l4 -111 34 0 34 0
0 125 c0 120 -1 127 -25 150 -30 31 -87 33 -129 6 -29 -20 -30 -20 -57 0 -35
25 -83 24 -125 -2 l-34 -21 0 21 c0 16 -6 21 -28 21 -16 0 -32 -3 -35 -7z"/>
<path d="M15340 425 l0 -36 78 3 77 3 3 33 3 32 -80 0 -81 0 0 -35z"/>
</g>
</svg>
