<?xml version="1.0" standalone="no"?>
<!DOCTYPE svg PUBLIC "-//W3C//DTD SVG 20010904//EN"
 "http://www.w3.org/TR/2001/REC-SVG-20010904/DTD/svg10.dtd">
<svg version="1.0" xmlns="http://www.w3.org/2000/svg"
 width="1999.000000pt" height="752.000000pt" viewBox="0 0 1999.000000 752.000000"
 preserveAspectRatio="xMidYMid meet">

<g transform="translate(0.000000,752.000000) scale(0.100000,-0.100000)"
fill="#000000" stroke="none">
<path d="M5318 7504 c-87 -21 -156 -60 -224 -128 -227 -227 -181 -592 96 -757
181 -107 414 -81 568 65 102 96 152 212 152 351 0 140 -50 255 -154 353 -117
111 -281 155 -438 116z m217 -50 c124 -32 225 -115 283 -233 36 -72 37 -79 37
-180 0 -113 -22 -201 -51 -201 -11 0 -14 18 -14 84 0 47 -3 87 -7 89 -5 3 -23
2 -40 0 -39 -6 -45 -33 -8 -33 24 0 25 -2 25 -69 0 -65 -2 -70 -22 -73 -38 -5
-26 -23 19 -28 l43 -5 -40 -47 c-167 -194 -448 -207 -630 -28 -36 35 -69 81
-91 125 -32 66 -34 75 -34 180 0 106 2 114 34 180 95 192 299 291 496 239z"/>
<path d="M5115 7308 c-3 -7 -4 -121 -3 -253 l3 -240 33 -3 32 -3 0 121 c0 133
10 168 55 188 32 15 47 15 79 0 35 -16 46 -60 46 -195 l0 -113 30 0 30 0 0
136 c0 154 -11 194 -63 221 -42 21 -120 13 -152 -17 l-24 -23 -3 94 -3 94 -28
3 c-16 2 -29 -2 -32 -10z"/>
<path d="M5500 6992 c0 -10 -6 -24 -12 -31 -10 -11 -10 -14 0 -18 7 -3 12 -24
12 -57 0 -59 12 -76 53 -76 34 0 33 23 -1 28 -19 3 -22 10 -22 53 0 46 2 49
26 49 31 0 28 23 -3 28 -12 2 -23 12 -26 23 -6 24 -27 25 -27 1z"/>
<path d="M5595 6890 c-3 -6 0 -13 9 -16 22 -8 59 -1 64 14 5 15 -64 17 -73 2z"/>
<path d="M11933 7505 c-247 -67 -404 -303 -363 -545 44 -259 291 -441 546
-402 233 37 415 247 414 480 -1 304 -309 544 -597 467z m197 -45 c156 -30 293
-161 336 -325 77 -287 -193 -578 -488 -525 -138 24 -255 111 -317 234 -161
316 118 683 469 616z"/>
<path d="M11847 7313 c-4 -3 -7 -118 -7 -255 l0 -248 30 0 30 0 0 98 c1 160
20 207 92 219 30 4 41 1 62 -20 25 -25 26 -29 26 -162 l0 -136 33 3 32 3 3
104 c4 137 -10 203 -49 236 -39 32 -109 34 -157 5 -18 -11 -35 -20 -37 -20 -3
0 -5 41 -5 90 0 88 -1 90 -23 90 -13 0 -27 -3 -30 -7z"/>
<path d="M12220 6986 c-11 -30 6 -157 23 -168 20 -13 57 -9 57 6 0 8 -10 16
-22 18 -20 3 -23 10 -26 51 -3 45 -2 47 22 47 16 0 26 6 26 15 0 9 -9 15 -25
15 -18 0 -25 5 -25 20 0 28 -19 25 -30 -4z"/>
<path d="M18615 7500 c-253 -66 -413 -308 -365 -552 49 -251 304 -427 565
-390 405 59 574 525 292 807 -133 133 -313 183 -492 135z m288 -60 c124 -48
241 -166 273 -278 91 -308 -172 -598 -501 -551 -100 14 -181 55 -255 129 -134
134 -165 312 -83 478 l28 57 3 -237 2 -238 30 0 30 0 0 125 c0 122 1 125 28
156 35 40 91 44 125 11 20 -21 22 -34 25 -157 l4 -135 29 0 29 0 0 136 c0 160
-12 197 -69 221 -44 19 -104 12 -143 -17 l-28 -21 0 91 c0 73 -3 90 -15 90
-74 0 127 137 235 160 64 13 192 3 253 -20z"/>
<path d="M19017 6973 c-13 -12 -7 -23 13 -23 18 0 20 -7 20 -65 0 -58 -2 -65
-20 -65 -11 0 -20 -4 -20 -10 0 -5 25 -10 55 -10 30 0 55 5 55 10 0 6 -9 10
-20 10 -18 0 -20 7 -20 80 l0 80 -28 0 c-16 0 -32 -3 -35 -7z"/>
<path d="M18744 6946 c-6 -14 -8 -28 -3 -33 4 -4 9 -30 11 -58 3 -48 4 -50 36
-53 18 -2 32 1 32 7 0 6 -9 11 -20 11 -39 0 -41 93 -2 98 30 5 28 22 -3 22
-16 0 -25 6 -25 15 0 23 -14 18 -26 -9z"/>
<path d="M18890 6896 c0 -21 -5 -26 -25 -26 -14 0 -25 -4 -25 -10 0 -5 11 -10
24 -10 17 0 26 -6 28 -20 2 -12 8 -21 13 -21 6 0 11 9 13 21 2 12 11 20 23 20
10 0 19 5 19 10 0 6 -9 10 -19 10 -12 0 -21 8 -23 22 -5 32 -28 35 -28 4z"/>
<path d="M5332 6353 l-92 -158 73 -5 72 -5 3 -342 2 -343 -2457 -2 c-2103 -3
-2467 -5 -2518 -18 -89 -21 -190 -86 -255 -162 -98 -116 -90 44 -90 -1673 0
-863 3 -1523 8 -1540 10 -34 50 -115 57 -115 2 0 -7 24 -21 54 l-24 53 2 1529
3 1529 25 50 c14 28 52 77 85 111 80 80 165 121 276 134 117 14 4909 13 4909
0 0 -14 77 -13 82 2 3 8 26 8 94 0 162 -21 285 -106 346 -239 31 -68 31 -69
36 -276 3 -147 1 -212 -7 -220 -14 -14 -15 -84 -1 -92 7 -4 10 -382 10 -1100
0 -718 -3 -1096 -10 -1100 -5 -3 -10 -24 -10 -45 0 -21 5 -42 10 -45 6 -3 10
-27 10 -53 -1 -206 -86 -352 -254 -437 l-79 -40 -2614 0 c-1437 0 -2602 -4
-2590 -8 l24 -8 6 -256 c4 -141 7 -312 7 -380 l0 -123 41 0 41 0 -8 375 -7
375 2509 0 c1517 0 2532 4 2566 10 32 5 95 26 140 48 100 47 159 105 209 207
31 63 34 79 39 180 l5 110 183 3 182 2 0 -69 c0 -38 3 -72 8 -74 7 -5 322 174
322 183 0 4 -297 178 -322 188 -4 2 -8 -31 -8 -72 l0 -76 -182 2 -183 3 0
1100 0 1100 178 3 177 2 0 -74 0 -75 158 91 c86 50 160 94 165 97 6 6 -302
191 -318 191 -3 0 -5 -34 -5 -75 l0 -75 -177 2 -178 3 -5 230 -5 230 -30 59
c-67 131 -179 216 -329 247 -50 10 -103 19 -118 19 l-28 0 0 345 0 345 74 0
75 0 -92 160 c-51 88 -95 160 -98 160 -3 0 -47 -71 -97 -157z"/>
<path d="M11973 6350 l-91 -160 74 0 74 0 0 -345 0 -345 -2462 -3 c-2195 -3
-2469 -5 -2518 -19 -142 -40 -254 -135 -308 -260 l-27 -63 -3 -1490 -3 -1490
26 -82 c22 -72 34 -92 85 -146 43 -46 82 -75 140 -105 45 -23 90 -42 99 -42
16 0 19 -13 24 -97 4 -54 7 -217 7 -363 0 -146 3 -275 6 -287 5 -18 13 -23 42
-23 l35 0 -4 378 -4 377 2555 5 c2376 5 2558 6 2597 22 212 85 313 235 313
466 l0 62 185 0 184 0 3 -75 3 -75 158 92 c86 50 157 94 157 98 0 3 -71 47
-157 97 l-158 91 -3 -74 -3 -74 -184 0 -185 0 0 1105 0 1105 175 0 174 0 3
-74 3 -74 159 92 c87 51 157 96 155 102 -4 9 -298 184 -311 184 -5 0 -8 -34
-8 -75 l0 -75 -172 2 -173 3 -6 215 c-6 223 -10 245 -59 338 -28 53 -123 140
-193 175 -33 17 -92 33 -160 45 l-107 17 2 340 3 340 72 5 72 5 -90 155 c-49
85 -93 156 -97 157 -4 2 -48 -69 -99 -157z m57 -1164 c0 -245 2 -287 16 -300
8 -9 21 -16 28 -16 33 0 36 22 36 306 0 180 4 285 10 289 6 4 45 1 88 -5 110
-16 228 -76 288 -147 80 -93 87 -124 92 -380 l4 -223 -1475 0 -1475 0 -12 29
c-36 88 -168 137 -263 97 -39 -16 -96 -72 -103 -102 -5 -20 -14 -21 -156 -27
-83 -4 -431 -7 -772 -7 l-621 1 -30 51 c-38 65 -95 98 -170 98 -75 0 -132 -33
-170 -98 l-30 -51 -283 -1 -283 0 3 238 c3 227 4 239 27 286 59 119 205 219
346 235 39 5 1158 9 2488 10 l2417 1 0 -284z m-4458 -366 c46 -13 103 -76 118
-129 21 -79 -21 -169 -94 -202 -78 -35 -180 -13 -223 47 -55 76 -49 165 14
235 49 54 109 70 185 49z m1958 -12 c132 -67 132 -249 0 -315 -124 -63 -260
19 -260 157 0 75 35 129 105 161 54 25 101 24 155 -3z m-283 -195 c32 -96 79
-143 160 -161 96 -22 197 35 230 129 l18 49 862 0 863 0 0 -134 0 -134 -66 -7
c-191 -20 -344 -105 -344 -190 0 -85 156 -173 338 -190 l72 -8 0 -76 0 -77
-45 -22 c-52 -25 -105 -98 -105 -144 0 -15 -5 -28 -11 -28 -6 0 -71 38 -144
84 -73 47 -136 82 -139 79 -3 -4 -6 -36 -6 -73 l0 -67 -167 -6 c-223 -8 -276
-25 -329 -102 -33 -49 -45 -109 -51 -261 l-6 -144 -139 0 -138 0 2 -207 3
-208 158 -3 157 -3 0 -72 c0 -82 -21 -166 -47 -189 -48 -43 -191 -53 -595 -43
l-298 7 0 149 0 149 204 0 c177 0 205 2 210 16 8 20 8 378 0 398 -5 14 -33 16
-210 16 l-204 0 0 135 0 135 38 15 c83 35 128 113 120 209 -6 74 -42 127 -107
157 l-50 24 -1 123 0 122 75 0 c41 0 75 3 75 6 0 17 -185 323 -191 317 -14
-15 -179 -303 -179 -313 0 -6 29 -10 70 -10 l70 0 0 -122 -1 -123 -50 -24
c-152 -71 -144 -300 14 -366 l37 -15 0 -135 0 -135 -217 -2 -218 -3 0 -210 0
-210 218 -3 217 -2 0 -150 0 -150 -473 0 -474 0 -6 98 c-4 53 -7 121 -7 150
l0 52 155 0 155 0 0 210 0 210 -155 0 -155 0 -6 25 c-3 14 -2 83 3 153 10 144
29 198 77 221 36 17 251 33 329 25 l58 -7 -7 -68 c-4 -38 -3 -69 1 -69 17 0
336 173 330 179 -4 3 -75 50 -158 103 l-152 97 -7 -37 c-4 -20 -7 -53 -7 -73
l-1 -36 -162 -6 c-199 -7 -249 -19 -304 -72 -56 -53 -71 -109 -80 -290 l-7
-145 -139 0 -138 0 2 -207 3 -208 143 -3 142 -3 0 -52 c0 -28 3 -96 7 -149 l6
-98 -411 0 -412 0 0 150 0 150 155 0 155 0 0 210 0 210 -155 0 -155 0 0 465 0
464 75 3 75 3 -92 160 c-50 88 -93 162 -96 165 -2 3 -8 -2 -14 -10 -34 -57
-170 -294 -175 -306 -4 -11 9 -14 71 -14 l76 0 -2 -462 -3 -463 -143 -3 -142
-3 2 -207 3 -207 143 -3 142 -3 0 -149 0 -150 -142 0 c-79 0 -241 -3 -360 -7
l-218 -6 0 1111 0 1112 279 0 279 0 12 -35 c60 -181 330 -181 390 0 l12 35
681 3 c375 1 717 3 760 5 66 2 78 -1 84 -15z m3343 -1088 l0 -1105 -251 0
c-236 0 -251 1 -243 18 11 20 18 1869 9 1990 l-7 83 -36 -3 -36 -3 3 -985 c1
-542 0 -1002 -4 -1023 -12 -63 -35 -71 -210 -76 -237 -5 -302 13 -336 94 -16
38 -24 416 -14 693 l7 203 37 15 c82 34 127 112 119 208 -6 75 -44 127 -115
162 l-54 27 3 71 3 71 35 2 c166 12 306 59 364 124 47 52 49 94 4 144 -54 62
-152 99 -313 119 l-90 12 -3 132 -3 132 566 0 565 0 0 -1105z m-987 800 c47
-8 111 -24 142 -36 71 -26 135 -85 135 -124 0 -39 -64 -97 -137 -125 -140 -53
-382 -64 -534 -25 -90 23 -178 73 -200 113 -20 39 -16 63 20 98 93 93 352 138
574 99z m-2085 -549 c91 -48 125 -149 83 -243 -60 -131 -262 -131 -322 0 -42
93 -14 183 76 238 36 23 124 25 163 5z m1991 -1 c64 -33 108 -116 98 -187 -17
-128 -168 -196 -276 -125 -148 98 -80 327 97 327 29 0 66 -7 81 -15z m-634
-221 l50 -6 -3 -69 c-2 -38 -1 -69 3 -69 4 0 72 34 151 76 138 72 164 80 164
48 0 -23 69 -92 105 -105 l34 -13 4 -440 c2 -305 7 -452 15 -477 29 -87 81
-130 181 -149 32 -6 251 -10 534 -10 l480 0 -6 -107 c-7 -141 -25 -189 -98
-267 -65 -70 -155 -119 -250 -136 -35 -7 -924 -9 -2564 -8 l-2510 3 0 180 c0
258 16 291 146 315 47 9 442 11 1514 9 1542 -3 1509 -3 1582 45 59 38 82 100
92 241 l6 90 138 3 137 3 0 209 0 209 -157 3 -158 3 3 135 c5 244 21 266 202
280 139 10 150 10 205 4z m-3037 -631 l-3 -188 -312 -3 -313 -2 0 190 0 190
315 0 315 0 -2 -187z m890 0 l-3 -188 -312 -3 -313 -2 0 190 0 190 315 0 315
0 -2 -187z m1140 0 l2 -183 -440 0 -440 0 0 185 0 185 438 -2 437 -3 3 -182z
m887 -3 l0 -185 -312 -3 -313 -2 0 190 0 190 313 -2 312 -3 0 -185z m-3625
-597 c0 -5 -10 -33 -21 -63 -19 -47 -23 -82 -27 -241 l-5 -187 -26 8 c-117 34
-217 114 -268 214 -23 44 -28 66 -31 158 l-4 107 143 4 c79 1 165 4 192 5 26
1 47 -1 47 -5z"/>
<path d="M7460 4696 l32 -44 -32 -43 c-27 -38 -29 -44 -14 -48 9 -1 21 3 25
10 4 8 15 23 23 34 16 20 16 19 43 -13 16 -18 34 -32 41 -32 18 0 15 9 -13 46
-14 18 -25 38 -25 45 0 7 11 27 25 45 29 38 30 44 11 44 -8 0 -26 -14 -39 -31
l-25 -32 -23 32 c-12 17 -31 31 -42 31 -16 0 -14 -6 13 -44z"/>
<path d="M9430 4705 l0 -45 -45 0 c-33 0 -45 -4 -45 -15 0 -11 12 -15 45 -15
l45 0 0 -45 c0 -33 4 -45 15 -45 11 0 15 12 15 45 l0 45 45 0 c33 0 45 4 45
15 0 11 -12 15 -45 15 l-45 0 0 45 c0 33 -4 45 -15 45 -11 0 -15 -12 -15 -45z"/>
<path d="M11600 4175 c0 -87 3 -105 15 -105 11 0 15 13 15 53 0 56 12 77 42
77 22 0 38 -37 38 -91 0 -21 5 -39 10 -39 6 0 10 28 10 65 0 58 -3 66 -25 81
-21 14 -31 15 -50 6 -24 -11 -25 -10 -25 23 0 24 -5 35 -15 35 -12 0 -15 -18
-15 -105z"/>
<path d="M11143 4233 c-8 -16 -9 -29 -4 -33 6 -3 11 -32 13 -65 3 -60 3 -60
36 -63 36 -4 45 15 10 20 -20 3 -23 10 -26 56 -3 50 -2 52 22 52 15 0 26 5 26
10 0 6 -9 10 -21 10 -12 0 -23 8 -26 20 -7 27 -16 25 -30 -7z"/>
<path d="M11278 4223 c-35 -9 -19 -29 21 -25 27 3 40 0 44 -11 4 -11 -4 -17
-31 -22 -48 -9 -62 -21 -62 -56 0 -22 6 -32 26 -39 14 -6 30 -7 36 -4 6 4 24
7 41 6 l29 -1 -4 60 c-2 33 -11 66 -19 74 -16 16 -56 25 -81 18z m72 -89 c0
-20 -24 -44 -45 -44 -24 0 -36 15 -27 38 4 12 72 18 72 6z"/>
<path d="M11486 4223 c-4 -4 -19 -7 -34 -8 -27 0 -27 -1 -27 -69 0 -47 4 -71
13 -73 8 -3 12 9 12 42 0 58 14 85 44 85 29 0 36 -16 36 -82 0 -35 4 -48 13
-45 8 2 12 24 12 62 -1 48 -4 60 -24 76 -25 21 -34 23 -45 12z"/>
<path d="M9360 3701 c0 -5 11 -23 25 -39 32 -38 31 -48 -6 -97 -39 -52 -17
-62 27 -11 l31 36 27 -35 c15 -19 34 -35 42 -35 20 0 18 7 -16 50 -16 21 -30
41 -30 44 0 3 14 25 31 49 26 36 28 43 13 45 -9 2 -19 0 -23 -5 -3 -5 -14 -20
-24 -34 l-18 -24 -27 33 c-26 31 -52 42 -52 23z"/>
<path d="M11350 3702 c0 -4 11 -23 25 -42 14 -19 25 -38 25 -43 0 -5 -13 -26
-30 -47 -34 -43 -36 -50 -16 -50 8 0 27 16 43 36 l27 36 29 -36 c16 -20 35
-36 43 -36 20 0 18 7 -16 50 -16 21 -30 41 -30 45 0 5 11 23 25 41 44 57 26
77 -20 22 l-27 -32 -27 32 c-24 30 -51 42 -51 24z"/>
<path d="M7453 3010 c-34 -14 -56 -66 -50 -117 16 -141 197 -129 197 12 0 20
-5 45 -10 56 -9 16 -7 19 10 19 13 0 20 7 20 20 0 18 -6 20 -72 19 -40 0 -83
-4 -95 -9z m87 -40 c25 -25 27 -95 3 -122 -19 -22 -66 -24 -83 -3 -6 8 -14 31
-17 52 -4 29 0 44 17 66 25 32 52 35 80 7z"/>
<path d="M8342 3010 c-26 -11 -52 -65 -52 -107 0 -15 9 -43 20 -61 38 -61 108
-66 156 -9 24 28 26 37 21 89 -4 46 -2 58 9 58 8 0 14 9 14 20 0 18 -6 20 -72
19 -40 0 -83 -4 -96 -9z m88 -40 c24 -24 27 -86 4 -118 -10 -14 -26 -22 -44
-22 -56 0 -80 82 -39 134 24 31 52 33 79 6z"/>
<path d="M9610 2945 c0 -63 4 -105 10 -105 6 0 10 24 10 53 0 57 12 77 46 77
27 0 34 -17 34 -81 0 -27 5 -49 10 -49 6 0 10 28 10 64 0 86 -27 114 -81 86
-17 -10 -19 -7 -19 25 0 19 -4 35 -10 35 -6 0 -10 -42 -10 -105z"/>
<path d="M9150 3020 c0 -11 -4 -20 -10 -20 -5 0 -10 -7 -10 -15 0 -8 5 -15 10
-15 6 0 10 -25 10 -55 0 -49 3 -57 24 -67 14 -6 33 -7 43 -3 16 7 15 9 -7 14
-22 6 -25 13 -28 58 -3 46 -1 52 18 55 28 4 30 22 4 26 -12 2 -24 12 -27 23
-7 25 -27 25 -27 -1z"/>
<path d="M9273 2993 c-25 -9 -13 -25 14 -20 29 5 63 -7 63 -23 0 -6 -15 -10
-33 -10 -38 0 -67 -25 -67 -57 0 -32 23 -44 76 -39 l49 4 0 62 c0 49 -4 65
-20 76 -18 14 -58 17 -82 7z m77 -92 c0 -40 -61 -56 -68 -17 -5 22 13 36 46
36 15 0 22 -6 22 -19z"/>
<path d="M9437 2993 c-11 -10 -8 -153 3 -153 6 0 10 22 10 48 0 58 17 85 51
80 22 -3 24 -8 27 -66 2 -44 7 -62 15 -59 16 5 20 40 12 94 -8 53 -41 76 -77
54 -15 -9 -23 -10 -28 -2 -3 6 -9 8 -13 4z"/>
<path d="M10370 3007 c-36 -18 -51 -55 -47 -110 6 -65 40 -102 97 -102 54 0
90 36 97 97 3 25 0 55 -6 67 -10 18 -9 21 9 21 13 0 20 7 20 20 0 18 -7 20
-72 20 -40 0 -84 -6 -98 -13z m84 -30 c9 -7 20 -32 23 -55 7 -55 -15 -92 -57
-92 -42 0 -64 37 -57 92 6 43 27 68 57 68 9 0 24 -6 34 -13z"/>
<path d="M18726 6488 c-34 -56 -166 -287 -166 -292 0 -3 32 -6 70 -6 l70 0 0
-345 0 -345 -2462 -3 c-2663 -3 -2501 0 -2605 -55 -97 -51 -123 -73 -184 -160
-61 -86 -58 -12 -59 -1632 -1 -1138 2 -1494 11 -1538 24 -109 119 -220 242
-280 37 -17 73 -32 80 -32 34 0 37 -22 37 -245 0 -122 3 -290 7 -373 l6 -152
37 0 37 0 -5 375 -5 375 2544 2 2544 3 55 21 c92 35 140 63 191 111 87 81 124
173 135 329 l7 94 163 0 163 0 3 -74 3 -75 157 92 c87 51 157 96 155 100 -1 5
-72 48 -157 97 l-155 89 -3 -75 -3 -74 -164 0 -165 0 0 1105 0 1105 175 0 175
0 0 -70 c0 -38 3 -70 8 -70 14 1 305 175 306 183 1 10 -299 187 -316 187 -5 0
-8 -30 -7 -72 l2 -73 -170 -3 -171 -2 -5 207 c-3 152 -9 222 -21 259 -53 170
-183 275 -381 309 -55 10 -106 19 -113 21 -10 3 -12 76 -10 341 l3 338 73 3
c39 2 72 5 72 9 0 3 -22 42 -48 87 -27 44 -68 114 -91 154 -23 39 -44 72 -46
72 -3 0 -11 -10 -19 -22z m246 -1050 c163 -58 271 -174 299 -322 6 -34 8 -588
7 -1522 l-3 -1469 -33 -71 c-39 -82 -91 -136 -175 -183 -120 -66 82 -61 -2697
-61 -1712 0 -2546 4 -2590 11 -130 21 -264 119 -321 236 l-24 48 0 1535 0
1535 30 58 c54 109 187 199 315 216 36 5 1208 8 2605 7 2342 -1 2544 -3 2587
-18z"/>
<path d="M16081 4028 c-27 -67 -135 -350 -151 -393 -10 -27 -46 -122 -80 -210
-75 -194 -120 -315 -120 -321 0 -2 33 -4 74 -4 l75 0 19 53 c11 28 27 77 37
107 10 30 22 61 28 68 7 9 57 12 206 10 l196 -3 44 -117 44 -118 73 0 c41 0
74 2 74 4 0 2 -20 55 -44 118 -24 62 -62 163 -85 223 -23 61 -55 144 -71 185
-16 41 -52 136 -80 210 -28 74 -57 151 -64 170 l-14 35 -76 3 c-71 3 -77 1
-85 -20z m127 -261 c18 -51 51 -140 72 -199 l39 -108 -155 0 c-85 0 -154 2
-154 5 0 3 19 53 41 112 23 60 52 137 64 173 36 104 45 123 52 116 4 -4 22
-48 41 -99z"/>
<path d="M2730 4008 c-5 -13 -55 -142 -110 -288 -56 -146 -114 -299 -130 -340
-83 -216 -110 -287 -110 -293 0 -4 33 -7 74 -7 l74 0 44 120 43 120 201 0 202
0 43 -120 43 -120 73 0 c40 0 73 3 73 6 0 7 -35 100 -130 349 -34 88 -77 201
-95 250 -19 50 -56 146 -82 215 l-48 125 -78 3 c-72 3 -78 1 -87 -20z m165
-354 c40 -109 71 -202 69 -206 -6 -9 -288 -11 -297 -2 -3 3 -2 16 3 27 5 12
32 85 60 162 77 213 83 226 87 221 3 -2 38 -93 78 -202z"/>
<path d="M155 1960 c10 -11 20 -20 23 -20 3 0 -3 9 -13 20 -10 11 -20 20 -23
20 -3 0 3 -9 13 -20z"/>
<path d="M224 1891 c7 -11 46 -35 46 -28 0 3 -12 12 -26 22 -15 9 -23 12 -20
6z"/>
<path d="M383 965 c-178 -39 -320 -179 -368 -362 -64 -246 104 -518 356 -578
170 -40 330 7 455 132 268 268 128 730 -245 809 -80 17 -117 17 -198 -1z m196
-50 c173 -41 300 -176 331 -353 33 -185 -68 -374 -244 -458 -362 -172 -744
210 -572 572 70 148 223 248 386 253 19 0 64 -6 99 -14z"/>
<path d="M176 638 c21 -29 50 -68 65 -87 l27 -34 -69 -93 c-54 -73 -66 -96
-54 -100 31 -12 62 7 99 60 59 86 57 86 116 6 44 -59 57 -70 81 -70 16 0 29 5
29 11 0 6 -27 47 -60 91 -33 45 -60 85 -60 91 0 5 27 45 60 88 33 43 60 81 60
84 0 3 -15 5 -34 5 -30 0 -39 -7 -78 -60 -23 -33 -46 -60 -50 -60 -4 0 -28 27
-53 60 -41 53 -50 60 -81 60 l-36 0 38 -52z"/>
<path d="M747 519 c-22 -13 -12 -32 14 -24 18 6 19 1 19 -69 0 -70 -2 -76 -21
-76 -12 0 -19 -5 -16 -12 5 -17 109 -18 114 -1 2 6 -6 13 -19 15 -22 3 -23 8
-26 91 -3 82 -4 87 -25 87 -12 0 -30 -5 -40 -11z"/>
<path d="M518 496 c-6 -29 9 -147 20 -157 4 -4 19 -11 35 -14 21 -6 27 -4 27
8 0 9 -10 17 -22 19 -20 3 -23 9 -23 53 0 44 3 50 23 53 30 5 28 22 -3 22 -18
0 -25 5 -25 20 0 28 -27 25 -32 -4z"/>
<path d="M620 400 c0 -5 15 -10 34 -10 19 0 38 5 41 10 4 6 -10 10 -34 10 -23
0 -41 -4 -41 -10z"/>
<path d="M7070 969 c-163 -27 -325 -173 -374 -339 -23 -77 -22 -200 3 -280 75
-241 334 -388 574 -325 174 45 320 194 356 363 35 168 -12 326 -134 447 -71
69 -145 110 -242 130 -76 16 -103 17 -183 4z m235 -70 c211 -79 331 -310 269
-520 -35 -119 -96 -196 -203 -259 -127 -74 -264 -80 -394 -17 -225 108 -315
371 -200 589 102 194 327 282 528 207z"/>
<path d="M6960 681 c0 -5 10 -22 23 -38 13 -15 39 -51 59 -78 l36 -50 -64 -85
c-35 -47 -64 -91 -64 -97 0 -8 12 -13 29 -13 25 0 37 11 82 72 l52 71 28 -34
c16 -19 39 -49 51 -67 24 -33 56 -49 83 -38 12 4 3 21 -37 76 -91 122 -90 104
-19 197 33 45 61 84 61 87 0 4 -15 6 -33 6 -29 0 -39 -8 -78 -60 -24 -32 -47
-59 -51 -60 -3 0 -26 27 -50 60 -37 51 -47 59 -75 60 -18 0 -33 -4 -33 -9z"/>
<path d="M7332 493 c-8 -18 -9 -30 -2 -37 5 -5 10 -34 10 -63 0 -48 3 -54 26
-63 35 -14 44 -13 44 5 0 8 -9 15 -20 15 -22 0 -33 31 -28 76 2 21 9 30 26 32
28 4 29 22 1 22 -12 0 -23 8 -26 20 -7 27 -16 25 -31 -7z"/>
<path d="M13710 969 c-142 -23 -283 -132 -356 -274 l-39 -78 0 -121 c0 -119 1
-122 38 -200 64 -134 184 -232 332 -270 302 -79 615 158 615 467 0 226 -165
423 -395 472 -77 16 -113 17 -195 4z m160 -50 c255 -40 421 -275 369 -519 -9
-43 -14 -50 -35 -50 -24 0 -24 1 -24 90 0 79 -2 90 -17 90 -34 0 -63 -12 -63
-26 0 -10 7 -13 25 -8 l25 6 0 -76 c0 -75 0 -76 -26 -76 -49 0 -19 -25 34 -28
l52 -3 -19 -37 c-46 -89 -163 -177 -276 -207 -204 -53 -421 48 -515 239 -58
118 -52 276 17 393 65 111 180 189 313 213 64 11 68 11 140 -1z"/>
<path d="M13426 678 c4 -7 32 -45 61 -84 29 -39 53 -74 53 -79 0 -4 -29 -47
-65 -95 -36 -48 -65 -90 -65 -94 0 -3 13 -6 29 -6 30 0 80 48 119 113 9 15 19
27 23 27 3 0 30 -31 58 -70 44 -59 57 -70 82 -70 16 0 29 4 29 8 0 5 -27 46
-60 92 -33 46 -60 88 -60 93 0 6 24 42 53 81 75 100 74 96 33 96 -32 0 -41 -6
-80 -60 -25 -34 -48 -61 -51 -61 -3 0 -26 27 -51 61 -39 54 -48 60 -80 60 -25
0 -33 -3 -28 -12z"/>
<path d="M13799 498 c-4 -64 4 -144 14 -155 16 -17 59 -21 64 -6 2 6 -6 13
-19 15 -20 3 -23 9 -26 56 -3 50 -2 52 22 52 15 0 26 5 26 10 0 6 -11 10 -25
10 -18 0 -25 5 -25 20 0 28 -30 26 -31 -2z"/>
<path d="M13970 441 c0 -28 -3 -31 -31 -31 -38 0 -35 -24 4 -28 21 -3 27 -9
27 -28 0 -13 5 -24 10 -24 6 0 10 11 10 24 0 19 6 25 25 28 14 2 26 8 26 13 0
6 -12 11 -26 13 -19 3 -25 9 -25 27 0 13 -4 27 -10 30 -6 4 -10 -7 -10 -24z"/>
</g>
</svg>
