<?xml version="1.0" standalone="no"?>
<!DOCTYPE svg PUBLIC "-//W3C//DTD SVG 20010904//EN"
 "http://www.w3.org/TR/2001/REC-SVG-20010904/DTD/svg10.dtd">
<svg version="1.0" xmlns="http://www.w3.org/2000/svg"
 width="661.000000pt" height="696.000000pt" viewBox="0 0 661.000000 696.000000"
 preserveAspectRatio="xMidYMid meet">

<g transform="translate(0.000000,696.000000) scale(0.100000,-0.100000)"
fill="#000000" stroke="none">
<path d="M3603 6700 c-45 -18 -37 -114 12 -126 41 -10 75 19 75 64 0 37 -14
62 -34 62 -5 0 -2 -8 7 -18 21 -23 22 -66 1 -86 -21 -21 -40 -20 -64 4 -33 33
-23 72 25 98 24 13 9 14 -22 2z"/>
<path d="M3812 6674 c-7 -8 -8 -14 -2 -14 5 0 10 -18 10 -39 0 -22 3 -42 8
-44 7 -5 8 101 0 108 -1 2 -9 -3 -16 -11z"/>
<path d="M4068 6680 c-9 -28 5 -99 20 -105 14 -5 15 -4 5 6 -15 15 -17 76 -4
81 5 2 3 8 -4 15 -8 8 -15 8 -17 3z"/>
<path d="M3712 6634 c-2 -47 17 -71 45 -59 10 5 21 7 26 7 4 -1 6 17 5 41 -1
35 -2 37 -5 10 -9 -69 -60 -70 -66 -1 l-4 43 -1 -41z"/>
<path d="M3861 6603 c1 -37 4 -55 6 -40 4 23 7 26 18 17 20 -17 54 -3 61 25 6
25 -10 65 -27 65 -6 0 -3 -7 6 -16 20 -20 16 -53 -8 -68 -15 -9 -21 -7 -33 9
-8 11 -12 30 -9 42 3 12 1 25 -5 28 -6 4 -9 -19 -9 -62z"/>
<path d="M3972 6628 c-2 -52 7 -63 44 -54 21 6 24 12 23 49 l-2 42 -6 -40 c-5
-31 -10 -40 -26 -40 -16 0 -21 9 -26 45 l-6 45 -1 -47z"/>
<path d="M3380 6480 c0 -5 16 -10 35 -10 23 0 38 -6 42 -16 8 -21 -15 -35 -49
-31 -16 2 -28 0 -28 -5 0 -11 48 -10 71 2 28 15 24 49 -7 60 -33 13 -64 13
-64 0z"/>
<path d="M3640 6420 c0 -41 4 -60 13 -60 8 0 11 17 9 60 -5 78 -22 78 -22 0z"/>
<path d="M3840 6420 c0 -41 4 -60 13 -60 8 0 11 17 9 60 -5 78 -22 78 -22 0z"/>
<path d="M3983 6420 c0 -36 2 -50 4 -32 2 17 2 47 0 65 -2 17 -4 3 -4 -33z"/>
<path d="M4061 6465 c-4 -27 0 -99 5 -104 8 -9 9 5 3 64 -3 33 -7 51 -8 40z"/>
<path d="M3492 6400 c1 -40 2 -41 5 -10 2 19 11 40 20 47 13 10 13 12 -6 10
-18 -1 -21 -7 -19 -47z"/>
<path d="M3552 6438 c-25 -25 -3 -88 31 -88 6 0 1 7 -11 16 -33 23 -27 68 10
72 30 4 40 -17 26 -58 -8 -24 -7 -24 7 -6 18 23 18 31 5 57 -12 21 -50 25 -68
7z"/>
<path d="M3687 6443 c34 -7 42 -51 13 -75 -12 -10 -18 -18 -12 -18 18 0 42 31
42 54 0 28 -18 46 -44 45 -19 -2 -19 -2 1 -6z"/>
<path d="M3755 6440 c-4 -6 -4 -14 -1 -17 3 -4 6 -1 6 5 0 7 11 12 25 12 35 0
33 -28 -2 -32 -33 -4 -45 -41 -17 -52 14 -5 15 -4 5 8 -16 19 -6 36 20 36 12
0 19 -7 19 -20 0 -11 4 -20 8 -20 5 0 6 19 3 43 -5 36 -10 42 -33 45 -14 2
-29 -2 -33 -8z"/>
<path d="M3890 6441 c35 -9 39 -53 8 -75 -25 -18 -17 -22 13 -6 22 12 26 59 7
78 -7 7 -21 12 -32 11 -18 -1 -17 -2 4 -8z"/>
<path d="M3953 6405 c0 -27 2 -38 4 -22 2 15 2 37 0 50 -2 12 -4 0 -4 -28z"/>
<path d="M4023 6405 c0 -27 2 -38 4 -22 2 15 2 37 0 50 -2 12 -4 0 -4 -28z"/>
<path d="M4147 6443 c-10 -10 -8 -71 2 -77 5 -4 7 3 4 14 -5 17 0 20 31 20 37
0 47 15 24 38 -13 13 -50 16 -61 5z m61 -20 c2 -9 -7 -13 -27 -13 -30 0 -39 9
-24 24 11 10 46 3 51 -11z"/>
<path d="M4260 6443 c14 -3 29 -10 33 -17 6 -7 7 -6 4 4 -2 8 -16 16 -33 17
-25 1 -26 0 -4 -4z"/>
<path d="M4239 6418 c7 -10 19 -18 27 -18 22 0 28 -22 9 -37 -11 -7 -14 -13
-8 -13 7 0 19 7 28 16 18 19 4 44 -24 44 -9 0 -23 6 -31 13 -12 10 -12 9 -1
-5z"/>
<path d="M4186 6364 c-11 -8 -16 -14 -10 -14 13 0 39 18 34 24 -3 2 -14 -2
-24 -10z"/>
<path d="M3830 6306 c0 -2 -7 -20 -16 -41 -8 -20 -10 -34 -5 -30 7 4 11 -15
11 -54 l0 -61 -249 0 c-214 0 -252 -2 -265 -16 -24 -24 -22 -165 2 -187 17
-15 68 -17 530 -17 451 0 512 2 526 16 20 19 23 173 4 192 -9 9 -82 12 -265
12 l-253 0 0 61 c0 37 4 58 10 54 13 -8 13 -4 -5 39 -13 30 -25 46 -25 32z
m514 -222 c11 -10 16 -34 16 -69 0 -94 54 -85 -526 -85 l-514 0 0 79 c0 54 4
81 13 84 6 3 233 6 504 6 434 1 493 -1 507 -15z"/>
<path d="M3571 6056 c-17 -20 -7 -33 36 -51 19 -8 33 -20 31 -27 -7 -20 -38
-21 -59 -2 -20 18 -27 6 -7 -14 28 -28 88 -2 74 33 -3 9 -19 18 -36 21 -21 5
-30 12 -30 25 0 22 29 26 49 7 11 -11 13 -10 9 2 -6 20 -52 24 -67 6z"/>
<path d="M3761 6053 c-5 -10 -5 -36 -1 -58 7 -37 8 -38 10 -10 8 91 7 97 -9
68z"/>
<path d="M3797 6048 c-5 -15 3 -80 12 -90 3 -4 6 15 5 42 -1 51 -8 72 -17 48z"/>
<path d="M3676 6027 c-38 -27 2 -95 42 -71 23 15 27 48 7 68 -20 19 -26 20
-49 3z m48 -20 c16 -25 -16 -56 -38 -37 -19 15 -20 32 -4 48 15 15 28 11 42
-11z"/>
<path d="M3853 6033 c-8 -3 -12 -20 -12 -41 l2 -37 6 35 c9 50 35 47 40 -5 l5
-40 5 40 c4 26 11 40 21 40 10 0 17 -14 21 -40 l7 -40 -2 45 -1 45 -40 1 c-22
1 -46 -1 -52 -3z"/>
<path d="M3983 6033 c-7 -2 -13 -9 -13 -15 0 -6 6 -6 15 2 8 6 19 9 25 5 16
-10 12 -25 -9 -25 -10 0 -24 -6 -30 -14 -15 -18 5 -35 39 -33 24 2 25 5 20 42
-5 39 -19 50 -47 38z m35 -55 c-7 -19 -38 -22 -38 -4 0 10 9 16 21 16 12 0 19
-5 17 -12z"/>
<path d="M4058 6015 c7 -15 7 -26 -1 -40 -10 -19 -9 -19 8 -5 14 11 19 12 22
3 3 -7 9 -13 15 -13 6 0 5 7 -3 16 -10 12 -10 20 -1 35 7 10 8 19 3 19 -5 0
-11 -6 -14 -12 -3 -10 -8 -9 -22 2 -17 14 -17 13 -7 -5z"/>
<path d="M3823 5868 c-5 -13 -8 -53 -5 -90 l4 -68 -250 0 c-296 0 -282 6 -282
-117 0 -123 -48 -113 548 -113 595 0 542 -11 542 117 0 119 14 113 -283 113
l-247 0 0 56 c0 34 4 53 10 49 13 -8 13 -1 -4 40 -18 41 -20 42 -33 13z m531
-204 c12 -31 6 -131 -8 -143 -9 -8 -153 -10 -517 -9 l-504 3 -3 69 c-2 38 -1
75 2 83 4 11 96 13 515 13 455 0 510 -2 515 -16z"/>
<path d="M3640 5595 l0 -55 50 0 50 0 0 40 c0 22 -4 40 -10 40 -5 0 -10 -16
-10 -35 0 -32 -2 -35 -30 -35 -29 0 -30 1 -30 50 0 28 -4 50 -10 50 -5 0 -10
-25 -10 -55z"/>
<path d="M3751 5578 l2 -43 6 35 c4 26 12 36 28 38 18 3 22 -2 26 -35 l4 -38
-1 40 c-1 38 -3 40 -33 43 -33 3 -33 3 -32 -40z"/>
<path d="M3847 5613 c-4 -3 -7 -19 -7 -35 0 -34 24 -47 53 -29 13 9 22 9 26 3
4 -6 20 -10 36 -10 29 1 30 3 27 39 -4 33 -8 39 -27 39 -13 0 -26 -4 -29 -9
-3 -4 5 -6 19 -3 21 4 24 1 22 -24 -3 -32 -37 -49 -37 -19 0 16 -2 16 -26 0
-26 -17 -54 -14 -54 5 0 5 14 10 30 10 32 0 37 9 18 28 -13 13 -41 16 -51 5z
m48 -13 c4 -6 -5 -10 -19 -10 -14 0 -26 5 -26 10 0 6 9 10 19 10 11 0 23 -4
26 -10z"/>
<path d="M4001 5578 c2 -34 3 -37 6 -13 2 17 12 36 21 43 14 11 13 12 -6 12
-19 0 -22 -5 -21 -42z"/>
<path d="M3822 5446 c-6 -13 -8 -42 -5 -64 l6 -41 -281 -3 -281 -3 -32 -30
c-62 -59 -59 -11 -59 -980 0 -871 0 -885 -20 -885 -30 0 -67 20 -79 44 -7 14
-12 159 -13 434 l-3 414 -38 34 -38 35 -344 -3 -345 -3 -26 -27 c-15 -15 -30
-43 -33 -65 l-6 -38 -416 -5 c-460 -6 -447 -4 -489 -73 -19 -31 -20 -59 -20
-1087 0 -1179 -5 -1101 70 -1145 33 -19 54 -20 448 -23 l412 -3 0 -105 c0
-102 -1 -105 -25 -114 -13 -5 -31 -23 -40 -40 -15 -29 -17 -30 -89 -30 l-74 0
-6 35 c-4 20 -21 51 -38 71 -112 127 -308 52 -308 -118 0 -63 24 -108 79 -145
50 -34 143 -32 194 2 36 25 77 88 77 120 0 12 14 15 71 15 67 0 72 -1 103 -35
39 -41 79 -46 120 -14 19 15 26 30 26 54 0 47 -8 64 -41 81 l-29 15 0 104 0
104 278 3 c311 3 320 5 361 78 21 38 21 41 21 1086 0 1170 5 1092 -69 1141
-33 23 -40 23 -308 23 -235 0 -274 2 -279 15 -8 21 15 74 37 85 10 6 159 10
358 10 l340 0 20 -26 c20 -26 21 -37 21 -440 l0 -414 28 -30 c19 -23 39 -33
70 -37 l42 -6 0 -675 c0 -663 0 -676 21 -718 39 -82 48 -84 358 -84 l271 0 0
-124 c0 -116 -1 -125 -20 -131 -28 -9 -53 -60 -45 -95 9 -40 40 -64 82 -64 28
0 42 7 63 32 25 31 29 32 102 32 l76 0 6 -31 c23 -116 178 -169 274 -92 72 57
91 138 51 220 -49 102 -181 130 -269 57 -35 -30 -60 -73 -60 -104 0 -18 -6
-20 -78 -20 -74 0 -79 1 -90 25 -7 14 -23 30 -37 37 -25 11 -25 12 -25 135 l0
123 399 0 c396 0 398 0 431 22 18 13 41 39 51 58 18 33 19 96 19 1618 0 1754
5 1626 -64 1675 -31 22 -35 22 -433 25 l-403 3 0 29 c0 17 4 30 9 30 11 0 -6
57 -19 65 -4 2 -12 -6 -18 -19z m-2 -161 l0 -35 -247 0 c-298 0 -283 6 -283
-116 0 -119 -12 -114 287 -114 236 0 243 -1 243 -20 0 -19 -7 -20 -247 -20
-215 0 -249 -2 -265 -17 -16 -15 -18 -35 -18 -214 0 -193 1 -198 22 -213 19
-14 62 -16 270 -16 137 0 248 -2 248 -5 0 -3 -7 -21 -14 -40 -8 -19 -11 -35
-5 -35 5 0 9 -27 9 -60 l0 -60 -249 0 c-214 0 -252 -2 -265 -16 -12 -11 -16
-36 -16 -90 0 -122 -20 -114 275 -114 248 0 255 -1 255 -20 0 -19 -7 -20 -249
-20 -247 0 -250 0 -265 -22 -13 -18 -16 -56 -16 -210 0 -223 2 -228 95 -228
l55 0 -15 -37 c-11 -26 -12 -38 -4 -43 18 -12 -8 -50 -46 -66 -19 -8 -66 -14
-105 -14 l-70 0 0 893 c0 853 1 893 19 923 36 59 58 64 344 64 l257 0 0 -35z
m829 17 c19 -9 44 -30 55 -45 l21 -28 0 -1588 c0 -1513 -1 -1588 -18 -1614
-10 -16 -32 -37 -50 -47 -30 -19 -53 -20 -419 -20 l-388 0 0 40 0 40 358 0
c392 0 386 -1 417 60 22 42 22 903 1 955 -18 42 -61 65 -121 65 -28 0 -44 4
-40 10 8 14 1 13 -42 -5 -19 -8 -37 -15 -39 -15 -2 0 -4 22 -4 49 0 82 5 81
-281 81 l-249 0 0 30 0 29 360 3 360 3 32 33 33 32 3 368 c2 249 0 379 -8 405
-14 49 -58 77 -123 77 -30 0 -46 4 -42 10 8 14 1 13 -42 -5 -19 -8 -37 -15
-39 -15 -2 0 -4 19 -4 43 0 24 -5 48 -12 55 -9 9 -82 12 -265 12 -246 0 -253
1 -253 20 0 20 7 20 346 20 385 0 398 2 428 65 14 28 16 81 16 337 0 286 -1
305 -20 336 -23 38 -72 62 -125 62 -23 0 -34 4 -30 11 4 5 -10 3 -30 -5 -52
-22 -55 -21 -55 18 0 65 -3 66 -281 66 l-249 0 0 35 0 35 383 0 c344 0 385 -2
416 -18z m-295 -98 c12 -31 6 -131 -8 -143 -9 -8 -153 -10 -517 -9 l-504 3 -3
69 c-2 38 -1 75 2 83 4 11 96 13 515 13 455 0 510 -2 515 -16z m73 -79 c42
-18 46 -18 38 -5 -4 6 13 10 43 10 40 0 54 -5 76 -26 l26 -27 0 -319 0 -319
-25 -24 -24 -25 -356 0 -355 0 0 25 c0 14 5 25 10 25 6 0 4 15 -5 36 -8 20
-15 38 -15 40 0 2 113 4 252 4 220 0 254 2 270 17 16 15 18 35 18 214 0 166
-2 200 -16 213 -13 14 -51 16 -265 16 -242 0 -249 1 -249 20 0 19 7 20 243 20
282 0 287 1 287 76 0 24 2 44 5 44 3 0 22 -7 42 -15z m-73 -191 c3 -9 6 -93 6
-189 0 -133 -3 -175 -14 -184 -9 -8 -153 -10 -517 -9 l-504 3 -3 185 c-1 101
0 190 2 197 4 10 110 13 515 13 455 0 510 -2 515 -16z m0 -660 c3 -9 6 -39 6
-68 0 -93 44 -87 -530 -84 l-505 3 -3 83 -3 82 515 0 c459 0 515 -2 520 -16z
m-2126 -81 l3 -43 -255 0 c-252 0 -255 0 -270 -22 -9 -12 -16 -35 -16 -50 0
-33 0 -32 -45 -14 -19 8 -35 11 -35 7 0 -5 -27 -11 -60 -13 -65 -5 -105 -27
-128 -69 -9 -18 -11 -105 -10 -356 l3 -333 28 -27 27 -28 378 -5 377 -5 3 -87
3 -88 -255 0 c-252 0 -255 0 -270 -22 -9 -12 -16 -37 -16 -55 l0 -33 -36 15
c-43 18 -47 18 -39 5 4 -6 -17 -10 -55 -10 -35 0 -73 -6 -90 -15 -59 -31 -60
-38 -60 -445 0 -407 1 -414 60 -445 24 -13 87 -15 395 -15 l365 0 0 -40 0 -41
-419 3 c-403 3 -420 4 -441 23 -52 46 -50 10 -50 1117 0 983 1 1035 18 1068
37 70 39 70 487 68 l400 -3 3 -42z m586 32 c71 -34 66 45 66 -1129 0 -965 -1
-1059 -16 -1082 -34 -51 -51 -54 -344 -54 l-270 0 0 110 0 110 151 0 c169 0
209 10 231 61 7 16 18 27 25 25 8 -4 8 7 -3 36 -8 22 -14 42 -14 44 0 2 27 4
59 4 90 0 91 4 91 230 0 133 -4 191 -12 203 -12 15 -43 17 -268 19 -219 3
-255 5 -255 18 0 13 36 15 249 18 164 1 254 6 263 13 17 15 18 180 1 197 -9 9
-82 12 -265 12 l-253 0 0 145 c0 99 3 145 11 145 11 0 10 6 -7 68 l-6 22 254
0 c184 0 257 3 266 12 17 17 17 409 0 426 -9 9 -82 12 -266 12 -236 0 -253 1
-250 18 3 16 24 17 252 20 164 1 254 6 263 13 17 15 18 180 1 197 -9 9 -82 12
-265 12 l-253 0 0 45 0 45 266 0 c217 0 272 -3 298 -15z m1622 -40 c19 -8 32
-10 29 -5 -4 6 15 10 45 10 41 0 56 -5 75 -25 l25 -24 0 -379 0 -379 -25 -27
-24 -26 -356 0 c-345 0 -355 1 -355 19 0 11 11 33 24 48 24 28 25 28 158 31
146 3 172 10 195 57 9 16 20 33 25 36 9 6 -10 69 -21 69 -14 0 -31 -51 -25
-74 3 -15 -2 -28 -16 -41 -19 -17 -41 -21 -159 -25 -86 -3 -145 -10 -159 -18
-32 -19 -52 -71 -52 -137 l0 -55 -247 0 c-295 0 -283 5 -283 -107 0 -121 -20
-113 275 -113 248 0 255 -1 255 -20 0 -19 -7 -20 -245 -20 -232 0 -246 -1
-265 -20 -19 -19 -20 -33 -20 -297 0 -323 -3 -313 92 -313 32 0 58 -2 58 -5 0
-3 -7 -22 -15 -42 -18 -42 -18 -46 -5 -38 5 3 16 -8 25 -25 26 -50 65 -60 230
-60 l145 0 0 -110 0 -110 -264 0 c-257 0 -264 0 -297 23 -18 12 -39 34 -46 47
-10 19 -13 182 -13 708 l0 682 289 0 289 0 31 25 c16 14 33 36 37 48 4 12 11
24 15 28 9 5 -11 69 -22 69 -11 0 -31 -58 -24 -69 12 -21 -7 -53 -41 -67 -24
-10 -78 -14 -192 -14 l-159 0 19 40 c11 22 24 40 29 40 4 0 1 16 -7 35 -7 19
-14 37 -14 39 0 3 205 7 455 8 392 3 457 5 465 18 5 8 10 106 10 217 0 190 -1
203 -19 213 -12 6 -115 10 -265 10 -239 0 -246 1 -246 20 0 19 7 20 253 20
183 0 256 3 265 12 7 7 12 29 12 50 0 42 5 44 56 23z m-1678 -138 c2 -42 -2
-74 -9 -83 -10 -12 -92 -14 -504 -14 -272 0 -500 3 -509 6 -13 5 -16 22 -16
78 0 40 3 76 7 79 3 4 236 6 517 5 l511 -3 3 -68z m-1053 -105 c4 -4 122 -9
263 -12 220 -4 257 -7 257 -20 0 -13 -36 -15 -250 -17 -241 -3 -251 -4 -267
-24 -16 -18 -18 -45 -18 -203 0 -148 3 -186 16 -204 15 -22 18 -22 274 -22
l259 0 -14 -41 c-18 -49 -18 -52 -5 -44 6 4 10 -13 10 -44 l0 -51 -360 0
c-379 0 -408 3 -424 45 -8 22 -8 658 0 680 4 8 19 22 35 30 34 18 144 21 133
4 -7 -12 26 -5 56 12 12 6 16 -1 22 -38 4 -25 10 -48 13 -51z m2649 72 c3 -9
6 -93 6 -189 0 -133 -3 -175 -14 -184 -9 -8 -153 -10 -517 -9 l-504 3 -3 185
c-1 101 0 190 2 197 4 10 110 13 515 13 455 0 510 -2 515 -16z m-1596 -343 c2
-127 -1 -188 -9 -197 -16 -19 -998 -21 -1017 -2 -13 13 -18 369 -5 381 3 4
236 6 517 5 l511 -3 3 -184z m1596 -477 c12 -31 6 -131 -8 -143 -9 -8 -153
-10 -517 -9 l-504 3 -3 69 c-2 38 -1 75 2 83 4 11 96 13 515 13 455 0 510 -2
515 -16z m94 -110 c13 -4 22 -2 22 5 0 30 110 -2 129 -37 7 -14 11 -169 11
-477 l0 -457 -29 -29 -29 -29 -351 0 -351 0 0 60 0 60 153 0 c134 0 156 2 185
20 18 11 37 31 44 45 6 13 15 22 19 19 12 -7 11 3 -3 43 -7 18 -15 33 -19 33
-11 0 -29 -59 -23 -74 3 -8 -7 -23 -22 -35 -25 -19 -39 -21 -180 -21 l-154 0
0 30 c0 17 5 30 10 30 6 0 4 15 -5 36 -8 20 -15 38 -15 40 0 2 116 4 258 4
187 0 261 3 270 12 9 9 12 89 12 299 0 248 -2 290 -16 303 -13 14 -51 16 -265
16 -242 0 -249 1 -249 20 0 19 7 20 253 20 273 0 277 1 277 53 0 31 -3 31 68
11z m-1693 -134 l0 -75 -515 0 -515 0 -3 64 c-2 35 -1 70 2 78 5 11 93 13 518
11 l513 -3 0 -75z m1600 -22 c3 -13 4 -140 3 -283 l-3 -260 -515 0 -515 0 -3
270 c-1 148 0 275 3 282 3 10 112 13 514 13 l511 0 5 -22z m-2665 -16 c0 -15
7 -38 16 -50 15 -22 18 -22 270 -22 238 0 255 -1 252 -17 -3 -17 -24 -18 -252
-21 -164 -1 -254 -6 -263 -13 -18 -15 -19 -409 -1 -427 7 -7 38 -12 70 -12 61
0 64 -3 48 -45 -6 -16 -6 -30 0 -38 5 -7 22 -28 39 -47 l29 -35 166 -3 166 -3
0 -55 0 -54 -370 0 -371 0 -24 25 -25 24 0 381 0 381 25 24 c20 21 34 25 85
25 33 0 60 -4 60 -10 0 -6 14 -4 33 4 45 20 47 19 47 -12z m1065 -332 l0 -195
-515 0 -515 0 -3 184 c-2 127 1 188 9 197 10 12 96 14 518 12 l506 -3 0 -195z
m-530 -267 c-10 -24 -12 -39 -5 -41 5 -2 10 -17 10 -33 l0 -29 -158 0 c-147 0
-160 1 -181 21 -12 12 -20 28 -17 36 3 8 -1 27 -9 43 -8 16 -15 31 -15 35 0 3
88 5 195 5 l195 0 -15 -37z m405 33 c0 -2 -7 -20 -15 -39 -11 -27 -12 -36 -3
-39 8 -3 2 -14 -14 -31 l-27 -27 -161 0 -160 0 0 30 c0 17 5 30 11 30 6 0 8 7
5 16 -3 9 -9 27 -12 40 l-6 24 191 0 c105 0 191 -2 191 -4z m1195 -18 c-4 -13
-7 -44 -6 -70 l2 -48 -154 0 c-141 0 -157 2 -181 21 -24 19 -38 48 -16 34 13
-8 13 -4 -5 38 -8 20 -15 39 -15 42 0 3 86 5 191 5 l191 0 -7 -22z m-1915
-561 c71 -47 98 -150 51 -188 -35 -28 -85 -25 -110 7 -12 15 -21 37 -21 50 0
12 -12 37 -27 54 -25 30 -30 32 -75 28 -48 -5 -48 -5 -31 15 54 61 151 76 213
34z m2409 -13 c52 -20 93 -80 95 -135 2 -76 -78 -116 -129 -64 -15 14 -25 36
-25 53 0 61 -65 105 -124 83 -24 -10 -26 -9 -16 8 10 20 53 54 80 64 29 11 80
7 119 -9z m-2528 -73 c19 -19 29 -40 29 -58 0 -56 65 -97 121 -76 28 11 28 11
12 -14 -21 -32 -84 -63 -128 -63 -78 0 -146 56 -160 132 -9 48 1 75 33 93 40
21 60 18 93 -14z m499 -1 c26 -26 25 -68 -2 -97 -27 -29 -65 -29 -95 -1 -46
43 -16 118 47 118 17 0 39 -9 50 -20z m1595 -25 c30 -29 32 -64 5 -93 -56 -60
-152 6 -115 78 24 47 72 54 110 15z m331 10 c13 -8 24 -30 28 -55 4 -24 17
-52 32 -67 21 -21 33 -24 70 -21 24 2 44 0 44 -4 0 -14 -63 -58 -97 -67 -94
-26 -203 55 -203 150 0 65 73 102 126 64z"/>
<path d="M3446 5157 c-7 -19 -17 -45 -20 -58 -6 -20 -5 -21 4 -6 6 9 22 17 35
17 13 0 29 -8 34 -17 16 -27 13 -6 -6 48 -10 27 -21 49 -25 49 -4 0 -14 -15
-22 -33z m34 -13 c0 -8 -7 -14 -15 -14 -17 0 -18 2 -9 24 7 18 24 12 24 -10z"/>
<path d="M3580 5175 c0 -9 -9 -15 -24 -15 -27 0 -41 -27 -31 -60 4 -14 15 -20
36 -20 29 0 29 1 29 55 0 30 -2 55 -5 55 -3 0 -5 -7 -5 -15z m0 -55 c0 -23 -4
-30 -20 -30 -23 0 -35 22 -26 45 3 8 15 15 26 15 16 0 20 -7 20 -30z"/>
<path d="M3680 5171 c0 -14 -6 -17 -23 -14 -30 6 -51 -19 -43 -52 6 -22 12
-25 41 -23 l35 2 0 53 c0 29 -2 53 -5 53 -3 0 -5 -8 -5 -19z m-6 -36 c8 -23
-4 -45 -25 -45 -11 0 -22 7 -25 15 -9 23 3 45 25 45 10 0 21 -7 25 -15z"/>
<path d="M3764 5176 c-3 -7 -4 -17 -2 -22 1 -5 -3 -18 -9 -30 -17 -29 -2 -45
38 -42 31 3 35 6 31 25 -2 13 -8 20 -12 18 -15 -9 -22 15 -10 30 6 8 9 19 5
25 -9 14 -35 12 -41 -4z m34 -8 c-6 -18 -28 -21 -28 -4 0 9 7 16 16 16 9 0 14
-5 12 -12z m-8 -42 c0 -2 3 -11 6 -20 4 -12 0 -16 -15 -16 -14 0 -21 6 -21 20
0 11 7 20 15 20 8 0 15 -2 15 -4z"/>
<path d="M3891 5133 c1 -65 5 -61 12 10 2 26 1 47 -4 47 -5 0 -9 -26 -8 -57z"/>
<path d="M3970 5150 c0 -48 -9 -51 -34 -9 -10 17 -20 28 -23 26 -6 -7 47 -87
58 -87 5 0 9 25 9 55 0 30 -2 55 -5 55 -3 0 -5 -18 -5 -40z"/>
<path d="M4000 5140 c-15 -28 4 -60 36 -60 28 0 39 19 30 55 -8 31 -50 35 -66
5z m55 -20 c0 -18 -6 -26 -22 -28 -20 -3 -23 1 -23 28 0 27 3 31 23 28 16 -2
22 -10 22 -28z"/>
<path d="M4095 5149 c-11 -16 -1 -19 13 -3 7 8 8 14 3 14 -5 0 -13 -5 -16 -11z"/>
<path d="M4146 5153 c-3 -3 -6 -11 -6 -17 0 -6 4 -5 9 3 13 21 39 6 44 -26 4
-26 4 -26 6 5 2 47 33 40 43 -8 l6 -35 -1 40 -2 40 -46 2 c-26 1 -49 -1 -53
-4z"/>
<path d="M3681 4863 c1 -32 4 -46 6 -31 3 20 11 28 31 31 l27 4 -27 2 c-21 1
-28 6 -28 20 0 15 8 21 33 24 31 4 31 4 -5 5 l-38 2 1 -57z"/>
<path d="M3990 4899 c0 -15 -5 -19 -19 -14 -20 6 -51 -17 -51 -39 0 -28 25
-48 53 -41 25 7 27 11 27 61 0 30 -2 54 -5 54 -3 0 -5 -9 -5 -21z m-9 -40 c9
-17 8 -25 -5 -37 -12 -13 -18 -13 -30 -2 -19 15 -20 32 -4 48 17 17 26 15 39
-9z"/>
<path d="M3770 4876 c-15 -20 -9 -56 12 -70 14 -8 21 -6 35 9 16 17 17 18 1 6
-19 -14 -48 -9 -48 9 0 5 14 10 30 10 31 0 39 17 18 38 -16 16 -33 15 -48 -2z
m48 -13 c2 -8 -6 -13 -22 -13 -25 0 -33 10 -19 24 10 10 36 3 41 -11z"/>
<path d="M3850 4876 c-15 -20 -9 -56 12 -70 14 -8 21 -6 35 9 16 17 17 18 1 6
-19 -14 -48 -9 -48 9 0 5 14 10 30 10 31 0 39 17 18 38 -16 16 -33 15 -48 -2z
m48 -13 c2 -8 -6 -13 -22 -13 -25 0 -33 10 -19 24 10 10 36 3 41 -11z"/>
<path d="M3571 4673 c1 -32 4 -46 6 -31 3 20 11 28 31 31 l27 4 -27 2 c-21 1
-28 6 -28 20 0 15 8 21 33 24 31 4 31 4 -5 5 l-38 2 1 -57z"/>
<path d="M4093 4711 c-3 -12 -11 -17 -19 -14 -20 8 -44 -15 -44 -43 0 -27 28
-45 58 -37 19 5 22 12 22 59 0 55 -8 70 -17 35z m-5 -50 c2 -13 -1 -28 -7 -34
-17 -17 -45 15 -36 42 9 29 39 23 43 -8z"/>
<path d="M3662 4688 c-24 -24 -8 -78 24 -78 17 0 44 28 44 45 0 17 -27 45 -44
45 -6 0 -17 -5 -24 -12z m46 -27 c4 -29 -9 -44 -31 -35 -17 6 -23 44 -10 58
14 14 38 0 41 -23z"/>
<path d="M3741 4655 l2 -40 6 35 c8 45 32 46 45 3 11 -40 21 -42 34 -5 l10 27
11 -29 c13 -33 26 -26 36 19 l6 30 -14 -30 -14 -30 -8 28 c-9 34 -23 35 -31 1
l-6 -25 -19 30 c-11 19 -25 29 -38 28 -18 -1 -21 -8 -20 -42z"/>
<path d="M3916 4692 c-3 -5 3 -8 12 -8 26 1 26 -18 0 -24 -26 -7 -36 -35 -14
-43 29 -11 56 4 56 32 0 39 -38 69 -54 43z m32 -58 c-9 -9 -21 -13 -27 -10
-20 13 -11 26 16 26 25 0 26 -1 11 -16z"/>
<path d="M4003 4693 c-8 -3 -12 -20 -12 -41 2 -34 2 -34 6 -7 2 17 12 36 21
43 16 12 8 15 -15 5z"/>
<path d="M3446 4228 c-8 -18 -16 -44 -20 -58 -6 -25 -6 -25 5 -2 8 13 21 22
36 22 15 0 27 -8 33 -22 16 -41 11 -4 -7 45 -9 26 -21 47 -25 47 -5 0 -15 -15
-22 -32z m34 -15 c0 -7 -7 -13 -16 -13 -11 0 -14 5 -10 16 3 9 6 21 6 27 0 16
20 -14 20 -30z"/>
<path d="M3580 4244 c0 -10 -6 -14 -15 -10 -8 3 -21 -2 -30 -10 -30 -31 -12
-74 32 -74 21 0 23 4 23 55 0 30 -2 55 -5 55 -3 0 -5 -7 -5 -16z m-2 -51 c-3
-31 -34 -44 -44 -19 -9 24 3 46 26 46 17 0 21 -5 18 -27z"/>
<path d="M3680 4240 c0 -17 -3 -19 -19 -10 -15 7 -23 6 -35 -6 -34 -33 -11
-76 38 -72 25 2 26 5 26 55 0 29 -2 53 -5 53 -3 0 -5 -9 -5 -20z m-6 -35 c8
-23 -4 -45 -25 -45 -11 0 -22 7 -25 15 -9 23 3 45 25 45 10 0 21 -7 25 -15z"/>
<path d="M3762 4236 c1 -13 -3 -31 -11 -40 -20 -24 3 -46 43 -43 27 2 32 5 28
24 -2 13 -8 20 -12 18 -15 -9 -22 15 -10 30 15 18 5 35 -21 35 -16 0 -20 -6
-17 -24z m36 3 c-2 -6 -8 -10 -13 -10 -5 0 -11 4 -13 10 -2 6 4 11 13 11 9 0
15 -5 13 -11z m2 -65 c0 -8 -9 -14 -20 -14 -19 0 -28 28 -13 43 9 9 33 -12 33
-29z"/>
<path d="M3891 4203 c1 -65 5 -61 12 10 2 26 1 47 -4 47 -5 0 -9 -26 -8 -57z"/>
<path d="M3970 4225 c0 -41 -13 -45 -36 -10 -9 14 -19 24 -21 21 -6 -5 50 -85
60 -86 4 0 7 25 7 55 0 30 -2 55 -5 55 -3 0 -5 -16 -5 -35z"/>
<path d="M4010 4220 c-35 -35 7 -92 45 -60 21 18 18 57 -5 70 -15 8 -24 6 -40
-10z m45 -30 c0 -38 -39 -35 -43 3 -3 25 0 28 20 25 17 -2 23 -9 23 -28z"/>
<path d="M4216 4233 c-4 -4 -22 -6 -41 -5 -28 2 -35 -1 -35 -15 0 -14 2 -15 9
-4 13 21 39 6 44 -26 4 -27 4 -27 6 5 1 24 5 32 20 32 15 0 21 -8 24 -37 l4
-38 1 36 c2 35 -17 66 -32 52z"/>
<path d="M4095 4219 c-11 -16 -1 -19 13 -3 7 8 8 14 3 14 -5 0 -13 -5 -16 -11z"/>
<path d="M2080 4079 c0 -15 -5 -19 -15 -15 -21 8 -45 -3 -45 -22 0 -13 3 -12
14 3 12 16 16 17 30 6 9 -7 16 -22 16 -33 0 -27 -30 -35 -47 -12 -14 19 -15
19 -11 -1 2 -15 12 -20 36 -21 l32 -1 0 59 c0 32 -2 58 -5 58 -3 0 -5 -9 -5
-21z"/>
<path d="M2171 4086 c-6 -8 -9 -20 -5 -29 3 -8 1 -18 -5 -22 -14 -8 -14 -42
-1 -50 20 -12 66 5 66 24 0 10 -5 17 -12 14 -14 -5 -27 24 -14 32 15 9 12 32
-4 38 -8 3 -19 0 -25 -7z m24 -26 c-5 -8 -11 -8 -17 -2 -6 6 -7 16 -3 22 5 8
11 8 17 2 6 -6 7 -16 3 -22z m9 -61 c-7 -12 -31 -11 -39 1 -4 6 -4 18 -1 27 6
14 8 14 26 -2 11 -10 17 -22 14 -26z"/>
<path d="M1853 4073 c-3 -10 -12 -34 -19 -53 -12 -29 -12 -32 0 -17 16 21 55
22 62 2 4 -8 10 -15 15 -15 4 0 -1 23 -13 50 -22 52 -34 62 -45 33z m30 -23
c4 -15 0 -20 -14 -20 -21 0 -22 1 -13 24 8 22 21 20 27 -4z"/>
<path d="M1990 4069 c0 -17 -3 -19 -14 -10 -17 15 -44 5 -51 -20 -8 -25 12
-59 33 -58 16 1 16 2 0 6 -25 6 -33 42 -15 61 22 22 51 -2 42 -35 -3 -13 -1
-23 5 -23 5 0 10 23 10 50 0 28 -2 50 -5 50 -3 0 -5 -10 -5 -21z"/>
<path d="M2292 4038 l1 -53 6 45 6 45 29 -42 c16 -24 33 -43 37 -43 5 0 8 24
7 53 l-1 52 -6 -44 -6 -45 -29 42 c-16 23 -33 42 -37 42 -5 0 -8 -24 -7 -52z"/>
<path d="M2418 4059 c-38 -22 -11 -88 30 -74 26 8 33 39 15 64 -16 24 -21 25
-45 10z m41 -18 c13 -24 -9 -57 -33 -48 -19 7 -22 53 -3 60 21 9 26 7 36 -12z"/>
<path d="M2552 4062 c-7 -2 -11 -19 -11 -40 l2 -37 6 35 c4 22 12 35 21 35 10
0 17 -12 19 -35 l4 -35 6 35 c4 22 12 35 21 35 9 0 17 -13 21 -35 l6 -35 2 38
c0 20 -2 37 -6 38 -30 4 -80 5 -91 1z"/>
<path d="M2490 4025 c0 -19 2 -35 4 -35 2 0 6 16 8 35 2 19 0 35 -4 35 -4 0
-8 -16 -8 -35z"/>
<path d="M3482 3933 l1 -58 6 45 6 45 13 -42 c7 -24 17 -43 22 -43 5 0 15 17
22 37 l13 37 6 -40 c6 -35 6 -34 8 19 0 31 -1 57 -4 57 -3 0 -12 -18 -21 -40
-9 -22 -20 -40 -24 -40 -5 0 -14 16 -20 35 -19 56 -30 51 -28 -12z"/>
<path d="M3693 3935 c0 -33 2 -45 4 -27 2 18 2 45 0 60 -2 15 -4 0 -4 -33z"/>
<path d="M3853 3935 c0 -33 2 -48 4 -32 4 23 9 27 38 27 29 0 34 -4 38 -27 2
-16 4 -1 4 32 0 33 -2 48 -4 33 -4 -24 -9 -28 -38 -28 -29 0 -34 4 -38 28 -2
15 -4 0 -4 -33z"/>
<path d="M4190 3971 c0 -14 -6 -17 -24 -14 -17 4 -27 -1 -36 -16 -21 -41 5
-76 49 -64 18 5 21 13 21 59 0 30 -2 54 -5 54 -3 0 -5 -8 -5 -19z m-5 -41 c6
-20 -9 -50 -26 -50 -14 0 -29 37 -23 54 9 23 41 20 49 -4z"/>
<path d="M3718 3967 c-7 -22 7 -80 20 -85 11 -3 11 -1 0 17 -9 16 -10 25 -2
39 8 13 8 20 -1 29 -10 9 -14 9 -17 0z"/>
<path d="M3662 3928 c-1 -21 -6 -38 -12 -38 -5 0 -13 0 -17 0 -5 -1 -11 14
-15 32 -6 31 -6 31 -5 -7 2 -36 4 -40 26 -37 33 3 33 4 28 48 l-4 39 -1 -37z"/>
<path d="M3773 3920 c0 -25 2 -35 4 -22 2 12 2 32 0 45 -2 12 -4 2 -4 -23z"/>
<path d="M3972 3948 c-19 -19 -14 -56 9 -69 17 -9 24 -8 38 6 15 16 15 17 -5
6 -17 -8 -25 -7 -34 4 -11 13 -8 15 19 15 24 0 31 4 31 19 0 28 -37 40 -58 19z
m46 -15 c2 -8 -6 -13 -22 -13 -25 0 -33 10 -19 24 10 10 36 3 41 -11z"/>
<path d="M4049 3943 c-11 -15 -11 -16 1 -5 26 23 41 14 38 -20 -2 -20 -8 -33
-17 -33 -20 0 -25 22 -6 28 12 4 11 5 -2 3 -22 -2 -29 -32 -9 -39 27 -11 56 4
56 28 0 54 -33 74 -61 38z"/>
<path d="M3808 3913 c7 -3 16 -2 19 1 4 3 -2 6 -13 5 -11 0 -14 -3 -6 -6z"/>
<path d="M3560 3754 c-21 -48 -27 -82 -9 -51 5 9 21 17 34 17 13 0 29 -8 35
-17 9 -15 10 -14 4 7 -10 39 -32 90 -39 90 -3 0 -15 -21 -25 -46z m40 -11 c0
-7 -7 -13 -15 -13 -16 0 -19 9 -9 35 5 13 8 14 15 3 5 -7 9 -19 9 -25z"/>
<path d="M3649 3782 c-2 -7 -3 -31 -1 -53 3 -28 9 -39 21 -38 10 0 11 2 4 6
-7 2 -13 18 -13 34 0 41 28 39 32 -3 5 -50 23 -44 21 8 -1 45 -12 70 -20 47
-3 -7 -11 -13 -18 -13 -7 0 -15 6 -17 13 -4 9 -6 9 -9 -1z"/>
<path d="M3908 3780 c-5 -17 3 -90 11 -90 3 0 5 21 4 46 -1 46 -8 65 -15 44z"/>
<path d="M3740 3755 c-16 -19 -5 -61 17 -69 10 -4 23 0 32 11 15 16 15 16 -1
4 -15 -11 -21 -11 -33 -1 -24 20 -17 30 20 30 33 0 35 2 25 20 -13 24 -42 26
-60 5z m50 -5 c0 -5 -12 -10 -26 -10 -14 0 -23 4 -19 10 3 6 15 10 26 10 10 0
19 -4 19 -10z"/>
<path d="M3821 3725 l2 -40 6 35 c9 50 41 55 41 6 0 -20 5 -36 10 -36 12 0 13
50 2 68 -5 6 -20 11 -35 10 -25 -2 -27 -6 -26 -43z"/>
<path d="M3953 3730 c0 -25 2 -35 4 -22 2 12 2 32 0 45 -2 12 -4 2 -4 -23z"/>
<path d="M3981 3748 c-9 -23 0 -51 19 -63 17 -10 50 15 50 38 0 47 -54 65 -69
25z m57 -11 c5 -23 -16 -47 -34 -40 -14 5 -19 44 -7 57 12 12 38 1 41 -17z"/>
<path d="M4073 3764 c-8 -3 -13 -22 -12 -42 1 -38 3 -36 13 11 9 40 39 32 48
-13 l6 -35 -1 40 c-2 32 -6 40 -22 42 -11 1 -26 -1 -32 -3z"/>
<path d="M2081 3773 c1 -32 4 -46 6 -31 3 22 10 28 36 31 l32 4 -32 1 c-25 2
-33 7 -33 21 0 15 8 21 33 24 31 4 31 4 -5 5 l-38 2 1 -57z"/>
<path d="M2392 3814 c-2 -17 -7 -20 -26 -17 -36 7 -53 -29 -31 -63 12 -19 21
-23 38 -18 30 9 29 5 24 65 -2 30 -4 44 -5 33z m-4 -47 c5 -23 -16 -47 -34
-40 -14 5 -19 44 -7 57 12 12 38 1 41 -17z"/>
<path d="M2170 3786 c-15 -20 -9 -56 12 -70 14 -8 22 -7 35 8 17 18 17 18 -3
8 -15 -8 -24 -8 -32 0 -19 19 -14 28 18 28 32 0 37 9 18 28 -16 16 -33 15 -48
-2z m45 -6 c4 -6 -5 -10 -20 -10 -15 0 -24 4 -20 10 3 6 12 10 20 10 8 0 17
-4 20 -10z"/>
<path d="M2251 3786 c-17 -20 -7 -62 16 -70 10 -4 23 0 32 11 15 16 15 16 -1
4 -14 -11 -21 -11 -33 -1 -20 16 -10 30 21 30 19 0 25 5 22 18 -4 22 -41 27
-57 8z m44 -6 c4 -6 -5 -10 -20 -10 -15 0 -24 4 -20 10 3 6 12 10 20 10 8 0
17 -4 20 -10z"/>
<path d="M1971 3583 c1 -32 4 -46 6 -31 3 20 11 28 31 31 l27 4 -27 2 c-21 1
-28 6 -28 20 0 15 8 21 33 24 31 4 31 4 -5 5 l-38 2 1 -57z"/>
<path d="M2500 3625 c0 -8 -7 -15 -16 -15 -14 0 -14 -2 1 -16 9 -9 14 -23 11
-31 -3 -8 -6 -17 -6 -19 0 -2 -9 -4 -19 -4 -24 0 -37 36 -21 55 9 10 9 15 1
15 -6 0 -14 -12 -17 -26 -9 -35 15 -59 50 -50 24 6 26 11 26 56 0 28 -2 50 -5
50 -3 0 -5 -7 -5 -15z"/>
<path d="M2062 3598 c-25 -25 -7 -68 29 -68 25 0 42 26 35 55 -7 27 -42 35
-64 13z m53 -28 c0 -18 -6 -26 -21 -28 -23 -3 -37 18 -27 44 10 25 48 13 48
-16z"/>
<path d="M2141 3573 c1 -28 3 -31 6 -13 3 14 10 31 15 38 8 9 6 12 -6 12 -12
0 -16 -9 -15 -37z"/>
<path d="M2191 3600 c0 -8 6 -28 13 -45 12 -27 14 -28 21 -10 3 11 11 28 16
37 11 22 11 28 0 28 -5 0 -13 -15 -17 -32 l-7 -33 -13 35 c-7 19 -13 28 -13
20z"/>
<path d="M2278 3578 c-10 -28 -12 -30 -19 -12 -5 12 -8 14 -8 4 0 -8 3 -22 9
-30 9 -14 11 -10 35 58 2 6 2 12 -1 12 -3 0 -10 -14 -16 -32z"/>
<path d="M2310 3601 c0 -4 11 -6 25 -3 15 2 25 0 25 -7 0 -6 -8 -11 -19 -11
-22 0 -45 -25 -36 -40 3 -5 20 -9 36 -8 27 2 29 5 29 40 0 36 -2 38 -30 38
-16 0 -30 -4 -30 -9z m48 -43 c-7 -19 -38 -22 -38 -4 0 10 9 16 21 16 12 0 19
-5 17 -12z"/>
<path d="M2391 3568 c2 -35 3 -37 6 -13 3 17 9 36 15 43 8 9 6 12 -6 12 -12 0
-16 -9 -15 -42z"/>
<path d="M3446 3148 c-23 -56 -27 -85 -6 -43 11 22 20 47 20 55 1 25 20 -11
20 -37 0 -13 5 -23 10 -23 6 0 10 -7 10 -17 0 -9 3 -14 6 -11 7 8 -28 108 -39
108 -4 0 -14 -15 -21 -32z"/>
<path d="M3580 3165 c0 -9 -9 -15 -24 -15 -27 0 -41 -27 -31 -60 4 -14 15 -20
36 -20 29 0 29 1 29 55 0 30 -2 55 -5 55 -3 0 -5 -7 -5 -15z m0 -55 c0 -23 -4
-30 -20 -30 -11 0 -23 7 -26 15 -9 23 3 45 26 45 16 0 20 -7 20 -30z"/>
<path d="M3680 3162 c0 -15 -6 -18 -30 -14 -25 3 -30 0 -36 -22 -8 -35 11 -57
47 -54 28 2 29 4 29 55 0 29 -2 53 -5 53 -3 0 -5 -8 -5 -18z m-6 -37 c8 -23
-4 -45 -25 -45 -11 0 -22 7 -25 15 -9 23 3 45 25 45 10 0 21 -7 25 -15z"/>
<path d="M3761 3158 c2 -13 -2 -33 -9 -44 -15 -28 2 -44 44 -41 25 2 30 6 26
24 -2 13 -8 20 -12 18 -15 -9 -22 15 -10 30 15 18 5 35 -21 35 -15 0 -20 -6
-18 -22z m37 1 c-2 -6 -8 -10 -13 -10 -5 0 -11 4 -13 10 -2 6 4 11 13 11 9 0
15 -5 13 -11z m-8 -43 c0 -2 3 -11 6 -20 4 -12 0 -16 -15 -16 -14 0 -21 6 -21
20 0 11 7 20 15 20 8 0 15 -2 15 -4z"/>
<path d="M3891 3123 c1 -65 5 -61 12 10 2 26 1 47 -4 47 -5 0 -9 -26 -8 -57z"/>
<path d="M3970 3146 c0 -46 -12 -52 -34 -15 -10 17 -20 28 -23 25 -6 -6 49
-85 60 -86 4 0 7 25 7 55 0 30 -2 55 -5 55 -3 0 -5 -15 -5 -34z"/>
<path d="M4000 3130 c-15 -28 4 -60 35 -60 26 0 40 28 30 60 -4 13 -15 20 -30
20 -14 0 -29 -9 -35 -20z m55 -20 c0 -18 -6 -26 -22 -28 -20 -3 -23 1 -23 28
0 27 3 31 23 28 16 -2 22 -10 22 -28z"/>
<path d="M4095 3139 c-11 -16 -1 -19 13 -3 7 8 8 14 3 14 -5 0 -13 -5 -16 -11z"/>
<path d="M4146 3143 c-3 -3 -6 -11 -6 -17 0 -6 4 -5 9 3 13 21 39 6 44 -26 4
-26 4 -26 6 5 2 47 33 40 43 -8 l6 -35 -1 40 -2 40 -46 2 c-26 1 -49 -1 -53
-4z"/>
<path d="M2171 2996 c-6 -8 -9 -20 -5 -29 3 -8 1 -18 -5 -22 -14 -8 -14 -42
-1 -50 20 -12 66 5 66 24 0 10 -5 17 -12 14 -14 -5 -27 24 -14 32 15 9 12 32
-4 38 -8 3 -19 0 -25 -7z m24 -26 c-5 -8 -11 -8 -17 -2 -6 6 -7 16 -3 22 5 8
11 8 17 2 6 -6 7 -16 3 -22z m9 -61 c-7 -12 -31 -11 -39 1 -4 6 -4 18 -1 27 6
14 8 14 26 -2 11 -10 17 -22 14 -26z"/>
<path d="M1853 2983 c-3 -10 -12 -33 -20 -52 -7 -19 -11 -36 -9 -38 2 -3 7 5
11 16 9 28 51 28 65 0 21 -39 20 -12 -1 39 -23 54 -35 64 -46 35z m30 -23 c4
-15 0 -20 -14 -20 -21 0 -22 1 -13 24 8 22 21 20 27 -4z"/>
<path d="M1990 2979 c0 -17 -3 -19 -14 -10 -17 15 -44 5 -51 -20 -8 -25 12
-59 33 -58 16 1 16 2 0 6 -25 6 -33 42 -15 61 22 22 51 -2 42 -35 -3 -13 -1
-23 5 -23 5 0 10 23 10 50 0 28 -2 50 -5 50 -3 0 -5 -10 -5 -21z"/>
<path d="M2080 2984 c0 -10 -6 -14 -15 -10 -21 8 -45 -3 -45 -22 0 -13 3 -12
14 3 12 16 16 17 30 6 9 -7 16 -22 16 -33 0 -27 -30 -35 -47 -12 -14 19 -15
19 -11 -1 2 -15 12 -20 36 -21 l32 -1 0 54 c0 29 -2 53 -5 53 -3 0 -5 -7 -5
-16z"/>
<path d="M2292 2948 l1 -53 6 45 6 45 33 -47 c18 -27 35 -48 37 -48 3 0 4 26
3 58 -1 57 -1 57 -7 13 l-6 -45 -29 42 c-16 23 -33 42 -37 42 -5 0 -8 -24 -7
-52z"/>
<path d="M2418 2969 c-38 -22 -11 -88 30 -74 26 8 33 39 15 64 -16 24 -21 25
-45 10z m41 -18 c13 -24 -9 -57 -33 -48 -19 7 -21 38 -4 55 17 17 26 15 37 -7z"/>
<path d="M2579 2967 c5 -7 11 -28 13 -47 l3 -35 5 42 c5 35 2 43 -13 47 -13 3
-15 1 -8 -7z"/>
<path d="M2628 2968 c6 -7 12 -29 15 -48 4 -34 4 -34 5 6 2 31 -2 44 -14 48
-13 5 -14 3 -6 -6z"/>
<path d="M2491 2933 c2 -35 2 -35 6 -8 3 16 10 33 16 37 8 5 6 8 -5 8 -14 0
-18 -8 -17 -37z"/>
<path d="M2540 2935 c0 -19 2 -35 4 -35 2 0 6 16 8 35 2 19 0 35 -4 35 -4 0
-8 -16 -8 -35z"/>
<path d="M3582 2863 l1 -58 6 45 6 45 14 -40 c20 -60 27 -61 47 -8 l19 48 6
-45 6 -45 1 58 c1 31 -2 57 -7 57 -4 0 -16 -21 -26 -46 -19 -50 -26 -48 -45 9
-17 54 -30 45 -28 -20z"/>
<path d="M3863 2865 c0 -33 1 -52 4 -42 6 23 30 22 43 -4 7 -11 14 -18 17 -16
3 3 -2 16 -11 28 -12 18 -13 26 -3 38 10 13 7 12 -15 -2 l-27 -17 -4 38 c-2
23 -4 14 -4 -23z"/>
<path d="M4090 2899 c0 -15 -5 -19 -19 -14 -20 6 -51 -17 -51 -39 0 -28 26
-49 53 -42 25 6 27 10 27 61 0 30 -2 55 -5 55 -3 0 -5 -9 -5 -21z m-6 -42 c16
-25 -16 -56 -38 -37 -19 15 -20 32 -4 48 15 15 28 11 42 -11z"/>
<path d="M3717 2883 c-4 -3 -7 -11 -7 -17 0 -6 4 -5 9 3 13 21 36 7 39 -23 2
-28 -18 -43 -39 -30 -9 5 -7 11 7 21 19 14 19 15 -1 11 -12 -2 -20 -11 -20
-23 0 -16 7 -20 36 -21 34 -2 35 -1 31 30 -7 46 -34 71 -55 49z"/>
<path d="M3811 2887 c2 -1 13 -9 24 -17 19 -14 19 -14 6 3 -7 9 -18 17 -24 17
-6 0 -8 -1 -6 -3z"/>
<path d="M3950 2876 c-15 -20 -9 -56 12 -70 14 -8 21 -6 35 9 16 17 17 18 1 6
-19 -14 -48 -9 -48 9 0 5 14 10 30 10 31 0 39 17 18 38 -16 16 -33 15 -48 -2z
m48 -13 c2 -8 -6 -13 -22 -13 -25 0 -33 10 -19 24 10 10 36 3 41 -11z"/>
<path d="M3791 2864 c0 -11 3 -14 6 -6 3 7 2 16 -1 19 -3 4 -6 -2 -5 -13z"/>
<path d="M3825 2837 c19 -15 19 -16 1 -23 -11 -4 -22 -2 -28 7 -8 12 -9 11 -5
-1 2 -8 15 -15 28 -15 31 0 34 38 4 43 l-20 4 20 -15z"/>
<path d="M3481 2673 c2 -54 2 -55 8 -18 l6 40 14 -37 c7 -21 16 -38 21 -38 5
0 15 17 22 37 l13 37 6 -40 c6 -35 6 -33 8 20 1 65 -6 66 -31 3 l-16 -42 -21
48 c-11 26 -23 47 -26 47 -3 0 -4 -26 -4 -57z"/>
<path d="M3693 2675 c0 -33 2 -45 4 -27 2 18 2 45 0 60 -2 15 -4 0 -4 -33z"/>
<path d="M3930 2705 c0 -22 -4 -25 -34 -25 -28 0 -35 4 -39 23 -2 12 -4 -3 -5
-33 0 -37 2 -47 7 -30 5 19 15 26 38 28 28 3 32 0 36 -25 2 -15 5 -2 6 30 0
31 -1 57 -4 57 -3 0 -5 -11 -5 -25z"/>
<path d="M4190 2711 c0 -14 -6 -17 -24 -14 -17 4 -27 -1 -36 -16 -21 -41 5
-76 49 -64 18 5 21 13 21 59 0 30 -2 54 -5 54 -3 0 -5 -8 -5 -19z m-6 -43 c7
-12 6 -21 -3 -32 -18 -21 -28 -20 -41 5 -9 15 -8 24 1 35 14 17 28 14 43 -8z"/>
<path d="M3718 2707 c-7 -22 7 -80 20 -83 7 -1 8 0 2 3 -12 6 -13 46 -1 59 6
5 4 14 -4 21 -10 9 -14 9 -17 0z"/>
<path d="M3970 2686 c-15 -20 -9 -56 12 -70 14 -8 21 -6 35 9 14 14 14 16 2 7
-17 -13 -49 -7 -49 9 0 5 14 9 30 9 31 0 39 17 18 38 -16 16 -33 15 -48 -2z
m48 -13 c2 -8 -6 -13 -22 -13 -25 0 -33 10 -19 24 10 10 36 3 41 -11z"/>
<path d="M4049 2683 c-11 -15 -11 -16 1 -5 26 23 41 14 38 -20 -2 -20 -8 -33
-17 -33 -22 0 -25 23 -4 28 17 4 17 5 0 6 -21 1 -34 -26 -20 -40 6 -6 22 -7
37 -3 20 5 26 12 26 33 0 47 -36 67 -61 34z"/>
<path d="M3612 2658 c-2 -41 8 -52 38 -43 16 5 20 15 19 43 l-2 37 -6 -35 c-9
-51 -38 -53 -44 -3 l-4 38 -1 -37z"/>
<path d="M3773 2655 c0 -22 2 -30 4 -17 2 12 2 30 0 40 -3 9 -5 -1 -4 -23z"/>
<path d="M3808 2653 c7 -3 16 -2 19 1 4 3 -2 6 -13 5 -11 0 -14 -3 -6 -6z"/>
<path d="M3581 2488 c-12 -28 -19 -53 -16 -56 2 -3 7 3 11 12 8 21 64 22 64 1
0 -8 4 -15 9 -15 5 0 0 25 -12 55 -11 30 -23 55 -27 55 -4 0 -17 -23 -29 -52z
m43 -9 c-7 -12 -34 -11 -34 0 0 5 3 17 7 27 6 16 7 16 19 -1 7 -10 11 -22 8
-26z"/>
<path d="M3669 2525 c-2 -10 -2 -36 -1 -57 3 -28 9 -38 21 -37 10 0 11 2 4 6
-7 2 -13 18 -13 34 0 16 5 29 13 29 8 0 9 3 1 8 -6 4 -13 14 -16 22 -4 11 -6
10 -9 -5z"/>
<path d="M3718 2524 c-5 -26 3 -94 11 -94 7 0 5 99 -2 107 -3 2 -7 -3 -9 -13z"/>
<path d="M3922 2514 c-7 -8 -8 -14 -2 -14 5 0 10 -16 10 -35 0 -27 4 -35 18
-35 12 0 14 2 4 9 -7 4 -12 23 -10 44 2 43 -2 50 -20 31z"/>
<path d="M3766 2501 c-3 -4 6 -6 19 -3 15 2 25 0 25 -7 0 -6 -13 -11 -30 -11
-31 0 -35 -6 -24 -34 6 -16 49 -22 58 -8 2 4 -5 8 -17 7 -36 0 -35 20 1 23 28
3 31 6 22 23 -11 19 -44 26 -54 10z"/>
<path d="M3841 2465 l2 -40 6 35 c9 50 41 55 41 6 0 -20 5 -36 10 -36 12 0 13
50 2 68 -5 6 -20 11 -35 10 -25 -2 -27 -6 -26 -43z"/>
<path d="M3973 2470 c0 -25 2 -35 4 -22 2 12 2 32 0 45 -2 12 -4 2 -4 -23z"/>
<path d="M4000 2490 c-15 -28 4 -60 36 -60 28 0 39 19 30 55 -8 31 -50 35 -66
5z m55 -20 c0 -18 -6 -26 -22 -28 -18 -3 -23 1 -23 21 0 28 9 39 30 35 9 -2
15 -14 15 -28z"/>
<path d="M4091 2465 l2 -40 6 35 c9 51 38 53 44 3 l4 -38 1 43 c2 41 1 42 -28
40 -28 -2 -30 -5 -29 -43z"/>
<path d="M1880 2686 c0 -62 20 -79 21 -18 l0 37 18 -40 18 -40 19 45 19 45 6
-45 6 -45 1 58 c1 31 -2 57 -7 57 -4 0 -16 -21 -26 -47 l-18 -47 -17 44 c-25
64 -40 63 -40 -4z"/>
<path d="M2129 2725 c-2 -10 -2 -36 -1 -57 3 -28 9 -38 21 -37 10 0 11 2 4 6
-7 2 -13 18 -13 34 0 16 5 29 13 29 8 0 9 3 1 8 -6 4 -13 14 -16 22 -4 11 -6
10 -9 -5z"/>
<path d="M2263 2685 c0 -33 2 -48 4 -32 4 23 9 27 38 27 29 0 34 -4 38 -27 2
-16 4 -1 5 32 0 39 -2 51 -7 35 -5 -19 -15 -26 -38 -28 -28 -3 -32 0 -36 25
-2 15 -4 1 -4 -32z"/>
<path d="M2590 2722 c0 -13 -8 -18 -27 -17 -25 0 -28 -3 -28 -35 0 -33 2 -35
33 -36 l32 -1 0 54 c0 29 -2 53 -5 53 -3 0 -5 -8 -5 -18z m-5 -52 c0 -38 -39
-35 -43 3 -3 25 0 28 20 25 17 -2 23 -9 23 -28z"/>
<path d="M2012 2677 c-2 -27 3 -39 14 -44 25 -9 49 11 51 43 l2 29 -11 -32
c-16 -48 -46 -45 -51 5 l-4 37 -1 -38z"/>
<path d="M2173 2670 c0 -25 2 -35 4 -22 2 12 2 32 0 45 -2 12 -4 2 -4 -23z"/>
<path d="M2370 2691 c-8 -15 -8 -27 0 -41 11 -20 44 -27 54 -11 3 4 -6 6 -19
3 -18 -3 -25 0 -25 12 0 11 9 16 26 16 19 0 25 5 22 18 -5 25 -44 27 -58 3z
m50 -1 c0 -5 -9 -10 -20 -10 -11 0 -20 5 -20 10 0 6 9 10 20 10 11 0 20 -4 20
-10z"/>
<path d="M2456 2702 c-3 -5 5 -7 19 -4 21 4 24 1 22 -24 -3 -33 -33 -46 -40
-17 -4 14 -5 13 -6 -4 -1 -20 4 -23 32 -23 33 0 34 0 28 38 -5 28 -12 38 -28
40 -11 2 -24 -1 -27 -6z"/>
<path d="M2208 2673 c6 -2 18 -2 25 0 6 3 1 5 -13 5 -14 0 -19 -2 -12 -5z"/>
<path d="M1966 2517 c-7 -19 -16 -45 -20 -58 -6 -24 -6 -24 5 -1 8 13 21 22
36 22 15 0 27 -8 33 -22 16 -41 11 -4 -7 45 -9 26 -21 47 -25 47 -4 0 -14 -15
-22 -33z m34 -14 c0 -7 -7 -13 -16 -13 -11 0 -14 5 -10 16 3 9 6 21 6 27 0 16
20 -14 20 -30z"/>
<path d="M2048 2533 c-7 -31 6 -86 22 -91 12 -4 13 -2 3 9 -15 15 -17 56 -4
61 5 2 4 11 -3 21 -13 17 -14 17 -18 0z"/>
<path d="M2098 2534 c-5 -26 3 -94 11 -94 7 0 5 99 -2 107 -3 2 -7 -3 -9 -13z"/>
<path d="M2309 2535 c-7 -31 5 -88 19 -91 7 -1 8 0 2 3 -15 7 -13 63 3 63 8 0
9 3 1 8 -6 4 -13 14 -16 22 -3 11 -6 9 -9 -5z"/>
<path d="M2142 2503 c-13 -25 3 -63 27 -63 11 0 22 4 25 9 3 4 -6 6 -19 3 -18
-3 -25 0 -25 12 0 11 9 16 31 16 24 0 30 3 25 16 -3 9 -6 18 -6 20 0 13 -51 1
-58 -13z m53 -3 c4 -6 -5 -10 -19 -10 -14 0 -26 5 -26 10 0 6 9 10 19 10 11 0
23 -4 26 -10z"/>
<path d="M2221 2476 l2 -41 6 35 c4 26 11 35 26 35 15 0 22 -9 27 -35 l6 -35
-1 40 c-2 38 -4 40 -34 41 -32 1 -33 0 -32 -40z"/>
<path d="M2353 2480 c0 -25 2 -35 4 -22 2 12 2 32 0 45 -2 12 -4 2 -4 -23z"/>
<path d="M2384 2506 c-3 -8 -4 -25 -2 -38 2 -18 9 -23 33 -23 28 0 30 3 30 35
0 31 -3 35 -28 38 -17 2 -29 -2 -33 -12z m54 -23 c-3 -31 -34 -44 -44 -19 -9
24 3 46 26 46 17 0 21 -5 18 -27z"/>
<path d="M2472 2478 l1 -43 4 38 c3 28 9 37 23 37 14 0 20 -9 23 -37 l4 -38 1
43 c2 40 1 42 -28 42 -29 0 -30 -2 -28 -42z"/>
<path d="M2230 1666 c0 -19 -6 -26 -27 -29 l-28 -4 28 -2 c22 -1 27 -6 27 -26
0 -14 5 -25 10 -25 6 0 10 11 10 24 0 19 6 26 28 29 l27 4 -27 2 c-23 1 -28 6
-28 26 0 14 -4 25 -10 25 -5 0 -10 -11 -10 -24z"/>
<path d="M3831 1638 c-1 -21 -7 -28 -28 -31 l-28 -4 27 -2 c21 -1 28 -7 31
-28 l4 -28 2 27 c1 21 7 28 29 31 l27 4 -27 2 c-21 1 -28 7 -31 29 l-4 27 -2
-27z"/>
<path d="M4901 3573 c1 -78 6 -74 12 10 2 31 0 57 -5 57 -4 0 -8 -30 -7 -67z"/>
<path d="M4988 3588 l-3 -53 -29 43 c-16 23 -31 40 -33 38 -7 -7 56 -96 67
-96 6 0 10 27 10 60 0 74 -8 79 -12 8z"/>
<path d="M5044 3583 c19 -23 19 -23 0 -45 l-19 -23 22 19 c20 16 25 17 40 5
16 -13 17 -12 4 4 -12 15 -11 20 5 40 l19 22 -22 -19 c-23 -19 -23 -19 -45 0
l-23 19 19 -22z"/>
<path d="M940 3075 c0 -10 83 -115 91 -115 5 0 8 28 7 63 -1 56 -2 57 -5 15
-2 -27 -8 -48 -13 -48 -5 0 -23 20 -40 45 -28 41 -40 53 -40 40z"/>
<path d="M1120 3025 c-9 -11 -16 -13 -24 -5 -16 16 -30 12 -16 -5 10 -12 10
-18 -1 -32 -13 -16 -12 -17 4 -4 14 11 20 11 32 1 9 -7 18 -11 20 -8 3 3 -1
11 -10 18 -14 12 -14 15 1 31 10 11 15 19 12 19 -3 0 -11 -7 -18 -15z"/>
<path d="M811 1758 c1 -35 4 -51 6 -35 4 22 10 27 31 27 38 0 54 14 50 41 -2
20 -9 24 -45 27 l-43 3 1 -63z m77 30 c-2 -18 -11 -24 -35 -26 -30 -3 -33 -1
-33 22 0 23 4 26 36 26 31 0 35 -3 32 -22z"/>
<path d="M1149 1805 c-8 -36 5 -108 21 -113 12 -4 13 -2 3 9 -7 7 -13 28 -13
46 0 20 5 33 13 33 8 0 9 3 1 8 -6 4 -13 14 -16 22 -3 11 -6 9 -9 -5z"/>
<path d="M1533 1760 c0 -36 2 -50 4 -32 2 17 2 47 0 65 -2 17 -4 3 -4 -33z"/>
<path d="M931 1776 c-17 -20 -10 -67 12 -80 41 -26 79 54 40 85 -16 13 -17 12
-5 -3 7 -9 12 -29 10 -45 -2 -22 -8 -28 -28 -28 -20 0 -26 6 -28 28 -2 16 2
35 9 43 6 8 9 14 6 14 -2 0 -10 -6 -16 -14z"/>
<path d="M1024 1775 c-8 -19 3 -35 24 -35 14 0 13 2 -3 13 -10 8 -15 19 -11
25 4 7 5 12 1 12 -3 0 -8 -7 -11 -15z"/>
<path d="M1065 1780 c3 -5 11 -10 16 -10 6 0 7 5 4 10 -3 6 -11 10 -16 10 -6
0 -7 -4 -4 -10z"/>
<path d="M1203 1740 c0 -30 2 -43 4 -27 2 15 2 39 0 55 -2 15 -4 2 -4 -28z"/>
<path d="M1241 1776 c-17 -20 -10 -67 12 -80 37 -24 80 38 49 71 -9 11 -13 13
-9 7 5 -7 7 -25 5 -41 -2 -22 -8 -28 -28 -28 -20 0 -26 6 -28 28 -2 16 2 35 9
43 6 8 9 14 6 14 -2 0 -10 -6 -16 -14z"/>
<path d="M1387 1779 c6 -8 13 -32 16 -54 4 -34 4 -32 3 9 -1 34 -6 51 -16 54
-12 4 -13 2 -3 -9z"/>
<path d="M1436 1774 c-5 -14 -4 -15 9 -4 17 14 19 20 6 20 -5 0 -12 -7 -15
-16z"/>
<path d="M1486 1772 c4 -14 0 -22 -13 -25 -17 -4 -17 -5 0 -6 27 -2 17 -35
-12 -39 -20 -3 -23 0 -18 17 3 12 1 21 -5 21 -5 0 -8 -10 -6 -22 2 -19 9 -23
39 -23 l37 -1 -6 41 c-2 22 -8 44 -13 49 -4 5 -5 0 -3 -12z"/>
<path d="M4547 1783 c-11 -10 -8 -113 3 -113 6 0 10 11 10 24 0 21 5 25 38 28
30 2 38 7 40 27 2 13 -2 28 -10 32 -16 10 -72 12 -81 2z m78 -28 c0 -15 -8
-21 -32 -23 -30 -3 -33 -1 -33 23 0 24 3 26 33 23 24 -2 32 -8 32 -23z"/>
<path d="M1113 1740 c0 -25 2 -35 4 -22 2 12 2 32 0 45 -2 12 -4 2 -4 -23z"/>
<path d="M1330 1738 c0 -49 5 -47 13 5 3 20 2 37 -4 37 -5 0 -9 -19 -9 -42z"/>
<path d="M4889 1769 c-2 -34 3 -95 9 -101 4 -4 6 18 5 48 -1 50 -12 89 -14 53z"/>
<path d="M4665 1736 c-12 -18 -13 -30 -6 -50 6 -14 15 -26 21 -26 6 0 3 11 -5
24 -27 41 10 87 43 54 16 -16 15 -50 0 -68 -11 -12 -10 -12 5 -1 23 18 22 67
-2 81 -29 15 -39 13 -56 -14z"/>
<path d="M4771 1751 c-16 -10 -8 -41 11 -41 9 0 9 3 -2 10 -12 7 -12 12 -2 22
10 10 17 10 35 -1 20 -13 21 -13 8 2 -15 19 -29 21 -50 8z"/>
<path d="M4982 1748 c-18 -18 -15 -64 6 -79 15 -13 16 -12 4 3 -7 9 -12 29
-10 45 2 22 8 28 28 28 20 0 26 -6 28 -28 2 -16 -3 -36 -10 -45 -12 -15 -11
-16 5 -3 33 26 16 91 -23 91 -9 0 -21 -5 -28 -12z"/>
<path d="M5088 1753 c-14 -4 -18 -14 -16 -51 1 -43 2 -44 5 -10 8 70 62 79 65
11 l1 -38 4 33 c6 50 -13 67 -59 55z"/>
<path d="M5183 1753 c-7 -2 -13 -9 -13 -15 0 -6 6 -6 15 2 8 7 21 10 29 7 15
-6 19 -56 5 -72 -5 -7 -1 -11 9 -12 14 -1 17 6 13 40 -4 51 -21 65 -58 50z"/>
<path d="M4853 1705 c0 -27 2 -38 4 -22 2 15 2 37 0 50 -2 12 -4 0 -4 -28z"/>
<path d="M4943 1710 c0 -25 2 -35 4 -22 2 12 2 32 0 45 -2 12 -4 2 -4 -23z"/>
<path d="M1076 1725 c8 -20 -22 -31 -41 -15 -10 8 -15 9 -15 2 0 -17 19 -24
46 -18 23 6 36 46 14 46 -5 0 -7 -7 -4 -15z"/>
<path d="M4810 1703 c5 -2 10 -11 10 -18 0 -7 -5 -16 -10 -18 -6 -3 -5 -4 2
-3 7 2 13 11 13 21 0 10 -6 19 -13 21 -7 1 -8 0 -2 -3z"/>
<path d="M5170 1699 c0 -5 5 -7 10 -4 6 3 10 8 10 11 0 2 -4 4 -10 4 -5 0 -10
-5 -10 -11z"/>
<path d="M4760 1681 c0 -10 19 -25 25 -20 1 2 -3 10 -11 17 -8 7 -14 8 -14 3z"/>
<path d="M5170 1670 c0 -5 5 -10 11 -10 5 0 7 5 4 10 -3 6 -8 10 -11 10 -2 0
-4 -4 -4 -10z"/>
<path d="M810 1535 l0 -65 43 2 42 1 -37 4 c-32 4 -38 8 -38 28 0 19 6 24 33
28 l32 4 -32 1 c-28 2 -33 6 -33 26 0 21 5 25 38 29 l37 4 -42 1 -43 2 0 -65z"/>
<path d="M1279 1583 c0 -10 -1 -37 -2 -61 -1 -23 1 -42 6 -42 4 0 7 27 7 60 0
33 -2 60 -5 60 -3 0 -5 -8 -6 -17z"/>
<path d="M963 1558 c9 -7 18 -31 20 -53 l4 -40 1 46 c2 35 -2 48 -14 53 -25
10 -29 7 -11 -6z"/>
<path d="M1050 1563 c8 -3 22 -11 30 -17 13 -10 13 -9 1 7 -7 9 -21 17 -30 16
-13 0 -14 -1 -1 -6z"/>
<path d="M1116 1554 c-30 -30 -9 -84 33 -84 41 0 58 70 22 90 -27 14 -37 13
-55 -6z m54 -9 c17 -21 4 -65 -19 -65 -30 0 -46 26 -33 55 13 28 34 32 52 10z"/>
<path d="M1222 1558 c-27 -27 -8 -89 28 -87 9 0 6 4 -7 9 -17 7 -23 18 -23 40
0 22 6 33 23 40 13 5 16 9 7 9 -9 1 -21 -4 -28 -11z"/>
<path d="M1390 1563 c8 -3 19 -11 23 -17 6 -7 7 -6 4 4 -2 8 -12 16 -23 17
-13 2 -15 1 -4 -4z"/>
<path d="M1456 1554 c-21 -20 -20 -48 2 -65 14 -11 15 -11 5 1 -19 21 -16 47
9 64 12 9 17 16 11 16 -6 0 -19 -7 -27 -16z"/>
<path d="M4547 1563 c-4 -3 -7 -33 -7 -65 l0 -58 53 2 c50 1 50 2 10 5 -38 4
-43 7 -43 28 0 20 6 24 38 28 l37 4 -37 1 c-33 2 -38 5 -38 26 0 21 5 25 38
29 l37 4 -41 1 c-22 1 -44 -1 -47 -5z"/>
<path d="M5020 1544 c0 -17 -4 -23 -12 -18 -10 6 -10 4 0 -7 18 -19 15 -56 -5
-68 -16 -9 -15 -10 5 -8 20 1 22 6 22 64 0 35 -2 63 -5 63 -3 0 -5 -12 -5 -26z"/>
<path d="M911 1518 c2 -35 3 -37 6 -13 3 17 9 36 15 43 8 9 6 12 -6 12 -12 0
-16 -9 -15 -42z"/>
<path d="M1017 1553 c-11 -11 -8 -58 5 -71 17 -17 43 -15 59 5 13 15 12 15 -7
3 -34 -21 -57 -6 -52 35 4 38 4 38 -5 28z"/>
<path d="M1313 1520 c0 -25 2 -35 4 -22 2 12 2 32 0 45 -2 12 -4 2 -4 -23z"/>
<path d="M1351 1513 c1 -53 6 -49 11 10 2 20 0 37 -4 37 -4 0 -8 -21 -7 -47z"/>
<path d="M1506 1545 c4 -8 8 -15 10 -15 2 0 4 7 4 15 0 8 -4 15 -10 15 -5 0
-7 -7 -4 -15z"/>
<path d="M2225 1505 c-12 -27 -14 -40 -6 -43 6 -2 11 -21 11 -43 l0 -39 -246
0 c-150 0 -253 -4 -265 -10 -18 -10 -19 -23 -19 -221 l0 -209 26 -10 c15 -6
221 -10 514 -10 293 0 499 4 514 10 l26 10 0 209 c0 198 -1 211 -19 221 -12 6
-115 10 -265 10 l-246 0 0 46 c0 27 4 43 10 39 14 -9 12 7 -4 46 l-15 34 -16
-40z m530 -355 l0 -195 -515 0 -515 0 -3 185 c-1 101 0 190 2 197 4 11 107 13
518 11 l513 -3 0 -195z"/>
<path d="M2083 1255 c0 -33 2 -45 4 -27 2 18 2 45 0 60 -2 15 -4 0 -4 -33z"/>
<path d="M2378 1290 c-5 -17 3 -90 11 -90 3 0 5 21 4 46 -1 46 -8 65 -15 44z"/>
<path d="M2124 1267 c-3 -9 -4 -28 -1 -44 3 -23 4 -22 6 10 1 29 5 37 20 37
15 0 21 -9 24 -37 l4 -38 -1 40 c-1 33 -5 41 -24 43 -13 2 -24 -3 -28 -11z"/>
<path d="M2213 1274 c-8 -4 -13 -24 -12 -57 1 -29 3 -44 6 -34 3 10 11 16 18
13 23 -9 47 18 43 49 -3 30 -25 41 -55 29z m45 -33 c4 -26 -13 -42 -35 -34
-14 5 -18 45 -6 57 14 14 38 0 41 -23z"/>
<path d="M2292 1249 c-1 -24 4 -41 16 -50 15 -12 15 -12 5 1 -6 8 -13 31 -16
50 l-4 35 -1 -36z"/>
<path d="M2350 1247 c0 -13 -5 -28 -12 -35 -9 -9 -8 -12 5 -12 13 0 17 9 17
35 0 19 -2 35 -5 35 -3 0 -5 -10 -5 -23z"/>
<path d="M1860 1065 l0 -55 43 2 42 1 -37 4 c-29 3 -38 9 -38 23 0 14 9 20 38
23 l37 4 -37 1 c-30 2 -38 6 -38 21 0 15 8 21 38 24 l37 4 -42 1 -43 2 0 -55z"/>
<path d="M2092 1069 c-2 -48 1 -57 17 -62 27 -7 51 11 51 36 0 27 -18 47 -39
46 -10 0 -7 -4 7 -9 24 -10 29 -41 9 -58 -21 -18 -36 1 -40 53 l-3 50 -2 -56z"/>
<path d="M2320 1101 c0 -15 -5 -18 -21 -14 -15 4 -27 0 -36 -13 -13 -18 -15
-18 -24 -1 -22 39 -78 2 -64 -42 10 -31 65 -38 65 -8 0 8 -3 8 -11 0 -14 -14
-39 -6 -39 13 0 24 49 16 73 -11 16 -18 28 -23 45 -19 19 6 22 13 22 60 0 30
-2 54 -5 54 -3 0 -5 -9 -5 -19z m-90 -31 c0 -5 -9 -10 -20 -10 -11 0 -20 5
-20 10 0 6 9 10 20 10 11 0 20 -4 20 -10z m88 -16 c2 -11 -4 -27 -14 -34 -14
-12 -18 -12 -29 3 -7 10 -11 27 -8 38 7 27 47 22 51 -7z"/>
<path d="M2410 1102 c0 -13 -8 -18 -27 -17 -24 0 -28 -4 -31 -31 -4 -36 15
-55 46 -47 19 5 22 12 22 59 0 30 -2 54 -5 54 -3 0 -5 -8 -5 -18z m-2 -45 c5
-23 -16 -47 -34 -40 -14 5 -19 44 -7 57 12 12 38 1 41 -17z"/>
<path d="M1962 1047 l1 -42 4 38 c6 50 35 48 44 -3 l6 -35 2 38 c1 31 4 38 19
35 10 -2 19 -16 24 -38 l6 -35 -1 40 -2 40 -52 2 -53 3 2 -43z"/>
<path d="M2443 1050 c0 -25 2 -35 4 -22 2 12 2 32 0 45 -2 12 -4 2 -4 -23z"/>
<path d="M2473 1050 c0 -25 2 -35 4 -22 2 12 2 32 0 45 -2 12 -4 2 -4 -23z"/>
<path d="M2502 1084 c11 -3 18 -19 21 -42 l4 -37 -1 40 c-1 32 -5 40 -21 42
-15 1 -15 0 -3 -3z"/>
<path d="M2554 1076 c-3 -8 -4 -25 -2 -38 2 -18 9 -23 31 -23 30 1 33 -4 15
-24 -11 -11 -10 -13 2 -9 10 3 16 21 18 54 3 49 2 50 -28 52 -19 1 -33 -3 -36
-12z m51 -26 c0 -29 -32 -41 -41 -16 -9 24 4 48 23 44 12 -2 18 -12 18 -28z"/>
<path d="M2557 989 c7 -7 15 -10 18 -7 3 3 -2 9 -12 12 -14 6 -15 5 -6 -5z"/>
<path d="M4699 1531 c8 -5 18 -29 21 -53 l7 -43 2 41 c1 39 -12 64 -33 64 -6
0 -5 -4 3 -9z"/>
<path d="M5138 1528 c6 -7 12 -31 15 -53 l4 -40 1 46 c2 35 -2 48 -14 53 -13
5 -14 3 -6 -6z"/>
<path d="M5196 1524 c-22 -21 -20 -61 3 -74 30 -15 38 -12 13 6 -26 18 -28 41
-5 66 20 22 11 24 -11 2z"/>
<path d="M4652 1483 c1 -41 2 -43 5 -13 3 19 9 41 15 47 8 10 6 13 -6 13 -13
0 -16 -10 -14 -47z"/>
<path d="M4749 1509 c-12 -24 2 -69 22 -69 8 0 8 4 -1 15 -7 8 -10 28 -8 45 5
36 3 37 -13 9z"/>
<path d="M4844 1503 c-8 -28 4 -55 27 -60 8 -3 7 0 -3 7 -21 13 -24 50 -6 68
9 9 9 12 0 12 -6 0 -15 -12 -18 -27z"/>
<path d="M4909 1513 c15 -29 14 -39 -5 -57 -8 -9 -11 -16 -5 -16 10 0 31 31
31 47 0 5 -7 18 -16 29 -15 18 -15 18 -5 -3z"/>
<path d="M4949 1509 c-12 -24 2 -69 21 -69 7 0 4 7 -4 16 -19 18 -20 28 -6 55
6 10 8 19 6 19 -3 0 -10 -10 -17 -21z"/>
<path d="M5053 1485 c0 -27 2 -38 4 -22 2 15 2 37 0 50 -2 12 -4 0 -4 -28z"/>
<path d="M5091 1483 c1 -53 6 -49 11 10 2 20 0 37 -4 37 -4 0 -8 -21 -7 -47z"/>
<path d="M5247 1478 c1 -29 -4 -59 -10 -68 -11 -13 -10 -13 6 -1 12 10 17 28
17 67 0 30 -3 54 -7 54 -5 0 -7 -23 -6 -52z"/>
<path d="M1502 1495 c-11 -12 -10 -15 3 -15 8 0 15 7 15 15 0 18 -2 18 -18 0z"/>
<path d="M3822 1486 c-6 -13 -8 -42 -5 -65 l6 -41 -247 0 c-233 0 -247 -1
-266 -20 -19 -19 -20 -33 -20 -210 0 -177 1 -191 20 -210 20 -20 30 -20 536
-18 445 3 516 5 524 18 5 8 10 103 10 211 0 177 -2 197 -18 212 -16 15 -50 17
-265 17 l-247 0 0 30 c0 17 4 30 9 30 11 0 -6 57 -19 65 -4 2 -12 -6 -18 -19z
m532 -152 c9 -23 7 -357 -2 -372 -7 -10 -117 -12 -518 -10 l-509 3 -3 185 c-1
101 0 190 2 197 4 10 110 13 515 13 455 0 510 -2 515 -16z"/>
<path d="M3622 1298 c-22 -22 -15 -76 13 -94 23 -15 27 -15 50 0 18 12 25 25
25 49 0 40 -15 57 -50 57 -14 0 -31 -5 -38 -12z m72 -14 c12 -31 6 -63 -13
-74 -25 -13 -27 -13 -45 6 -19 18 -21 55 -4 72 17 17 55 15 62 -4z"/>
<path d="M3818 1290 c-5 -17 3 -90 11 -90 3 0 5 21 4 46 -1 46 -8 65 -15 44z"/>
<path d="M4038 1289 c-6 -17 4 -89 11 -89 4 0 5 14 3 31 -3 17 0 34 6 38 6 4
5 10 -3 18 -9 8 -15 9 -17 2z"/>
<path d="M3732 1244 c-1 -29 3 -44 13 -48 8 -3 15 -1 15 4 0 6 -4 10 -9 10 -6
0 -12 17 -14 38 l-4 37 -1 -41z"/>
<path d="M3861 1220 c1 -30 3 -47 6 -37 3 12 11 16 23 12 13 -4 24 2 35 19 23
35 5 67 -35 64 -30 -2 -30 -3 -29 -58z m57 21 c4 -28 -17 -45 -35 -29 -14 11
-17 40 -6 52 14 14 38 0 41 -23z"/>
<path d="M3951 1243 c-1 -43 9 -54 42 -45 13 3 17 14 15 41 l-1 36 -4 -32 c-2
-18 -8 -33 -14 -33 -5 0 -12 0 -16 0 -5 -1 -11 16 -14 37 l-6 38 -2 -42z"/>
<path d="M3778 1235 c-3 -24 0 -35 9 -35 8 0 13 13 13 35 0 19 -4 35 -9 35 -5
0 -11 -16 -13 -35z"/>
<path d="M3460 1065 l0 -55 43 2 42 1 -37 4 c-29 3 -38 9 -38 23 0 14 9 20 33
23 l32 4 -32 1 c-25 2 -33 7 -33 21 0 15 8 21 38 24 l37 4 -42 1 -43 2 0 -55z"/>
<path d="M3681 1066 c0 -33 2 -56 6 -53 3 4 12 2 18 -3 18 -15 44 -1 51 26 8
31 -13 57 -42 51 -17 -3 -24 1 -27 17 -2 12 -5 -6 -6 -38z m64 -7 c4 -13 2
-27 -7 -35 -21 -21 -53 4 -44 34 9 28 43 29 51 1z"/>
<path d="M3910 1105 c0 -8 -8 -15 -18 -15 -23 0 -42 -19 -42 -41 0 -27 26 -47
54 -42 24 5 26 9 26 59 0 30 -4 54 -10 54 -5 0 -10 -7 -10 -15z m0 -54 c0 -31
-21 -46 -39 -28 -12 12 -15 40 -4 50 3 4 15 7 25 7 13 0 18 -8 18 -29z"/>
<path d="M4000 1100 c0 -13 -5 -18 -15 -14 -21 9 -45 -14 -45 -42 0 -26 24
-44 51 -37 16 4 19 15 19 59 0 30 -2 54 -5 54 -3 0 -5 -9 -5 -20z m-2 -49 c4
-28 -17 -45 -35 -29 -14 11 -17 40 -6 52 14 14 38 0 41 -23z"/>
<path d="M3563 1083 c-8 -3 -12 -20 -12 -41 l2 -37 6 35 c4 22 12 36 24 38 14
3 17 -4 18 -35 l2 -38 6 35 c8 48 38 53 44 8 l4 -33 1 37 2 36 -42 0 c-24 0
-49 -3 -55 -5z"/>
<path d="M3777 1083 c-4 -3 -7 -19 -7 -34 0 -37 29 -54 56 -34 11 8 14 15 7
15 -6 0 -15 -5 -18 -10 -5 -8 -11 -7 -21 1 -22 18 -16 29 16 29 32 0 37 9 18
28 -13 13 -41 16 -51 5z m48 -13 c4 -6 -5 -10 -20 -10 -15 0 -24 4 -20 10 3 6
12 10 20 10 8 0 17 -4 20 -10z"/>
<path d="M4073 1084 c-8 -3 -13 -22 -12 -42 1 -38 3 -36 13 11 9 40 39 32 48
-13 l6 -35 -1 40 c-2 32 -6 40 -22 42 -11 1 -26 -1 -32 -3z"/>
<path d="M4152 1078 c-26 -26 -6 -68 31 -68 13 0 17 -5 13 -15 -3 -8 -1 -15 3
-15 25 0 29 95 5 104 -24 9 -39 7 -52 -6z m49 -5 c8 -47 4 -59 -17 -55 -25 5
-36 24 -28 47 6 15 43 21 45 8z"/>
<path d="M4032 1050 c0 -19 2 -27 5 -17 2 9 2 25 0 35 -3 9 -5 1 -5 -18z"/>
<path d="M4150 990 c0 -5 5 -10 11 -10 5 0 7 5 4 10 -3 6 -8 10 -11 10 -2 0
-4 -4 -4 -10z"/>
<path d="M1504 1453 c-10 -15 -15 -16 -33 -5 -12 7 -21 8 -21 3 0 -13 30 -22
51 -16 11 4 19 13 19 21 0 18 -3 18 -16 -3z"/>
<path d="M4806 1455 c-11 -8 -15 -15 -9 -15 6 0 16 7 23 15 16 19 11 19 -14 0z"/>
<path d="M2222 878 c-8 -21 -9 -34 -2 -36 6 -2 10 -50 10 -118 0 -69 4 -114
10 -114 6 0 10 45 10 114 0 70 4 116 10 118 12 4 -6 68 -19 68 -4 0 -12 -15
-19 -32z"/>
<path d="M3819 878 c-10 -24 -10 -33 -1 -36 8 -2 12 -38 12 -118 0 -69 4 -114
10 -114 6 0 10 45 10 115 0 66 4 115 9 115 11 0 -6 57 -19 65 -4 3 -14 -10
-21 -27z"/>
<path d="M2013 455 c0 -38 2 -53 4 -32 2 20 2 52 0 70 -2 17 -4 1 -4 -38z"/>
<path d="M3546 504 c-9 -8 -16 -31 -16 -49 0 -41 22 -65 60 -65 32 0 60 31 60
65 0 55 -67 86 -104 49z m78 -10 c20 -20 20 -43 0 -72 -17 -24 -53 -29 -72
-10 -7 7 -12 26 -12 43 0 17 5 36 12 43 17 17 54 15 72 -4z"/>
<path d="M2361 453 c0 -35 2 -63 7 -63 4 0 6 21 4 48 -5 75 -10 82 -11 15z"/>
<path d="M3770 457 c0 -31 3 -58 8 -60 9 -6 8 100 -1 110 -4 3 -7 -19 -7 -50z"/>
<path d="M4033 455 c0 -33 2 -45 4 -27 2 18 2 45 0 60 -2 15 -4 0 -4 -33z"/>
<path d="M2090 483 c8 -3 19 -11 23 -17 6 -7 7 -6 4 4 -2 8 -12 16 -23 17 -13
2 -15 1 -4 -4z"/>
<path d="M2198 479 c19 -7 23 -15 20 -41 -2 -28 -7 -33 -28 -33 -22 0 -25 4
-25 38 0 20 -3 37 -7 37 -5 0 -7 -28 -7 -62 1 -35 4 -53 6 -42 3 16 9 20 24
17 26 -7 49 14 49 46 0 30 -16 51 -39 50 -10 0 -7 -4 7 -10z"/>
<path d="M2412 478 c-19 -19 -14 -28 18 -39 17 -6 30 -17 30 -25 0 -17 -31
-18 -49 -1 -11 10 -13 9 -9 -3 6 -20 52 -25 66 -8 14 17 5 30 -32 46 -22 10
-26 16 -17 25 9 9 16 9 31 -1 11 -7 20 -8 20 -3 0 8 -23 21 -39 21 -4 0 -12
-5 -19 -12z"/>
<path d="M3868 480 c19 -8 23 -16 20 -42 -2 -28 -7 -33 -28 -33 -21 0 -26 6
-31 40 -5 33 -6 29 -7 -25 0 -36 3 -56 6 -45 5 13 16 20 31 20 34 0 54 33 38
65 -7 14 -21 26 -32 27 -16 2 -16 1 3 -7z"/>
<path d="M4110 483 c8 -3 19 -11 23 -17 6 -7 7 -6 4 4 -2 8 -12 16 -23 17 -13
2 -15 1 -4 -4z"/>
<path d="M2053 435 c0 -27 2 -38 4 -22 2 15 2 37 0 50 -2 12 -4 0 -4 -28z"/>
<path d="M2251 453 c-1 -45 8 -63 33 -62 16 1 17 2 4 6 -10 2 -20 14 -23 26
-2 12 -6 31 -8 42 -3 12 -5 8 -6 -12z"/>
<path d="M2318 440 c-2 -22 0 -40 4 -40 5 0 8 18 8 40 0 22 -2 40 -4 40 -2 0
-6 -18 -8 -40z"/>
<path d="M3672 443 c-2 -47 8 -58 44 -49 21 6 24 12 23 49 l-2 42 -6 -40 c-5
-31 -11 -41 -28 -43 -19 -3 -22 2 -26 40 l-4 43 -1 -42z"/>
<path d="M3920 452 c0 -35 22 -67 41 -59 10 4 9 6 -3 6 -14 1 -18 10 -18 41 0
22 -4 40 -10 40 -5 0 -10 -13 -10 -28z"/>
<path d="M3988 439 c-2 -22 0 -43 4 -45 4 -3 8 15 8 40 0 57 -7 60 -12 5z"/>
<path d="M4081 465 c0 -13 11 -25 34 -36 19 -9 35 -12 35 -7 0 5 -13 14 -29
19 -17 6 -32 18 -34 27 -4 13 -5 13 -6 -3z"/>
<path d="M4089 397 c5 -5 19 -7 32 -5 20 3 19 5 -9 9 -20 3 -29 2 -23 -4z"/>
<path d="M3613 286 c-4 -8 -6 -39 -3 -68 l4 -53 6 45 c3 31 10 46 22 48 13 3
17 -6 20 -39 2 -27 8 -44 18 -47 12 -4 13 -2 3 9 -15 15 -17 76 -4 81 5 2 3 9
-5 16 -8 7 -14 8 -14 2 0 -5 -10 -10 -21 -10 -18 0 -19 2 -9 15 8 10 9 15 2
15 -6 0 -15 -6 -19 -14z"/>
<path d="M3880 275 c0 -22 -2 -24 -19 -14 -20 13 -51 6 -51 -11 0 -6 7 -6 19
2 15 9 23 9 35 -1 20 -17 20 -40 0 -62 -15 -16 -14 -17 5 -12 18 5 21 13 21
64 0 33 -2 59 -5 59 -3 0 -5 -11 -5 -25z"/>
<path d="M4258 279 c-8 -23 8 -103 20 -105 7 -1 8 0 2 3 -12 6 -13 80 -1 85 5
2 3 8 -4 15 -9 8 -15 9 -17 2z"/>
<path d="M4315 220 c0 -55 1 -59 9 -32 5 19 5 45 0 64 -8 27 -9 23 -9 -32z"/>
<path d="M3345 242 c-3 -16 -1 -39 4 -53 8 -20 10 -16 10 29 1 58 -4 67 -14
24z"/>
<path d="M3394 255 c-7 -17 3 -35 19 -34 9 0 9 2 0 6 -7 2 -13 12 -13 20 0 11
7 14 25 11 13 -3 22 -1 19 3 -9 14 -44 10 -50 -6z"/>
<path d="M3493 264 c-7 -3 -13 -13 -13 -22 0 -13 2 -13 14 3 21 29 44 12 49
-37 4 -40 4 -39 3 7 -1 42 -4 50 -21 52 -11 1 -26 -1 -32 -3z"/>
<path d="M3722 258 c-7 -7 -12 -24 -12 -38 0 -47 43 -67 71 -33 13 15 12 15
-7 3 -33 -20 -56 -6 -52 32 4 42 43 53 57 16 6 -14 10 -17 10 -7 1 19 -18 39
-39 39 -9 0 -21 -5 -28 -12z"/>
<path d="M3985 261 c-3 -6 -11 -9 -16 -6 -5 4 -8 -14 -7 -42 1 -40 2 -42 5
-13 2 19 11 41 20 47 9 7 14 15 11 19 -3 3 -9 0 -13 -5z"/>
<path d="M4023 220 c0 -30 2 -43 4 -27 2 15 2 39 0 55 -2 15 -4 2 -4 -28z"/>
<path d="M4061 256 c-16 -19 -10 -68 9 -74 13 -4 13 -3 2 11 -20 24 -11 61 15
65 28 4 42 -39 22 -65 -10 -12 -10 -15 -1 -9 7 4 12 2 12 -6 0 -8 -6 -20 -12
-27 -11 -11 -10 -13 2 -9 11 3 16 22 18 64 3 59 3 60 -26 62 -16 1 -35 -4 -41
-12z"/>
<path d="M4173 264 c-7 -3 -13 -13 -13 -22 0 -13 2 -13 14 3 21 29 44 12 49
-37 4 -40 4 -39 3 7 -1 42 -4 50 -21 52 -11 1 -26 -1 -32 -3z"/>
<path d="M3583 220 c0 -25 2 -35 4 -22 2 12 2 32 0 45 -2 12 -4 2 -4 -23z"/>
<path d="M3801 222 c-1 -20 18 -52 31 -52 7 0 5 7 -4 18 -9 9 -18 24 -21 32
-4 10 -6 11 -6 2z"/>
<path d="M3439 212 c13 -9 13 -13 0 -28 -12 -15 -12 -17 1 -12 8 2 15 13 15
23 0 10 -7 20 -15 22 -13 4 -13 3 -1 -5z"/>
<path d="M3390 191 c0 -10 19 -25 25 -20 1 2 -3 10 -11 17 -8 7 -14 8 -14 3z"/>
</g>
</svg>
