<?xml version="1.0" standalone="no"?>
<!DOCTYPE svg PUBLIC "-//W3C//DTD SVG 20010904//EN"
 "http://www.w3.org/TR/2001/REC-SVG-20010904/DTD/svg10.dtd">
<svg version="1.0" xmlns="http://www.w3.org/2000/svg"
 width="872.000000pt" height="300.000000pt" viewBox="0 0 872.000000 300.000000"
 preserveAspectRatio="xMidYMid meet">

<g transform="translate(0.000000,300.000000) scale(0.100000,-0.100000)"
fill="#000000" stroke="none">
<path d="M4871 2794 c-19 -25 -21 -40 -21 -206 0 -177 0 -179 25 -203 22 -23
31 -25 120 -25 l97 0 -7 -31 c-5 -24 -4 -30 5 -24 7 4 16 1 22 -6 6 -9 7 -2 2
21 l-7 35 23 -25 c12 -14 18 -19 14 -11 -8 16 -4 14 71 -37 33 -22 40 -25 20
-8 -16 14 -33 26 -37 26 -5 0 -8 7 -8 16 0 11 6 14 23 8 55 -17 53 -17 37 -4
-12 9 -7 10 20 4 19 -4 46 -8 60 -8 14 0 27 -4 30 -7 3 -4 20 -4 39 -1 28 6
16 10 -80 27 -108 18 -112 20 -66 25 30 4 56 14 70 28 21 22 22 30 22 206 0
167 -2 186 -19 205 -18 20 -28 21 -227 21 l-208 0 -20 -26z m445 -5 c16 -18
19 -40 22 -167 2 -80 1 -160 -3 -179 -11 -62 -15 -63 -240 -63 -199 0 -204 0
-219 22 -13 18 -16 55 -16 195 0 230 -20 213 238 213 189 0 200 -1 218 -21z"/>
<path d="M4880 2640 c0 -5 9 -10 20 -10 17 0 20 -7 22 -52 l2 -53 3 49 c3 37
8 49 24 53 35 9 20 23 -26 23 -25 0 -45 -4 -45 -10z"/>
<path d="M5278 2632 c-3 -9 -2 -38 2 -62 7 -44 8 -44 10 -10 1 19 4 47 6 63 3
30 -11 37 -18 9z"/>
<path d="M4975 2611 c-9 -9 -5 -70 5 -76 6 -4 10 5 10 21 0 15 7 35 16 45 15
17 15 18 -5 16 -12 -1 -24 -3 -26 -6z"/>
<path d="M5037 2613 c-13 -13 -7 -21 13 -16 11 3 20 1 20 -5 0 -6 -10 -12 -22
-14 -15 -2 -23 -10 -23 -23 0 -16 7 -20 37 -21 36 -1 37 0 32 30 -3 17 -7 37
-10 44 -4 13 -36 17 -47 5z m33 -53 c0 -5 -7 -10 -15 -10 -8 0 -15 5 -15 10 0
6 7 10 15 10 8 0 15 -4 15 -10z"/>
<path d="M5110 2572 c0 -26 4 -41 10 -37 6 3 10 19 10 36 0 19 5 29 15 29 10
0 15 -11 15 -35 0 -19 5 -35 10 -35 14 0 12 67 -2 77 -7 4 -23 8 -35 8 -20 1
-23 -4 -23 -43z"/>
<path d="M5201 2606 c-16 -19 -6 -36 20 -36 10 0 19 -5 19 -11 0 -7 -10 -9
-25 -5 -30 8 -34 -10 -5 -19 21 -7 50 9 50 26 0 5 -11 14 -25 19 -30 11 -33
25 -4 17 13 -3 19 -1 16 6 -6 18 -32 20 -46 3z"/>
<path d="M5631 2794 c-19 -25 -21 -40 -21 -201 l0 -175 29 -29 c27 -26 36 -29
98 -29 64 -1 67 -2 43 -15 -21 -12 -22 -14 -6 -15 36 0 -55 -59 -94 -61 -31
-1 -32 -2 -10 -8 37 -10 8 -23 -37 -16 -34 5 -32 1 6 -11 9 -3 6 -10 -13 -25
-20 -16 -30 -18 -45 -10 -11 6 -23 11 -28 11 -4 -1 2 -6 15 -13 22 -13 21 -14
-35 -55 -47 -34 -59 -39 -72 -29 -14 10 -14 10 -4 -3 11 -15 13 -14 -315 -250
-30 -22 -48 -26 -145 -31 -152 -8 -147 0 -147 -229 0 -164 2 -179 21 -204 20
-25 24 -26 119 -26 l98 0 2 -270 1 -270 -96 0 -95 0 0 -195 0 -195 198 2 197
3 0 190 0 190 -50 5 -50 6 45 7 c25 5 79 14 120 22 41 7 116 21 165 30 50 9
110 20 135 25 43 9 48 7 107 -33 35 -23 63 -45 63 -49 0 -5 -38 -8 -85 -8
l-85 0 0 -195 0 -195 200 0 200 0 0 195 0 195 -62 1 c-76 1 -74 2 160 59 125
30 168 37 188 30 35 -14 41 -12 19 4 -18 13 -16 15 27 21 43 7 50 4 105 -35
77 -56 84 -64 53 -56 l-25 7 25 -15 c24 -15 22 -15 -47 -16 l-73 0 0 -195 0
-195 195 0 195 0 0 195 0 194 -72 3 -73 3 131 47 c113 41 135 46 165 38 50
-15 71 -11 24 4 -40 13 -40 13 -13 20 27 8 91 -9 203 -54 l50 -20 -40 5 c-38
5 -38 4 -10 -5 17 -6 38 -8 48 -6 9 2 17 1 17 -3 0 -5 15 -13 33 -19 30 -9 28
-10 -30 -11 l-63 -1 0 -195 0 -195 198 2 197 3 0 190 0 190 -85 5 -85 5 80 57
c44 32 87 57 95 57 8 0 67 -13 130 -29 96 -24 106 -28 60 -25 l-55 4 45 -9
c25 -6 56 -8 68 -5 13 3 21 2 18 -3 -3 -5 41 -17 97 -28 99 -18 100 -19 50
-22 l-53 -3 0 -195 0 -194 200 0 200 0 0 195 0 195 -95 0 -95 0 1 238 c0 157
4 230 10 217 8 -16 8 -14 4 10 -2 17 -7 40 -11 53 -6 22 -5 22 94 22 97 0 101
1 122 27 20 26 21 36 18 210 -4 225 2 216 -138 221 l-100 4 0 232 c0 166 3
227 11 216 11 -15 9 -1 -7 58 -6 22 -5 22 80 22 97 0 140 15 150 52 3 13 6 98
6 189 0 153 -2 168 -21 193 l-20 26 -209 0 -209 0 -20 -26 c-19 -25 -21 -40
-21 -193 0 -91 3 -176 6 -189 8 -28 51 -52 96 -53 55 -1 29 -7 -368 -75 l-92
-16 -42 28 c-33 22 -38 29 -25 34 9 3 15 10 13 15 -2 6 21 12 49 15 37 4 60
13 75 28 22 22 23 29 23 206 0 167 -2 186 -19 205 -18 20 -28 21 -227 21 -270
0 -249 20 -249 -227 0 -182 0 -184 25 -208 21 -22 34 -25 97 -26 l73 -1 -75
-19 c-41 -11 -130 -32 -198 -48 l-122 -28 -128 46 -127 46 71 5 c115 8 114 5
114 232 0 175 -1 189 -20 208 -19 19 -33 20 -224 20 -272 0 -251 19 -251 -225
l0 -187 28 -24 c23 -20 39 -24 90 -24 34 0 57 -4 52 -8 -21 -19 -226 -84 -247
-79 -13 3 -95 22 -183 43 l-160 38 60 7 c93 11 95 15 95 233 0 244 20 226
-252 226 l-207 0 -20 -26z m435 8 c28 -18 34 -56 34 -214 0 -132 -3 -168 -16
-186 -15 -21 -20 -22 -215 -22 -119 0 -208 4 -220 10 -18 10 -19 23 -19 197 0
159 2 189 17 205 15 16 35 18 212 18 108 0 201 -4 207 -8z m774 -12 c18 -18
20 -33 20 -193 0 -140 -3 -177 -16 -195 -15 -21 -20 -22 -216 -22 -173 0 -204
2 -220 17 -16 14 -18 34 -18 192 0 144 3 181 16 199 15 21 20 22 215 22 186 0
200 -1 219 -20z m762 3 c16 -14 18 -35 18 -199 0 -153 -3 -185 -16 -198 -13
-14 -47 -16 -219 -16 -199 0 -204 0 -219 22 -13 18 -16 55 -16 195 0 230 -19
213 237 213 169 0 199 -2 215 -17z m767 -9 c19 -25 21 -40 21 -193 0 -135 -3
-171 -16 -189 -15 -21 -20 -22 -218 -22 -159 0 -206 3 -222 14 -17 13 -19 30
-22 188 -3 165 -2 175 18 201 l21 27 199 0 199 0 20 -26z m-239 -468 c-13 -35
-13 -56 0 -36 6 10 10 -62 10 -213 0 -180 -3 -227 -12 -221 -15 9 -292 209
-325 234 -22 17 -21 18 125 122 171 122 183 129 163 105 -8 -10 -11 -20 -8
-23 3 -3 16 10 29 29 26 41 33 42 18 3z m-2283 -26 l3 -50 -43 5 -42 5 43 -11
42 -10 0 -61 0 -60 -27 6 -28 6 24 -13 c21 -13 22 -14 5 -19 -11 -3 -64 -22
-118 -42 l-99 -36 -46 33 c-25 18 -53 37 -61 41 -22 11 30 -32 63 -51 15 -10
27 -20 27 -23 0 -3 -66 -29 -147 -58 -82 -29 -177 -64 -212 -77 -36 -14 -66
-23 -68 -21 -2 2 98 76 222 165 180 130 230 161 248 156 17 -5 19 -4 7 4 -13
10 -11 14 10 31 14 11 34 17 45 15 11 -3 14 -2 7 1 -21 10 5 33 31 27 15 -3
18 -2 9 4 -12 9 9 29 58 58 13 8 13 7 1 -8 -8 -10 -11 -20 -9 -23 3 -3 16 9
28 25 12 17 22 31 23 31 1 0 3 -23 4 -50z m67 25 c6 0 46 -25 90 -54 63 -45
75 -56 60 -62 -16 -6 -16 -7 6 -11 21 -4 19 -6 -19 -17 -24 -7 -60 -10 -80 -7
-32 5 -33 5 -11 -5 l25 -10 -30 -13 c-16 -7 -42 -16 -57 -20 -27 -6 -28 -5
-28 29 0 21 5 35 13 36 10 0 10 2 0 6 -8 3 -13 24 -12 56 0 29 3 46 6 40 2 -7
9 -13 14 -13 5 0 2 16 -6 36 -14 34 -14 35 1 23 9 -8 22 -14 28 -14z m686 -15
c-13 -25 -4 -42 10 -20 7 11 10 1 10 -32 0 -56 0 -56 -103 -29 l-67 17 67 49
c38 27 62 41 54 31 -8 -9 -11 -19 -8 -22 3 -3 13 7 23 21 20 31 32 18 14 -15z
m70 8 c17 -27 20 -28 15 -9 -7 22 -2 20 54 -19 68 -48 68 -50 -19 -70 -30 -6
-63 -14 -72 -17 -16 -4 -18 3 -17 54 1 32 3 50 6 41 2 -10 9 -18 13 -18 6 0 5
11 0 26 -20 52 -11 58 20 12z m-462 -73 c5 -5 -66 -35 -85 -35 -19 0 -174 111
-168 120 4 7 242 -73 253 -85z m342 91 c0 -2 -27 -22 -60 -45 -59 -42 -72 -44
-130 -24 -8 3 25 20 75 38 84 32 115 40 115 31z m256 -28 c49 -17 93 -34 97
-38 5 -4 -12 -11 -38 -14 -41 -7 -52 -4 -83 18 -107 76 -104 80 24 34z m494
18 c-28 -26 -231 -88 -269 -82 -53 8 -57 22 -9 34 128 34 246 60 268 61 21 1
22 -1 10 -13z m152 -26 c6 0 5 7 -3 17 -13 15 -12 15 6 5 11 -6 31 -20 44 -30
l24 -19 -39 -7 c-21 -4 -51 -9 -66 -12 -27 -5 -28 -4 -27 33 0 33 2 35 9 16
13 -33 20 -28 14 10 -6 32 -6 32 10 10 10 -13 22 -23 28 -23z m602 31 c5 -8
-246 -195 -279 -207 -11 -5 -120 64 -113 71 2 2 62 24 133 50 102 36 237 87
252 94 1 1 4 -3 7 -8z m-1889 -32 c66 -17 141 -34 167 -39 26 -5 55 -13 63
-18 15 -8 15 -10 1 -21 -17 -14 -49 -11 -101 9 -24 9 -27 13 -15 21 11 8 8 9
-12 5 -22 -5 -108 20 -228 67 -38 14 15 4 125 -24z m1800 22 c-83 -33 -306
-111 -317 -111 -8 0 -23 6 -33 14 -23 16 -23 16 200 70 138 33 190 43 150 27z
m-608 -21 c-6 -22 8 -28 17 -7 3 6 4 -1 3 -17 -2 -30 -3 -30 -102 -47 -54 -10
-101 -17 -103 -15 -1 2 29 25 68 52 54 36 73 45 79 35 6 -10 10 -9 14 3 9 23
30 20 24 -4z m339 -22 c-71 -17 -122 -26 -128 -20 -5 5 21 14 64 22 40 7 89
16 108 20 93 21 61 5 -44 -22z m-491 -22 c-48 -39 -71 -49 -100 -42 -35 9 -28
15 48 42 82 28 88 28 52 0z m-208 -17 c33 -12 24 -19 -48 -38 -41 -11 -50 -11
-73 4 -35 23 -33 31 12 43 39 11 63 9 109 -9z m557 13 c3 -5 -27 -16 -67 -25
-86 -20 -100 -21 -95 -4 8 21 150 47 162 29z m-1216 -69 c-9 -11 -26 -13 -67
-9 l-56 5 44 -12 44 -13 -26 -17 c-14 -9 -30 -17 -35 -17 -16 0 -92 60 -92 73
0 6 21 19 48 27 44 15 51 15 100 -4 43 -16 50 -21 40 -33z m1282 17 c0 -5
-208 -80 -222 -80 -5 0 -8 16 -8 35 0 38 -10 32 130 68 49 12 57 12 77 -2 12
-9 23 -18 23 -21z m-1089 13 c41 -9 70 -18 64 -20 -77 -25 -113 -29 -156 -15
-56 19 -56 19 -33 37 25 19 36 18 125 -2z m321 -5 c29 -20 30 -22 12 -35 -23
-17 -45 -17 -129 4 -67 16 -69 17 -37 25 17 4 47 12 65 17 49 14 56 13 89 -11z
m528 9 c0 -13 -37 -28 -107 -42 -17 -3 -51 -1 -75 6 l-43 12 50 9 c28 5 66 13
85 18 55 13 90 12 90 -3z m-299 -7 c5 0 9 -4 9 -9 0 -9 -158 -36 -166 -28 -7
7 120 46 134 42 8 -3 18 -5 23 -5z m-922 -51 c31 -24 39 -34 29 -40 -10 -7 -8
-9 6 -9 34 0 12 -9 -84 -34 -64 -17 -100 -21 -111 -15 -10 5 -24 9 -31 8 -7 0
-4 -4 7 -8 16 -7 9 -11 -37 -25 -31 -9 -59 -16 -62 -16 -3 0 -6 18 -6 40 0 37
2 40 19 30 11 -5 26 -10 33 -9 7 0 2 5 -11 10 -13 5 -22 12 -19 15 12 11 115
46 136 45 12 0 22 3 22 8 0 8 39 27 61 30 3 1 24 -13 48 -30z m281 -1 c0 -4
-12 -8 -26 -8 -14 0 -33 -4 -42 -9 -9 -4 -35 -11 -57 -15 l-40 -7 25 18 c14
10 34 16 45 15 15 -2 17 -1 6 6 -11 8 -10 11 4 19 19 11 85 -4 85 -19z m757 8
c7 -6 -107 -38 -124 -34 -11 2 -4 12 22 30 31 21 42 25 67 17 17 -4 33 -10 35
-13z m180 -42 c-2 -2 -27 3 -56 13 -58 18 -56 27 9 40 45 9 45 9 48 -20 2 -16
2 -31 -1 -33z m320 26 c29 -19 53 -38 53 -42 0 -4 -24 -25 -54 -47 l-54 -40
-94 33 c-51 19 -104 38 -117 43 -21 8 -9 15 90 51 63 22 116 40 119 39 3 -1
29 -18 57 -37z m-1077 0 c0 -35 -1 -35 -66 -13 l-49 17 40 12 c65 20 75 18 75
-16z m95 19 c87 -22 85 -26 -14 -43 l-71 -12 0 33 c0 37 14 41 85 22z m350
-14 c-43 -35 -60 -38 -91 -18 l-27 17 49 12 c27 6 60 12 74 13 l25 1 -30 -25z
m-555 -15 c13 -9 13 -10 0 -11 -8 0 3 -6 25 -13 l40 -12 -88 -18 c-48 -9 -96
-14 -107 -11 -12 4 -20 2 -20 -4 0 -15 -36 -14 -59 1 -15 9 -16 14 -6 24 18
19 125 44 160 38 23 -4 27 -3 15 5 -13 9 -12 11 5 11 11 0 27 -5 35 -10z m435
0 c7 -12 -22 -12 -50 0 -17 7 -15 9 12 9 17 1 35 -3 38 -9z m354 -10 c29 -10
55 -21 57 -23 9 -9 -94 -41 -131 -41 -42 0 -179 34 -170 42 6 6 145 40 170 41
11 1 44 -8 74 -19z m-379 -11 l55 -12 -65 -19 c-37 -10 -80 -16 -100 -14 -26
4 -30 3 -15 -4 18 -8 18 -9 -5 -9 -14 0 -34 4 -45 9 l-20 9 20 2 c11 1 4 5
-15 8 -35 7 -35 7 -11 20 25 14 107 30 131 26 8 -2 40 -9 70 -16z m-681 -77
c-35 -7 -68 -11 -73 -9 -5 2 10 17 34 34 l44 30 29 -21 28 -21 -62 -13z m376
49 c-6 -5 -37 -16 -70 -26 -33 -9 -71 -21 -85 -27 -59 -24 -78 -26 -101 -10
l-23 16 34 8 c19 4 51 5 70 3 19 -2 26 -1 15 2 -13 4 9 12 65 23 107 22 106
22 95 11z m423 -7 c8 5 37 -1 127 -25 l39 -11 -33 -14 c-31 -13 -35 -12 -76
16 -53 36 -72 39 -30 4 l30 -25 -55 5 -55 5 45 -9 c25 -6 51 -8 58 -5 8 3 12
0 10 -7 -2 -6 -24 -18 -48 -26 -39 -13 -49 -13 -97 2 -52 17 -54 18 -38 36 9
10 25 16 38 14 12 -2 16 -1 9 2 -10 5 -10 9 -1 20 8 9 8 14 1 14 -6 0 -14 -4
-17 -10 -3 -5 -18 -10 -33 -10 -23 1 -25 2 -9 11 9 6 33 11 52 12 18 2 37 6
41 10 4 4 13 2 20 -4 7 -6 17 -8 22 -5z m582 -71 c3 -2 -6 -12 -19 -22 -21
-16 -28 -16 -79 -3 -143 35 -132 29 -132 71 l0 39 113 -41 c61 -22 114 -42
117 -44z m338 -51 c72 -53 131 -97 129 -98 -2 -2 -32 7 -68 21 -35 13 -122 44
-194 70 -71 25 -138 49 -149 53 -16 7 -11 14 35 49 l54 40 30 -20 c17 -11 90
-63 163 -115z m-2108 90 l0 -39 -91 -20 c-87 -19 -91 -20 -112 -2 -12 9 -20
19 -17 22 5 6 200 75 213 76 4 1 7 -16 7 -37z m865 -7 c-17 -7 -42 -15 -57
-19 -26 -6 -28 -4 -28 23 0 37 14 42 70 23 l45 -16 -30 -11z m665 9 c0 -27 -4
-35 -14 -31 -8 3 -33 11 -56 17 -48 13 -48 15 6 34 59 22 64 20 64 -20z
m-1190 22 c0 -11 -84 -57 -96 -52 -8 3 -14 2 -14 -3 0 -7 -29 -13 -177 -38
-25 -4 -33 -2 -33 10 0 19 135 51 176 42 21 -5 25 -4 15 3 -10 7 3 14 50 25
73 17 79 18 79 13z m430 -31 c0 -29 0 -29 -52 -13 l-39 12 28 12 c46 20 63 17
63 -11z m275 6 c19 -8 19 -8 -2 -19 -16 -9 -29 -9 -54 2 -21 9 -27 15 -18 19
20 8 51 7 74 -2z m-547 -29 l23 -18 -58 -17 c-54 -16 -62 -16 -102 -2 -24 8
-46 13 -48 11 -2 -2 12 -10 33 -16 26 -9 33 -15 23 -20 -22 -13 -291 -101
-295 -97 -8 7 185 137 205 137 11 0 21 4 21 8 0 8 96 27 150 30 14 1 35 -6 48
-16z m226 -2 c14 -5 -5 -13 -62 -27 -69 -16 -84 -17 -94 -6 -14 17 -11 19 37
36 38 13 77 12 119 -3z m247 8 c22 -6 39 -14 39 -17 0 -3 -11 -14 -25 -23 -19
-14 -29 -16 -50 -8 -14 6 -34 10 -43 9 -9 0 -2 -5 16 -10 17 -5 32 -13 32 -17
-1 -6 -132 -102 -152 -110 -4 -2 -8 32 -8 76 l0 79 28 -3 c15 -2 20 -1 12 3
-10 4 0 10 30 18 61 17 76 17 121 3z m492 -3 c33 -7 61 -16 63 -18 3 -3 4 -39
2 -82 l-3 -77 -102 74 c-89 63 -99 74 -80 80 21 6 21 6 -3 7 l-25 2 25 14 c31
18 50 18 123 0z m-1674 -39 c14 -16 -8 -23 -207 -71 -106 -25 -178 -30 -102
-7 19 6 73 25 120 42 148 56 170 60 189 36z m211 1 c0 -9 -24 -18 -70 -26 -97
-18 -114 -1 -20 20 95 22 90 21 90 6z m153 -46 c-44 -32 -92 -66 -106 -76
l-27 -17 0 59 0 59 93 15 c50 9 98 17 106 18 8 0 -22 -25 -66 -58z m617 -16
c0 -41 -3 -75 -6 -75 -9 0 -154 105 -154 112 0 7 110 35 143 37 15 1 17 -9 17
-74z m311 63 c46 -13 50 -25 12 -33 -16 -4 -36 -11 -47 -16 -26 -15 -206 -79
-206 -73 0 6 123 94 132 94 4 0 17 9 28 20 23 23 30 24 81 8z m303 -55 c53
-37 94 -68 93 -70 -4 -3 -278 95 -286 102 -6 6 60 34 81 35 9 0 60 -30 112
-67z m250 51 c73 -16 93 -34 38 -34 -17 0 -22 -3 -15 -8 9 -6 -3 -20 -37 -45
-78 -58 -80 -58 -80 7 0 46 3 56 18 57 16 1 16 2 0 6 -19 5 -25 33 -8 33 5 0
43 -7 84 -16z m287 -25 c63 -22 130 -45 149 -51 19 -6 30 -13 24 -15 -10 -3
-172 32 -309 69 -37 9 -38 11 -20 24 26 19 29 19 156 -27z m-1366 22 c6 -11
-9 -16 -75 -30 -25 -5 -89 -21 -144 -35 -54 -15 -101 -25 -103 -23 -7 7 171
62 191 59 11 -1 17 1 13 5 -9 9 48 30 85 32 15 0 29 -3 33 -8z m-721 -29 c5
-8 -182 -48 -190 -40 -4 4 145 45 173 47 6 1 14 -2 17 -7z m166 -47 c0 -30 -2
-55 -5 -55 -3 0 -31 19 -62 42 l-56 42 49 12 c77 18 74 20 74 -41z m653 4 c37
-27 67 -53 67 -58 0 -5 -34 -11 -75 -13 -61 -3 -79 -7 -97 -26 -22 -21 -23
-32 -26 -184 -2 -88 -1 -172 3 -185 10 -42 41 -63 93 -64 26 0 56 -4 67 -8 18
-7 16 -10 -15 -19 -19 -6 -73 -24 -119 -41 l-83 -31 -142 34 c-77 19 -156 37
-173 41 -49 10 -40 25 14 25 34 0 53 6 70 22 22 21 23 26 23 204 0 219 -1 221
-100 232 -61 8 -63 9 -30 16 44 9 230 53 287 68 40 10 68 8 118 -6 11 -4 7 0
-10 8 l-30 14 35 10 c51 15 49 15 123 -39z m617 11 c65 -24 96 -39 80 -40 -14
-1 3 -9 40 -18 l65 -16 -64 -7 c-100 -10 -101 -12 -101 -235 0 -226 -1 -224
118 -224 51 -1 72 -4 61 -10 -8 -5 -97 -28 -197 -51 l-182 -42 -63 23 c-34 12
-89 31 -121 43 -66 23 -58 35 27 36 33 1 53 7 67 21 19 19 20 33 20 208 0 228
2 224 -118 231 l-77 4 125 45 c69 24 133 44 143 44 9 0 17 3 17 8 0 8 22 17
45 18 6 1 57 -17 115 -38z m555 18 c76 -19 85 -23 60 -28 -27 -6 -24 -7 23
-14 29 -5 56 -5 59 -2 4 3 -6 6 -22 6 -16 0 -26 3 -22 6 3 4 23 3 43 -1 29 -5
34 -9 23 -17 -10 -7 -7 -8 14 -4 15 4 27 3 27 -2 0 -5 37 -15 83 -22 45 -8 71
-16 57 -17 -63 -8 -101 -25 -110 -49 -6 -14 -10 -101 -10 -193 0 -154 2 -170
20 -194 17 -21 31 -27 73 -29 l52 -3 -55 -12 c-30 -6 -134 -26 -230 -43 -96
-17 -185 -33 -196 -35 -13 -3 -37 7 -63 26 l-42 30 24 20 c16 12 41 19 70 19
76 0 81 14 85 204 4 169 -5 228 -36 242 -9 4 -55 10 -101 13 l-84 6 64 45 c39
27 73 44 89 43 15 -1 18 0 7 3 -9 3 -15 10 -12 15 8 12 7 12 110 -13z m-1899
-50 l59 -43 -55 -2 c-171 -8 -170 -6 -170 -241 0 -156 2 -171 21 -196 19 -24
26 -26 102 -26 76 -1 80 -2 57 -15 -18 -10 -20 -14 -8 -15 23 0 32 -18 18 -35
-8 -9 -8 -15 -2 -15 5 0 20 15 32 33 12 17 19 24 16 14 -3 -11 -9 -31 -12 -45
-4 -21 -3 -24 5 -12 9 12 11 11 11 -7 0 -19 -6 -23 -32 -25 l-33 -1 33 -4 c24
-3 32 -9 32 -24 0 -10 -6 -19 -12 -20 -10 0 -10 -2 0 -6 7 -2 12 -22 12 -45 0
-36 -2 -39 -22 -33 -18 5 -19 4 -8 -4 19 -13 19 -13 -85 -51 -128 -46 -132
-46 -193 -1 l-54 39 58 41 c31 22 62 41 68 41 6 0 35 -9 65 -20 29 -12 55 -19
57 -17 4 4 -116 51 -156 61 -22 6 -23 5 -7 -4 16 -11 13 -16 -34 -51 -29 -21
-56 -39 -59 -39 -12 0 -285 200 -289 212 -3 10 16 8 66 -8 15 -5 16 -4 3 5
-12 9 -6 10 25 4 22 -4 52 -7 67 -7 15 1 25 -3 22 -7 -6 -10 64 -24 73 -15 4
3 -3 6 -15 6 -11 0 -25 7 -30 16 -7 12 -19 15 -41 12 -17 -2 -31 -2 -31 2 0 3
-28 12 -62 20 l-63 15 51 3 c84 5 88 14 92 206 4 198 -3 231 -56 246 -20 5
-48 11 -62 13 -14 1 9 8 50 15 72 11 164 28 315 56 110 21 117 20 181 -26z
m-309 16 c-3 -3 -12 -4 -19 -1 -8 3 -5 6 6 6 11 1 17 -2 13 -5z m-173 -85 c41
-19 48 -53 44 -229 -4 -214 13 -200 -244 -200 -253 0 -234 -17 -234 211 0 178
5 204 43 219 33 13 361 12 391 -1z m787 -18 c17 -21 19 -41 19 -188 0 -159 -6
-197 -34 -215 -6 -4 -98 -8 -205 -8 -167 0 -197 2 -213 17 -16 14 -18 35 -18
204 l0 188 28 15 c22 13 63 15 215 13 185 -2 189 -2 208 -26z m760 0 c17 -21
19 -41 19 -197 0 -231 19 -214 -235 -214 -255 0 -235 -18 -235 219 l0 180 27
21 c26 20 36 21 216 18 185 -3 189 -4 208 -27z m742 18 c12 -7 25 -17 29 -23
4 -6 8 -93 8 -193 0 -177 -1 -182 -22 -197 -18 -13 -57 -16 -215 -16 -251 0
-233 -17 -233 211 0 178 5 204 43 219 34 13 364 12 390 -1z m788 -18 c17 -21
19 -41 19 -191 0 -154 -2 -169 -21 -194 l-20 -26 -199 0 -199 0 -20 26 c-19
24 -21 40 -21 185 0 169 7 204 42 219 13 5 108 8 211 7 185 -2 189 -2 208 -26z
m-3211 -488 c-7 9 -11 19 -9 21 5 6 303 -210 307 -222 2 -8 -320 -248 -350
-260 -4 -2 -8 104 -8 235 1 218 2 236 16 213 9 -14 13 -17 10 -7 -4 11 -9 31
-12 45 -6 26 -6 26 26 -8 18 -19 27 -27 20 -17z m759 7 l-12 25 34 -25 c19
-14 58 -43 86 -64 29 -20 52 -43 50 -49 -3 -18 -64 -37 -100 -31 -25 3 -28 2
-12 -5 19 -8 18 -10 -10 -21 -16 -7 -42 -16 -57 -20 -27 -8 -28 -7 -28 26 0
25 4 34 18 35 16 1 16 2 0 6 -20 5 -25 43 -5 44 10 0 10 2 0 6 -7 2 -13 17
-12 31 0 15 3 21 6 15 2 -7 9 -13 13 -13 5 0 2 19 -6 43 l-15 42 31 -35 c24
-27 28 -29 19 -10z m2211 6 c-13 -35 -13 -56 0 -36 6 10 10 -62 10 -214 l0
-228 -32 24 c-18 14 -97 71 -175 127 -79 57 -143 106 -143 110 0 4 62 52 138
106 75 54 143 103 151 109 12 9 13 7 8 -6 -10 -28 6 -21 28 11 23 36 29 34 15
-3z m-1628 -22 c-59 -44 -65 -46 -108 -39 -25 3 -44 8 -42 11 6 5 191 73 202
73 6 1 -18 -20 -52 -45z m105 34 c-2 -7 -7 -24 -11 -38 -7 -24 -6 -24 8 -6 15
19 16 16 16 -33 0 -50 -1 -53 -22 -47 -13 3 -49 11 -80 18 -32 7 -58 15 -58
19 0 10 100 81 116 83 8 1 17 5 20 9 11 11 17 8 11 -5z m83 -27 c6 9 23 1 61
-27 l52 -38 -69 -18 c-103 -26 -104 -26 -104 30 0 26 3 58 7 71 l6 24 20 -27
c14 -20 22 -24 27 -15z m109 3 c55 -20 99 -40 96 -44 -2 -4 -19 -10 -37 -14
-28 -5 -43 0 -100 40 -98 66 -96 67 41 18z m511 22 c-6 -8 -67 -33 -136 -56
-112 -38 -127 -40 -160 -30 -20 7 -32 15 -27 19 4 4 51 18 103 30 52 12 113
26 135 31 46 11 76 17 89 19 5 0 3 -5 -4 -13z m-1318 -5 c13 -5 57 -22 98 -36
41 -15 88 -32 103 -37 l29 -11 -49 -19 c-26 -10 -51 -18 -54 -18 -12 0 -159
111 -159 121 0 11 3 11 32 0z m103 -11 c117 -24 184 -43 179 -51 -3 -5 -15 -9
-28 -9 -23 0 -216 66 -225 77 -4 3 3 3 14 -1 11 -4 38 -11 60 -16z m1357 -20
c7 0 6 6 -2 15 -7 8 -9 15 -4 15 13 0 70 -47 64 -53 -3 -3 -31 -8 -62 -12
l-58 -7 0 33 1 34 14 -25 c14 -25 14 -25 9 10 -6 35 -6 35 10 13 10 -13 22
-23 28 -23z m503 20 c-27 -10 -113 -40 -190 -68 -77 -28 -191 -68 -254 -91
-62 -23 -116 -41 -118 -41 -2 0 -3 17 -1 37 l3 38 89 22 c81 21 92 22 112 8
31 -20 41 -19 21 3 -16 17 -9 20 146 56 89 20 173 41 187 46 49 17 54 8 5 -10z
m98 13 c4 -7 -272 -213 -285 -213 -2 0 -28 18 -58 40 -60 45 -69 35 70 84 41
15 116 42 165 60 103 39 102 39 108 29z m-696 -33 c-3 -11 -1 -20 3 -20 5 0
11 8 13 18 3 9 5 3 6 -15 1 -35 11 -30 -122 -54 -37 -6 -70 -10 -72 -7 -9 8
100 82 122 83 13 1 26 5 30 8 13 14 25 6 20 -13z m458 11 c-11 -5 -69 -19
-130 -31 -60 -12 -119 -26 -130 -30 -19 -8 -148 -40 -160 -40 -3 0 -5 6 -5 14
0 14 76 36 140 40 14 1 50 8 80 14 172 37 245 49 205 33z m-575 -24 c0 -2 -24
-20 -54 -41 -42 -29 -60 -35 -80 -30 -14 3 -26 9 -26 13 0 4 84 37 158 60 1 1
2 -1 2 -2z m-857 -33 c33 -8 34 -17 4 -33 -19 -10 -31 -9 -72 7 -49 20 -49 21
-25 31 14 5 34 8 45 5 11 -2 32 -7 48 -10z m607 -9 c37 -14 38 -13 -38 -40
-45 -15 -66 -11 -91 18 -10 12 -7 17 16 25 38 14 71 13 113 -3z m-709 -19 c19
-7 43 -16 54 -20 20 -7 20 -8 1 -21 -11 -9 -35 -13 -60 -11 -23 2 -32 2 -21
-1 46 -9 49 -13 29 -28 -36 -27 -2 -15 43 15 49 33 58 35 92 16 20 -11 21 -14
7 -19 -9 -4 -31 -4 -49 -2 -24 4 -27 3 -12 -3 16 -8 11 -11 -30 -19 -54 -11
-94 -12 -110 -1 -6 3 -23 4 -39 1 l-29 -6 28 -11 c27 -11 22 -13 -72 -34 -77
-17 -106 -20 -127 -12 -37 14 -46 12 -17 -4 23 -13 22 -13 -22 -25 -72 -17
-77 -16 -77 25 0 31 3 35 18 29 33 -14 57 -15 28 -2 -33 16 -31 18 48 47 46
18 62 20 88 11 17 -6 38 -11 47 -10 9 0 -2 6 -24 13 l-40 13 41 13 c40 12 44
11 78 -15 20 -15 39 -26 42 -23 2 3 -7 13 -22 23 -21 13 -24 19 -13 26 11 7 9
9 -6 9 -11 1 3 9 30 20 63 23 56 23 96 6z m237 -5 c86 -23 102 -34 102 -72 0
-16 -1 -29 -3 -29 -2 0 -25 7 -51 16 -51 18 -51 27 4 42 49 14 9 15 -46 1 -31
-8 -52 -8 -72 -1 -15 6 -36 13 -47 17 -19 6 -19 7 5 25 30 24 20 24 108 1z
m362 -32 c0 -4 -13 -12 -28 -18 -22 -9 -43 -8 -107 8 -71 17 -77 19 -50 26 17
4 50 12 75 19 41 11 48 10 77 -8 18 -12 33 -24 33 -27z m498 34 c-2 -13 -23
-23 -75 -35 -63 -16 -75 -16 -105 -4 -38 16 -46 13 87 39 96 19 97 19 93 0z
m-293 -12 c22 -9 14 -11 -80 -26 -22 -3 -48 -8 -57 -11 -10 -3 -18 -1 -18 4 0
10 85 40 115 40 11 0 29 -3 40 -7z m-361 -40 l70 -18 -35 -11 c-19 -6 -55 -13
-81 -17 l-48 -6 0 35 c0 42 1 42 94 17z m365 6 c-2 -2 -21 -15 -42 -31 l-38
-28 -31 20 -31 20 59 12 c32 7 64 13 69 15 11 2 21 -3 14 -8z m104 -6 c7 -7
-103 -41 -134 -41 -7 0 6 13 27 30 39 29 84 34 107 11z m187 -17 c0 -39 -2
-39 -79 -6 l-36 15 45 13 c68 18 70 18 70 -22z m317 -1 c29 -20 53 -39 53 -43
0 -9 -98 -80 -111 -80 -17 0 -219 73 -219 79 0 6 196 79 214 80 5 1 33 -15 63
-36z m-753 -8 c22 -17 15 -18 -35 -8 -28 5 -30 7 -14 14 27 10 27 10 49 -6z
m341 -6 c33 -11 64 -23 69 -26 5 -3 -19 -16 -54 -29 l-63 -23 -94 21 c-51 12
-90 24 -87 27 3 3 42 16 87 27 45 12 82 22 82 23 1 0 28 -8 60 -20z m-772 -6
c-2 -8 7 -13 22 -13 77 0 -40 -36 -143 -44 -15 -1 -36 -5 -48 -9 -12 -4 -28
-1 -40 8 -18 14 -16 15 21 10 l40 -4 -39 12 -40 13 45 13 c113 31 186 36 182
14z m425 -15 c27 -10 26 -11 -23 -24 -27 -8 -64 -14 -80 -14 -17 0 -36 -5 -41
-10 -7 -7 -19 -7 -35 -1 l-24 10 25 1 c17 2 11 5 -19 12 -36 8 -42 12 -28 20
49 27 165 31 225 6z m-1401 -55 c29 -20 50 -40 46 -43 -12 -10 -406 -151 -410
-146 -3 3 297 224 306 226 3 0 29 -17 58 -37z m304 -43 c-6 -3 -47 -14 -90
-24 -76 -17 -80 -17 -107 0 l-29 18 18 -21 18 -21 -176 -42 c-97 -23 -178 -40
-181 -38 -5 5 9 10 326 123 102 36 194 69 205 74 17 7 20 4 23 -27 2 -19 -1
-38 -7 -42z m427 64 c12 -8 22 -18 22 -23 0 -6 -131 -33 -137 -27 -3 3 79 64
87 65 3 1 16 -6 28 -15z m292 -9 c-36 -14 -73 -22 -84 -19 -11 4 -16 2 -12 -4
3 -5 -14 -15 -38 -22 -37 -10 -48 -10 -66 3 -18 13 -19 15 -5 21 9 3 34 6 54
6 21 0 41 3 45 8 8 7 113 28 151 30 11 1 -9 -10 -45 -23z m509 -19 c19 -14 28
-26 20 -26 -12 0 -12 -2 0 -9 9 -6 -1 -13 -36 -25 -45 -15 -53 -15 -96 0 -57
19 -65 29 -35 45 13 7 36 23 51 35 31 26 36 25 96 -20z m307 -23 c-3 -3 -28 0
-56 7 -28 7 -48 15 -45 19 4 3 27 13 53 22 l47 16 3 -30 c2 -16 1 -31 -2 -34z
m104 36 c47 -17 98 -36 113 -41 29 -11 29 -11 9 -30 -19 -19 -22 -20 -90 -4
-114 26 -122 30 -122 71 0 19 1 35 3 35 1 0 40 -14 87 -31z m446 -81 c85 -61
152 -113 150 -115 -3 -3 -335 112 -395 138 -24 10 -23 11 30 49 30 22 56 40
58 40 2 0 72 -50 157 -112z m-1209 80 l28 -11 -40 -13 c-61 -19 -75 -17 -75 9
0 41 17 44 87 15z m242 18 c-3 -3 -22 -17 -43 -31 -29 -19 -46 -24 -67 -20
-47 11 -44 25 6 25 26 0 44 4 40 9 -3 5 7 12 22 14 16 2 32 5 37 6 5 0 7 -1 5
-3z m204 -21 l42 -13 -35 -14 c-33 -14 -37 -13 -70 11 -19 13 -39 29 -45 34
-12 10 46 1 108 -18z m-1011 -12 c-19 -15 -41 -28 -50 -29 -9 -1 -64 -12 -122
-23 -58 -12 -106 -21 -107 -21 -2 0 -3 7 -3 15 0 8 17 18 43 25 23 5 57 14 76
20 21 6 41 6 52 0 10 -6 24 -10 31 -9 7 0 4 4 -7 9 -16 6 -17 9 -5 13 31 12
86 25 105 26 16 0 14 -5 -13 -26z m468 2 c0 -18 -5 -25 -20 -25 -11 0 -20 -4
-20 -9 0 -5 -32 -16 -71 -25 -55 -12 -75 -13 -92 -4 -21 11 -21 12 13 27 19 8
60 15 90 15 38 -1 47 1 30 6 l-25 7 25 10 c70 28 70 28 70 -2z m-280 -25 c24
-18 24 -19 5 -26 -11 -4 -35 -13 -54 -20 -18 -8 -38 -11 -43 -8 -6 4 -13 2
-17 -3 -6 -10 -311 -115 -311 -108 0 2 44 36 98 75 75 55 102 70 120 65 14 -3
21 -2 18 4 -3 5 29 16 72 24 42 8 79 15 82 16 3 0 16 -8 30 -19z m484 1 l40
-17 -24 -17 c-14 -9 -30 -17 -37 -17 -7 0 -13 -4 -13 -9 0 -8 -104 -88 -147
-115 -10 -5 -13 12 -13 74 l0 82 33 -6 c23 -4 27 -4 12 3 -18 8 -17 9 10 16
17 4 41 11 55 15 34 12 39 11 84 -9z m506 -6 c46 -12 69 -44 33 -46 -16 -1
-17 -2 0 -6 14 -4 17 -16 17 -65 0 -47 -3 -58 -12 -51 -7 5 -53 39 -102 74
-88 63 -89 64 -60 70 28 6 28 7 3 8 -40 2 -43 14 -7 27 33 12 42 11 128 -11z
m-710 -96 c0 -61 -3 -78 -12 -73 -43 26 -148 107 -144 111 4 5 132 41 149 42
4 1 7 -35 7 -80z m320 60 l42 -13 -27 -14 c-22 -11 -35 -11 -76 -1 l-50 13 23
18 c13 10 28 16 34 14 7 -3 31 -10 54 -17z m286 -46 c52 -36 92 -68 90 -70 -6
-6 -265 88 -271 97 -4 6 52 32 84 39 2 1 45 -29 97 -66z m254 47 c54 -12 96
-29 73 -30 -6 0 -18 -6 -25 -13 -14 -13 -104 -79 -125 -91 -10 -5 -13 8 -13
52 l0 60 38 -9 c20 -5 48 -8 62 -8 14 1 -2 6 -35 13 -45 8 -61 16 -63 29 -3
14 1 18 15 14 10 -3 43 -11 73 -17z m334 -41 c81 -28 145 -54 142 -56 -2 -2
-83 15 -181 39 -175 42 -176 43 -154 61 12 10 28 16 35 13 6 -2 78 -28 158
-57z m-1964 37 c0 -12 -16 -16 -145 -33 -11 -1 -51 -9 -90 -18 -38 -9 -79 -14
-90 -13 -11 2 18 12 65 22 47 10 114 26 150 36 80 23 110 24 110 6z m220 10
c0 -2 -30 -26 -67 -52 -38 -26 -83 -59 -100 -72 l-33 -24 0 59 0 60 78 15 c80
16 122 21 122 14z m328 -9 c9 -11 1 -16 -38 -26 -32 -8 -55 -9 -66 -3 -14 8
-9 12 27 25 56 20 64 20 77 4z m461 -31 l45 -13 -75 -27 c-41 -15 -87 -32
-102 -38 -47 -18 -39 -4 26 44 34 26 62 47 62 47 0 0 20 -5 44 -13z m-1009
-52 l0 -55 -60 42 c-33 23 -58 44 -55 47 3 3 22 8 42 12 74 15 73 16 73 -46z
m424 47 c5 -8 -194 -64 -202 -56 -4 3 167 63 185 64 6 1 14 -3 17 -8z m-781
-38 c-7 -2 -19 -2 -25 0 -7 3 -2 5 12 5 14 0 19 -2 13 -5z m-46 -9 c-3 -3 -12
-4 -19 -1 -8 3 -5 6 6 6 11 1 17 -2 13 -5z m-167 -259 l0 -185 -185 0 -185 0
0 185 0 185 185 0 185 0 0 -185z m770 0 l0 -185 -185 0 -185 0 0 185 0 185
185 0 185 0 0 -185z m760 0 l0 -185 -185 0 -185 0 0 185 0 185 185 0 185 0 0
-185z m760 0 l0 -185 -185 0 -185 0 0 185 0 185 185 0 185 0 0 -185z m760 0
l0 -185 -180 0 -180 0 0 185 0 185 180 0 180 0 0 -185z"/>
<path d="M5640 2640 c0 -5 9 -10 20 -10 17 0 20 -7 20 -51 0 -31 4 -48 10 -44
6 3 10 26 10 51 0 32 4 44 15 44 8 0 15 5 15 10 0 6 -20 10 -45 10 -25 0 -45
-4 -45 -10z"/>
<path d="M6042 2633 c-5 -10 -7 -38 -3 -63 l6 -45 11 63 c10 61 4 80 -14 45z"/>
<path d="M5741 2570 l1 -45 8 35 c5 19 13 36 19 38 19 6 12 21 -9 19 -17 -1
-20 -8 -19 -47z"/>
<path d="M5803 2613 c-24 -9 -13 -20 13 -15 19 3 25 1 20 -7 -4 -6 -16 -11
-27 -11 -15 0 -20 -6 -17 -22 2 -18 10 -23 35 -23 30 -1 31 1 26 30 -9 57 -15
63 -50 48z m37 -53 c0 -5 -9 -10 -21 -10 -11 0 -17 5 -14 10 3 6 13 10 21 10
8 0 14 -4 14 -10z"/>
<path d="M5875 2612 c-9 -9 -5 -71 5 -77 6 -4 10 8 10 29 0 25 4 36 15 36 10
0 15 -10 15 -29 0 -17 5 -33 11 -36 7 -5 9 8 7 37 -3 39 -5 43 -30 44 -15 1
-30 -1 -33 -4z"/>
<path d="M5964 2605 c-7 -18 3 -35 22 -35 8 0 14 -5 14 -11 0 -7 -10 -9 -27
-4 -24 6 -25 4 -13 -10 17 -20 54 -16 58 7 2 12 -6 21 -22 28 -34 13 -33 24 1
15 23 -5 25 -4 14 9 -17 20 -40 21 -47 1z"/>
<path d="M6410 2640 c0 -5 7 -10 15 -10 11 0 15 -12 15 -44 0 -25 5 -48 10
-51 6 -4 10 13 10 44 0 44 3 51 20 51 11 0 20 5 20 10 0 6 -20 10 -45 10 -25
0 -45 -4 -45 -10z"/>
<path d="M6802 2633 c-11 -22 -3 -103 9 -103 5 0 9 15 10 33 0 17 2 44 4 60 4
30 -10 36 -23 10z"/>
<path d="M6500 2572 c0 -26 4 -41 10 -37 6 3 10 19 10 36 0 16 5 29 10 29 6 0
10 4 10 8 0 4 -9 8 -20 8 -17 0 -20 -7 -20 -44z"/>
<path d="M6559 2604 c-11 -13 -9 -14 14 -9 16 5 27 3 27 -3 0 -6 -10 -12 -22
-14 -15 -2 -23 -10 -23 -23 0 -16 7 -20 32 -20 30 -1 31 1 26 30 -8 47 -11 55
-26 55 -8 0 -20 -7 -28 -16z m41 -44 c0 -5 -9 -10 -21 -10 -11 0 -17 5 -14 10
3 6 13 10 21 10 8 0 14 -4 14 -10z"/>
<path d="M6641 2571 c2 -44 2 -45 8 -11 9 51 38 53 44 3 4 -34 4 -33 3 7 -1
42 -3 45 -28 46 -27 1 -28 -1 -27 -45z"/>
<path d="M6727 2614 c-14 -15 -6 -35 18 -44 32 -12 32 -24 0 -17 -16 3 -24 0
-22 -7 2 -6 14 -11 28 -11 31 0 39 34 10 42 -12 3 -21 10 -21 15 0 6 9 8 21 5
13 -3 19 -1 16 6 -4 14 -39 21 -50 11z"/>
<path d="M7170 2641 c0 -5 9 -11 19 -14 16 -4 21 -16 24 -53 l3 -49 2 53 c2
45 5 52 22 52 11 0 20 5 20 10 0 6 -20 10 -45 10 -25 0 -45 -4 -45 -9z"/>
<path d="M7568 2632 c-3 -9 -2 -38 2 -62 7 -44 8 -44 10 -10 1 19 4 47 6 63 3
30 -11 37 -18 9z"/>
<path d="M7278 2612 c-13 -2 -18 -13 -18 -37 0 -19 5 -37 10 -40 6 -4 10 8 10
29 0 19 6 36 13 39 17 6 5 14 -15 9z"/>
<path d="M7327 2613 c-13 -13 -7 -21 13 -16 11 3 20 1 20 -5 0 -6 -10 -12 -22
-14 -15 -2 -23 -10 -23 -23 0 -16 7 -20 35 -21 35 -1 36 0 32 35 -5 43 -34 66
-55 44z m33 -53 c0 -5 -7 -10 -15 -10 -8 0 -15 5 -15 10 0 6 7 10 15 10 8 0
15 -4 15 -10z"/>
<path d="M7401 2570 c2 -43 2 -44 8 -10 9 51 39 53 43 3 3 -30 6 -34 12 -19
15 31 -5 71 -37 71 -26 1 -27 -1 -26 -45z"/>
<path d="M7491 2606 c-14 -17 -7 -36 14 -36 8 0 17 -5 21 -11 5 -8 -1 -10 -20
-7 -17 4 -25 1 -23 -6 5 -16 36 -20 52 -6 16 13 9 40 -10 40 -8 0 -17 5 -21
12 -5 8 0 9 15 5 14 -3 21 -1 18 6 -6 18 -32 20 -46 3z"/>
<path d="M7935 2640 c-3 -5 3 -10 14 -10 18 0 21 -6 21 -51 0 -31 4 -48 10
-44 6 3 10 26 10 51 0 32 4 44 15 44 8 0 15 5 15 10 0 6 -18 10 -39 10 -22 0
-43 -4 -46 -10z"/>
<path d="M8332 2633 c-5 -10 -6 -38 -2 -63 l7 -45 3 40 c4 56 5 59 13 73 5 6
4 12 -2 12 -6 0 -14 -8 -19 -17z"/>
<path d="M8032 2570 c1 -37 2 -39 5 -12 3 18 11 36 19 39 21 8 17 22 -6 20
-17 -1 -20 -8 -18 -47z"/>
<path d="M8087 2613 c-14 -14 -6 -20 19 -15 19 3 25 1 20 -7 -4 -6 -15 -11
-26 -11 -22 0 -33 -25 -17 -38 7 -5 24 -10 39 -10 25 0 27 3 22 32 -3 17 -7
37 -10 44 -4 13 -36 17 -47 5z m38 -53 c-3 -5 -13 -10 -21 -10 -8 0 -12 5 -9
10 3 6 13 10 21 10 8 0 12 -4 9 -10z"/>
<path d="M8178 2613 c-13 -3 -18 -15 -18 -39 0 -19 5 -34 10 -34 6 0 10 14 10
30 0 20 5 30 15 30 10 0 15 -10 15 -29 0 -17 5 -33 11 -36 7 -5 9 8 7 36 -3
45 -12 52 -50 42z"/>
<path d="M8254 2605 c-7 -18 3 -35 22 -35 8 0 14 -5 14 -11 0 -7 -10 -9 -27
-4 -24 6 -25 4 -13 -10 17 -20 54 -16 58 7 2 12 -6 21 -22 28 -34 13 -33 24 1
15 23 -5 25 -4 14 9 -17 20 -40 21 -47 1z"/>
<path d="M5721 2216 c2 -2 22 -6 44 -9 28 -5 34 -4 20 3 -19 8 -73 14 -64 6z"/>
<path d="M5818 2193 c7 -3 16 -2 19 1 4 3 -2 6 -13 5 -11 0 -14 -3 -6 -6z"/>
<path d="M5670 2162 c8 -5 26 -13 40 -16 17 -5 20 -4 10 2 -8 5 -26 13 -40 16
-17 5 -20 4 -10 -2z"/>
<path d="M5755 2130 c27 -12 43 -12 25 0 -8 5 -22 9 -30 9 -10 0 -8 -3 5 -9z"/>
<path d="M5910 2301 c0 -5 5 -13 10 -16 6 -3 10 -2 10 4 0 5 -4 13 -10 16 -5
3 -10 2 -10 -4z"/>
<path d="M5898 2223 c7 -3 16 -2 19 1 4 3 -2 6 -13 5 -11 0 -14 -3 -6 -6z"/>
<path d="M5943 2213 c9 -2 25 -2 35 0 9 3 1 5 -18 5 -19 0 -27 -2 -17 -5z"/>
<path d="M6008 2203 c6 -2 18 -2 25 0 6 3 1 5 -13 5 -14 0 -19 -2 -12 -5z"/>
<path d="M6178 2173 c7 -3 16 -2 19 1 4 3 -2 6 -13 5 -11 0 -14 -3 -6 -6z"/>
<path d="M6068 2133 c6 -2 18 -2 25 0 6 3 1 5 -13 5 -14 0 -19 -2 -12 -5z"/>
<path d="M6118 2123 c7 -3 16 -2 19 1 4 3 -2 6 -13 5 -11 0 -14 -3 -6 -6z"/>
<path d="M6313 2073 c9 -2 23 -2 30 0 6 3 -1 5 -18 5 -16 0 -22 -2 -12 -5z"/>
<path d="M6698 1983 c7 -3 16 -2 19 1 4 3 -2 6 -13 5 -11 0 -14 -3 -6 -6z"/>
<path d="M7228 1983 c7 -3 16 -2 19 1 4 3 -2 6 -13 5 -11 0 -14 -3 -6 -6z"/>
<path d="M7295 1970 c17 -4 41 -8 55 -8 22 0 22 1 -5 8 -16 4 -41 8 -55 8 -22
0 -22 -1 5 -8z"/>
<path d="M6858 1943 c6 -2 18 -2 25 0 6 3 1 5 -13 5 -14 0 -19 -2 -12 -5z"/>
<path d="M7443 1943 c9 -2 25 -2 35 0 9 3 1 5 -18 5 -19 0 -27 -2 -17 -5z"/>
<path d="M6420 1892 c8 -5 26 -13 40 -16 17 -5 20 -4 10 2 -8 5 -26 13 -40 16
-17 5 -20 4 -10 -2z"/>
<path d="M6505 1860 c27 -12 43 -12 25 0 -8 5 -22 9 -30 9 -10 0 -8 -3 5 -9z"/>
<path d="M6971 1916 c2 -2 22 -6 44 -9 28 -5 34 -4 20 3 -19 8 -73 14 -64 6z"/>
<path d="M7080 1890 c14 -4 34 -8 45 -8 16 0 15 2 -5 8 -14 4 -34 8 -45 8 -16
0 -15 -2 5 -8z"/>
<path d="M7613 1913 c9 -2 23 -2 30 0 6 3 -1 5 -18 5 -16 0 -22 -2 -12 -5z"/>
<path d="M7678 1903 c7 -3 16 -2 19 1 4 3 -2 6 -13 5 -11 0 -14 -3 -6 -6z"/>
<path d="M5746 1300 c-33 -25 -45 -29 -85 -25 -32 3 -37 2 -17 -3 17 -4 28
-11 25 -17 -2 -5 -6 -9 -9 -9 -3 1 -23 4 -45 7 l-40 6 38 -12 c35 -12 36 -13
20 -30 -10 -9 -12 -17 -6 -17 6 0 16 7 23 15 7 8 19 15 26 15 8 0 14 4 14 9 0
5 8 12 18 16 22 7 100 75 87 75 -5 0 -27 -14 -49 -30z"/>
<path d="M5418 1313 c6 -2 18 -2 25 0 6 3 1 5 -13 5 -14 0 -19 -2 -12 -5z"/>
<path d="M5290 1300 c8 -5 22 -9 30 -9 10 0 8 3 -5 9 -27 12 -43 12 -25 0z"/>
<path d="M5480 1300 c25 -8 87 -13 79 -6 -2 2 -26 6 -54 9 -34 4 -42 3 -25 -3z"/>
<path d="M5350 1282 c8 -5 26 -13 40 -16 17 -5 20 -4 10 2 -8 5 -26 13 -40 16
-17 5 -20 4 -10 -2z"/>
<path d="M5588 1283 c7 -3 16 -2 19 1 4 3 -2 6 -13 5 -11 0 -14 -3 -6 -6z"/>
<path d="M5510 1270 c14 -4 34 -8 45 -8 16 0 15 2 -5 8 -14 4 -34 8 -45 8 -16
0 -15 -2 5 -8z"/>
<path d="M5420 1257 c0 -7 122 -48 127 -43 3 2 -20 12 -49 21 -29 10 -59 20
-65 23 -7 2 -13 2 -13 -1z"/>
<path d="M5748 1253 c6 -2 18 -2 25 0 6 3 1 5 -13 5 -14 0 -19 -2 -12 -5z"/>
<path d="M5720 1220 c14 -4 34 -8 45 -8 16 0 15 2 -5 8 -14 4 -34 8 -45 8 -16
0 -15 -2 5 -8z"/>
<path d="M5798 1203 c7 -3 16 -2 19 1 4 3 -2 6 -13 5 -11 0 -14 -3 -6 -6z"/>
<path d="M5765 1130 c27 -12 43 -12 25 0 -8 5 -22 9 -30 9 -10 0 -8 -3 5 -9z"/>
<path d="M4885 1640 c3 -5 12 -10 20 -10 9 0 15 -15 18 -47 l3 -48 2 48 c1 33
6 47 16 47 8 0 18 5 21 10 4 6 -12 10 -40 10 -28 0 -44 -4 -40 -10z"/>
<path d="M5280 1635 c0 -8 -5 -15 -12 -15 -9 0 -9 -3 0 -12 7 -7 12 -25 12
-42 0 -44 7 -28 14 32 3 30 1 52 -4 52 -6 0 -10 -7 -10 -15z"/>
<path d="M4970 1580 c0 -22 5 -40 10 -40 6 0 10 12 10 26 0 15 8 33 18 40 15
12 14 13 -10 14 -26 0 -28 -3 -28 -40z"/>
<path d="M5037 1614 c-14 -14 -7 -26 8 -14 8 6 19 8 26 4 7 -4 0 -12 -21 -20
-40 -17 -34 -38 12 -42 l35 -3 -6 38 c-5 28 -12 39 -27 41 -11 2 -23 0 -27 -4z
m33 -49 c0 -8 -7 -15 -15 -15 -26 0 -18 20 13 29 1 1 2 -6 2 -14z"/>
<path d="M5110 1581 c0 -49 17 -55 22 -8 2 17 8 32 13 32 6 0 11 -15 13 -32 2
-18 8 -33 13 -33 6 0 9 17 7 38 -3 34 -6 37 -35 40 -32 3 -33 2 -33 -37z"/>
<path d="M5197 1613 c-13 -12 -7 -23 18 -35 34 -15 32 -32 -2 -24 -26 6 -27 5
-9 -8 14 -11 24 -12 37 -5 26 13 24 27 -6 41 -30 14 -33 32 -4 23 15 -5 19 -4
15 4 -8 12 -39 15 -49 4z"/>
<path d="M5645 1640 c3 -5 13 -10 21 -10 10 0 14 -12 14 -45 0 -25 5 -45 10
-45 6 0 10 20 10 45 0 33 4 45 15 45 8 0 15 5 15 10 0 6 -21 10 -46 10 -27 0
-43 -4 -39 -10z"/>
<path d="M6037 1632 c-2 -11 -1 -37 2 -58 l7 -39 7 35 c14 72 14 80 2 80 -7 0
-15 -8 -18 -18z"/>
<path d="M5741 1575 c1 -27 3 -32 6 -15 3 14 12 33 20 42 14 15 13 17 -6 15
-18 -1 -21 -7 -20 -42z"/>
<path d="M5797 1613 c-14 -13 -6 -25 8 -13 12 10 19 10 27 2 8 -8 4 -13 -16
-18 -16 -4 -26 -13 -26 -24 0 -21 15 -28 45 -22 17 3 20 9 17 43 -3 33 -8 39
-26 39 -13 0 -26 -3 -29 -7z m43 -43 c0 -13 -28 -25 -38 -16 -3 4 0 11 8 16
20 13 30 12 30 0z"/>
<path d="M5870 1581 c0 -48 17 -55 22 -9 4 46 28 49 28 4 0 -20 5 -36 11 -36
6 0 9 16 7 38 -3 34 -6 37 -35 40 -32 3 -33 2 -33 -37z"/>
<path d="M5960 1605 c-10 -12 -7 -17 14 -26 34 -16 33 -33 -1 -25 -26 6 -27 5
-9 -8 14 -11 24 -12 37 -5 27 14 23 36 -6 43 -14 4 -23 11 -20 17 4 5 16 7 27
3 14 -4 18 -2 14 5 -10 16 -41 14 -56 -4z"/>
<path d="M6405 1640 c3 -5 13 -10 21 -10 10 0 14 -12 14 -45 0 -25 5 -45 10
-45 6 0 10 20 10 45 0 33 4 45 14 45 8 0 18 5 21 10 4 6 -13 10 -45 10 -32 0
-49 -4 -45 -10z"/>
<path d="M6798 1633 c-5 -29 4 -93 13 -93 5 0 9 15 10 33 0 17 2 42 3 55 3 26
-21 31 -26 5z"/>
<path d="M6500 1580 c0 -22 5 -40 10 -40 6 0 10 13 10 28 0 15 5 33 12 40 9 9
7 12 -10 12 -19 0 -22 -5 -22 -40z"/>
<path d="M6555 1603 c-5 -15 -4 -16 6 -5 15 14 39 16 39 2 0 -5 -11 -12 -25
-16 -26 -6 -35 -39 -13 -46 25 -9 59 4 54 19 -3 8 -6 26 -6 39 0 19 -5 24 -24
24 -14 0 -27 -8 -31 -17z m45 -32 c0 -14 -18 -23 -31 -15 -8 4 -7 9 2 15 18
11 29 11 29 0z"/>
<path d="M6641 1575 c1 -41 3 -40 13 8 9 37 29 29 37 -14 6 -34 6 -34 8 9 1
41 0 42 -29 40 -28 -2 -30 -5 -29 -43z"/>
<path d="M6727 1613 c-15 -14 -6 -33 18 -39 14 -3 25 -11 25 -16 0 -6 -11 -8
-25 -6 -14 3 -25 2 -25 -2 0 -12 28 -20 45 -14 22 9 18 41 -5 47 -11 3 -20 10
-20 17 0 7 8 9 21 5 15 -5 19 -4 15 4 -8 12 -39 15 -49 4z"/>
<path d="M7175 1640 c3 -5 12 -10 20 -10 9 0 15 -15 18 -47 l3 -48 2 48 c2 40
5 47 22 47 11 0 20 5 20 10 0 6 -21 10 -46 10 -27 0 -43 -4 -39 -10z"/>
<path d="M7570 1635 c0 -8 -5 -15 -12 -15 -9 0 -9 -3 0 -12 7 -7 12 -25 12
-42 0 -44 7 -28 13 32 3 29 1 52 -4 52 -5 0 -9 -7 -9 -15z"/>
<path d="M7260 1580 c0 -22 5 -40 10 -40 6 0 10 13 10 28 0 15 5 33 12 40 9 9
7 12 -10 12 -19 0 -22 -5 -22 -40z"/>
<path d="M7327 1614 c-14 -14 -7 -26 8 -14 9 7 19 9 23 5 4 -4 2 -10 -4 -12
-6 -2 -20 -10 -30 -17 -26 -19 -4 -44 34 -38 27 4 28 6 23 40 -5 27 -12 38
-27 40 -11 2 -23 0 -27 -4z m33 -49 c0 -8 -7 -15 -15 -15 -16 0 -20 12 -8 23
11 12 23 8 23 -8z"/>
<path d="M7401 1575 c1 -27 3 -32 6 -15 10 55 43 62 43 9 0 -16 5 -29 10 -29
12 0 13 50 2 68 -5 6 -20 11 -35 10 -25 -2 -27 -6 -26 -43z"/>
<path d="M7487 1613 c-13 -12 -7 -23 18 -35 34 -15 32 -32 -2 -23 -26 6 -27 5
-12 -10 13 -14 21 -15 38 -6 28 15 27 29 -4 43 -30 14 -33 32 -4 23 15 -5 19
-4 15 4 -8 12 -39 15 -49 4z"/>
<path d="M7935 1640 c3 -5 13 -10 21 -10 10 0 14 -12 14 -45 0 -25 5 -45 10
-45 6 0 10 20 10 45 0 33 4 45 15 45 8 0 15 5 15 10 0 6 -21 10 -46 10 -27 0
-43 -4 -39 -10z"/>
<path d="M8327 1632 c-2 -11 -1 -37 3 -58 7 -36 8 -36 9 -8 0 16 6 35 13 42 9
9 9 12 -1 12 -11 0 -11 3 -1 15 10 12 10 15 -3 15 -8 0 -17 -8 -20 -18z"/>
<path d="M8031 1578 c1 -28 3 -34 6 -18 3 14 12 33 20 43 15 16 14 17 -5 17
-19 0 -22 -5 -21 -42z"/>
<path d="M8087 1614 c-14 -14 -7 -26 8 -14 11 9 19 10 26 3 7 -7 1 -14 -21
-22 -41 -14 -34 -35 12 -39 l35 -3 -6 38 c-5 28 -12 39 -27 41 -11 2 -23 0
-27 -4z m38 -55 c-8 -12 -35 -12 -35 0 0 11 22 20 33 14 4 -2 5 -9 2 -14z"/>
<path d="M8160 1581 c0 -48 17 -55 22 -9 4 46 28 49 28 4 0 -20 5 -36 11 -36
6 0 9 16 7 38 -3 34 -6 37 -35 40 -32 3 -33 2 -33 -37z"/>
<path d="M8250 1601 c0 -11 9 -23 20 -26 31 -10 24 -28 -7 -21 -26 6 -27 5 -9
-8 14 -11 24 -12 37 -5 27 14 23 36 -6 43 -14 4 -23 11 -20 17 4 5 16 7 27 3
14 -4 18 -2 14 5 -4 6 -18 11 -32 11 -17 0 -24 -6 -24 -19z"/>
<path d="M5925 1220 c17 -4 44 -8 60 -8 25 0 24 2 -10 9 -51 10 -92 10 -50 -1z"/>
<path d="M6028 1203 c6 -2 18 -2 25 0 6 3 1 5 -13 5 -14 0 -19 -2 -12 -5z"/>
<path d="M5918 1173 c7 -3 16 -2 19 1 4 3 -2 6 -13 5 -11 0 -14 -3 -6 -6z"/>
<path d="M6567 1313 c-4 -3 -7 -11 -7 -17 0 -6 5 -5 12 2 6 6 9 14 7 17 -3 3
-9 2 -12 -2z"/>
<path d="M6640 1293 c0 -13 5 -23 10 -23 13 0 13 11 0 30 -8 12 -10 11 -10 -7z"/>
<path d="M6198 1173 c7 -3 16 -2 19 1 4 3 -2 6 -13 5 -11 0 -14 -3 -6 -6z"/>
<path d="M6128 1123 c7 -3 16 -2 19 1 4 3 -2 6 -13 5 -11 0 -14 -3 -6 -6z"/>
<path d="M6468 1123 c6 -2 18 -2 25 0 6 3 1 5 -13 5 -14 0 -19 -2 -12 -5z"/>
<path d="M6985 1030 c17 -4 41 -8 55 -8 22 0 22 1 -5 8 -16 4 -41 8 -55 8 -22
0 -22 -1 5 -8z"/>
<path d="M6180 980 c8 -5 22 -9 30 -9 10 0 8 3 -5 9 -27 12 -43 12 -25 0z"/>
<path d="M6720 980 c14 -4 34 -8 45 -8 16 0 15 2 -5 8 -14 4 -34 8 -45 8 -16
0 -15 -2 5 -8z"/>
<path d="M7248 983 c6 -2 18 -2 25 0 6 3 1 5 -13 5 -14 0 -19 -2 -12 -5z"/>
<path d="M7303 973 c9 -2 23 -2 30 0 6 3 -1 5 -18 5 -16 0 -22 -2 -12 -5z"/>
<path d="M5011 633 c21 -60 21 -59 34 -29 l12 29 7 -27 c9 -37 22 -32 34 14
10 42 0 56 -13 18 l-8 -23 -4 23 c-2 12 -9 22 -14 22 -5 0 -14 -10 -19 -22
l-9 -23 -7 23 c-3 12 -10 22 -15 22 -5 0 -4 -12 2 -27z"/>
<path d="M5145 624 c-13 -5 -7 -72 6 -80 5 -3 9 15 9 40 0 25 -1 46 -2 45 -2
0 -8 -3 -13 -5z"/>
<path d="M5770 648 c1 -7 7 -26 14 -43 l14 -30 10 25 11 25 7 -22 c9 -32 20
-29 33 8 14 39 14 49 1 49 -5 0 -10 -10 -11 -22 l0 -23 -11 23 c-6 12 -14 22
-18 22 -4 0 -12 -10 -18 -22 -8 -18 -11 -19 -11 -6 -1 9 -5 20 -11 23 -5 3
-10 0 -10 -7z"/>
<path d="M5887 623 c-14 -13 -6 -25 8 -13 11 9 19 10 26 3 8 -8 4 -16 -15 -28
-37 -24 -34 -45 7 -44 23 1 26 3 10 6 -28 5 -29 10 -1 32 13 11 19 24 15 34
-6 17 -38 23 -50 10z"/>
<path d="M6514 634 c3 -9 9 -27 12 -40 8 -30 22 -31 33 -2 l8 23 7 -23 c4 -12
11 -22 16 -22 9 0 20 36 19 65 0 17 -2 16 -11 -5 l-10 -25 -9 23 c-9 24 -29
22 -29 -4 0 -8 -4 -14 -10 -14 -5 0 -10 9 -10 20 0 11 -5 20 -11 20 -6 0 -8
-7 -5 -16z"/>
<path d="M7230 646 c0 -27 20 -67 30 -61 5 3 10 16 11 28 1 20 2 19 12 -5 6
-16 14 -28 18 -28 7 0 29 54 29 71 0 19 -19 8 -23 -13 l-4 -23 -8 23 c-10 30
-21 28 -33 -5 -9 -25 -11 -25 -11 -6 -1 24 -21 43 -21 19z"/>
<path d="M7347 634 c-11 -11 -8 -94 3 -94 6 0 10 15 10 33 l0 32 21 -32 c28
-45 39 -41 39 12 0 49 -17 62 -22 18 l-3 -28 -21 33 c-11 18 -23 29 -27 26z"/>
<path d="M7490 620 c-9 -6 -10 -10 -3 -10 6 0 14 -17 16 -37 3 -35 4 -34 5 10
1 26 1 47 0 47 -2 0 -10 -5 -18 -10z"/>
<path d="M7438 573 c7 -3 16 -2 19 1 4 3 -2 6 -13 5 -11 0 -14 -3 -6 -6z"/>
<path d="M8050 646 c0 -27 20 -67 30 -61 5 3 10 16 11 28 1 20 2 19 12 -5 13
-34 23 -35 31 -4 3 13 9 31 12 40 3 9 1 16 -4 16 -6 0 -13 -10 -15 -22 l-4
-23 -8 23 c-4 12 -11 22 -15 22 -4 0 -12 -10 -18 -22 -8 -18 -11 -19 -11 -6
-1 21 -21 35 -21 14z"/>
<path d="M8160 584 c0 -27 4 -43 10 -39 6 3 10 18 10 33 l0 27 21 -32 c28 -45
39 -41 39 12 0 25 -4 45 -10 45 -5 0 -10 -12 -10 -27 l-1 -28 -20 28 c-29 38
-39 34 -39 -19z"/>
<path d="M696 2749 l-26 -20 0 -209 c0 -262 -7 -250 152 -250 l108 0 -6 -27
c-4 -16 -11 -39 -16 -52 -11 -31 -1 -41 11 -10 7 17 10 -35 10 -168 l1 -193
-108 0 c-158 0 -152 10 -152 -252 l0 -207 26 -20 c23 -18 41 -21 130 -21 57 0
104 -1 104 -2 0 -2 -7 -25 -15 -52 -16 -51 -13 -76 4 -35 7 17 9 -35 8 -166
l-2 -190 -102 -3 -103 -3 0 -214 0 -215 215 0 215 0 0 215 0 215 -100 0 -100
0 0 183 c0 121 4 177 10 167 15 -24 13 9 -5 59 l-14 41 110 0 c106 0 111 1
134 26 23 25 25 35 25 120 l0 94 113 0 c83 0 108 -3 97 -11 -12 -9 -11 -10 5
-4 11 3 32 9 48 12 l27 6 0 -87 c0 -142 14 -155 163 -156 59 0 107 -2 107 -4
0 -2 -7 -23 -15 -46 -19 -53 -19 -75 0 -35 12 27 13 8 12 -165 l-2 -195 -102
-3 -103 -3 0 -214 0 -215 215 0 215 0 0 215 0 214 -102 3 -103 3 -2 195 c-1
126 1 187 7 172 16 -39 20 -24 5 19 -8 23 -15 45 -15 50 0 5 47 9 104 9 89 0
107 3 130 21 25 20 26 24 26 120 l0 99 113 0 c76 0 107 -3 97 -10 -24 -16 14
-13 55 4 l35 15 0 -100 c0 -93 2 -102 25 -124 22 -23 31 -25 128 -25 l104 0 2
-225 2 -225 -106 0 -105 0 2 -212 3 -213 213 -3 212 -2 0 215 0 215 -100 0
-100 0 1 188 c1 103 3 179 6 170 2 -10 9 -18 14 -18 11 0 12 -3 -6 45 -24 66
-26 65 90 65 99 0 107 2 130 25 23 22 25 32 25 120 l0 95 113 -1 c61 -1 104
-3 95 -6 -10 -2 -18 -8 -18 -13 0 -5 19 -3 41 5 23 8 45 15 50 15 5 0 9 -40 9
-89 0 -82 2 -92 26 -120 l26 -31 109 0 c60 0 109 -2 109 -4 0 -2 -7 -23 -15
-46 -19 -53 -19 -73 0 -40 13 22 14 5 12 -165 l-2 -190 -102 -3 -103 -3 0
-214 0 -215 215 0 215 0 0 215 0 214 -102 3 -103 3 -2 190 c-2 170 -1 187 12
165 20 -35 20 -2 0 47 -8 19 -15 37 -15 39 0 2 49 4 109 4 l109 0 26 31 c24
28 26 38 26 120 l0 89 113 -1 c78 0 106 -3 92 -10 -16 -8 -14 -8 10 -4 17 2
40 7 53 11 22 6 22 5 22 -90 0 -90 2 -99 25 -121 23 -23 31 -25 131 -25 l107
0 -8 -32 c-4 -18 -9 -44 -11 -58 -4 -22 -3 -23 5 -5 6 13 10 -42 10 -167 l1
-188 -100 0 -100 0 0 -215 0 -215 215 0 215 0 0 215 0 214 -102 3 -103 3 -2
190 c-1 131 1 183 8 166 16 -41 20 -16 4 29 -8 23 -15 46 -15 51 0 5 47 9 105
9 99 0 107 2 130 25 25 24 25 25 25 228 0 257 6 247 -153 247 l-107 0 0 187
c0 166 2 185 15 167 19 -24 19 -17 0 36 -8 23 -15 46 -15 51 0 5 47 9 104 9
89 0 107 3 130 21 l26 20 0 205 c0 204 0 205 -25 229 l-24 25 -221 0 -221 0
-24 -25 c-23 -22 -25 -31 -25 -124 l0 -101 -50 20 c-51 20 -64 18 -33 -6 15
-12 2 -13 -92 -11 l-110 2 -5 95 c-3 52 -9 102 -14 111 -15 33 -54 39 -267 39
l-211 0 -29 -29 c-28 -28 -29 -33 -29 -120 0 -50 -4 -91 -9 -91 -5 0 -27 7
-50 15 -43 15 -57 6 -18 -13 17 -9 -3 -11 -93 -9 l-115 2 -5 103 c-7 148 5
142 -272 142 l-219 0 -24 -25 c-23 -22 -25 -31 -25 -124 l0 -100 -41 14 c-50
18 -85 19 -49 2 21 -10 10 -12 -79 -15 -58 -1 -111 0 -118 2 -10 4 -13 32 -13
105 0 96 -1 100 -26 120 -25 20 -39 21 -235 21 -131 0 -217 -4 -232 -11 -42
-19 -47 -48 -47 -250 0 -188 0 -190 25 -214 l24 -25 226 0 c279 0 265 -7 265
140 l0 100 112 0 c100 0 110 -1 92 -15 -24 -19 -17 -19 36 0 23 8 46 15 51 15
5 0 9 -43 9 -95 0 -88 2 -98 25 -120 23 -23 31 -25 130 -25 58 0 105 -4 105
-8 0 -5 -6 -30 -14 -55 -8 -26 -10 -47 -6 -47 5 0 11 10 13 23 2 12 5 -65 6
-170 l1 -193 -109 0 c-106 0 -110 -1 -130 -26 -18 -23 -21 -41 -21 -120 0 -52
-4 -94 -9 -94 -5 0 -28 7 -51 15 -50 18 -50 18 -50 6 0 -5 8 -12 18 -14 9 -3
-34 -5 -95 -6 l-113 -1 0 98 c0 90 -2 100 -23 120 -21 20 -34 22 -130 22
l-107 0 0 193 c0 127 4 187 10 177 9 -13 10 -13 9 0 0 8 -6 28 -13 45 l-12 30
-19 -48 c-10 -26 -15 -50 -11 -54 3 -3 6 1 6 10 0 9 5 19 10 22 7 4 10 -60 10
-184 l0 -191 -110 0 c-107 0 -112 -1 -135 -26 -23 -25 -25 -35 -25 -122 l0
-94 -30 5 c-16 4 -32 2 -35 -3 -3 -6 -55 -10 -116 -10 l-109 0 0 100 c0 94 -2
103 -25 125 -23 23 -31 25 -130 25 l-105 0 0 183 c0 121 4 177 10 167 15 -24
13 9 -5 59 l-14 41 110 0 c103 0 111 1 134 25 25 24 25 26 25 214 0 202 -5
231 -47 250 -15 7 -101 11 -232 11 -196 0 -210 -1 -235 -21z m477 -8 c15 -12
17 -40 17 -222 0 -203 0 -208 -22 -223 -19 -13 -58 -16 -229 -16 -194 0 -208
1 -233 21 l-26 20 0 198 c0 176 2 200 18 213 29 26 41 27 253 25 157 -2 210
-5 222 -16z m836 -5 c20 -18 21 -29 21 -214 0 -263 22 -242 -257 -242 -200 0
-214 1 -233 20 -19 19 -20 33 -20 218 0 108 4 202 8 209 17 27 62 32 258 30
183 -2 204 -4 223 -21z m838 1 c16 -16 18 -39 18 -218 0 -261 23 -239 -257
-239 -278 0 -258 -18 -258 237 0 203 5 226 53 236 12 3 113 4 224 3 180 -1
204 -3 220 -19z m832 -1 c20 -18 21 -29 21 -218 0 -185 -1 -199 -20 -218 -19
-19 -33 -20 -235 -20 -202 0 -216 1 -235 20 -19 19 -20 33 -20 218 0 177 2
201 18 214 29 26 41 27 248 25 183 -2 204 -4 223 -21z m842 -5 c17 -21 19 -41
19 -213 0 -256 20 -238 -258 -238 -279 0 -256 -20 -260 227 -3 204 3 231 48
244 14 4 117 7 228 6 201 -2 204 -2 223 -26z m-1433 -228 c-10 -2 -18 -9 -18
-14 0 -12 5 -12 47 6 19 8 39 15 44 15 5 0 9 -38 9 -85 0 -89 15 -137 45 -149
9 -3 64 -6 121 -6 57 0 104 -1 104 -3 0 -2 -7 -25 -16 -51 -17 -48 -12 -78 5
-35 7 17 10 -35 10 -168 l1 -193 -109 0 -109 0 -26 -31 c-24 -28 -26 -38 -26
-120 0 -54 -4 -89 -10 -89 -6 0 -27 7 -47 15 -42 18 -43 18 -43 6 0 -5 8 -12
18 -14 9 -3 -34 -5 -95 -6 l-113 -1 0 94 c0 79 -3 97 -21 120 -20 25 -24 26
-130 26 l-109 0 1 188 c1 103 3 179 6 170 2 -10 8 -18 13 -18 4 0 2 21 -6 47
-8 25 -14 50 -14 55 0 4 47 8 105 8 99 0 107 2 130 25 23 22 25 32 25 120 l0
95 113 -1 c61 -1 104 -3 95 -6z m832 -3 c-27 -17 -4 -20 33 -5 20 8 41 15 47
15 6 0 10 -37 10 -95 0 -88 2 -98 25 -120 23 -24 31 -25 134 -25 l110 0 -14
-41 c-16 -46 -20 -89 -5 -54 5 12 9 -53 9 -167 l1 -188 -105 0 c-99 0 -107 -2
-130 -25 -23 -22 -25 -32 -25 -120 0 -52 -4 -95 -9 -95 -5 0 -27 7 -50 15 -22
8 -41 10 -41 5 0 -4 6 -11 13 -13 6 -3 -36 -6 -95 -6 l-108 -1 0 85 c0 89 -15
137 -45 149 -9 3 -64 6 -121 6 l-104 0 0 193 c1 171 2 189 15 167 20 -34 20
-3 0 43 -8 20 -15 39 -15 42 0 3 49 5 109 5 150 0 155 4 159 139 l4 101 106 0
c70 0 102 -4 92 -10z m-2752 -706 c22 -15 22 -19 22 -224 l0 -209 -31 -16
c-25 -14 -63 -16 -234 -13 -183 3 -205 5 -224 22 -20 18 -21 29 -21 214 0 263
-22 242 255 242 174 0 214 -3 233 -16z m839 -6 c23 -21 23 -26 23 -218 0 -187
-1 -198 -21 -216 -19 -17 -41 -19 -208 -22 -102 -2 -200 -1 -218 3 -62 11 -63
16 -63 236 0 186 1 200 20 219 19 19 33 20 232 20 204 0 213 -1 235 -22z m834
3 c23 -19 24 -24 27 -192 2 -96 1 -188 -3 -206 -11 -59 -37 -65 -272 -61 -264
4 -243 -18 -243 243 l0 194 26 20 c25 20 39 21 234 21 190 0 210 -2 231 -19z
m839 -1 c19 -19 20 -33 20 -219 0 -220 -1 -225 -63 -236 -18 -4 -116 -5 -218
-3 -167 3 -189 5 -208 22 -20 18 -21 29 -21 218 0 185 1 199 20 218 19 19 33
20 235 20 202 0 216 -1 235 -20z m834 -1 l26 -20 0 -194 c0 -261 21 -239 -243
-243 -235 -4 -261 2 -272 61 -4 18 -5 110 -3 206 4 228 -17 211 258 211 195 0
209 -1 234 -21z m-3374 -1129 l0 -200 -200 0 -200 0 0 200 0 200 200 0 200 0
0 -200z m830 0 l0 -200 -200 0 -200 0 0 200 0 200 200 0 200 0 0 -200z m840 0
l0 -200 -200 0 -200 0 0 200 0 200 200 0 200 0 0 -200z m840 0 l0 -200 -205 0
-205 0 0 193 c0 107 3 197 7 200 3 4 96 7 205 7 l198 0 0 -200z m830 0 l0
-200 -200 0 -200 0 0 200 0 200 200 0 200 0 0 -200z"/>
<path d="M760 2510 c0 -33 4 -60 10 -60 6 0 10 11 10 25 0 20 5 25 24 25 17 0
26 -7 30 -25 4 -14 11 -25 17 -25 6 0 7 5 3 11 -3 6 -6 29 -6 52 1 47 -9 57
-55 57 l-33 0 0 -60z m75 31 c6 -10 -25 -31 -44 -31 -6 0 -11 9 -11 20 0 15 7
20 24 20 14 0 27 -4 31 -9z"/>
<path d="M882 2508 c1 -60 1 -61 7 -18 l6 45 29 -42 c16 -24 33 -43 37 -43 5
0 8 28 7 63 -1 49 -2 53 -5 20 -2 -24 -8 -43 -12 -43 -4 0 -17 18 -30 40 -12
22 -26 40 -32 40 -5 0 -8 -28 -7 -62z"/>
<path d="M1000 2510 c0 -33 4 -60 10 -60 6 0 10 19 10 43 l0 42 26 -42 c36
-61 54 -57 54 11 0 66 -18 84 -22 24 l-3 -43 -29 43 c-16 23 -33 42 -37 42 -5
0 -9 -27 -9 -60z"/>
<path d="M1590 2510 c0 -33 4 -60 10 -60 6 0 10 12 10 26 0 22 4 25 28 22 19
-2 28 -9 30 -25 6 -44 21 -22 20 30 -1 59 -8 67 -60 67 l-38 0 0 -60z m80 26
c0 -14 -37 -29 -52 -20 -20 13 -7 34 22 34 19 0 30 -5 30 -14z"/>
<path d="M1710 2511 c0 -69 17 -83 22 -18 l3 42 25 -42 c36 -61 50 -56 50 17
0 68 -17 82 -22 19 l-3 -42 -25 38 c-39 60 -50 56 -50 -14z"/>
<path d="M1837 2563 c-11 -10 -8 -113 2 -113 6 0 11 19 13 43 l3 42 28 -42
c15 -24 32 -43 37 -43 6 0 10 28 10 62 0 66 -16 71 -22 8 l-3 -35 -24 43 c-25
42 -32 48 -44 35z"/>
<path d="M2430 2510 c0 -33 4 -60 10 -60 6 0 10 12 10 26 0 22 4 25 28 22 19
-2 28 -9 30 -25 6 -41 17 -24 17 25 -1 62 -9 72 -56 72 l-39 0 0 -60z m75 29
c9 -13 6 -16 -28 -24 -23 -6 -27 -4 -27 14 0 16 6 21 24 21 14 0 28 -5 31 -11z"/>
<path d="M2550 2510 c0 -33 4 -60 10 -60 6 0 10 19 10 42 l0 42 27 -42 c38
-58 53 -55 53 12 0 66 -18 84 -22 24 l-3 -43 -29 43 c-16 23 -33 42 -37 42 -5
0 -9 -27 -9 -60z"/>
<path d="M2670 2510 c0 -33 4 -60 10 -60 6 0 10 19 10 43 l0 42 28 -42 c38
-60 52 -56 52 17 0 68 -17 82 -22 18 l-3 -42 -28 42 c-15 23 -32 42 -37 42 -6
0 -10 -27 -10 -60z"/>
<path d="M3270 2510 c0 -33 4 -60 10 -60 6 0 10 12 10 26 0 21 4 25 23 22 14
-2 23 -11 25 -25 6 -44 21 -22 20 30 0 57 -8 67 -55 67 l-33 0 0 -60z m70 25
c0 -8 -4 -15 -9 -15 -5 0 -16 -3 -25 -6 -12 -4 -16 0 -16 15 0 16 6 21 25 21
16 0 25 -6 25 -15z"/>
<path d="M3387 2563 c-11 -10 -8 -113 2 -113 6 0 11 19 13 43 l3 42 28 -42
c15 -24 32 -43 37 -43 6 0 10 27 10 61 0 37 -4 58 -10 54 -5 -3 -10 -23 -10
-43 l0 -37 -28 42 c-27 44 -33 48 -45 36z"/>
<path d="M3512 2508 c1 -60 1 -61 7 -18 l6 45 28 -42 c15 -24 32 -43 37 -43 6
0 9 27 8 63 l-1 62 -6 -50 -6 -50 -28 48 c-16 26 -33 47 -38 47 -5 0 -8 -28
-7 -62z"/>
<path d="M4100 2510 c0 -33 4 -60 10 -60 6 0 10 12 10 26 0 22 4 25 28 22 19
-2 28 -9 30 -25 6 -43 20 -23 19 25 -3 62 -11 72 -58 72 l-39 0 0 -60z m80 26
c0 -14 -37 -29 -52 -20 -20 13 -7 34 22 34 19 0 30 -5 30 -14z"/>
<path d="M4220 2510 c0 -68 17 -82 22 -17 l3 42 24 -42 c35 -62 51 -56 51 17
0 68 -17 82 -22 18 l-3 -42 -28 42 c-15 23 -32 42 -37 42 -6 0 -10 -27 -10
-60z"/>
<path d="M4340 2510 c0 -68 17 -82 22 -17 l3 42 24 -42 c35 -62 51 -56 51 17
0 68 -17 82 -22 18 l-3 -43 -25 42 c-36 61 -50 56 -50 -17z"/>
<path d="M760 1561 c0 -34 4 -61 10 -61 6 0 10 11 10 25 0 20 5 25 25 25 18 0
26 -7 31 -25 3 -14 10 -25 15 -25 5 0 6 7 3 15 -4 8 -7 34 -8 57 l-1 43 -42 3
-43 3 0 -60z m69 36 c14 -17 4 -27 -26 -27 -16 0 -23 6 -23 20 0 23 31 27 49
7z"/>
<path d="M882 1558 l1 -63 6 50 6 50 28 -47 c15 -27 32 -48 37 -48 6 0 9 28 8
63 -1 59 -1 60 -7 17 l-6 -45 -29 43 c-16 23 -33 42 -37 42 -5 0 -8 -28 -7
-62z"/>
<path d="M1000 1560 c0 -33 4 -60 10 -60 6 0 10 19 10 42 l0 42 27 -42 c39
-60 53 -55 53 18 0 68 -17 82 -22 18 l-3 -43 -29 43 c-16 23 -33 42 -37 42 -5
0 -9 -27 -9 -60z"/>
<path d="M1590 1561 c0 -34 4 -61 10 -61 6 0 10 12 10 26 0 22 4 25 28 22 19
-2 28 -9 30 -25 7 -47 21 -21 19 35 l-2 57 -47 3 -48 3 0 -60z m64 43 c28 -11
18 -34 -14 -34 -18 0 -30 5 -30 13 0 25 15 32 44 21z"/>
<path d="M1710 1560 c0 -68 17 -82 22 -18 l3 42 28 -42 c15 -23 32 -42 37 -42
6 0 10 27 10 60 0 68 -17 82 -22 18 l-3 -43 -24 43 c-35 61 -51 55 -51 -18z"/>
<path d="M1837 1613 c-11 -10 -8 -113 2 -113 6 0 11 19 13 43 l3 42 28 -42
c15 -24 32 -43 37 -43 6 0 10 27 10 61 0 37 -4 58 -10 54 -5 -3 -10 -23 -10
-43 l0 -37 -28 42 c-27 44 -33 48 -45 36z"/>
<path d="M2430 1560 c0 -33 4 -60 10 -60 6 0 10 12 10 26 0 22 4 25 28 22 19
-2 28 -9 30 -25 6 -41 17 -24 16 25 -1 63 -8 72 -55 72 l-39 0 0 -60z m64 44
c28 -11 18 -34 -14 -34 -23 0 -30 4 -30 20 0 20 15 25 44 14z"/>
<path d="M2550 1560 c0 -68 17 -82 22 -17 l3 42 24 -42 c35 -62 51 -56 51 17
0 68 -17 82 -22 18 l-3 -43 -28 43 c-15 23 -32 42 -37 42 -6 0 -10 -27 -10
-60z"/>
<path d="M2670 1560 c0 -33 4 -60 10 -60 6 0 10 19 10 43 l0 42 28 -42 c38
-60 52 -56 52 17 0 68 -17 82 -22 18 l-3 -43 -25 42 c-36 61 -50 56 -50 -17z"/>
<path d="M3270 1561 c0 -34 4 -61 10 -61 6 0 10 11 10 25 0 20 5 25 25 25 20
0 25 -5 25 -25 0 -15 6 -25 15 -25 9 0 12 6 9 15 -4 8 -7 34 -8 57 l-1 43 -42
3 -43 3 0 -60z m68 27 c3 -13 -3 -18 -22 -18 -20 0 -26 5 -26 21 0 15 5 20 22
17 13 -2 24 -11 26 -20z"/>
<path d="M3380 1560 c0 -68 17 -82 22 -17 l3 42 28 -42 c15 -24 32 -43 37 -43
6 0 10 27 10 60 0 33 -4 60 -10 60 -5 0 -10 -19 -10 -42 l0 -42 -27 42 c-39
60 -53 55 -53 -18z"/>
<path d="M3512 1558 c1 -60 1 -61 7 -18 l6 45 29 -42 c16 -24 33 -43 37 -43 5
0 8 28 7 63 l-1 62 -6 -50 -6 -50 -28 48 c-15 26 -32 47 -37 47 -6 0 -9 -28
-8 -62z"/>
<path d="M4100 1560 c0 -33 4 -60 10 -60 6 0 10 12 10 26 0 22 4 25 28 22 19
-2 28 -9 30 -25 2 -13 7 -23 12 -23 7 0 7 72 1 113 0 4 -21 7 -46 7 l-45 0 0
-60z m64 44 c28 -11 18 -34 -14 -34 -23 0 -30 4 -30 20 0 20 15 25 44 14z"/>
<path d="M4220 1560 c0 -68 17 -82 22 -17 l3 42 24 -42 c35 -62 51 -56 51 17
0 68 -17 82 -22 18 l-3 -43 -25 42 c-36 61 -50 56 -50 -17z"/>
<path d="M4340 1560 c0 -33 4 -60 10 -60 6 0 10 21 10 47 l0 47 30 -47 c16
-26 34 -47 40 -47 6 0 10 26 10 60 0 68 -17 82 -22 18 l-3 -43 -24 43 c-35 61
-51 55 -51 -18z"/>
<path d="M830 693 c0 -23 22 -83 30 -83 5 0 13 12 17 27 l6 28 10 -28 c5 -15
12 -27 17 -27 9 0 30 55 30 78 0 21 -17 3 -22 -23 -4 -18 -6 -17 -16 8 -13 30
-32 28 -32 -4 0 -10 -4 -19 -10 -19 -5 0 -10 9 -10 19 0 11 -4 23 -10 26 -5 3
-10 3 -10 -2z"/>
<path d="M970 650 c-10 -6 -11 -10 -2 -10 7 0 12 -14 12 -35 0 -19 5 -35 10
-35 6 0 10 20 10 45 0 46 -4 52 -30 35z"/>
<path d="M1668 695 c-8 -9 15 -78 28 -82 6 -2 15 9 21 24 l11 28 1 -27 c2 -42
27 -34 39 12 5 22 6 40 2 40 -4 0 -11 -12 -15 -27 l-7 -28 -15 35 -15 35 -10
-29 -11 -29 -11 27 c-6 15 -14 25 -18 21z"/>
<path d="M1800 655 c-7 -9 -9 -19 -5 -23 4 -4 10 -1 12 6 6 15 33 16 33 1 0
-6 -11 -20 -25 -31 -34 -26 -31 -38 8 -37 23 1 26 3 10 6 -28 5 -30 20 -3 28
24 8 27 50 4 59 -21 8 -20 8 -34 -9z"/>
<path d="M2522 663 c-9 -27 -9 -28 -16 -5 -4 12 -12 22 -18 22 -5 0 -7 -7 -4
-16 3 -9 9 -27 12 -40 7 -29 24 -31 31 -4 3 11 9 20 14 20 5 0 9 -9 9 -20 0
-11 6 -20 14 -20 14 0 26 31 25 65 0 16 -3 14 -13 -9 l-13 -29 -11 32 c-13 38
-18 39 -30 4z"/>
<path d="M3274 654 c14 -42 36 -57 36 -25 0 12 5 21 10 21 6 0 10 -9 10 -20 0
-36 27 -21 38 20 5 22 6 40 2 40 -4 0 -11 -12 -15 -27 l-7 -28 -10 28 c-5 15
-14 27 -19 27 -5 0 -12 -12 -16 -27 l-7 -28 -6 24 c-3 14 -11 26 -18 29 -8 2
-8 -6 2 -34z"/>
<path d="M3390 620 c0 -55 17 -69 22 -17 l3 32 18 -32 c25 -47 37 -41 36 20
-2 51 -2 51 -8 12 l-6 -40 -23 38 c-13 20 -28 37 -33 37 -5 0 -9 -22 -9 -50z"/>
<path d="M3550 650 c-10 -6 -11 -10 -2 -10 7 0 12 -14 12 -35 0 -19 5 -35 10
-35 6 0 10 20 10 45 0 46 -4 52 -30 35z"/>
<path d="M3498 603 c7 -3 16 -2 19 1 4 3 -2 6 -13 5 -11 0 -14 -3 -6 -6z"/>
<path d="M4203 670 l-9 -35 -7 28 c-4 15 -11 27 -16 27 -5 0 -4 -18 1 -40 12
-45 24 -51 38 -17 l9 22 7 -22 c9 -33 30 -28 38 8 9 48 6 57 -9 24 -8 -16 -14
-23 -15 -14 0 8 -6 24 -14 34 -13 19 -15 18 -23 -15z"/>
<path d="M4291 618 c2 -52 2 -52 8 -13 l6 40 23 -37 c13 -21 28 -38 33 -38 5
0 8 24 8 53 -2 51 -2 52 -8 12 l-7 -40 -23 38 c-13 20 -27 37 -32 37 -5 0 -8
-24 -8 -52z"/>
<path d="M1418 2540 c26 -11 28 -25 5 -39 -10 -6 -14 -11 -9 -11 16 0 76 24
76 30 0 4 -17 12 -39 18 -45 14 -66 15 -33 2z"/>
<path d="M5280 2302 c8 -5 26 -13 40 -16 17 -5 20 -4 10 2 -8 5 -26 13 -40 16
-17 5 -20 4 -10 -2z"/>
<path d="M5448 2303 c7 -3 16 -2 19 1 4 3 -2 6 -13 5 -11 0 -14 -3 -6 -6z"/>
<path d="M5398 2293 c6 -2 18 -2 25 0 6 3 1 5 -13 5 -14 0 -19 -2 -12 -5z"/>
<path d="M5503 2293 c9 -2 23 -2 30 0 6 3 -1 5 -18 5 -16 0 -22 -2 -12 -5z"/>
<path d="M5448 2283 c7 -3 16 -2 19 1 4 3 -2 6 -13 5 -11 0 -14 -3 -6 -6z"/>
<path d="M5558 2283 c6 -2 18 -2 25 0 6 3 1 5 -13 5 -14 0 -19 -2 -12 -5z"/>
<path d="M5618 2273 c7 -3 16 -2 19 1 4 3 -2 6 -13 5 -11 0 -14 -3 -6 -6z"/>
<path d="M5511 2266 c2 -2 22 -6 44 -9 28 -5 34 -4 20 3 -19 8 -73 14 -64 6z"/>
<path d="M5435 2246 c17 -7 41 -16 55 -20 20 -5 19 -3 -5 8 -16 7 -41 16 -55
20 -20 5 -19 3 5 -8z"/>
<path d="M5270 2246 c0 -2 14 -14 30 -26 17 -12 30 -19 30 -16 0 2 -13 14 -30
26 -16 12 -30 19 -30 16z"/>
<path d="M5340 2196 c0 -2 8 -10 18 -17 15 -13 16 -12 3 4 -13 16 -21 21 -21
13z"/>
<path d="M5380 2166 c0 -2 14 -14 30 -26 17 -12 30 -19 30 -16 0 2 -13 14 -30
26 -16 12 -30 19 -30 16z"/>
<path d="M1400 1600 c0 -6 7 -10 15 -10 8 0 15 2 15 4 0 2 -7 6 -15 10 -8 3
-15 1 -15 -4z"/>
<path d="M2577 1236 c-4 -10 -5 -21 -2 -24 9 -9 17 6 13 25 -3 17 -4 17 -11
-1z"/>
<path d="M7595 920 c17 -4 41 -8 55 -8 22 0 22 1 -5 8 -16 4 -41 8 -55 8 -22
0 -22 -1 5 -8z"/>
<path d="M6390 907 c0 -7 122 -48 127 -43 3 2 -20 12 -49 21 -29 10 -59 20
-65 23 -7 2 -13 2 -13 -1z"/>
<path d="M7055 901 c11 -4 38 -11 60 -14 25 -4 33 -4 20 2 -11 4 -38 11 -60
14 -25 4 -33 4 -20 -2z"/>
<path d="M7698 903 c7 -3 16 -2 19 1 4 3 -2 6 -13 5 -11 0 -14 -3 -6 -6z"/>
<path d="M7439 304 c0 -5 -1 -55 -2 -111 -2 -97 -1 -103 18 -103 12 0 16 3 9
8 -7 4 -11 46 -12 106 -1 54 -4 101 -7 104 -3 3 -5 1 -6 -4z"/>
<path d="M1110 224 l0 -76 -42 2 c-62 3 -65 2 -73 -17 -5 -15 -4 -16 6 -5 8 7
39 12 76 12 48 0 64 -4 72 -17 10 -17 10 -17 11 -1 0 9 -7 21 -16 26 -13 7
-15 23 -12 80 2 53 0 72 -9 72 -9 0 -13 -22 -13 -76z"/>
<path d="M5014 290 c-12 -5 -25 -14 -29 -20 -5 -8 -2 -9 11 -2 11 6 30 15 44
20 14 6 18 11 10 11 -8 0 -25 -4 -36 -9z"/>
<path d="M5368 224 l4 -76 -49 2 c-64 2 -73 1 -73 -7 0 -5 29 -6 65 -5 42 2
71 -1 80 -8 12 -10 15 -9 15 3 0 8 -7 18 -16 21 -13 5 -15 19 -12 76 2 42 -1
70 -7 70 -6 0 -9 -30 -7 -76z"/>
<path d="M6740 289 c0 -5 5 -7 10 -4 6 3 10 8 10 11 0 2 -4 4 -10 4 -5 0 -10
-5 -10 -11z"/>
<path d="M6798 226 c3 -65 1 -75 -15 -79 -10 -3 0 -5 22 -5 22 0 34 2 28 5 -9
3 -13 29 -13 79 0 52 -4 74 -12 74 -10 0 -12 -20 -10 -74z"/>
<path d="M6856 293 c5 -5 12 -12 16 -18 4 -6 8 -2 8 8 0 9 -7 17 -17 17 -9 0
-12 -3 -7 -7z"/>
<path d="M873 246 c7 -32 7 -60 0 -92 -8 -34 -8 -43 1 -34 14 14 14 146 0 160
-9 9 -9 0 -1 -34z"/>
<path d="M5123 246 c7 -32 7 -60 0 -92 -8 -34 -8 -43 1 -34 6 6 11 42 11 80 0
38 -5 74 -11 80 -9 9 -9 0 -1 -34z"/>
<path d="M1893 268 c2 -7 14 -13 27 -13 13 0 25 6 28 13 2 6 -1 12 -7 12 -6 0
-11 -4 -11 -10 0 -5 -7 -10 -16 -10 -8 0 -12 5 -9 10 3 6 1 10 -5 10 -7 0 -10
-6 -7 -12z"/>
<path d="M6143 268 c2 -7 14 -13 27 -13 13 0 25 6 28 13 2 6 -1 12 -7 12 -6 0
-11 -4 -11 -10 0 -5 -7 -10 -16 -10 -8 0 -12 5 -9 10 3 6 1 10 -5 10 -7 0 -10
-6 -7 -12z"/>
<path d="M6562 264 c10 -10 23 -14 37 -9 21 6 29 25 11 25 -5 0 -10 -4 -10
-10 0 -5 -7 -10 -15 -10 -8 0 -15 5 -15 10 0 6 -5 10 -12 10 -8 0 -7 -6 4 -16z"/>
<path d="M4971 213 c-1 -25 5 -48 15 -57 20 -20 30 -21 14 -1 -7 8 -10 30 -8
49 2 19 1 33 -3 30 -4 -2 -10 2 -12 8 -3 7 -6 -6 -6 -29z"/>
<path d="M5798 238 c-27 -22 -30 -53 -8 -79 20 -22 20 -22 11 -2 -15 31 -14
54 6 75 19 21 14 24 -9 6z"/>
<path d="M784 194 c1 -26 6 -49 12 -51 11 -4 6 78 -6 91 -5 4 -7 -13 -6 -40z"/>
<path d="M1188 190 c-2 -29 1 -50 7 -50 6 0 10 23 10 50 0 65 -12 65 -17 0z"/>
<path d="M1245 230 c4 -6 1 -18 -7 -27 -12 -15 -11 -15 9 -4 21 11 22 41 1 41
-5 0 -6 -5 -3 -10z"/>
<path d="M1305 223 c4 -10 12 -30 17 -45 5 -16 13 -28 18 -28 4 0 0 20 -9 45
-9 25 -20 45 -24 45 -5 0 -6 -8 -2 -17z"/>
<path d="M1370 229 c0 -5 5 -7 10 -4 6 3 10 8 10 11 0 2 -4 4 -10 4 -5 0 -10
-5 -10 -11z"/>
<path d="M1436 215 c8 -13 13 -29 9 -34 -3 -6 0 -8 9 -5 9 3 17 -2 21 -15 3
-12 13 -21 21 -21 9 0 1 17 -23 49 -39 51 -66 70 -37 26z"/>
<path d="M1480 229 c0 -5 5 -7 10 -4 6 3 10 8 10 11 0 2 -4 4 -10 4 -5 0 -10
-5 -10 -11z"/>
<path d="M1530 219 c-14 -26 -6 -65 16 -73 14 -5 15 -4 4 9 -8 9 -10 29 -7 50
7 40 3 44 -13 14z"/>
<path d="M1591 224 c0 -11 3 -14 6 -6 3 7 2 16 -1 19 -3 4 -6 -2 -5 -13z"/>
<path d="M1698 190 c-2 -39 0 -50 12 -50 12 0 14 11 12 50 -2 27 -8 50 -12 50
-4 0 -10 -23 -12 -50z"/>
<path d="M1762 228 c-17 -17 -15 -63 3 -78 9 -7 18 -10 22 -6 3 3 2 6 -4 6
-16 0 -25 48 -13 70 12 23 9 25 -8 8z"/>
<path d="M1827 207 c3 -20 2 -43 -3 -50 -5 -7 -1 -4 9 6 11 13 15 27 11 41
-11 38 -23 40 -17 3z"/>
<path d="M1878 190 c-2 -29 1 -50 7 -50 6 0 10 22 10 50 0 65 -12 65 -17 0z"/>
<path d="M1938 190 c-2 -39 0 -50 12 -50 12 0 14 11 12 50 -2 27 -8 50 -12 50
-4 0 -10 -23 -12 -50z"/>
<path d="M2005 190 c0 -27 5 -50 10 -50 6 0 9 21 7 50 -5 65 -17 65 -17 0z"/>
<path d="M2070 225 c-5 -60 -4 -85 5 -85 7 0 9 16 7 38 -5 53 -9 71 -12 47z"/>
<path d="M2180 193 c3 -25 10 -48 16 -50 11 -4 10 15 -2 75 -8 41 -20 22 -14
-25z"/>
<path d="M2243 225 c-3 -9 2 -21 11 -28 16 -11 15 -14 -4 -35 -14 -14 -16 -22
-8 -22 8 0 22 13 31 30 17 28 17 30 1 30 -11 0 -15 6 -11 20 6 23 -11 27 -20
5z"/>
<path d="M2310 225 c-5 -60 -4 -85 5 -85 7 0 9 16 7 38 -5 53 -9 71 -12 47z"/>
<path d="M2448 180 c3 -38 -1 -66 -8 -75 -10 -12 -9 -15 6 -15 17 0 19 7 16
75 -2 41 -7 75 -10 75 -4 0 -5 -27 -4 -60z"/>
<path d="M2508 228 c16 -16 15 -60 0 -78 -11 -12 -10 -12 4 -1 10 7 20 21 23
32 7 21 -10 59 -27 59 -9 0 -9 -3 0 -12z"/>
<path d="M2566 224 c-15 -39 0 -84 29 -84 5 0 4 4 -4 9 -17 11 -23 61 -9 78 7
9 7 13 0 13 -5 0 -13 -7 -16 -16z"/>
<path d="M2620 233 c0 -4 5 -15 10 -23 8 -13 10 -13 10 2 0 9 -4 20 -10 23 -5
3 -10 3 -10 -2z"/>
<path d="M2668 190 c-2 -35 1 -50 10 -50 6 0 12 12 12 26 0 31 20 28 35 -4 5
-12 17 -22 27 -22 14 0 13 4 -7 26 -14 15 -25 31 -25 35 0 5 -7 6 -15 3 -10
-4 -15 0 -15 15 0 43 -18 19 -22 -29z"/>
<path d="M2730 229 c0 -5 5 -7 10 -4 6 3 10 8 10 11 0 2 -4 4 -10 4 -5 0 -10
-5 -10 -11z"/>
<path d="M2812 189 c15 -34 24 -46 29 -37 5 7 4 14 -1 16 -5 2 -14 19 -20 38
-6 19 -15 34 -20 34 -5 0 1 -23 12 -51z"/>
<path d="M2915 165 c0 -67 2 -75 19 -75 13 0 16 3 8 13 -13 17 -14 108 0 124
8 10 6 13 -8 13 -17 0 -19 -8 -19 -75z"/>
<path d="M2990 215 c8 -22 7 -33 -5 -51 -16 -25 -8 -33 13 -12 17 17 15 63 -3
78 -14 11 -14 10 -5 -15z"/>
<path d="M3048 180 c3 -38 -1 -66 -8 -75 -10 -12 -9 -15 6 -15 17 0 19 7 16
75 -2 41 -7 75 -10 75 -4 0 -5 -27 -4 -60z"/>
<path d="M3108 228 c16 -16 15 -60 0 -78 -11 -12 -10 -12 4 -1 10 7 20 21 23
32 7 21 -10 59 -27 59 -9 0 -9 -3 0 -12z"/>
<path d="M3166 224 c-15 -39 0 -84 29 -84 5 0 4 4 -4 9 -17 11 -23 61 -9 78 7
9 7 13 0 13 -5 0 -13 -7 -16 -16z"/>
<path d="M3220 233 c0 -4 5 -15 10 -23 8 -13 10 -13 10 2 0 9 -4 20 -10 23 -5
3 -10 3 -10 -2z"/>
<path d="M3268 190 c-2 -39 0 -50 12 -50 12 0 14 11 12 50 -2 27 -8 50 -12 50
-4 0 -10 -23 -12 -50z"/>
<path d="M3335 190 c0 -27 5 -50 10 -50 6 0 9 21 7 50 -5 65 -17 65 -17 0z"/>
<path d="M3380 229 c0 -5 5 -7 10 -4 6 3 10 8 10 11 0 2 -4 4 -10 4 -5 0 -10
-5 -10 -11z"/>
<path d="M3428 205 c2 -19 -1 -42 -8 -50 -10 -12 -9 -15 6 -15 17 0 19 7 16
50 -2 27 -7 50 -11 50 -4 0 -5 -16 -3 -35z"/>
<path d="M3515 190 c0 -27 5 -50 10 -50 6 0 9 21 7 50 -5 65 -17 65 -17 0z"/>
<path d="M3580 225 c-5 -60 -4 -85 5 -85 7 0 9 16 7 38 -5 53 -9 71 -12 47z"/>
<path d="M3690 193 c3 -26 11 -48 18 -49 7 -1 8 0 2 3 -5 2 -10 22 -10 43 0
21 -4 41 -8 44 -4 2 -5 -16 -2 -41z"/>
<path d="M3753 224 c-4 -10 1 -20 11 -26 16 -9 16 -12 -5 -34 -16 -17 -18 -24
-8 -24 8 0 21 13 31 29 15 28 15 29 -4 34 -14 4 -19 11 -15 21 4 9 4 16 1 16
-2 0 -7 -7 -11 -16z"/>
<path d="M3815 190 c0 -27 5 -50 10 -50 6 0 9 21 7 50 -5 65 -17 65 -17 0z"/>
<path d="M3952 228 c-24 -24 -9 -88 21 -88 5 0 1 7 -7 16 -19 18 -20 38 -6 65
12 22 9 24 -8 7z"/>
<path d="M4003 225 c0 -8 4 -15 9 -15 4 0 8 4 8 9 0 6 -4 12 -8 15 -5 3 -9 -1
-9 -9z"/>
<path d="M4052 228 c-17 -17 -15 -63 3 -78 9 -7 18 -10 22 -6 3 3 1 6 -5 6
-15 0 -20 29 -11 63 9 31 8 32 -9 15z"/>
<path d="M4107 219 c4 -13 8 -18 11 -10 2 7 -1 18 -6 23 -8 8 -9 4 -5 -13z"/>
<path d="M4178 190 c-2 -29 1 -50 7 -50 6 0 10 23 10 50 0 65 -12 65 -17 0z"/>
<path d="M4226 225 c4 -8 8 -15 10 -15 2 0 4 7 4 15 0 8 -4 15 -10 15 -5 0 -7
-7 -4 -15z"/>
<path d="M4268 190 c-2 -29 1 -50 7 -50 6 0 10 23 10 50 0 65 -12 65 -17 0z"/>
<path d="M5048 206 c2 -20 -1 -43 -8 -51 -16 -20 -6 -19 14 1 19 19 20 44 3
68 -12 16 -13 14 -9 -18z"/>
<path d="M5438 190 c-2 -35 1 -50 10 -50 8 0 12 17 12 50 0 65 -17 65 -22 0z"/>
<path d="M5496 226 c3 -8 0 -17 -6 -21 -8 -5 -5 -11 7 -21 17 -13 17 -15 -1
-29 -18 -13 -18 -15 -3 -15 22 0 34 27 19 42 -8 8 -8 15 -1 24 11 14 4 34 -11
34 -5 0 -7 -6 -4 -14z"/>
<path d="M5555 223 c4 -10 12 -30 17 -45 5 -16 13 -28 18 -28 4 0 0 20 -9 45
-9 25 -20 45 -24 45 -5 0 -6 -8 -2 -17z"/>
<path d="M5620 229 c0 -5 5 -7 10 -4 6 3 10 8 10 11 0 2 -4 4 -10 4 -5 0 -10
-5 -10 -11z"/>
<path d="M5686 215 c8 -13 13 -29 9 -34 -3 -6 0 -8 9 -5 9 3 17 -2 21 -15 3
-12 13 -21 21 -21 9 0 1 17 -23 49 -39 51 -66 70 -37 26z"/>
<path d="M5730 229 c0 -5 5 -7 10 -4 6 3 10 8 10 11 0 2 -4 4 -10 4 -5 0 -10
-5 -10 -11z"/>
<path d="M5840 226 c0 -9 5 -16 10 -16 6 0 10 4 10 9 0 6 -4 13 -10 16 -5 3
-10 -1 -10 -9z"/>
<path d="M5948 190 c-2 -39 0 -50 12 -50 12 0 14 11 12 50 -2 27 -8 50 -12 50
-4 0 -10 -23 -12 -50z"/>
<path d="M6010 219 c-14 -26 -6 -65 16 -73 14 -5 15 -4 4 9 -7 8 -10 30 -8 50
5 41 3 43 -12 14z"/>
<path d="M6078 206 c2 -20 -1 -43 -8 -51 -16 -20 -6 -19 14 1 19 19 20 44 3
68 -12 16 -13 14 -9 -18z"/>
<path d="M6128 190 c-2 -29 1 -50 7 -50 6 0 10 22 10 50 0 65 -12 65 -17 0z"/>
<path d="M6188 190 c-2 -39 0 -50 12 -50 12 0 14 11 12 50 -2 27 -8 50 -12 50
-4 0 -10 -23 -12 -50z"/>
<path d="M6255 190 c0 -27 5 -50 10 -50 6 0 9 15 8 32 -1 18 -2 41 -2 51 -1 9
-4 17 -8 17 -5 0 -8 -22 -8 -50z"/>
<path d="M6318 190 c-2 -29 1 -50 7 -50 6 0 10 23 10 50 0 65 -12 65 -17 0z"/>
<path d="M6380 190 c0 -33 4 -50 13 -50 8 0 11 15 9 50 -5 65 -22 65 -22 0z"/>
<path d="M6485 190 c0 -27 5 -50 10 -50 6 0 9 21 7 50 -5 65 -17 65 -17 0z"/>
<path d="M6545 190 c0 -31 4 -50 12 -50 6 0 10 8 8 18 -2 9 -4 32 -4 50 -1 53
-16 36 -16 -18z"/>
<path d="M6608 190 c-2 -29 1 -50 7 -50 6 0 10 23 10 50 0 65 -12 65 -17 0z"/>
<path d="M6918 180 c3 -38 -1 -66 -8 -75 -10 -12 -9 -15 6 -15 17 0 19 7 16
75 -2 41 -7 75 -10 75 -4 0 -5 -27 -4 -60z"/>
<path d="M6978 228 c16 -16 15 -60 0 -78 -11 -12 -10 -12 4 -1 10 7 20 21 23
32 7 21 -10 59 -27 59 -9 0 -9 -3 0 -12z"/>
<path d="M7090 193 c3 -25 10 -48 16 -50 11 -4 10 15 -2 75 -8 41 -20 22 -14
-25z"/>
<path d="M7155 190 c0 -27 5 -50 10 -50 6 0 9 21 7 50 -5 65 -17 65 -17 0z"/>
<path d="M7220 225 c-5 -60 -4 -85 5 -85 7 0 9 16 7 38 -5 53 -9 71 -12 47z"/>
<path d="M7282 228 c-24 -24 -9 -88 21 -88 5 0 1 7 -7 16 -19 18 -20 38 -6 65
12 22 9 24 -8 7z"/>
<path d="M7333 225 c0 -8 4 -15 9 -15 4 0 8 4 8 9 0 6 -4 12 -8 15 -5 3 -9 -1
-9 -9z"/>
<path d="M7382 228 c-24 -24 -9 -88 20 -88 5 0 1 11 -8 25 -14 21 -15 31 -6
50 13 28 12 31 -6 13z"/>
<path d="M7500 221 c14 -27 13 -47 -6 -65 -8 -9 -11 -16 -5 -16 6 0 18 11 27
25 15 23 15 27 0 50 -19 29 -31 34 -16 6z"/>
<path d="M7550 220 c-13 -25 -6 -53 18 -72 15 -12 16 -11 3 5 -9 11 -12 30 -8
52 7 40 3 44 -13 15z"/>
<path d="M7618 198 c3 -27 0 -43 -9 -49 -10 -6 -10 -9 -2 -9 28 0 44 69 20 88
-10 8 -12 2 -9 -30z"/>
<path d="M7665 165 c0 -60 3 -75 15 -75 12 0 15 15 15 75 0 60 -3 75 -15 75
-12 0 -15 -15 -15 -75z"/>
<path d="M7740 221 c14 -27 13 -47 -6 -65 -8 -9 -12 -16 -7 -16 16 0 33 24 33
46 0 29 -10 54 -21 54 -6 0 -5 -8 1 -19z"/>
<path d="M7798 190 c-2 -30 1 -50 7 -50 6 0 10 16 8 38 l-3 37 20 -40 c11 -22
20 -34 20 -28 0 20 -31 93 -40 93 -4 0 -10 -23 -12 -50z"/>
<path d="M7885 190 c0 -27 5 -50 10 -50 6 0 9 21 7 50 -5 65 -17 65 -17 0z"/>
<path d="M7946 224 c-15 -39 0 -84 29 -84 5 0 4 4 -4 9 -17 11 -23 61 -9 78 7
9 7 13 0 13 -5 0 -13 -7 -16 -16z"/>
<path d="M8000 233 c0 -4 5 -15 10 -23 8 -13 10 -13 10 2 0 9 -4 20 -10 23 -5
3 -10 3 -10 -2z"/>
<path d="M8045 165 c0 -60 3 -75 15 -75 12 0 15 15 15 75 0 60 -3 75 -15 75
-12 0 -15 -15 -15 -75z"/>
<path d="M8120 221 c14 -27 13 -47 -6 -65 -8 -9 -12 -16 -7 -16 16 0 33 24 33
46 0 29 -10 54 -21 54 -6 0 -5 -8 1 -19z"/>
<path d="M730 220 c0 -5 5 -10 11 -10 5 0 7 5 4 10 -3 6 -8 10 -11 10 -2 0 -4
-4 -4 -10z"/>
<path d="M3630 220 c0 -5 5 -10 11 -10 5 0 7 5 4 10 -3 6 -8 10 -11 10 -2 0
-4 -4 -4 -10z"/>
<path d="M735 186 c-18 -13 -16 -46 4 -46 6 0 8 7 4 16 -4 11 1 22 12 30 10 8
14 14 9 14 -6 0 -19 -6 -29 -14z"/>
<path d="M2130 185 c-14 -16 -7 -45 11 -45 9 0 9 4 0 14 -10 11 -7 17 11 30
17 12 18 16 6 16 -8 0 -21 -7 -28 -15z"/>
<path d="M3642 188 c-15 -15 -16 -35 -2 -43 6 -4 7 1 3 11 -4 11 1 22 12 30
10 8 14 14 9 14 -6 0 -15 -5 -22 -12z"/>
<path d="M4320 193 c14 -7 13 -40 -2 -46 -7 -3 -8 -6 -3 -6 6 0 17 4 25 9 11
7 12 14 4 27 -6 9 -16 18 -22 19 -7 1 -8 0 -2 -3z"/>
<path d="M6440 186 c13 -16 12 -20 -5 -32 -14 -11 -15 -14 -4 -14 16 0 39 19
39 32 0 4 -10 13 -22 19 -21 11 -22 11 -8 -5z"/>
<path d="M7040 185 c-14 -16 -7 -45 11 -45 9 0 9 4 0 14 -10 11 -7 17 11 30
17 12 18 16 6 16 -8 0 -21 -7 -28 -15z"/>
<path d="M1250 171 c0 -12 -5 -21 -12 -21 -6 0 -9 -2 -6 -5 3 -3 13 -3 22 1
18 7 22 29 6 39 -5 3 -10 -3 -10 -14z"/>
<path d="M1415 150 c-3 -5 1 -10 10 -10 9 0 13 5 10 10 -3 6 -8 10 -10 10 -2
0 -7 -4 -10 -10z"/>
<path d="M1620 149 c0 -5 5 -7 10 -4 6 3 10 8 10 11 0 2 -4 4 -10 4 -5 0 -10
-5 -10 -11z"/>
<path d="M4380 150 c0 -5 5 -10 10 -10 6 0 10 5 10 10 0 6 -4 10 -10 10 -5 0
-10 -4 -10 -10z"/>
<path d="M5665 150 c-3 -5 1 -10 10 -10 9 0 13 5 10 10 -3 6 -8 10 -10 10 -2
0 -7 -4 -10 -10z"/>
<path d="M5870 149 c0 -5 5 -7 10 -4 6 3 10 8 10 11 0 2 -4 4 -10 4 -5 0 -10
-5 -10 -11z"/>
<path d="M8180 149 c0 -5 5 -7 10 -4 6 3 10 8 10 11 0 2 -4 4 -10 4 -5 0 -10
-5 -10 -11z"/>
</g>
</svg>
